<?xml version="1.0" encoding="UTF-8"?>
<svg version="1.1" xmlns="http://www.w3.org/2000/svg" width="512" height="512">
<path d="M0 0 C0.78173284 -0.00495952 1.56346568 -0.00991903 2.36888739 -0.01502883 C4.98625018 -0.02797387 7.60310189 -0.0196038 10.2204771 -0.01129913 C12.11680341 -0.01618855 14.01312673 -0.0223786 15.90944499 -0.02975702 C21.1190921 -0.0461732 26.32858805 -0.04383517 31.538252 -0.03838205 C37.1573419 -0.03571393 42.77639132 -0.0502396 48.3954649 -0.06247711 C59.40356719 -0.08354263 70.41161683 -0.08807131 81.4197369 -0.08628923 C90.36685993 -0.08498214 99.31396652 -0.08878303 108.26108646 -0.09621429 C110.83728542 -0.09831347 113.41348437 -0.10041107 115.98968333 -0.10250711 C117.27189211 -0.10355064 118.55410088 -0.10459417 119.87516447 -0.10566932 C137.23979957 -0.1192046 154.60442357 -0.12679495 171.96906281 -0.12234497 C172.64806423 -0.12217302 173.32706565 -0.12200106 174.02664288 -0.1218239 C177.46804014 -0.12093501 180.9094374 -0.1199902 184.35083465 -0.11902589 C185.03429854 -0.11883485 185.71776243 -0.11864382 186.42193735 -0.118447 C187.80406752 -0.11805991 189.18619768 -0.11766958 190.56832784 -0.11727602 C212.07210642 -0.1113066 233.57577736 -0.12674194 255.07953167 -0.15888214 C279.24345805 -0.19496776 303.40729504 -0.21424682 327.57125586 -0.20934343 C340.36392644 -0.20709794 353.15649033 -0.21235364 365.9491396 -0.23723602 C376.84024268 -0.25823926 387.73118057 -0.26185075 398.62229041 -0.24293643 C404.17899472 -0.23377261 409.73539095 -0.2326557 415.29207134 -0.25329208 C420.38055563 -0.27198066 425.46847904 -0.26752198 430.55694183 -0.24474627 C432.3960647 -0.2405552 434.23523039 -0.24477751 436.07430802 -0.25834221 C446.28523801 -0.32851681 455.49725692 -0.35286707 463.57369643 6.79035044 C470.36849245 14.19754195 470.41855447 21.81876263 470.37701702 31.34400177 C470.38310812 32.65374739 470.38919923 33.96349302 470.39547491 35.3129279 C470.41184842 38.93777609 470.40956184 42.56240642 470.40409994 46.18727863 C470.40142652 50.10083922 470.41596744 54.01434216 470.428195 57.92787933 C470.44923841 65.59116468 470.45379046 73.25437436 470.45200711 80.91768519 C470.45069887 87.14789604 470.4545068 93.37808331 470.46193218 99.60828972 C470.46403141 101.40372807 470.46612901 103.19916642 470.468225 104.99460477 C470.46979029 106.33512326 470.46979029 106.33512326 470.47138721 107.70272293 C470.49028538 124.60081909 470.48924075 141.49887182 470.48241788 158.39697417 C470.47684342 173.84807319 470.49766445 189.29900635 470.53077835 204.75006662 C470.56453076 220.62250498 470.5796817 236.49486392 470.57506132 252.36733884 C470.57281811 261.2755789 470.578038 270.1836657 470.60295391 279.09187508 C470.62398714 286.67638976 470.62753909 294.26066714 470.60865432 301.84519164 C470.59950863 305.712872 470.59831705 309.58011014 470.61900997 313.44775581 C470.64122236 317.64593604 470.62447328 321.84307814 470.6040678 326.0412674 C470.61658565 327.25635855 470.6291035 328.4714497 470.64200068 329.72336179 C470.55701235 337.88548809 469.07231715 344.69919687 463.57536745 350.99481183 C457.91254453 356.10992773 451.96488212 357.75501519 444.53511333 357.78183746 C443.81859425 357.78848429 443.10207517 357.79513112 442.36384338 357.80197936 C439.98083939 357.82052091 437.5983414 357.81801015 435.21527386 357.81548309 C433.49997027 357.82450568 431.78467312 357.83483412 430.06938457 357.84636688 C425.42530198 357.87390467 420.78134185 357.88321703 416.1371882 357.88922095 C411.27912926 357.89861299 406.42116149 357.92481707 401.56315899 357.94922638 C392.36942511 357.9928722 383.17570893 358.02143096 373.98190302 358.04454976 C363.51272169 358.07161169 353.04363216 358.11552261 342.57451642 358.16083848 C321.04392962 358.25365732 299.51331536 358.32535073 277.98260784 358.38311005 C278.83886509 360.09169693 278.83886509 360.09169693 279.71242046 361.83480072 C281.86273163 366.12626256 284.01164639 370.41842244 286.16017437 374.71077728 C287.08413986 376.55621874 288.0084666 378.40147939 288.93318462 380.24654388 C295.48811201 393.32622126 301.95316177 406.43825177 308.17669964 419.67949677 C308.7640333 420.92106425 309.36836837 422.1546311 309.98260784 423.38311005 C311.28407757 423.39245575 312.58554729 423.40180145 313.9264555 423.41143036 C318.76859679 423.45139052 323.61010677 423.51716662 328.45184612 423.59062958 C330.5448624 423.61880417 332.63798438 423.64003614 334.731143 423.65410614 C337.74520121 423.67558399 340.75799321 423.72225992 343.77167034 423.77373505 C344.70314892 423.77496368 345.63462749 423.77619232 346.5943327 423.77745819 C352.2159553 423.90335908 355.53644099 424.61170727 359.98260784 428.38311005 C364.81367561 433.86702481 365.33285527 437.18850404 365.26385784 444.39873505 C364.7641506 449.70118413 362.23183735 452.25575659 358.42010784 455.69561005 C355.05915803 458.02242145 352.52740586 458.50831741 348.54126644 458.51733112 C347.62696055 458.52178897 346.71265465 458.52624681 345.77064252 458.53083974 C344.76472743 458.53065538 343.75881234 458.53047102 342.72241497 458.53028107 C341.65489994 458.53395775 340.58738491 458.53763444 339.48752093 458.54142255 C335.89245396 458.55247988 332.29741586 458.55630669 328.7023344 458.560112 C326.13200062 458.56637505 323.56166774 458.5730217 320.99133587 458.58002472 C313.26538654 458.59978561 305.53943591 458.60985461 297.81346762 458.61875251 C294.1752642 458.6231358 290.53706224 458.62850249 286.89885998 458.63374138 C274.80498462 458.65075287 262.71111018 458.6652473 250.61722469 458.67249012 C247.47892792 458.67440001 244.34063115 458.67632035 241.2023344 458.67827606 C240.42232601 458.6787598 239.64231762 458.67924354 238.83867261 458.67974194 C226.20148775 458.68804324 213.56439752 458.71338216 200.92725399 458.74585674 C187.95345094 458.77892472 174.97969598 458.79693862 162.00585055 458.80013436 C154.72129209 458.80229965 147.43687164 458.81105096 140.15235424 458.83659554 C133.30038305 458.86056783 126.4486641 458.86412985 119.59665966 458.85383415 C117.08077449 458.85333746 114.5648773 458.85969693 112.04902935 458.8733902 C108.61596475 458.89103131 105.18379987 458.88404035 101.75073528 458.87085724 C100.25524698 458.88731111 100.25524698 458.88731111 98.72954679 458.90409738 C92.60451413 458.84726148 88.99106868 457.97450525 83.98260784 454.38311005 C79.0949435 448.98095472 78.63286436 445.52505388 78.70135784 438.36748505 C79.2032276 433.04208929 81.7364616 430.48090554 85.60760784 427.07061005 C88.770696 424.82315267 90.4300635 424.25416093 94.24872112 424.17778778 C95.12948315 424.15784256 96.01024517 424.13789734 96.91769695 424.11734772 C98.34588253 424.09227898 98.34588253 424.09227898 99.80292034 424.0667038 C100.77671642 424.0459227 101.7505125 424.0251416 102.75381756 424.00373077 C105.87167431 423.93822407 108.98961688 423.87934508 112.10760784 423.82061005 C114.21829388 423.7774259 116.32897117 423.73381164 118.43963909 423.68975067 C123.62053735 423.58254158 128.80152141 423.48077727 133.98260784 423.38311005 C140.79401863 409.8663852 147.5620555 396.33724424 154.02679729 382.65044403 C156.6672599 377.07438044 159.38858648 371.54335332 162.15326214 366.02812958 C162.52250553 365.29062973 162.89174892 364.55312988 163.27218151 363.79328156 C164.17525558 361.98969002 165.07887587 360.18637201 165.98260784 358.38311005 C165.09507635 358.38256528 164.20754486 358.38202051 163.29311848 358.38145924 C141.67543237 358.36647752 120.05795218 358.32397437 98.44038105 358.25101948 C87.9861713 358.21639901 77.53209302 358.19101781 67.07782269 358.18755341 C57.96351587 358.18450942 48.84944335 358.16396055 39.73522699 358.12258548 C34.91138918 358.10129324 30.08788416 358.08863545 25.26399899 358.09695625 C20.71824588 358.1045203 16.17316575 358.08857837 11.62753582 358.0550499 C9.96437214 358.04684491 8.30114118 358.04703317 6.63798428 358.05651283 C-3.16292705 358.10681985 -11.87045017 357.79911785 -19.61438274 350.97601795 C-26.39471108 343.55130504 -26.45338012 335.95693522 -26.41180134 326.42221832 C-26.41789244 325.1124727 -26.42398355 323.80272708 -26.43025923 322.45329219 C-26.44663274 318.828444 -26.44434615 315.20381367 -26.43888426 311.57894146 C-26.43621084 307.66538087 -26.45075176 303.75187794 -26.46297932 299.83834076 C-26.48402272 292.17505541 -26.48857478 284.51184573 -26.48679143 276.8485349 C-26.48548319 270.61832405 -26.48929111 264.38813679 -26.4967165 258.15793037 C-26.49881573 256.36249203 -26.50091333 254.56705368 -26.50300932 252.77161533 C-26.50405285 251.87793633 -26.50509637 250.98425734 -26.50617152 250.06349716 C-26.52506969 233.16540101 -26.52402507 216.26734827 -26.5172022 199.36924592 C-26.51162774 183.9181469 -26.53244877 168.46721374 -26.56556267 153.01615348 C-26.59931508 137.14371512 -26.61446602 121.27135617 -26.60984564 105.39888126 C-26.60760243 96.49064119 -26.61282232 87.58255439 -26.63773823 78.67434502 C-26.65877146 71.08983033 -26.66232341 63.50555295 -26.64343864 55.92102846 C-26.63429295 52.0533481 -26.63310137 48.18610995 -26.65379429 44.31846428 C-26.67600667 40.12028405 -26.6592576 35.92314195 -26.63885212 31.7249527 C-26.65136997 30.50986155 -26.66388782 29.2947704 -26.67678499 28.0428583 C-26.59179667 19.880732 -25.10710147 13.06702322 -19.61015177 6.77140826 C-13.79125109 1.51531041 -7.61526428 -0.06854844 0 0 Z " fill="#C8EFFE" transform="translate(34.0173921585083,26.61688995361328)"/>
<path d="M0 0 C0.78173284 -0.00495952 1.56346568 -0.00991903 2.36888739 -0.01502883 C4.98625018 -0.02797387 7.60310189 -0.0196038 10.2204771 -0.01129913 C12.11680341 -0.01618855 14.01312673 -0.0223786 15.90944499 -0.02975702 C21.1190921 -0.0461732 26.32858805 -0.04383517 31.538252 -0.03838205 C37.1573419 -0.03571393 42.77639132 -0.0502396 48.3954649 -0.06247711 C59.40356719 -0.08354263 70.41161683 -0.08807131 81.4197369 -0.08628923 C90.36685993 -0.08498214 99.31396652 -0.08878303 108.26108646 -0.09621429 C110.83728542 -0.09831347 113.41348437 -0.10041107 115.98968333 -0.10250711 C117.27189211 -0.10355064 118.55410088 -0.10459417 119.87516447 -0.10566932 C137.23979957 -0.1192046 154.60442357 -0.12679495 171.96906281 -0.12234497 C172.64806423 -0.12217302 173.32706565 -0.12200106 174.02664288 -0.1218239 C177.46804014 -0.12093501 180.9094374 -0.1199902 184.35083465 -0.11902589 C185.03429854 -0.11883485 185.71776243 -0.11864382 186.42193735 -0.118447 C187.80406752 -0.11805991 189.18619768 -0.11766958 190.56832784 -0.11727602 C212.07210642 -0.1113066 233.57577736 -0.12674194 255.07953167 -0.15888214 C279.24345805 -0.19496776 303.40729504 -0.21424682 327.57125586 -0.20934343 C340.36392644 -0.20709794 353.15649033 -0.21235364 365.9491396 -0.23723602 C376.84024268 -0.25823926 387.73118057 -0.26185075 398.62229041 -0.24293643 C404.17899472 -0.23377261 409.73539095 -0.2326557 415.29207134 -0.25329208 C420.38055563 -0.27198066 425.46847904 -0.26752198 430.55694183 -0.24474627 C432.3960647 -0.2405552 434.23523039 -0.24477751 436.07430802 -0.25834221 C446.28523801 -0.32851681 455.49725692 -0.35286707 463.57369643 6.79035044 C470.36849245 14.19754195 470.41855447 21.81876263 470.37701702 31.34400177 C470.38310812 32.65374739 470.38919923 33.96349302 470.39547491 35.3129279 C470.41184842 38.93777609 470.40956184 42.56240642 470.40409994 46.18727863 C470.40142652 50.10083922 470.41596744 54.01434216 470.428195 57.92787933 C470.44923841 65.59116468 470.45379046 73.25437436 470.45200711 80.91768519 C470.45069887 87.14789604 470.4545068 93.37808331 470.46193218 99.60828972 C470.46403141 101.40372807 470.46612901 103.19916642 470.468225 104.99460477 C470.46979029 106.33512326 470.46979029 106.33512326 470.47138721 107.70272293 C470.49028538 124.60081909 470.48924075 141.49887182 470.48241788 158.39697417 C470.47684342 173.84807319 470.49766445 189.29900635 470.53077835 204.75006662 C470.56453076 220.62250498 470.5796817 236.49486392 470.57506132 252.36733884 C470.57281811 261.2755789 470.578038 270.1836657 470.60295391 279.09187508 C470.62398714 286.67638976 470.62753909 294.26066714 470.60865432 301.84519164 C470.59950863 305.712872 470.59831705 309.58011014 470.61900997 313.44775581 C470.64122236 317.64593604 470.62447328 321.84307814 470.6040678 326.0412674 C470.61658565 327.25635855 470.6291035 328.4714497 470.64200068 329.72336179 C470.55701235 337.88548809 469.07231715 344.69919687 463.57536745 350.99481183 C457.91254453 356.10992773 451.96488212 357.75501519 444.53511333 357.78183746 C443.81859425 357.78848429 443.10207517 357.79513112 442.36384338 357.80197936 C439.98083939 357.82052091 437.5983414 357.81801015 435.21527386 357.81548309 C433.49997027 357.82450568 431.78467312 357.83483412 430.06938457 357.84636688 C425.42530198 357.87390467 420.78134185 357.88321703 416.1371882 357.88922095 C411.27912926 357.89861299 406.42116149 357.92481707 401.56315899 357.94922638 C392.36942511 357.9928722 383.17570893 358.02143096 373.98190302 358.04454976 C363.51272169 358.07161169 353.04363216 358.11552261 342.57451642 358.16083848 C321.04392962 358.25365732 299.51331536 358.32535073 277.98260784 358.38311005 C278.83886509 360.09169693 278.83886509 360.09169693 279.71242046 361.83480072 C281.86273163 366.12626256 284.01164639 370.41842244 286.16017437 374.71077728 C287.08413986 376.55621874 288.0084666 378.40147939 288.93318462 380.24654388 C295.48811201 393.32622126 301.95316177 406.43825177 308.17669964 419.67949677 C308.7640333 420.92106425 309.36836837 422.1546311 309.98260784 423.38311005 C311.28407757 423.39245575 312.58554729 423.40180145 313.9264555 423.41143036 C318.76859679 423.45139052 323.61010677 423.51716662 328.45184612 423.59062958 C330.5448624 423.61880417 332.63798438 423.64003614 334.731143 423.65410614 C337.74520121 423.67558399 340.75799321 423.72225992 343.77167034 423.77373505 C344.70314892 423.77496368 345.63462749 423.77619232 346.5943327 423.77745819 C352.2159553 423.90335908 355.53644099 424.61170727 359.98260784 428.38311005 C364.81367561 433.86702481 365.33285527 437.18850404 365.26385784 444.39873505 C364.7641506 449.70118413 362.23183735 452.25575659 358.42010784 455.69561005 C355.05915803 458.02242145 352.52740586 458.50831741 348.54126644 458.51733112 C347.62696055 458.52178897 346.71265465 458.52624681 345.77064252 458.53083974 C344.76472743 458.53065538 343.75881234 458.53047102 342.72241497 458.53028107 C341.65489994 458.53395775 340.58738491 458.53763444 339.48752093 458.54142255 C335.89245396 458.55247988 332.29741586 458.55630669 328.7023344 458.560112 C326.13200062 458.56637505 323.56166774 458.5730217 320.99133587 458.58002472 C313.26538654 458.59978561 305.53943591 458.60985461 297.81346762 458.61875251 C294.1752642 458.6231358 290.53706224 458.62850249 286.89885998 458.63374138 C274.80498462 458.65075287 262.71111018 458.6652473 250.61722469 458.67249012 C247.47892792 458.67440001 244.34063115 458.67632035 241.2023344 458.67827606 C240.42232601 458.6787598 239.64231762 458.67924354 238.83867261 458.67974194 C226.20148775 458.68804324 213.56439752 458.71338216 200.92725399 458.74585674 C187.95345094 458.77892472 174.97969598 458.79693862 162.00585055 458.80013436 C154.72129209 458.80229965 147.43687164 458.81105096 140.15235424 458.83659554 C133.30038305 458.86056783 126.4486641 458.86412985 119.59665966 458.85383415 C117.08077449 458.85333746 114.5648773 458.85969693 112.04902935 458.8733902 C108.61596475 458.89103131 105.18379987 458.88404035 101.75073528 458.87085724 C100.25524698 458.88731111 100.25524698 458.88731111 98.72954679 458.90409738 C92.60451413 458.84726148 88.99106868 457.97450525 83.98260784 454.38311005 C79.0949435 448.98095472 78.63286436 445.52505388 78.70135784 438.36748505 C79.2032276 433.04208929 81.7364616 430.48090554 85.60760784 427.07061005 C88.770696 424.82315267 90.4300635 424.25416093 94.24872112 424.17778778 C95.12948315 424.15784256 96.01024517 424.13789734 96.91769695 424.11734772 C98.34588253 424.09227898 98.34588253 424.09227898 99.80292034 424.0667038 C100.77671642 424.0459227 101.7505125 424.0251416 102.75381756 424.00373077 C105.87167431 423.93822407 108.98961688 423.87934508 112.10760784 423.82061005 C114.21829388 423.7774259 116.32897117 423.73381164 118.43963909 423.68975067 C123.62053735 423.58254158 128.80152141 423.48077727 133.98260784 423.38311005 C140.79401863 409.8663852 147.5620555 396.33724424 154.02679729 382.65044403 C156.6672599 377.07438044 159.38858648 371.54335332 162.15326214 366.02812958 C162.52250553 365.29062973 162.89174892 364.55312988 163.27218151 363.79328156 C164.17525558 361.98969002 165.07887587 360.18637201 165.98260784 358.38311005 C165.09507635 358.38256528 164.20754486 358.38202051 163.29311848 358.38145924 C141.67543237 358.36647752 120.05795218 358.32397437 98.44038105 358.25101948 C87.9861713 358.21639901 77.53209302 358.19101781 67.07782269 358.18755341 C57.96351587 358.18450942 48.84944335 358.16396055 39.73522699 358.12258548 C34.91138918 358.10129324 30.08788416 358.08863545 25.26399899 358.09695625 C20.71824588 358.1045203 16.17316575 358.08857837 11.62753582 358.0550499 C9.96437214 358.04684491 8.30114118 358.04703317 6.63798428 358.05651283 C-3.16292705 358.10681985 -11.87045017 357.79911785 -19.61438274 350.97601795 C-26.39471108 343.55130504 -26.45338012 335.95693522 -26.41180134 326.42221832 C-26.41789244 325.1124727 -26.42398355 323.80272708 -26.43025923 322.45329219 C-26.44663274 318.828444 -26.44434615 315.20381367 -26.43888426 311.57894146 C-26.43621084 307.66538087 -26.45075176 303.75187794 -26.46297932 299.83834076 C-26.48402272 292.17505541 -26.48857478 284.51184573 -26.48679143 276.8485349 C-26.48548319 270.61832405 -26.48929111 264.38813679 -26.4967165 258.15793037 C-26.49881573 256.36249203 -26.50091333 254.56705368 -26.50300932 252.77161533 C-26.50405285 251.87793633 -26.50509637 250.98425734 -26.50617152 250.06349716 C-26.52506969 233.16540101 -26.52402507 216.26734827 -26.5172022 199.36924592 C-26.51162774 183.9181469 -26.53244877 168.46721374 -26.56556267 153.01615348 C-26.59931508 137.14371512 -26.61446602 121.27135617 -26.60984564 105.39888126 C-26.60760243 96.49064119 -26.61282232 87.58255439 -26.63773823 78.67434502 C-26.65877146 71.08983033 -26.66232341 63.50555295 -26.64343864 55.92102846 C-26.63429295 52.0533481 -26.63310137 48.18610995 -26.65379429 44.31846428 C-26.67600667 40.12028405 -26.6592576 35.92314195 -26.63885212 31.7249527 C-26.65136997 30.50986155 -26.66388782 29.2947704 -26.67678499 28.0428583 C-26.59179667 19.880732 -25.10710147 13.06702322 -19.61015177 6.77140826 C-13.79125109 1.51531041 -7.61526428 -0.06854844 0 0 Z M4.98260784 31.38311005 C4.98260784 128.73311005 4.98260784 226.08311005 4.98260784 326.38311005 C148.20260784 326.38311005 291.42260784 326.38311005 438.98260784 326.38311005 C438.98260784 229.03311005 438.98260784 131.68311005 438.98260784 31.38311005 C295.76260784 31.38311005 152.54260784 31.38311005 4.98260784 31.38311005 Z " fill="#2891F9" transform="translate(34.0173921585083,26.61688995361328)"/>
<path d="M0 0 C33.99 0 67.98 0 103 0 C100 23 100 23 98 32 C98.99 32 99.98 32 101 32 C101 43.88 101 55.76 101 68 C96.05 68.99 96.05 68.99 91 70 C83.77147592 73.72056387 79.23312606 78.20368569 75.125 85.1875 C72.72538766 93.31951958 72.92722674 102.4284685 77 110 C81.38667411 116.36376667 86.33005115 121.22367749 94 123 C105.03239309 124.31668008 112.66675534 121.5999468 122 116 C129.92 123.92 137.84 131.84 146 140 C141.55190092 148.89619816 130.21073803 153.87615526 121.16796875 157.0703125 C116.49960319 158.44031374 111.81882569 159.35298332 107 160 C109.64948742 169.74109416 112.3647886 179.44139506 115.4753418 189.046875 C117 193.79816398 117 193.79816398 117 196 C118.02480469 195.95359375 119.04960937 195.9071875 120.10546875 195.859375 C121.46611656 195.82183989 122.82679605 195.78544159 124.1875 195.75 C124.86103516 195.71648437 125.53457031 195.68296875 126.22851562 195.6484375 C129.84935521 195.57778697 131.82863149 195.89255103 134.921875 197.83203125 C137.5869568 200.61233275 138.07839439 202.15867491 138 206 C136.6875 208.75 136.6875 208.75 134 211 C130.7025413 211.99594605 127.41316626 212.5635837 124 213 C126.67918718 220.59290146 126.67918718 220.59290146 132.1875 226.0625 C133.115625 226.371875 134.04375 226.68125 135 227 C135.66 227.66 136.32 228.32 137 229 C136.88022441 230.64990877 136.70263366 232.29570685 136.5 233.9375 C136.26766942 253.47650182 156.94611736 277.2949605 168.5234375 292.05078125 C170 294 170 294 170 295 C113.9 295 57.8 295 0 295 C0 197.65 0 100.3 0 0 Z " fill="#99E6FC" transform="translate(39,58)"/>
<path d="M0 0 C42.76155554 -0.11446345 85.52309339 -0.20255807 128.28477179 -0.25532665 C133.33405384 -0.26158012 138.38333559 -0.26805174 143.43261719 -0.2746582 C144.43783126 -0.27596976 145.44304534 -0.27728131 146.47872044 -0.2786326 C162.75149208 -0.30038461 179.02417532 -0.33980503 195.29689454 -0.38576398 C211.99626056 -0.43253429 228.69558032 -0.46029662 245.39500916 -0.47044247 C255.69811466 -0.47730043 266.00097032 -0.49895463 276.3039989 -0.53958233 C283.37076227 -0.56602776 290.43739662 -0.57399691 297.50420587 -0.56750689 C301.58045241 -0.56430679 305.65626261 -0.56918558 309.73243141 -0.59602737 C313.46857289 -0.62044981 317.20398669 -0.62153021 320.94016244 -0.60449447 C322.92310185 -0.60139832 324.90603333 -0.62288284 326.88884723 -0.64540654 C335.24563131 -0.57571918 342.15885363 0.76605075 348.60914505 6.40731925 C355.36028612 13.8665603 355.43606848 21.40771098 355.39440918 30.96089172 C355.40050028 32.27063735 355.40659139 33.58038297 355.41286707 34.92981786 C355.42924058 38.55466605 355.426954 42.17929638 355.4214921 45.80416858 C355.41881868 49.71772917 355.4333596 53.63123211 355.44558716 57.54476929 C355.46663056 65.20805464 355.47118262 72.87126431 355.46939927 80.53457514 C355.46809103 86.76478599 355.47189896 92.99497326 355.47932434 99.22517967 C355.48142357 101.02061802 355.48352117 102.81605637 355.48561716 104.61149472 C355.48718245 105.95201321 355.48718245 105.95201321 355.48877937 107.31961288 C355.50767753 124.21770904 355.50663291 141.11576178 355.49981004 158.01386412 C355.49423558 173.46496314 355.51505661 188.91589631 355.54817051 204.36695657 C355.58192292 220.23939493 355.59707386 236.11175388 355.59245348 251.98422879 C355.59021027 260.89246886 355.59543016 269.80055565 355.62034607 278.70876503 C355.6413793 286.29327971 355.64493125 293.87755709 355.62604648 301.46208159 C355.61690079 305.32976195 355.61570921 309.1970001 355.63640213 313.06464577 C355.65861451 317.26282599 355.64186544 321.45996809 355.62145996 325.65815735 C355.63397781 326.8732485 355.64649566 328.08833965 355.65939283 329.34025174 C355.57440451 337.50237805 354.08970931 344.31608683 348.59275961 350.61170179 C343.20711188 355.47645082 337.16770731 357.37633146 330.03941345 357.36749268 C329.0410607 357.37239594 329.0410607 357.37239594 328.0225392 357.37739825 C325.80767619 357.38463726 323.59348403 357.37055777 321.37866211 357.35644531 C319.78006885 357.35723732 318.18147579 357.35933805 316.58288574 357.36264038 C312.22893692 357.36778037 307.8752244 357.3541897 303.52131343 357.33711338 C298.87998394 357.32190985 294.23865552 357.32324601 289.5973053 357.32244873 C281.72767233 357.31874651 273.85812593 357.30379408 265.98852539 357.28125 C258.08161599 357.25863262 250.17476355 357.24413053 242.26782227 357.24023438 C240.83586881 357.23949582 240.83586881 357.23949582 239.37498701 357.23874235 C237.45115964 357.23777964 235.52733227 357.2368296 233.6035049 357.2358923 C221.1189621 357.22932135 208.63464004 357.2142915 196.15023804 357.15124512 C195.20306219 357.14646196 194.25588634 357.1416788 193.2800082 357.1367507 C189.4697925 357.11716726 185.65957986 357.09720094 181.84937358 357.07585812 C170.44597137 357.01286554 159.04476385 356.99908623 147.64135426 357.06710076 C140.29570123 357.11008948 132.95048615 357.120994 125.60472041 357.10767341 C121.31930138 357.10162154 117.03557789 357.11284549 112.75047112 357.16770172 C108.79867503 357.2181597 104.8495377 357.22240131 100.89756846 357.1911726 C99.46479862 357.18812866 98.03186839 357.20204499 96.59947133 357.23486805 C85.88939358 357.46736105 85.88939358 357.46736105 81.20449638 353.82892609 C78.91892835 351.32063264 76.94052962 348.78010874 75 346 C73.96090034 344.71655564 72.91479332 343.43867767 71.85546875 342.171875 C70.96245014 341.03414111 70.07299516 339.89359913 69.1875 338.75 C68.73697266 338.17765625 68.28644531 337.6053125 67.82226562 337.015625 C65.01944061 333.4253979 62.54502106 329.81753159 60 326 C147.12 326 234.24 326 324 326 C324 228.65 324 131.3 324 31 C214.77 31 105.54 31 -7 31 C-5.72835985 23.37015909 -4.4117493 16.15097856 -2.375 8.75 C-2.14554688 7.89792969 -1.91609375 7.04585937 -1.6796875 6.16796875 C-1.12489072 4.11059736 -0.56321321 2.05508331 0 0 Z " fill="#44A2FE" transform="translate(149,27)"/>
<path d="M0 0 C0.91989834 -0.00445784 1.83979667 -0.00891569 2.78757071 -0.01350862 C3.80486266 -0.01332426 4.82215461 -0.01313989 5.87027359 -0.01294994 C7.48357351 -0.01846498 7.48357351 -0.01846498 9.12946534 -0.02409142 C12.7576114 -0.03516356 16.38572886 -0.03897806 20.01388931 -0.04278088 C22.60540229 -0.04904283 25.19691437 -0.05568938 27.78842545 -0.0626936 C35.58301171 -0.08246818 43.37759929 -0.09252564 51.17220438 -0.10142139 C54.84142096 -0.10580281 58.51063609 -0.11117001 62.17985153 -0.11641026 C74.37491303 -0.13342381 86.56997362 -0.1479183 98.76504517 -0.155159 C101.93067552 -0.15706894 105.09630586 -0.15898927 108.26193619 -0.16094494 C109.44216234 -0.16167055 109.44216234 -0.16167055 110.64623144 -0.16241082 C123.39408599 -0.17071231 136.14184674 -0.19605063 148.88966033 -0.22852562 C161.97303809 -0.26158412 175.05636816 -0.27960667 188.13978791 -0.28280324 C195.48748606 -0.2849695 202.83504744 -0.293735 210.18270493 -0.31926441 C217.093755 -0.34322111 224.00455499 -0.34680467 230.91563797 -0.33650303 C233.45451805 -0.33600597 235.99341 -0.34237608 238.53225327 -0.35605907 C241.99418331 -0.37367541 245.45521891 -0.36672154 248.91714859 -0.35352612 C250.42970218 -0.36997998 250.42970218 -0.36997998 251.97281241 -0.38676625 C257.71585617 -0.33379529 261.12435515 0.23310581 265.64767838 4.13422108 C270.47874614 9.61813584 270.9979258 12.93961507 270.92892838 20.14984608 C270.42922113 25.45229516 267.89690788 28.00686762 264.08517838 31.44672108 C260.72422857 33.77353248 258.1924764 34.25942844 254.20633698 34.26844215 C253.29203108 34.2729 252.37772519 34.27735784 251.43571305 34.28195077 C250.42979796 34.28176641 249.42388287 34.28158205 248.3874855 34.2813921 C247.31997047 34.28506879 246.25245544 34.28874547 245.15259147 34.29253358 C241.55752449 34.30359091 237.96248639 34.30741772 234.36740494 34.31122303 C231.79707115 34.31748608 229.22673828 34.32413273 226.6564064 34.33113575 C218.93045707 34.35089664 211.20450644 34.36096564 203.47853816 34.36986354 C199.84033474 34.37424683 196.20213278 34.37961352 192.56393051 34.38485241 C180.47005516 34.4018639 168.37618071 34.41635833 156.28229523 34.42360115 C153.14399845 34.42551104 150.00570168 34.42743138 146.86740494 34.42938709 C146.08739655 34.42987083 145.30738815 34.43035457 144.50374314 34.43085297 C131.86655829 34.43915427 119.22946806 34.46449319 106.59232453 34.49696777 C93.61852147 34.53003575 80.64476651 34.54804965 67.67092109 34.55124539 C60.38636262 34.55341068 53.10194217 34.56216199 45.81742477 34.58770657 C38.96545358 34.61167886 32.11373464 34.61524088 25.26173019 34.60494518 C22.74584503 34.60444849 20.22994783 34.61080796 17.71409988 34.62450123 C14.28103528 34.64214234 10.84887041 34.63515138 7.41580582 34.62196827 C6.41881361 34.63293752 5.42182141 34.64390676 4.39461732 34.65520841 C-1.73041533 34.59837251 -5.34386079 33.72561628 -10.35232162 30.13422108 C-15.23998597 24.73206575 -15.70206511 21.27616491 -15.63357162 14.11859608 C-15.13170187 8.79320032 -12.59846786 6.23201657 -8.72732162 2.82172108 C-5.50874334 0.53483651 -3.88778755 0.00871423 0 0 Z " fill="#2790F9" transform="translate(128.35232162475586,450.86577892303467)"/>
<path d="M0 0 C0.85758911 -0.00315216 1.71517822 -0.00630432 2.59875488 -0.009552 C3.53102905 -0.00752777 4.46330322 -0.00550354 5.42382812 -0.00341797 C6.84979309 -0.00485306 6.84979309 -0.00485306 8.30456543 -0.00631714 C10.31876695 -0.00699904 12.33297065 -0.00514409 14.34716797 -0.00097656 C17.44178167 0.00437155 20.53625022 -0.00092124 23.63085938 -0.00732422 C25.58268261 -0.00666344 27.53450576 -0.00538228 29.48632812 -0.00341797 C30.88473938 -0.00645432 30.88473938 -0.00645432 32.31140137 -0.009552 C33.16899048 -0.00639984 34.02657959 -0.00324768 34.91015625 0 C35.66880981 0.00079559 36.42746338 0.00159119 37.20910645 0.00241089 C38.95507812 0.12939453 38.95507812 0.12939453 39.95507812 1.12939453 C40.05439821 3.43066041 40.08140275 5.73504409 40.08206177 8.03845215 C40.08362176 8.76955688 40.08518175 9.50066161 40.08678901 10.25392103 C40.09080164 12.72219787 40.08760837 15.19041402 40.08447266 17.65869141 C40.08582658 19.42074113 40.08760646 21.18279058 40.08978271 22.94483948 C40.0943581 27.74428813 40.09256706 32.54371539 40.08940363 37.34316444 C40.08688057 42.3542245 40.08921742 47.36528265 40.09078979 52.37634277 C40.09261165 60.79321625 40.09020477 69.21008097 40.08544922 77.62695312 C40.08000657 87.37277602 40.08176921 97.118578 40.08727562 106.86440039 C40.09180631 115.21596122 40.09245752 123.56751573 40.08983696 131.9190774 C40.08827393 136.91410827 40.0880811 141.9091293 40.09137344 146.90415955 C40.09425151 151.59902366 40.09227766 156.29386068 40.08647919 160.98872185 C40.08515124 162.71696363 40.08554629 164.44520767 40.08774185 166.17344856 C40.09045201 168.52244267 40.08707391 170.87134852 40.08206177 173.22033691 C40.08168474 174.53812386 40.08130772 175.8559108 40.08091927 177.21363068 C39.95507812 180.12939453 39.95507812 180.12939453 38.95507812 181.12939453 C37.60963486 181.22724794 36.2591525 181.25737438 34.91015625 181.25878906 C34.05256714 181.26194122 33.19497803 181.26509338 32.31140137 181.26834106 C31.3791272 181.26631683 30.44685303 181.2642926 29.48632812 181.26220703 C28.06036316 181.26364212 28.06036316 181.26364212 26.60559082 181.2651062 C24.5913893 181.2657881 22.5771856 181.26393315 20.56298828 181.25976562 C17.46837458 181.25441751 14.37390603 181.2597103 11.27929688 181.26611328 C9.32747364 181.2654525 7.37565049 181.26417134 5.42382812 181.26220703 C4.02541687 181.26524338 4.02541687 181.26524338 2.59875488 181.26834106 C1.74116577 181.2651889 0.88357666 181.26203674 0 181.25878906 C-0.75865356 181.25799347 -1.51730713 181.25719788 -2.2989502 181.25637817 C-4.04492188 181.12939453 -4.04492188 181.12939453 -5.04492188 180.12939453 C-5.14424196 177.82812866 -5.1712465 175.52374497 -5.17190552 173.22033691 C-5.1742455 172.12367982 -5.1742455 172.12367982 -5.17663276 171.00486803 C-5.18064539 168.53659119 -5.17745212 166.06837504 -5.17431641 163.60009766 C-5.17567033 161.83804793 -5.17745021 160.07599849 -5.17962646 158.31394958 C-5.18420185 153.51450093 -5.18241081 148.71507367 -5.17924738 143.91562462 C-5.17672432 138.90456457 -5.17906117 133.89350641 -5.18063354 128.88244629 C-5.1824554 120.46557281 -5.18004852 112.04870809 -5.17529297 103.63183594 C-5.16985032 93.88601304 -5.17161296 84.14021106 -5.17711937 74.39438868 C-5.18165006 66.04282784 -5.18230127 57.69127333 -5.17968071 49.33971167 C-5.17811768 44.34468079 -5.17792485 39.34965977 -5.18121719 34.35462952 C-5.18409526 29.6597654 -5.18212141 24.96492839 -5.17632294 20.27006721 C-5.17499499 18.54182544 -5.17539004 16.81358139 -5.1775856 15.0853405 C-5.18029576 12.7363464 -5.17691766 10.38744054 -5.17190552 8.03845215 C-5.17152849 6.72066521 -5.17115147 5.40287827 -5.17076302 4.04515839 C-4.98148815 -0.34037726 -3.98852078 0.00418273 0 0 Z " fill="#45A3FE" transform="translate(405.044921875,149.87060546875)"/>
<path d="M0 0 C0.85758911 -0.00315216 1.71517822 -0.00630432 2.59875488 -0.009552 C3.53102905 -0.00752777 4.46330322 -0.00550354 5.42382812 -0.00341797 C6.84979309 -0.00485306 6.84979309 -0.00485306 8.30456543 -0.00631714 C10.31876695 -0.00699904 12.33297065 -0.00514409 14.34716797 -0.00097656 C17.44178167 0.00437155 20.53625022 -0.00092124 23.63085938 -0.00732422 C25.58268261 -0.00666344 27.53450576 -0.00538228 29.48632812 -0.00341797 C30.88473938 -0.00645432 30.88473938 -0.00645432 32.31140137 -0.009552 C33.16899048 -0.00639984 34.02657959 -0.00324768 34.91015625 0 C35.66880981 0.00079559 36.42746338 0.00159119 37.20910645 0.00241089 C38.95507812 0.12939453 38.95507812 0.12939453 39.95507812 1.12939453 C40.05381093 3.0127 40.0814 4.89975291 40.08206177 6.78564453 C40.08488159 8.01404053 40.08770142 9.24243652 40.09060669 10.50805664 C40.0886621 11.88183608 40.08661391 13.25561538 40.08447266 14.62939453 C40.08582666 16.06632532 40.08760658 17.50325577 40.08978271 18.94018555 C40.09435718 22.85330042 40.09256744 26.76638904 40.08940363 30.67950439 C40.0868801 34.76566643 40.08921755 38.85182616 40.09078979 42.93798828 C40.09261151 49.80127366 40.09020513 56.66454829 40.08544922 63.52783203 C40.08000659 71.47411459 40.08176925 79.4203715 40.08727562 87.36665344 C40.0918067 94.17682618 40.09245733 100.98699116 40.08983696 107.79716492 C40.08827415 111.86998923 40.08808051 115.94280146 40.09137344 120.015625 C40.09425208 123.84375211 40.09227662 127.67184598 40.08647919 131.49996948 C40.08515155 132.90892481 40.08554577 134.31788291 40.08774185 135.72683716 C40.09045316 137.64227197 40.08645871 139.55771285 40.08206177 141.47314453 C40.08168474 142.54757812 40.08130772 143.62201172 40.08091927 144.72900391 C39.95507812 147.12939453 39.95507812 147.12939453 38.95507812 148.12939453 C37.60963486 148.22724794 36.2591525 148.25737438 34.91015625 148.25878906 C34.05256714 148.26194122 33.19497803 148.26509338 32.31140137 148.26834106 C31.3791272 148.26631683 30.44685303 148.2642926 29.48632812 148.26220703 C28.06036316 148.26364212 28.06036316 148.26364212 26.60559082 148.2651062 C24.5913893 148.2657881 22.5771856 148.26393315 20.56298828 148.25976562 C17.46837458 148.25441751 14.37390603 148.2597103 11.27929688 148.26611328 C9.32747364 148.2654525 7.37565049 148.26417134 5.42382812 148.26220703 C4.02541687 148.26524338 4.02541687 148.26524338 2.59875488 148.26834106 C1.74116577 148.2651889 0.88357666 148.26203674 0 148.25878906 C-0.75865356 148.25799347 -1.51730713 148.25719788 -2.2989502 148.25637817 C-4.04492188 148.12939453 -4.04492188 148.12939453 -5.04492188 147.12939453 C-5.14365468 145.24608906 -5.17124375 143.35903616 -5.17190552 141.47314453 C-5.17472534 140.24474854 -5.17754517 139.01635254 -5.18045044 137.75073242 C-5.17850585 136.37695298 -5.17645766 135.00317368 -5.17431641 133.62939453 C-5.17567041 132.19246374 -5.17745033 130.7555333 -5.17962646 129.31860352 C-5.18420093 125.40548865 -5.18241119 121.49240002 -5.17924738 117.57928467 C-5.17672385 113.49312263 -5.1790613 109.40696291 -5.18063354 105.32080078 C-5.18245526 98.45751541 -5.18004888 91.59424078 -5.17529297 84.73095703 C-5.16985034 76.78467447 -5.171613 68.83841756 -5.17711937 60.89213562 C-5.18165045 54.08196289 -5.18230108 47.2717979 -5.17968071 40.46162415 C-5.1781179 36.38879984 -5.17792426 32.31598761 -5.18121719 28.24316406 C-5.18409583 24.41503696 -5.18212037 20.58694308 -5.17632294 16.75881958 C-5.1749953 15.34986425 -5.17538952 13.94090615 -5.1775856 12.5319519 C-5.18029691 10.6165171 -5.17630246 8.70107621 -5.17190552 6.78564453 C-5.17152849 5.71121094 -5.17115147 4.63677734 -5.17076302 3.52978516 C-4.9626145 -0.44059952 -3.56514852 0.00373874 0 0 Z " fill="#FED44F" transform="translate(272.044921875,182.87060546875)"/>
<path d="M0 0 C6.62334224 0 10.96526022 0.16732498 16.9375 2.1875 C17.6298877 2.41526123 18.32227539 2.64302246 19.03564453 2.87768555 C38.53232279 9.4743573 50.80049598 21.91248759 60 40 C62.38752467 45.50525447 63.65835758 51.00116099 64 57 C64.06445312 58.00675781 64.12890625 59.01351562 64.1953125 60.05078125 C64.78655662 77.45306651 59.22278563 92.6973538 48.61328125 106.453125 C47 108 47 108 44 108 C42.11249967 106.37467859 40.40352394 104.75135611 38.67578125 102.96875 C38.16951706 102.45824097 37.66325287 101.94773193 37.14164734 101.42175293 C35.52476595 99.78806593 33.91861874 98.14426256 32.3125 96.5 C31.21878969 95.3912453 30.12439674 94.28316353 29.02929688 93.17578125 C26.34487842 90.45826861 23.6700419 87.73163639 21 85 C20.25234375 85.42152344 19.5046875 85.84304687 18.734375 86.27734375 C17.74953125 86.82519531 16.7646875 87.37304688 15.75 87.9375 C14.77546875 88.48277344 13.8009375 89.02804688 12.796875 89.58984375 C5.94376297 93.04511392 -2.45305359 93.30366995 -9.79296875 91.19921875 C-17.54254198 87.70289966 -23.87854096 81.68714618 -27 73.6875 C-29.28773463 65.04829161 -29.0233539 57.07261759 -24.54296875 49.25390625 C-20.0977387 42.76049426 -14.75514321 38.02691243 -7 36 C-4.69 36 -2.38 36 0 36 C0 24.12 0 12.24 0 0 Z " fill="#FDD450" transform="translate(140,90)"/>
<path d="M0 0 C29.94359834 -3.77130048 29.94359834 -3.77130048 39.22088623 3.24603271 C44.68951093 7.96375336 49.13913306 13.55813065 53.60131836 19.21533203 C57.54290485 23.79118297 62.23930131 27.32006819 67 31 C68.10395247 31.93226981 69.20081613 32.87311475 70.28515625 33.828125 C82.79540912 44.73720626 96.22853866 54.21933356 110.5144043 62.66210938 C112.35631389 63.75245058 114.18033525 64.87292632 116 66 C116 66.33 116 66.66 116 67 C66.83 67 17.66 67 -33 67 C-27.51639316 55.42349666 -22.03300569 43.851723 -16.44238281 32.32714844 C-15.72589658 30.8489449 -15.01074463 29.37009395 -14.296875 27.890625 C-9.7493798 18.46610597 -5.05578844 9.1634918 0 0 Z " fill="#006EDB" transform="translate(201,384)"/>
<path d="M0 0 C1.10800209 0.00213753 1.10800209 0.00213753 2.23838806 0.00431824 C3.4946273 -0.00029671 3.4946273 -0.00029671 4.77624512 -0.00500488 C5.68148422 0.00218063 6.58672333 0.00936615 7.51939392 0.01676941 C8.44642624 0.01722763 9.37345856 0.01768585 10.32858276 0.01815796 C12.28974181 0.02118162 14.25089842 0.02907131 16.21202087 0.04142761 C19.22537169 0.05968444 22.23841545 0.06193734 25.2518158 0.06169128 C27.15351118 0.06660631 29.05520447 0.07243456 30.95689392 0.07926941 C31.86415726 0.08038223 32.77142059 0.08149506 33.70617676 0.0826416 C40.0556932 0.13119368 40.0556932 0.13119368 41.17173767 1.24723816 C41.26954992 2.7124012 41.29805515 4.18225638 41.29872131 5.65068054 C41.30154114 6.60140945 41.30436096 7.55213837 41.30726624 8.53167725 C41.305242 9.58314438 41.30321777 10.63461151 41.3011322 11.71794128 C41.30288452 12.81863449 41.30463684 13.9193277 41.30644226 15.05337524 C41.31086335 18.711762 41.30792188 22.37010087 41.30455017 26.02848816 C41.30522314 28.55815134 41.3061931 31.08781446 41.30744934 33.61747742 C41.30892666 38.92717665 41.30686525 44.23685853 41.30210876 49.54655457 C41.29666618 55.69329774 41.29842885 61.84000775 41.30393517 67.98675013 C41.30901207 73.8894138 41.30848473 79.79206712 41.30555344 85.69473267 C41.30488391 88.21146652 41.30571347 90.72820121 41.30803299 93.24493408 C41.310558 96.75549091 41.30672105 100.26598306 41.3011322 103.77653503 C41.30315643 104.82800217 41.30518066 105.8794693 41.30726624 106.96279907 C41.30444641 107.91352798 41.30162659 108.8642569 41.29872131 109.84379578 C41.29834429 110.67487602 41.29796726 111.50595627 41.29757881 112.36222076 C41.17173767 114.24723816 41.17173767 114.24723816 40.17173767 115.24723816 C38.8262944 115.34509157 37.47581204 115.37521801 36.1268158 115.37663269 C35.26922668 115.37978485 34.41163757 115.38293701 33.52806091 115.38618469 C32.59578674 115.38416046 31.66351257 115.38213623 30.70298767 115.38005066 C29.27702271 115.38148575 29.27702271 115.38148575 27.82225037 115.38294983 C25.80804885 115.38363173 23.79384515 115.38177678 21.77964783 115.37760925 C18.68503413 115.37226114 15.59056557 115.37755393 12.49595642 115.38395691 C10.54413318 115.38329613 8.59231003 115.38201497 6.64048767 115.38005066 C5.24207642 115.38308701 5.24207642 115.38308701 3.81541443 115.38618469 C2.95782532 115.38303253 2.10023621 115.37988037 1.21665955 115.37663269 C0.45800598 115.3758371 -0.30064758 115.3750415 -1.08229065 115.3742218 C-2.82826233 115.24723816 -2.82826233 115.24723816 -3.82826233 114.24723816 C-3.92819801 112.79707759 -3.95901306 111.3420857 -3.9619751 109.88848877 C-3.96624008 108.94761917 -3.97050507 108.00674957 -3.97489929 107.03736877 C-3.97444611 105.99682343 -3.97399292 104.95627808 -3.973526 103.88420105 C-3.97688461 102.79486771 -3.98024323 101.70553436 -3.98370361 100.58319092 C-3.99324624 96.96208066 -3.99515836 93.34101648 -3.99623108 89.71989441 C-3.99944129 87.215047 -4.00280517 84.71019979 -4.00631714 82.20535278 C-4.01231666 76.94693195 -4.01419885 71.68852292 -4.01356506 66.43009949 C-4.01296412 60.34583461 -4.02351748 54.26165835 -4.03930873 48.17741591 C-4.05394051 42.33241733 -4.05755367 36.48745395 -4.05695534 30.64243889 C-4.05813953 28.1516477 -4.06258566 25.66085593 -4.0702877 23.17007637 C-4.08003216 19.69319835 -4.07723157 16.21655115 -4.07118225 12.7396698 C-4.07680176 11.70114868 -4.08242126 10.66262756 -4.08821106 9.59263611 C-4.08401657 8.64894669 -4.07982208 7.70525726 -4.07550049 6.73297119 C-4.07604526 5.91018708 -4.07659002 5.08740297 -4.0771513 4.23968601 C-3.73409183 1.49336867 -2.7804921 0.37600936 0 0 Z " fill="#6DE65C" transform="translate(336.82826232910156,215.7527618408203)"/>
<path d="M0 0 C11.55 0 23.1 0 35 0 C35.99 3.96 36.98 7.92 38 12 C42.43544153 18.94243022 47.67427674 24.95172472 56 27 C67.07297741 28.20138186 74.62543318 25.62474009 84 20 C91.92 27.92 99.84 35.84 108 44 C103.57331696 52.85336607 92.20909895 57.9305891 83.1796875 61.0703125 C65.6936571 66.18293564 48.49566289 65.06850812 32.3125 56.41796875 C26.25329718 52.70261297 20.82482904 48.21603139 16 43 C15.54238281 42.54753906 15.08476563 42.09507812 14.61328125 41.62890625 C3.7714814 30.21798305 0 15.24555645 0 0 Z " fill="#43A2FE" transform="translate(77,154)"/>
<path d="M0 0 C25.08 0 50.16 0 76 0 C87.68366188 22.19895758 87.68366188 22.19895758 91.4375 29.75 C91.8814209 30.64050049 92.3253418 31.53100098 92.78271484 32.44848633 C96.28507704 39.50170119 99.719497 46.58706816 103.125 53.6875 C103.5986499 54.67395508 104.0722998 55.66041016 104.56030273 56.67675781 C104.99673096 57.59166992 105.43315918 58.50658203 105.8828125 59.44921875 C106.26840332 60.25705811 106.65399414 61.06489746 107.05126953 61.8972168 C108 64 108 64 109 67 C80.44641822 68.82018583 80.44641822 68.82018583 68.81933594 59.44189453 C66.8224762 57.85930548 64.76108276 56.41187018 62.6640625 54.96484375 C53.03644574 48.27908447 43.85139973 41.06512005 34.85986328 33.55126953 C33.1013697 32.08455015 31.33107813 30.63334401 29.55859375 29.18359375 C19.09900623 20.52519495 9.15467818 11.02844037 0 1 C0 0.67 0 0.34 0 0 Z " fill="#0D81F4" transform="translate(235,384)"/>
<path d="M0 0 C1.36560059 0.00303635 1.36560059 0.00303635 2.75878906 0.00613403 C3.68723633 0.00517731 4.61568359 0.00422058 5.57226562 0.00323486 C7.53938871 0.00255298 9.50651403 0.00440781 11.47363281 0.00857544 C14.49581932 0.01392358 17.51785721 0.00863071 20.54003906 0.00222778 C22.44628939 0.00288856 24.35253963 0.00416972 26.25878906 0.00613403 C27.16918945 0.0041098 28.07958984 0.00208557 29.01757812 0 C35.39383938 0.02399685 35.39383938 0.02399685 36.50878906 1.13894653 C36.60912772 3.6284835 36.64496849 6.09029607 36.63818359 8.58035278 C36.63993591 9.35917816 36.64168823 10.13800354 36.64349365 10.94042969 C36.64791255 13.52745764 36.64497405 16.11441782 36.64160156 18.70144653 C36.64227459 20.49124159 36.64324461 22.28103656 36.64450073 24.0708313 C36.64597776 27.82694364 36.643823 31.58303225 36.63916016 35.33914185 C36.63346286 40.16495147 36.63674185 44.99070548 36.64273262 49.81651306 C36.64633811 53.51382876 36.6451997 57.21113118 36.64260483 60.90844727 C36.64193553 62.68833421 36.6427641 64.46822235 36.64508438 66.24810791 C36.64761071 68.73128476 36.64377061 71.21437028 36.63818359 73.69754028 C36.64020782 74.44043304 36.64223206 75.18332581 36.64431763 75.94873047 C36.62305168 81.02468391 36.62305168 81.02468391 35.50878906 82.13894653 C32.41797441 82.24011574 29.34996351 82.27863211 26.25878906 82.27175903 C25.3303418 82.27271576 24.40189453 82.27367249 23.4453125 82.2746582 C21.47818942 82.27534008 19.5110641 82.27348525 17.54394531 82.26931763 C14.5217588 82.26396948 11.49972092 82.26926236 8.47753906 82.27566528 C6.57128873 82.2750045 4.6650385 82.27372334 2.75878906 82.27175903 C1.39318848 82.27479538 1.39318848 82.27479538 0 82.27789307 C-6.37626125 82.25389622 -6.37626125 82.25389622 -7.49121094 81.13894653 C-7.5915496 78.64940956 -7.62739036 76.187597 -7.62060547 73.69754028 C-7.62235779 72.9187149 -7.62411011 72.13988953 -7.62591553 71.33746338 C-7.63033443 68.75043542 -7.62739593 66.16347525 -7.62402344 63.57644653 C-7.62469647 61.78665148 -7.62566648 59.99685651 -7.62692261 58.20706177 C-7.62839963 54.45094942 -7.62624488 50.69486081 -7.62158203 46.93875122 C-7.61588474 42.1129416 -7.61916372 37.28718758 -7.6251545 32.46138 C-7.62875999 28.76406431 -7.62762158 25.06676189 -7.6250267 21.3694458 C-7.6243574 19.58955885 -7.62518597 17.80967072 -7.62750626 16.02978516 C-7.63003259 13.54660831 -7.62619248 11.06352279 -7.62060547 8.58035278 C-7.6226297 7.83746002 -7.62465393 7.09456726 -7.6267395 6.3291626 C-7.59839209 -0.4370602 -6.64012374 0.02498988 0 0 Z " fill="#EA4E5C" transform="translate(208.4912109375,248.86105346679688)"/>
<path d="M0 0 C0.80893707 -0.0066568 1.61787415 -0.0133136 2.45132446 -0.02017212 C4.16446659 -0.03030612 5.87764825 -0.03498891 7.59082031 -0.03466797 C10.20964897 -0.0390343 12.82678303 -0.0753244 15.4453125 -0.11328125 C17.10936923 -0.11915069 18.77343398 -0.12311923 20.4375 -0.125 C21.21991058 -0.13937103 22.00232117 -0.15374207 22.80844116 -0.16854858 C26.1613561 -0.14044087 28.45934467 0.09737795 31.34863281 1.85473633 C33.46112791 5.34227493 33.38756001 8.54018942 33.3125 12.49609375 C33.31158356 13.28237656 33.31066711 14.06865936 33.3097229 14.87876892 C33.3036928 16.5371608 33.28796433 18.19554208 33.26318359 19.85375977 C33.22663862 22.39314849 33.2221646 24.93107868 33.22265625 27.47070312 C33.21282593 29.08334595 33.20116929 30.6959789 33.1875 32.30859375 C33.18527435 33.06801773 33.18304871 33.82744171 33.18075562 34.60987854 C33.11285395 38.37547321 32.99106799 40.12667926 30.8515625 43.3359375 C25.74672616 43.98761873 25.74672616 43.98761873 23.1784668 42.11791992 C21.42935185 39.76892452 21.50571766 38.35740351 21.55859375 35.44921875 C21.56826172 34.51142578 21.57792969 33.57363281 21.58789062 32.60742188 C21.61302734 31.63095703 21.63816406 30.65449219 21.6640625 29.6484375 C21.67759766 28.66037109 21.69113281 27.67230469 21.70507812 26.65429688 C21.74044087 24.21426759 21.79235684 21.77547008 21.8515625 19.3359375 C15.2886889 24.79849263 9.31489597 30.80333956 3.34316444 36.89143181 C1.02390088 39.25325686 -1.30513346 41.60534966 -3.63353443 43.95816135 C-7.95274652 48.32291306 -12.26774947 52.69164969 -16.56665039 57.07641602 C-19.57361901 60.14269241 -22.59258895 63.1966851 -25.6199131 66.24286079 C-26.76751823 67.40220758 -27.91057438 68.56607581 -29.0489254 69.73451042 C-30.63545741 71.36195862 -32.2368191 72.97329005 -33.8425293 74.58178711 C-34.74883591 75.50221298 -35.65514252 76.42263885 -36.58891296 77.37095642 C-39.1484375 79.3359375 -39.1484375 79.3359375 -41.85144043 79.68251038 C-44.34877586 79.30571028 -46.02221239 78.64634593 -48.23046875 77.4296875 C-48.9884375 77.02000732 -49.74640625 76.61032715 -50.52734375 76.18823242 C-51.33042969 75.7419751 -52.13351562 75.29571777 -52.9609375 74.8359375 C-54.68552294 73.90369816 -56.41079283 72.97272401 -58.13671875 72.04296875 C-58.99088379 71.57971191 -59.84504883 71.11645508 -60.72509766 70.63916016 C-64.00458076 68.87552115 -67.315501 67.18342144 -70.6484375 65.5234375 C-71.25598877 65.22050781 -71.86354004 64.91757813 -72.48950195 64.60546875 C-83.65556053 59.07429422 -94.91205282 53.72229925 -106.1484375 48.3359375 C-112.634732 53.60535302 -118.41391635 59.54310916 -124.26132393 65.49592018 C-126.76084578 68.03785723 -129.27000211 70.57019423 -131.77857113 73.10319805 C-136.43628933 77.8065031 -141.08995912 82.51364956 -145.72729492 87.23706055 C-148.96649772 90.5356433 -152.21777207 93.82189126 -155.47736931 97.100317 C-156.71346517 98.34814502 -157.94501594 99.60049275 -159.17184639 100.85743141 C-160.88514952 102.61174641 -162.61342339 104.34989893 -164.34594727 106.08520508 C-164.84637039 106.60517563 -165.34679352 107.12514618 -165.86238098 107.66087341 C-169.12796641 110.88935461 -171.53872538 112.16604915 -176.1484375 112.3359375 C-178.0234375 111.2109375 -178.0234375 111.2109375 -179.1484375 109.3359375 C-179.59620667 107.13763428 -179.59620667 107.13763428 -179.1484375 104.3359375 C-177.41285163 101.83256522 -175.27322844 99.76782457 -173.10913086 97.63378906 C-172.46688568 96.98117599 -171.8246405 96.32856293 -171.16293335 95.65617371 C-169.03395907 93.50007208 -166.88706388 91.36291091 -164.73828125 89.2265625 C-163.25223238 87.73460654 -161.76685413 86.24198235 -160.28211975 84.74871826 C-157.16547208 81.62017897 -154.03968807 78.50113215 -150.9074707 75.38818359 C-146.89601212 71.39958666 -142.90987713 67.38672998 -138.93050289 63.36615372 C-135.86733302 60.27739445 -132.79019787 57.20285446 -129.70877266 54.13231659 C-128.2334501 52.65848053 -126.76270478 51.18004774 -125.29667473 49.69696808 C-123.24306772 47.62337871 -121.17119928 45.5699247 -119.09350586 43.52050781 C-118.49217331 42.90545883 -117.89084076 42.29040985 -117.27128601 41.65672302 C-114.38201087 38.84542187 -112.55215741 37.45690368 -108.61975098 36.27864075 C-104.56024319 36.34564611 -102.27258939 37.22977427 -98.66235352 39.06811523 C-97.75373817 39.52143723 -97.75373817 39.52143723 -96.82676697 39.98391724 C-94.84293215 40.97894938 -92.87305838 41.99879545 -90.90234375 43.01953125 C-89.52308729 43.71755965 -88.14302302 44.41399399 -86.76219177 45.10890198 C-83.14222525 46.93600984 -79.53359664 48.78448169 -75.92694092 50.63769531 C-72.2398278 52.52740806 -68.54234934 54.39660352 -64.84570312 56.26757812 C-57.60300885 59.93708631 -50.37216932 63.62924067 -43.1484375 67.3359375 C-36.53770763 61.9023493 -30.55629554 55.87147707 -24.52734375 49.8125 C-23.41655581 48.69984365 -22.3055444 47.58741034 -21.19432068 46.47518921 C-18.29054816 43.5676248 -15.38979314 40.65706845 -12.48968506 37.74584961 C-9.52165487 34.76753321 -6.55074088 31.79209644 -3.58007812 28.81640625 C2.23327333 22.99237627 8.04343584 17.165178 13.8515625 11.3359375 C12.87546021 11.31406372 12.87546021 11.31406372 11.87963867 11.29174805 C8.93217944 11.21729201 5.98585608 11.12062484 3.0390625 11.0234375 C2.01490234 11.00087891 0.99074219 10.97832031 -0.06445312 10.95507812 C-1.04736328 10.91962891 -2.03027344 10.88417969 -3.04296875 10.84765625 C-3.94893799 10.82147217 -4.85490723 10.79528809 -5.78833008 10.76831055 C-8.55779607 10.26094277 -9.51782109 9.60667895 -11.1484375 7.3359375 C-10.59888306 -0.1746399 -6.45697238 0.01827297 0 0 Z " fill="#7C7A88" transform="translate(397.1484375,92.6640625)"/>
<path d="M0 0 C0.33 0 0.66 0 1 0 C1 34.32 1 68.64 1 104 C-13.19 104 -27.38 104 -42 104 C-45.79175718 100.20824282 -43.74289269 86.1146576 -43.84448242 80.93969727 C-43.90602645 78.45709859 -43.99448963 75.97500759 -44.11108398 73.49438477 C-45.11376681 51.74533572 -45.11376681 51.74533572 -40.03442383 45.82788086 C-37.2006403 43.1769514 -34.13218051 41.11918796 -30.79655457 39.15490723 C-17.36596445 30.52111125 -6.89223123 13.98803047 0 0 Z " fill="#2891FA" transform="translate(443,227)"/>
<path d="M0 0 C0 11.88 0 23.76 0 36 C-3.3 36.66 -6.6 37.32 -10 38 C-18.41702178 42.33229062 -23.91475284 47.90663996 -27 57 C-27.33 59.31 -27.66 61.62 -28 64 C-39.88 64 -51.76 64 -64 64 C-64 46.22142067 -57.22833069 30.88448502 -45 18 C-32.50154405 5.98794758 -17.1914803 0 0 0 Z " fill="#6BE65C" transform="translate(140,90)"/>
<path d="M0 0 C7.9717525 4.84184534 12.77607942 11.18899761 15.41015625 20.171875 C17.08705181 28.42220114 14.88826249 36.0918427 10.515625 43.17578125 C6.17157022 48.72987915 -0.22658578 52.80252167 -7.19921875 54.09375 C-15.95727901 54.92446032 -22.97431107 54.38297423 -30.19921875 49.09375 C-37.00711089 43.08746973 -40.47348003 37.18005879 -41.54296875 28.2109375 C-41.97718171 19.72207406 -39.79349226 13.74044107 -34.625 7.05859375 C-25.99134801 -2.42031089 -11.88352877 -5.49645014 0 0 Z " fill="#EFEFEE" transform="translate(153.19921875,127.90625)"/>
<path d="M0 0 C8.89278795 -0.09280748 17.78540839 -0.16381914 26.67857552 -0.20724869 C30.80835235 -0.22809606 34.93779709 -0.2563609 39.06738281 -0.30175781 C43.05501429 -0.34531833 47.04232696 -0.36915855 51.03017807 -0.37950897 C52.5492034 -0.38688213 54.0682119 -0.40128042 55.58710098 -0.42292023 C57.72006761 -0.45209175 59.85172827 -0.45595054 61.98486328 -0.45410156 C63.1973172 -0.46298401 64.40977112 -0.47186646 65.65896606 -0.48101807 C70.84668347 0.26587222 73.90803422 2.76047128 77.3125 6.625 C80.94786993 11.74144656 80.58464337 16.87325788 80 23 C78.07760964 26.91343752 75.92252142 29.98270327 72 32 C65.22820748 32.76644789 59.93831407 30.37916677 53.75 27.8125 C52.66750977 27.3705127 51.58501953 26.92852539 50.46972656 26.47314453 C14.17566883 11.4052332 14.17566883 11.4052332 0 1 C0 0.67 0 0.34 0 0 Z " fill="#42A1FE" transform="translate(319,451)"/>
<path d="M0 0 C0.02464705 5.67830078 0.04283462 11.35657069 0.05493164 17.03491211 C0.05997256 18.96818585 0.06680519 20.90145576 0.07543945 22.8347168 C0.08751565 25.60726872 0.09323057 28.37977041 0.09765625 31.15234375 C0.10281754 32.02213364 0.10797882 32.89192352 0.11329651 33.78807068 C0.11349185 35.85905814 0.06208168 37.92994324 0 40 C-1 41 -1 41 -2.75270081 41.12025452 C-3.51437057 41.11803391 -4.27604034 41.11581329 -5.06079102 41.11352539 C-5.92160782 41.11344986 -6.78242462 41.11337433 -7.66932678 41.11329651 C-8.60473801 41.10813522 -9.54014923 41.10297394 -10.50390625 41.09765625 C-11.45692123 41.0962413 -12.40993622 41.09482635 -13.39183044 41.09336853 C-16.44875165 41.08775152 -19.50560077 41.07519616 -22.5625 41.0625 C-24.62955624 41.05748719 -26.69661362 41.05292391 -28.76367188 41.04882812 C-33.84249833 41.03862558 -38.92116806 41.01905356 -44 41 C-44 31.1 -44 21.2 -44 11 C-38.5240625 9.9171875 -38.5240625 9.9171875 -32.9375 8.8125 C-22.84901464 6.75975778 -9.89392729 0 0 0 Z " fill="#58D561" transform="translate(378,290)"/>
<path d="M0 0 C5.53556454 1.66066936 11.05372442 3.3247381 16.5625 5.0625 C25.54818167 7.81600713 33.47932847 9.13448441 43 10 C43 20.23 43 30.46 43 41 C28.81 41 14.62 41 0 41 C0 27.47 0 13.94 0 0 Z " fill="#FEC329" transform="translate(268,290)"/>
<path d="M0 0 C11.55 0 23.1 0 35 0 C33.71857887 16.65847468 30.10355895 28.91417409 20 42 C18.68 42.99 17.36 43.98 16 45 C8.08 37.08 0.16 29.16 -8 21 C-6.49533656 17.23834139 -4.92425249 13.88075945 -3 10.35546875 C-1.59561393 7.04748126 -0.87161383 3.48645533 0 0 Z " fill="#FE6372" transform="translate(169,154)"/>
<path d="M0 0 C1.95739357 -0.0237545 1.95739357 -0.0237545 3.95433044 -0.04798889 C5.37588865 -0.04414718 6.79744405 -0.039108 8.21899414 -0.03295898 C9.68103939 -0.03819547 11.14308125 -0.04447204 12.6051178 -0.05174255 C15.66757109 -0.0621451 18.72955971 -0.05758852 21.79199219 -0.04296875 C25.71095443 -0.02578879 29.62844941 -0.04926465 33.54724789 -0.08445835 C36.56626548 -0.1064521 39.5849331 -0.10498619 42.60400581 -0.09669304 C44.04846365 -0.09587442 45.49294742 -0.10272094 46.93733025 -0.11746407 C48.95945752 -0.13493913 50.98179628 -0.11703068 53.00390625 -0.09765625 C54.15322128 -0.09669449 55.30253632 -0.09573273 56.48667908 -0.09474182 C60.52288665 0.72848063 62.05083657 2.33621324 64.56665039 5.53344727 C64.56665039 8.89824802 64.2267235 10.70118117 62.12915039 13.34594727 C58.90800196 15.79402007 56.5405931 15.67524003 52.54394531 15.71044922 C50.64638741 15.72970207 50.64638741 15.72970207 48.710495 15.74934387 C47.32270702 15.75751149 45.93491462 15.76495518 44.54711914 15.77172852 C43.5001055 15.77784181 43.5001055 15.77784181 42.43194008 15.7840786 C38.73685629 15.80493948 35.04180963 15.8192406 31.34667969 15.82861328 C27.53331434 15.83967298 23.7205333 15.87406679 19.90737438 15.91378498 C16.97250802 15.93995417 14.03778076 15.94830536 11.102808 15.95189476 C9.69740163 15.95676067 8.29200148 15.96837497 6.88670921 15.98693275 C4.91712919 16.01132378 2.94726492 16.00793942 0.97753906 16.00341797 C-0.70218742 16.01221733 -0.70218742 16.01221733 -2.41584778 16.02119446 C-6.14761527 15.41799379 -7.81266366 14.22154021 -10.43334961 11.53344727 C-10.99584961 8.03344727 -10.99584961 8.03344727 -10.43334961 4.53344727 C-7.35301778 0.41128548 -5.02562088 0.02712336 0 0 Z " fill="#464880" transform="translate(112.433349609375,311.466552734375)"/>
<path d="M0 0 C1.95739357 -0.0237545 1.95739357 -0.0237545 3.95433044 -0.04798889 C5.37588865 -0.04414718 6.79744405 -0.039108 8.21899414 -0.03295898 C9.68103939 -0.03819547 11.14308125 -0.04447204 12.6051178 -0.05174255 C15.66757109 -0.0621451 18.72955971 -0.05758852 21.79199219 -0.04296875 C25.71095443 -0.02578879 29.62844941 -0.04926465 33.54724789 -0.08445835 C36.56626548 -0.1064521 39.5849331 -0.10498619 42.60400581 -0.09669304 C44.04846365 -0.09587442 45.49294742 -0.10272094 46.93733025 -0.11746407 C48.95945752 -0.13493913 50.98179628 -0.11703068 53.00390625 -0.09765625 C54.15322128 -0.09669449 55.30253632 -0.09573273 56.48667908 -0.09474182 C60.52125959 0.72814878 62.04428328 2.34452101 64.56665039 5.53344727 C64.69165039 8.59594727 64.69165039 8.59594727 63.56665039 11.53344727 C59.84390849 15.21788559 57.39063985 16.03794729 52.20336914 16.06689453 C50.93855713 16.08273087 49.67374512 16.0985672 48.37060547 16.11488342 C46.99845001 16.11104197 45.62629745 16.10600294 44.25415039 16.09985352 C42.83837475 16.1050919 41.42260261 16.11136917 40.00683594 16.11863708 C37.04451026 16.12902827 34.08266535 16.12449842 31.12036133 16.10986328 C27.33032549 16.09266822 23.5418047 16.11618343 19.75193787 16.15135288 C16.82985453 16.17334703 13.90813272 16.17188094 10.98599243 16.16358757 C9.58898251 16.16276929 8.19194572 16.16960927 6.79501343 16.1843586 C4.84005316 16.20183824 2.88487408 16.18392244 0.92993164 16.16455078 C-0.1808374 16.16358902 -1.29160645 16.16262726 -2.43603516 16.16163635 C-6.40778544 15.32922113 -7.92052048 13.65114565 -10.43334961 10.53344727 C-10.99584961 7.47094727 -10.99584961 7.47094727 -10.43334961 4.53344727 C-7.31951091 0.43347964 -5.03814524 0.02719095 0 0 Z " fill="#474A81" transform="translate(112.433349609375,254.466552734375)"/>
<path d="M0 0 C1.89721802 -0.01891296 1.89721802 -0.01891296 3.83276367 -0.03820801 C5.20492106 -0.03104794 6.57707334 -0.02284389 7.94921875 -0.01367188 C9.36499294 -0.01636861 10.78076533 -0.02025254 12.1965332 -0.02526855 C15.15887138 -0.03115523 18.120726 -0.0226283 21.08300781 -0.00390625 C24.87287385 0.01888382 28.66160677 0.00575613 32.45143127 -0.01819611 C35.37349933 -0.03267716 38.29530044 -0.02803775 41.21737671 -0.01768494 C42.61437109 -0.01502398 44.01139001 -0.01826523 45.40835571 -0.02760315 C47.36337801 -0.03780467 49.31848572 -0.0194885 51.2734375 0 C52.38420654 0.00318237 53.49497559 0.00636475 54.6394043 0.00964355 C58.31355613 0.63227717 59.99745836 1.93593496 62.63671875 4.51757812 C63.56157841 7.51044695 63.09532818 9.30731213 62.63671875 12.51757812 C60.36656963 14.91118889 58.96116476 15.47508039 55.67700195 15.90525818 C54.52546631 15.91066116 53.37393066 15.91606415 52.1875 15.92163086 C50.87934326 15.93431503 49.57118652 15.94699921 48.22338867 15.96006775 C46.79866376 15.95801639 45.37393992 15.95502844 43.94921875 15.95117188 C42.48477944 15.95573396 41.02034226 15.96103962 39.5559082 15.96705627 C36.48933199 15.97598443 33.42301625 15.97356737 30.35644531 15.96362305 C26.42862148 15.95212628 22.50169572 15.97235596 18.57398987 16.00154018 C15.55076397 16.01989365 12.52775371 16.01961165 9.50448608 16.01390266 C8.05641417 16.01374938 6.60832771 16.01979964 5.16030884 16.03219414 C3.13556858 16.04708527 1.11068046 16.03380679 -0.9140625 16.01928711 C-2.06559814 16.01912094 -3.21713379 16.01895477 -4.40356445 16.01878357 C-8.01573365 15.40709029 -9.1934622 14.42567527 -11.36328125 11.51757812 C-11.92578125 8.01757812 -11.92578125 8.01757812 -11.36328125 4.51757812 C-7.70480064 0.77531392 -5.16167475 0.01478829 0 0 Z " fill="#45487F" transform="translate(113.36328125,282.482421875)"/>
<path d="M0 0 C1.36681575 2.73363149 0.84043131 4.70424702 0.625 7.75 C0.55586563 16.64858093 4.0608956 24.31016942 9.7421875 31.07421875 C11.41651803 32.60580682 13.07110575 33.80974141 15 35 C15.55816406 35.38414062 16.11632812 35.76828125 16.69140625 36.1640625 C23.10249983 40.01348802 30.71251731 40.27884286 38 41 C36.5304003 44.80609809 34.61508531 46.1731926 31.125 48.1875 C30.26132813 48.69667969 29.39765625 49.20585937 28.5078125 49.73046875 C21.79804688 53.12715695 13.37060245 53.25310979 6.20703125 51.19921875 C-1.54254198 47.70289966 -7.87854096 41.68714618 -11 33.6875 C-13.28979648 25.04050539 -12.99135626 17.11950295 -8.578125 9.26953125 C-6.12223882 5.73767513 -3.23741742 2.81757942 0 0 Z " fill="#DEDEE0" transform="translate(124,130)"/>
<path d="M0 0 C1.89721802 -0.01891296 1.89721802 -0.01891296 3.83276367 -0.03820801 C5.20492106 -0.03104794 6.57707334 -0.02284389 7.94921875 -0.01367188 C9.36499294 -0.01636861 10.78076533 -0.02025254 12.1965332 -0.02526855 C15.15887138 -0.03115523 18.120726 -0.0226283 21.08300781 -0.00390625 C24.87287385 0.01888382 28.66160677 0.00575613 32.45143127 -0.01819611 C35.37349933 -0.03267716 38.29530044 -0.02803775 41.21737671 -0.01768494 C42.61437109 -0.01502398 44.01139001 -0.01826523 45.40835571 -0.02760315 C47.36337801 -0.03780467 49.31848572 -0.0194885 51.2734375 0 C52.38420654 0.00318237 53.49497559 0.00636475 54.6394043 0.00964355 C58.41639206 0.64970408 60.08183441 1.67059257 62.63671875 4.51757812 C62.94921875 7.76757812 62.94921875 7.76757812 62.63671875 10.51757812 C61.84380432 10.52122375 61.05088989 10.52486938 60.23394775 10.52862549 C52.75911731 10.56650221 45.28478546 10.62335037 37.81027603 10.70148087 C33.96757557 10.74097991 30.12510508 10.77315614 26.28222656 10.78857422 C22.5731386 10.80372534 18.86468276 10.83814192 15.15587616 10.88588715 C13.74136603 10.90071717 12.32676566 10.90862008 10.91217804 10.90946198 C8.92995171 10.91182811 6.94781326 10.94117119 4.96582031 10.97167969 C3.83774963 10.98056213 2.70967896 10.98944458 1.54742432 10.99859619 C-1.95925436 11.62384077 -3.14638868 12.80125854 -5.36328125 15.51757812 C-10.23828125 13.76757812 -10.23828125 13.76757812 -11.36328125 11.51757812 C-11.73828125 8.14257812 -11.73828125 8.14257812 -11.36328125 4.51757812 C-7.72360377 0.76064676 -5.15309823 0.01476372 0 0 Z " fill="#65D9F9" transform="translate(107.36328125,301.482421875)"/>
<path d="M0 0 C2.97 0 5.94 0 9 0 C9.22042969 1.16015625 9.22042969 1.16015625 9.4453125 2.34375 C11.4588138 11.69380202 14.82249522 18.61481393 23 24 C29.37616357 27.71942875 35.73833178 27.79249523 43 27 C48.40992642 25.50659677 53.32953619 23.11364254 58 20 C59.65 21.65 61.3 23.3 63 25 C60.62945394 30.58263597 56.0820788 32.69683916 50.671875 34.984375 C41.11155124 38.25338893 31.88188582 38.10017147 22.53125 34.2578125 C12.82819416 29.43623228 5.41694624 21.75824925 1.7109375 11.54296875 C0.63305025 7.68744897 0.25754273 3.99191238 0 0 Z " fill="#2B91F9" transform="translate(103,154)"/>
<path d="M0 0 C1.281026 0.00030212 2.562052 0.00060425 3.88189697 0.00091553 C5.27511214 0.02134061 6.66832094 0.04220457 8.06152344 0.06347656 C9.49069426 0.07094025 10.91987533 0.07663258 12.34906006 0.08062744 C16.10417106 0.09587406 19.85865969 0.1351464 23.61352539 0.17944336 C27.44766827 0.22041769 31.28191206 0.238643 35.11621094 0.25878906 C42.63472333 0.30164254 50.15272356 0.36988089 57.67089844 0.45410156 C58.99089844 3.42410156 60.31089844 6.39410156 61.67089844 9.45410156 C60.92000946 9.45552658 60.16912048 9.4569516 59.39547729 9.4584198 C52.30384209 9.47628176 45.21283594 9.51798901 38.12153435 9.58619213 C34.47612222 9.62041989 30.83112727 9.64556538 27.18554688 9.6496582 C23.66437462 9.65395049 20.14414272 9.68248741 16.62326431 9.72753334 C14.63263162 9.74676078 12.64180902 9.74115994 10.65109253 9.7351532 C3.19733904 9.67503644 3.19733904 9.67503644 -3.19970703 12.99829102 C-4.25375732 14.21391724 -4.25375732 14.21391724 -5.32910156 15.45410156 C-7.82910156 13.89160156 -7.82910156 13.89160156 -10.32910156 11.45410156 C-10.89160156 7.95410156 -10.89160156 7.95410156 -10.32910156 4.45410156 C-7.26056861 0.35476633 -5.00405073 -0.03940197 0 0 Z " fill="#64DBFB" transform="translate(106.3291015625,273.5458984375)"/>
<path d="M0 0 C1.06079773 0.00030212 2.12159546 0.00060425 3.21453857 0.00091553 C4.35320374 0.02156067 5.4918689 0.04220581 6.66503906 0.06347656 C7.83576965 0.06913635 9.00650024 0.07479614 10.21270752 0.08062744 C13.95244206 0.10302031 17.69121903 0.15322476 21.43066406 0.20410156 C23.96580648 0.22416268 26.50096391 0.24241412 29.03613281 0.25878906 C35.25130335 0.30289478 41.4659153 0.36983702 47.68066406 0.45410156 C48.67066406 3.42410156 49.66066406 6.39410156 50.68066406 9.45410156 C55.63066406 9.45410156 60.58066406 9.45410156 65.68066406 9.45410156 C65.68066406 9.78410156 65.68066406 10.11410156 65.68066406 10.45410156 C64.47250031 10.45957001 64.47250031 10.45957001 63.2399292 10.46514893 C55.64737376 10.50302404 48.05530927 10.55987044 40.46306992 10.6380043 C36.55983555 10.67750503 32.65682765 10.70968046 28.75341797 10.72509766 C24.98597996 10.74024764 21.21916443 10.77466229 17.45200348 10.82241058 C16.0151638 10.83724176 14.57823525 10.84514358 13.14131927 10.84598541 C11.12796159 10.8483512 9.11469038 10.87769222 7.1015625 10.90820312 C5.95572693 10.91708557 4.80989136 10.92596802 3.6293335 10.93511963 C0.09476649 11.55722274 -1.09045125 12.71328735 -3.31933594 15.45410156 C-8.19433594 13.70410156 -8.19433594 13.70410156 -9.31933594 11.45410156 C-9.89770705 5.20769353 -9.89770705 5.20769353 -7.63226318 2.25592041 C-4.83005402 0.07294068 -3.51478241 -0.03347412 0 0 Z " fill="#65D7F7" transform="translate(105.3193359375,244.5458984375)"/>
<path d="M0 0 C5.96313166 -0.02464574 11.92623395 -0.042834 17.8894043 -0.05493164 C19.91968298 -0.05997278 21.94995802 -0.06680557 23.98022461 -0.07543945 C26.89177347 -0.08751467 29.8032745 -0.09323034 32.71484375 -0.09765625 C33.6283812 -0.10281754 34.54191864 -0.10797882 35.48313904 -0.11329651 C37.65575427 -0.11349168 39.82827296 -0.06211805 42 0 C43 1 43 1 43.11352539 3.50024414 C43.10828857 4.58426514 43.10305176 5.66828613 43.09765625 6.78515625 C43.09443359 7.95498047 43.09121094 9.12480469 43.08789062 10.33007812 C43.07532227 12.17762695 43.07532227 12.17762695 43.0625 14.0625 C43.05798828 15.29806641 43.05347656 16.53363281 43.04882812 17.80664062 C43.03699608 20.87114117 43.02051173 23.93554721 43 27 C38.35482828 25.30491463 35.2831632 22.82476014 31.75 19.4375 C31.18442383 18.90463379 30.61884766 18.37176758 30.03613281 17.82275391 C16.51078289 5.02156578 16.51078289 5.02156578 15 2 C12.45058627 1.68758629 9.99638487 1.48696579 7.4375 1.375 C6.72658203 1.33632812 6.01566406 1.29765625 5.28320312 1.2578125 C3.52257575 1.16328217 1.76132272 1.08054183 0 1 C0 0.67 0 0.34 0 0 Z " fill="#FC6776" transform="translate(202,249)"/>
<path d="M0 0 C8.61108945 -0.82798937 15.74537692 2.01817849 22.78125 6.94921875 C29.57779961 12.65054124 35.37996717 20.05381873 37 29 C37.12205329 31.67540816 37.04467313 34.31961238 37 37 C34.36 37 31.72 37 29 37 C28.78085938 36.154375 28.56171875 35.30875 28.3359375 34.4375 C25.60007483 24.6506742 22.35966741 17.18909461 13.30078125 11.96484375 C9.0393863 10.17780716 4.56285364 9.56196911 0 9 C0 6.03 0 3.06 0 0 Z " fill="#FEC32A" transform="translate(140,117)"/>
<path d="M0 0 C0 2.97 0 5.94 0 9 C-0.6290625 9.08636719 -1.258125 9.17273438 -1.90625 9.26171875 C-10.84678017 10.72936602 -17.06994952 14.04875456 -22.75 21.1796875 C-26.16036931 26.14603781 -27.39542383 31.07515358 -28 37 C-30.97 37 -33.94 37 -37 37 C-36.13227843 28.62065891 -34.80014619 21.99407804 -30 15 C-29.4225 14.113125 -28.845 13.22625 -28.25 12.3125 C-20.78329314 4.63838461 -10.77183147 -0.30776661 0 0 Z " fill="#59D562" transform="translate(140,117)"/>
<path d="M0 0 C1.13888672 -0.02320313 1.13888672 -0.02320313 2.30078125 -0.046875 C6.01714327 -0.02084094 7.92623901 0.0833723 10.99609375 2.3125 C13.2224243 5.55079899 13.11549098 7.67027837 12.5 11.5 C9.6849299 14.4747149 7.98007588 15.42433587 3.90625 16.06640625 C2.6171875 16.06511719 1.328125 16.06382812 0 16.0625 C-1.93359375 16.09537109 -1.93359375 16.09537109 -3.90625 16.12890625 C-8.32164611 15.35621193 -9.78072577 13.99547538 -12.5 10.5 C-13.0625 7.4375 -13.0625 7.4375 -12.5 4.5 C-9.10587147 -0.35757096 -5.45375947 -0.11111225 0 0 Z " fill="#464A81" transform="translate(81.5,311.5)"/>
<path d="M0 0 C1.29808594 -0.01933594 2.59617187 -0.03867187 3.93359375 -0.05859375 C8.06740211 0.50652322 9.72474424 1.42238451 12.5625 4.4375 C13.17771155 8.26548298 13.28691782 10.38568296 11.05859375 13.62109375 C7.45366957 16.24439538 4.41464669 16.06280687 0.0625 16 C-0.69675781 16.02384766 -1.45601562 16.04769531 -2.23828125 16.07226562 C-6.29386061 16.06161174 -7.87789538 15.94788014 -10.96875 13.12890625 C-12.4375 10.4375 -12.4375 10.4375 -12.4375 6.8125 C-10.46830911 0.16648075 -6.44206295 0.0063846 0 0 Z " fill="#464981" transform="translate(81.4375,282.5625)"/>
<path d="M0 0 C1.13888672 -0.02320313 1.13888672 -0.02320313 2.30078125 -0.046875 C6.04118579 -0.02067252 7.92401659 0.07364608 10.99609375 2.34765625 C12.5 4.5 12.5 4.5 13.0625 7.4375 C12.29850798 11.59701212 10.77833228 12.87646112 7.5 15.5 C3.90625 16.1640625 3.90625 16.1640625 0 16.125 C-1.93359375 16.14433594 -1.93359375 16.14433594 -3.90625 16.1640625 C-8.30333449 15.35155776 -9.78371895 13.98649306 -12.5 10.5 C-13.0625 7.4375 -13.0625 7.4375 -12.5 4.5 C-9.10587147 -0.35757096 -5.45375947 -0.11111225 0 0 Z " fill="#474A81" transform="translate(81.5,254.5)"/>
<path d="M0 0 C1.93359375 -0.01933594 1.93359375 -0.01933594 3.90625 -0.0390625 C8.34024646 0.78026293 9.85552091 2.01426893 12.5 5.625 C12.8125 8.4375 12.8125 8.4375 12.5 10.625 C11.46359375 10.65078125 10.4271875 10.6765625 9.359375 10.703125 C7.98954199 10.75941951 6.61975195 10.81676655 5.25 10.875 C4.56808594 10.88917969 3.88617188 10.90335937 3.18359375 10.91796875 C-0.37112206 11.09052777 -2.20213559 11.3795897 -4.984375 13.671875 C-5.48453125 14.31640625 -5.9846875 14.9609375 -6.5 15.625 C-11.375 13.875 -11.375 13.875 -12.5 11.625 C-12.875 8.8125 -12.875 8.8125 -12.5 5.625 C-8.7304127 0.74460275 -6.07973828 -0.06079738 0 0 Z " fill="#65DAFA" transform="translate(75.5,301.375)"/>
<path d="M0 0 C1.2890625 -0.00128906 2.578125 -0.00257813 3.90625 -0.00390625 C8.02945488 0.64594669 9.76735573 1.414704 12.5 4.5625 C12.8125 7.8125 12.8125 7.8125 12.5 10.5625 C11.46359375 10.58828125 10.4271875 10.6140625 9.359375 10.640625 C7.98954199 10.69691951 6.61975195 10.75426655 5.25 10.8125 C4.56808594 10.82667969 3.88617188 10.84085938 3.18359375 10.85546875 C-0.37112206 11.02802777 -2.20213559 11.3170897 -4.984375 13.609375 C-5.48453125 14.25390625 -5.9846875 14.8984375 -6.5 15.5625 C-8.96800047 14.41076645 -10.54783565 13.51466435 -12.5 11.5625 C-12.9375 8.75 -12.9375 8.75 -12.5 5.5625 C-8.71778246 0.66786554 -6.09555674 -0.10362446 0 0 Z " fill="#64D9F9" transform="translate(75.5,244.4375)"/>
<path d="M0 0 C1.13888672 -0.02320313 1.13888672 -0.02320313 2.30078125 -0.046875 C5.9642367 -0.02121156 7.9453137 0.12336115 11.03125 2.21875 C12.75101572 4.88987548 12.84646831 6.38178522 12.5 9.5 C11.08847656 9.52126953 11.08847656 9.52126953 9.6484375 9.54296875 C1.57226197 9.5483324 1.57226197 9.5483324 -5.375 13.0625 C-6.07625 13.866875 -6.7775 14.67125 -7.5 15.5 C-12.33675937 11.38875453 -12.33675937 11.38875453 -13.0625 7.4375 C-11.63905566 0.00395734 -6.42450706 -0.13088979 0 0 Z " fill="#64DBFB" transform="translate(75.5,273.5)"/>
<path d="M0 0 C2.64 0 5.28 0 8 0 C8.77365302 10.44431579 4.59273704 18.13266714 -2 26 C-3.98 24.35 -5.96 22.7 -8 21 C-6.85248796 17.93996789 -5.52451334 15.07156068 -4 12.1875 C-1.96670119 8.20435868 -0.9353688 4.36505442 0 0 Z " fill="#EB4F5D" transform="translate(169,154)"/>
<path d="M0 0 C2.08218362 -0.10832169 4.16599129 -0.18573541 6.25 -0.25 C7.99023438 -0.31960937 7.99023438 -0.31960937 9.765625 -0.390625 C13 0 13 0 15.359375 1.703125 C17 4 17 4 18 9 C13.05 9 8.1 9 3 9 C2.01 6.03 1.02 3.06 0 0 Z " fill="#99E6FC" transform="translate(153,245)"/>
<path d="M0 0 C2.71097227 0.37392721 3.82000467 0.81357627 5.75 2.8125 C7 5 7 5 7 9 C5.1875 8.875 5.1875 8.875 3 8 C0 2.96428571 0 2.96428571 0 0 Z " fill="#97E6FC" transform="translate(164,274)"/>
</svg>
