<?xml version="1.0" encoding="UTF-8"?>
<svg version="1.1" xmlns="http://www.w3.org/2000/svg" width="512" height="512">
<path d="M0 0 C1.05700712 -0.00644889 2.11401423 -0.01289778 3.20305187 -0.0195421 C4.9356197 -0.01489629 4.9356197 -0.01489629 6.7031889 -0.01015663 C7.93504931 -0.01468774 9.16690972 -0.01921886 10.43609923 -0.02388728 C13.85270262 -0.03436043 17.26909556 -0.03585663 20.68570006 -0.03349853 C24.37156821 -0.0330904 28.05740496 -0.04412909 31.74325848 -0.05361366 C38.9636347 -0.07022567 46.18397828 -0.0757233 53.40437201 -0.07683842 C59.27375458 -0.07778881 65.14312637 -0.08189867 71.01250553 -0.08823967 C87.65437853 -0.10585275 104.29622574 -0.11507845 120.93810812 -0.11357872 C121.83525198 -0.11349881 122.73239585 -0.1134189 123.65672588 -0.11333656 C125.00408539 -0.11321392 125.00408539 -0.11321392 126.37866428 -0.1130888 C140.93560393 -0.11227592 155.4924401 -0.13141401 170.04934982 -0.1596133 C184.99735816 -0.18834164 199.94531604 -0.20215361 214.89335269 -0.20042574 C223.28510577 -0.19976182 231.67675037 -0.20525524 240.06847858 -0.22678185 C247.21353167 -0.24499302 254.35842711 -0.24934157 261.50349335 -0.235763 C265.14808412 -0.22923291 268.79237246 -0.22911723 272.43693447 -0.2464695 C276.39049069 -0.2650991 280.34360532 -0.25264658 284.29718304 -0.23720741 C286.01971262 -0.2526381 286.01971262 -0.2526381 287.77704078 -0.26838052 C295.54620088 -0.20127353 300.92761416 0.95968567 306.93284893 6.22211266 C307.47167706 6.87308922 308.01050518 7.52406578 308.56566143 8.19476891 C309.11995831 8.84316734 309.67425518 9.49156578 310.24534893 10.15961266 C312.90917459 14.02575963 313.94007975 17.52070962 313.94793034 22.19179058 C313.95437923 23.1651962 313.96082812 24.13860182 313.96747243 25.14150459 C313.96437523 26.20316705 313.96127803 27.26482951 313.95808697 28.35866356 C313.96261808 29.49251871 313.96714919 30.62637387 313.97181761 31.79458827 C313.98449996 35.60225801 313.98283875 39.40978543 313.98118877 43.21747398 C313.98608401 45.94411828 313.99391982 48.67075252 314.001544 51.39739037 C314.01815226 58.0402438 314.02365347 64.68306175 314.02476875 71.32593421 C314.02571933 76.72620956 314.02983012 82.1264732 314.03617001 87.52674484 C314.05378212 102.84051763 314.06300895 118.1542624 314.06150906 133.46804539 C314.06138919 134.70622934 314.06138919 134.70622934 314.0612669 135.96942711 C314.06118514 136.79589202 314.06110338 137.62235694 314.06101914 138.47386625 C314.0602063 151.866835 314.0793435 165.25969128 314.10754363 178.65262751 C314.13627677 192.40734339 314.15008368 206.16200443 314.14835608 219.91675109 C314.14769231 227.63781178 314.15317862 235.35875456 314.17471218 243.07978821 C314.19292969 249.65391976 314.19726674 256.22787996 314.18369333 262.80202583 C314.17716624 266.15506263 314.17921265 269.50750265 314.19439983 272.86055183 C314.20981234 276.49896979 314.20056917 280.13652425 314.18513775 283.77492332 C314.19542488 284.82989362 314.205712 285.88486392 314.21631086 286.97180301 C314.14645411 294.42434746 312.68832281 299.83647838 307.72581768 305.49945641 C307.07484112 306.03828453 306.42386456 306.57711266 305.75316143 307.13226891 C305.10476299 307.68656578 304.45636456 308.24086266 303.78831768 308.81195641 C299.68535645 311.63895018 296.11972881 312.50787301 291.17113018 312.45258141 C290.14954815 312.44613609 289.12796612 312.43969078 288.07542706 312.43305016 C287.0203294 312.41629234 285.96523174 312.39953453 284.87816143 312.38226891 C283.80372784 312.37324547 282.72929424 312.36422203 281.62230206 312.35492516 C278.97819289 312.33142196 276.33454271 312.29856466 273.69066143 312.25726891 C273.69954388 312.9285482 273.70842632 313.5998275 273.71757793 314.29144859 C273.80630638 321.29966246 273.86650174 328.30771585 273.91038799 335.31635094 C273.93046077 337.92937264 273.95772501 340.54234966 273.99241924 343.15521812 C274.04112578 346.91851413 274.06367454 350.68121439 274.08128643 354.44476891 C274.10193157 355.60653648 274.12257671 356.76830406 274.14384747 357.96527672 C274.14603287 365.92597273 273.11937348 371.34458359 267.72581768 377.49945641 C261.31271255 382.80772956 258.3795341 384.25726891 249.69066143 384.25726891 C249.69066143 405.37726891 249.69066143 426.49726891 249.69066143 448.25726891 C260.25066143 448.25726891 270.81066143 448.25726891 281.69066143 448.25726891 C281.77316143 452.29976891 281.85566143 456.34226891 281.94066143 460.50726891 C281.97707745 461.75540367 282.01349346 463.00353844 282.05101299 464.28949547 C282.19182742 478.74795701 277.11312613 489.51463007 267.37816143 500.00726891 C255.65080741 511.10637182 242.73030143 512.7083155 227.23146343 512.64494896 C225.5649622 512.64912633 223.89846382 512.65460606 222.23197067 512.66126877 C217.6714386 512.67568917 213.11108778 512.67148932 208.55054593 512.66410196 C203.6247303 512.65936415 198.69895354 512.67188557 193.77315044 512.68211937 C184.13038371 512.69930072 174.48768215 512.70014874 164.84490408 512.69490647 C157.00580284 512.69086227 149.16672083 512.69231129 141.32762051 512.69765472 C140.21119414 512.69840315 139.09476777 512.69915157 137.9445103 512.69992267 C135.67636641 512.70145417 133.40822253 512.70299252 131.14007865 512.70453764 C109.87786062 512.7182603 88.61567939 512.71282664 67.3534622 512.70135242 C47.91085654 512.69142047 28.46834605 512.70436052 9.02575506 512.72828662 C-10.94872856 512.75268165 -30.92316787 512.76228448 -50.8976661 512.75563389 C-62.10749811 512.75214256 -73.31725694 512.75436813 -84.52707767 512.77188492 C-94.06977739 512.78661192 -103.61235238 512.78723576 -113.15504967 512.76981401 C-118.02137424 512.76130578 -122.88747604 512.75915022 -127.75378895 512.77446556 C-132.21368281 512.78832776 -136.67316337 512.78352982 -141.13303341 512.76422632 C-142.74128072 512.76047071 -144.34956125 512.76337558 -145.95777892 512.77383798 C-162.09947879 512.87133274 -174.05347963 509.08368399 -186.05933857 497.94476891 C-196.35082637 487.07074406 -198.81044732 475.17298373 -198.49683857 460.63226891 C-198.43496357 456.54851891 -198.37308857 452.46476891 -198.30933857 448.25726891 C-187.74933857 448.25726891 -177.18933857 448.25726891 -166.30933857 448.25726891 C-166.31822102 445.28082359 -166.32710346 442.30437828 -166.33625507 439.23773766 C-166.41587765 411.93325944 -166.47557962 384.62879384 -166.51359989 357.32422894 C-166.51860262 353.74445428 -166.52377992 350.16467988 -166.52906513 346.58490562 C-166.53011437 345.87224718 -166.53116362 345.15958873 -166.53224465 344.42533457 C-166.54964244 332.89118023 -166.58117666 321.35710575 -166.61794975 309.82299876 C-166.65537664 297.98495521 -166.67757811 286.14695344 -166.68569255 274.30885315 C-166.69068503 267.66081249 -166.7031745 261.01292036 -166.7322588 254.36493492 C-166.75941371 248.10724763 -166.76778325 241.84981596 -166.76176929 235.59207535 C-166.76286948 233.29591482 -166.77082264 230.99974573 -166.78616047 228.70363617 C-166.80608895 225.56633391 -166.80126667 222.42999427 -166.79035664 219.2926693 C-166.802008 218.38603539 -166.81365937 217.47940147 -166.82566381 216.54529381 C-166.76007261 209.55758122 -164.98234182 204.3075748 -160.34449482 199.01508141 C-159.69351826 198.47625328 -159.04254169 197.93742516 -158.37183857 197.38226891 C-157.72344013 196.82797203 -157.07504169 196.27367516 -156.40699482 195.70258141 C-152.27450174 192.85523981 -148.6740138 192.00731638 -143.69288349 192.03021812 C-142.59211979 192.03036919 -141.49135609 192.03052025 -140.35723591 192.03067589 C-138.59135876 192.04615974 -138.59135876 192.04615974 -136.78980732 192.06195641 C-135.57609959 192.0647863 -134.36239185 192.0676162 -133.1119051 192.07053185 C-129.24011545 192.08171582 -125.36855816 192.1068176 -121.49683857 192.13226891 C-118.86988879 192.14230099 -116.24293538 192.15142644 -113.61597919 192.15961266 C-107.18035321 192.18164936 -100.74486249 192.2151095 -94.30933857 192.25726891 C-94.31822102 190.98464195 -94.32710346 189.712015 -94.33625507 188.40082359 C-94.41741712 176.39499095 -94.47734075 164.38921413 -94.51658726 152.38316917 C-94.53744275 146.21104033 -94.56572379 140.03913335 -94.61109638 133.86713219 C-94.65462588 127.90841052 -94.67849101 121.94990198 -94.68884754 115.99103355 C-94.69622608 113.72008472 -94.71063464 111.44914727 -94.7322588 109.17828941 C-94.76138643 105.99212189 -94.76529055 102.80682986 -94.76344013 99.62055016 C-94.77782124 98.68618629 -94.79220234 97.75182243 -94.80701923 96.78914452 C-94.76247488 89.67930227 -93.06703413 84.4042217 -88.34449482 79.01508141 C-87.69351826 78.47625328 -87.04254169 77.93742516 -86.37183857 77.38226891 C-85.72344013 76.82797203 -85.07504169 76.27367516 -84.40699482 75.70258141 C-80.27450174 72.85523981 -76.6740138 72.00731638 -71.69288349 72.03021812 C-70.59211979 72.03036919 -69.49135609 72.03052025 -68.35723591 72.03067589 C-66.59135876 72.04615974 -66.59135876 72.04615974 -64.78980732 72.06195641 C-63.57609959 72.0647863 -62.36239185 72.0676162 -61.1119051 72.07053185 C-57.24011545 72.08171582 -53.36855816 72.1068176 -49.49683857 72.13226891 C-46.86988879 72.14230099 -44.24293538 72.15142644 -41.61597919 72.15961266 C-35.18035321 72.18164936 -28.74486249 72.2151095 -22.30933857 72.25726891 C-22.31822102 71.58598961 -22.32710346 70.91471031 -22.33625507 70.22308922 C-22.42498352 63.21487535 -22.48517888 56.20682196 -22.52906513 49.19818687 C-22.5491379 46.58516517 -22.57640215 43.97218816 -22.61109638 41.35931969 C-22.65980292 37.59602369 -22.68235168 33.83332342 -22.69996357 30.06976891 C-22.72060871 28.90800133 -22.74125385 27.74623375 -22.7625246 26.54926109 C-22.76471001 18.58856508 -21.73805061 13.16995422 -16.34449482 7.01508141 C-15.36802998 6.20683922 -15.36802998 6.20683922 -14.37183857 5.38226891 C-13.72344013 4.82797203 -13.07504169 4.27367516 -12.40699482 3.70258141 C-8.39650113 0.93929898 -4.83754914 0.00747982 0 0 Z " fill="#E3EEF7" transform="translate(198.3093385696411,-0.25726890563964844)"/>
<path d="M0 0 C27.63358738 -0.06772257 55.26710755 -0.12298511 82.90075684 -0.15543652 C95.73155692 -0.1709048 108.56230177 -0.19199369 121.39306641 -0.22631836 C132.57646884 -0.25622177 143.75983128 -0.27557528 154.94327259 -0.28226548 C160.86470809 -0.28617612 166.78602916 -0.29536606 172.70742798 -0.31719017 C178.28220492 -0.33757006 183.85682043 -0.34383069 189.43163109 -0.33932304 C191.47622747 -0.34014756 193.52082931 -0.34610417 195.56539345 -0.35761642 C198.36101292 -0.37258393 201.1560261 -0.36893799 203.95166016 -0.36076355 C204.75712941 -0.36950207 205.56259867 -0.3782406 206.39247608 -0.38724393 C213.55027787 -0.33083139 220.18452471 1.39694647 225.62818629 6.38174689 C231.56313561 13.38287985 232.72902741 20.77676042 232.62818909 29.66470337 C232.63528347 30.79874709 232.64237786 31.93279082 232.64968723 33.10119951 C232.66721015 36.87982866 232.64919006 40.65742148 232.63110352 44.43603516 C232.63348718 47.15357764 232.64333895 49.87108191 232.65278625 52.58860779 C232.67111642 59.1900983 232.66268223 65.79129182 232.64469803 72.39277293 C232.63064565 77.75909658 232.62678488 83.12533986 232.6301403 88.49168015 C232.63061775 89.25679053 232.63109519 90.02190091 232.6315871 90.81019645 C232.63261347 92.36470428 232.63366883 93.91921209 232.63475286 95.47371988 C232.64331026 109.20324231 232.62667492 122.93262174 232.59692383 136.66210938 C232.56807744 149.97434492 232.56100945 163.28637458 232.57641602 176.59863281 C232.59318713 191.1097425 232.59720399 205.62075456 232.57970566 220.13186681 C232.57786134 221.67989499 232.57602661 223.22792318 232.57420158 224.77595139 C232.57328949 225.53753436 232.5723774 226.29911733 232.57143768 227.08377857 C232.5658388 232.44271635 232.56913329 237.80160635 232.57574654 243.16054153 C232.5834877 249.69249312 232.57669875 256.22424226 232.5515715 262.75615312 C232.53909545 266.08692708 232.53506234 269.41712439 232.54411316 272.7479496 C232.55280219 276.36205203 232.53685911 279.97523808 232.5146637 283.58926392 C232.52290446 284.63693267 232.53114523 285.68460141 232.53963572 286.7640177 C232.4554748 294.18896018 230.97923126 299.60024106 226.03515625 305.2421875 C219.62205112 310.55046066 216.68887267 312 208 312 C208 333.12 208 354.24 208 376 C157.84 376 107.68 376 56 376 C56 382.6 56 389.2 56 396 C50.35294118 405.88235294 50.35294118 405.88235294 44 408 C41.43110794 408.11134463 38.88861021 408.16762972 36.3190918 408.17700195 C35.53825226 408.18357315 34.75741272 408.19014435 33.95291138 408.19691467 C31.36834618 408.21662833 28.78383901 408.22830563 26.19921875 408.23828125 C24.87412261 408.24439454 24.87412261 408.24439454 23.52225685 408.25063133 C18.84695291 408.27148333 14.17167826 408.28578909 9.49633789 408.29516602 C4.67088978 408.30623169 -0.15409737 408.34063579 -4.97938251 408.38033772 C-8.69320018 408.40649801 -12.40690786 408.4148573 -16.12080956 408.41844749 C-17.89938662 408.42331458 -19.67795874 408.43493208 -21.45644569 408.45348549 C-23.94830376 408.4778661 -26.43896707 408.47691431 -28.9309082 408.4699707 C-30.02759575 408.48918579 -30.02759575 408.48918579 -31.1464386 408.50878906 C-36.23507403 408.45724031 -39.06865383 407.17279169 -43 404 C-51.0277696 395.10436341 -48 390.54358569 -48 376 C-90.24 376 -132.48 376 -176 376 C-176.16121214 324.66289064 -176.16121214 324.66289064 -176.1953125 303.1640625 C-176.21905478 288.31472249 -176.24697869 273.46547322 -176.30175781 258.61621094 C-176.34163266 247.80197217 -176.36743454 236.98780696 -176.37635398 226.17349672 C-176.38156758 220.44763872 -176.39381682 214.72199112 -176.42292023 208.99620056 C-176.45009935 203.60524171 -176.45843984 198.21457967 -176.45243073 192.82355881 C-176.45352983 190.84668235 -176.4614687 188.86979581 -176.4768219 186.89297867 C-176.49678885 184.1891545 -176.49191481 181.48644391 -176.48101807 178.78259277 C-176.49266943 178.00436016 -176.5043208 177.22612754 -176.51632524 176.42431211 C-176.44336888 169.70498033 -174.27712443 164.56634775 -169.81640625 159.5390625 C-169.07261719 158.90742188 -168.32882813 158.27578125 -167.5625 157.625 C-166.82128906 156.97789062 -166.08007812 156.33078125 -165.31640625 155.6640625 C-156.06677402 149.01930141 -148.74851834 152 -136 152 C-136 196.55 -136 241.1 -136 287 C-134.35 286.67 -132.7 286.34 -131 286 C-128.46391316 285.83089242 -125.93682863 285.69358966 -123.3984375 285.58203125 C-114.57551137 285.12378551 -105.8567519 284.14910357 -97.09863281 283.00805664 C-94.63461512 282.68874602 -92.16909253 282.38391706 -89.703125 282.08007812 C-79.77061937 280.82301579 -70.0480789 279.0624655 -60.27148438 276.91333008 C-56.81705349 276.1586548 -53.36319203 275.53635944 -49.8671875 275 C-42.18661872 273.77536858 -34.66486451 271.88290934 -27.125 270 C-26.35029358 269.80802032 -25.57558716 269.61604065 -24.77740479 269.41824341 C-9.70443271 265.66148864 4.95909794 260.97707978 19.59033203 255.77514648 C22 255 22 255 24 255 C24.268125 254.21625 24.53625 253.4325 24.8125 252.625 C26 250 26 250 29 248 C30.79030438 247.92710487 32.58333718 247.91633863 34.375 247.9375 C48.0208964 247.12579124 61.0237288 239.08186294 73 233 C71.69329346 232.99589111 70.38658691 232.99178223 69.0402832 232.98754883 C64.18506605 232.96575196 59.33065866 232.91145598 54.47583008 232.84741211 C52.37597422 232.82423704 50.2760022 232.80983756 48.17602539 232.80444336 C45.15437475 232.79515037 42.13454983 232.75415154 39.11328125 232.70703125 C38.17664139 232.7109639 37.24000153 232.71489655 36.27497864 232.71894836 C31.70903114 232.61709062 29.63552288 232.48422941 25.90698242 229.64331055 C24 227 24 227 23.375 224 C24.22241404 219.9324126 25.78808836 218.59001343 29 216 C32.29620361 215.44151306 32.29620361 215.44151306 36.09082031 215.53100586 C36.78600769 215.53979767 37.48119507 215.54858948 38.19744873 215.55764771 C39.70299793 215.57885306 41.20842441 215.61101145 42.71353912 215.65293694 C45.11346872 215.71576908 47.51112188 215.74091651 49.9118042 215.75526428 C56.73442908 215.80040519 63.55516028 215.89299398 70.37597656 216.05786133 C95.50708513 217.44321022 95.50708513 217.44321022 116.94311523 206.13525391 C117.44520004 205.61486038 117.94728485 205.09446686 118.46458435 204.55830383 C120.57787801 202.41350766 122.89609648 200.57351863 125.24755859 198.69831848 C127.90909841 196.55400907 130.45176894 194.27674488 133 192 C133.51933105 191.53706543 134.03866211 191.07413086 134.57373047 190.59716797 C146.21406488 180.17379397 156.75760118 169.35350398 166.13989258 156.82055664 C166.67657059 156.10396378 167.2132486 155.38737091 167.76618958 154.64906311 C168.17334702 154.10487228 168.58050446 153.56068146 169 153 C168.28308644 152.99945523 167.56617289 152.99891047 166.82753468 152.99834919 C149.38416673 152.9833825 131.94108254 152.94094039 114.49786091 152.86790943 C106.06242798 152.83325483 97.62715855 152.80790331 89.19165039 152.80444336 C81.83931779 152.8014041 74.48727633 152.78091905 67.1350562 152.73947543 C63.24194564 152.71813991 59.34924903 152.70554743 55.45607948 152.71384621 C51.79096892 152.72138321 48.1266973 152.70557954 44.46174049 152.67193985 C42.47675352 152.65977656 40.4916633 152.67230107 38.50668335 152.68556213 C28.8024604 152.56035434 28.8024604 152.56035434 25.70036316 149.64628601 C23.58502783 146.35417617 23.20044104 144.83788301 24 141 C26.50663174 137.89804368 27.99918962 136.19962352 31.96673298 135.40824986 C33.62558411 135.43137698 33.62558411 135.43137698 35.31794739 135.45497131 C36.59221085 135.45991608 37.8664743 135.46486084 39.17935181 135.46995544 C40.58417519 135.5005329 41.98899068 135.53147467 43.39379883 135.56274414 C44.87905307 135.57721782 46.36433246 135.58928219 47.84962463 135.59912109 C51.04469451 135.62419104 54.23913678 135.66383438 57.43390846 135.71406746 C62.48982262 135.79098333 67.54531042 135.82014552 72.60173035 135.83995056 C86.97849105 135.90244385 101.35418984 136.00905837 115.72973633 136.20874023 C123.67252504 136.31866401 131.61406835 136.3783836 139.55763453 136.38292021 C144.58136449 136.38854412 149.59931435 136.45539058 154.62173235 136.56770241 C157.75294016 136.62278379 160.88204565 136.61885307 164.01358604 136.59844208 C165.4601663 136.60064995 166.90694693 136.62670806 168.35258484 136.6789608 C172.90128797 136.83527291 176.76080871 136.72141654 181 135 C184.86204063 131.09098564 186.88854711 125.98562619 189 121 C189.736258 119.56707421 190.48151097 118.13855766 191.25 116.72265625 C191.84267411 115.50711429 192.42609091 114.28701346 193 113.0625 C193.32266846 112.37414062 193.64533691 111.68578125 193.9777832 110.9765625 C200.83378581 95.89633834 205.33964581 79.84520424 210 64 C140.7 64 71.4 64 0 64 C0 42.88 0 21.76 0 0 Z " fill="#C3DBEF" transform="translate(240,72)"/>
<path d="M0 0 C1.41089653 0.00022659 1.41089653 0.00022659 2.85029602 0.00045776 C3.85255722 0.01078033 4.85481842 0.02110291 5.88745117 0.03173828 C6.92359055 0.03456818 7.95972992 0.03739807 9.02726746 0.04031372 C12.32843699 0.05148624 15.62933273 0.07658573 18.93041992 0.10205078 C21.17195246 0.11208435 23.41348925 0.12120955 25.6550293 0.12939453 C31.14284921 0.14971227 36.63007898 0.18886712 42.11791992 0.22705078 C42.11791992 10.78705078 42.11791992 21.34705078 42.11791992 32.22705078 C37.49791992 32.55705078 32.87791992 32.88705078 28.11791992 33.22705078 C20.8633174 35.78148829 15.57953527 40.39815189 12.04499245 47.33178997 C10.83263125 51.11801142 10.82977734 54.71564822 10.83944702 58.64888 C10.83365462 59.49436392 10.82786222 60.33984783 10.82189429 61.21095246 C10.80489727 64.04228502 10.80201803 66.87345454 10.79907227 69.70483398 C10.78977389 71.7351064 10.77960535 73.76537499 10.76863098 75.79563904 C10.74130676 81.30755574 10.72617435 86.81944685 10.71320295 92.33141351 C10.69758306 98.09167434 10.67078919 103.85188283 10.64517212 109.61210632 C10.59836415 120.52003807 10.56162978 131.42797964 10.52849925 142.33596057 C10.4831494 157.0758278 10.42226959 171.81563032 10.36225128 186.55544376 C10.26809745 209.77928035 10.19471992 233.00313532 10.11791992 256.22705078 C52.35791992 256.22705078 94.59791992 256.22705078 138.11791992 256.22705078 C138.44791992 262.82705078 138.77791992 269.42705078 139.11791992 276.22705078 C141.92361416 281.83843927 143.64499897 284.4905903 149.11791992 287.22705078 C151.64376304 287.34078288 154.14268491 287.39486174 156.66943359 287.40405273 C157.44852081 287.41062393 158.22760803 287.41719513 159.03030396 287.42396545 C161.61549981 287.44371759 164.20063743 287.455367 166.78588867 287.46533203 C167.66895502 287.46940756 168.55202137 287.47348309 169.46184731 287.47768211 C174.13829948 287.4985538 178.81472224 287.51284917 183.49121094 287.5222168 C188.31546909 287.53326673 193.13926415 287.56764697 197.96335888 287.6073885 C201.67721903 287.63357462 205.39096936 287.64191054 209.10491371 287.64549828 C210.88266429 287.65036128 212.66041005 287.66196713 214.4380703 287.68053627 C216.93222708 287.70496437 219.42519304 287.70395604 221.91943359 287.69702148 C222.64853439 287.70983154 223.37763519 287.7226416 224.12882996 287.73583984 C229.17834204 287.68489699 233.41341785 286.72389349 237.11791992 283.22705078 C242.70668068 274.67132468 242.70668068 274.67132468 242.11791992 256.22705078 C302.83791992 256.22705078 363.55791992 256.22705078 426.11791992 256.22705078 C426.11791992 292.55060621 426.11791992 292.55060621 411.80541992 307.97705078 C400.0780659 319.0761537 387.15755992 320.67809738 371.65872192 320.61473083 C369.99222069 320.61890821 368.32572231 320.62438794 366.65922916 320.63105065 C362.09869709 320.64547104 357.53834627 320.6412712 352.97780442 320.63388383 C348.0519888 320.62914602 343.12621203 320.64166744 338.20040894 320.65190125 C328.5576422 320.66908259 318.91494064 320.66993062 309.27216257 320.66468834 C301.43306133 320.66064415 293.59397932 320.66209317 285.754879 320.6674366 C284.63845263 320.66818502 283.52202626 320.66893344 282.37176879 320.66970455 C280.10362491 320.67123605 277.83548102 320.6727744 275.56733714 320.67431951 C254.30511911 320.68804217 233.04293789 320.68260852 211.7807207 320.6711343 C192.33811503 320.66120234 172.89560454 320.67414239 153.45301355 320.69806849 C133.47852993 320.72246353 113.50409062 320.73206635 93.52959239 320.72541577 C82.31976038 320.72192443 71.11000155 320.72415 59.90018082 320.74166679 C50.3574811 320.7563938 40.81490611 320.75701764 31.27220882 320.73959588 C26.40588426 320.73108766 21.53978245 320.72893209 16.67346954 320.74424744 C12.21357569 320.75810964 7.75409513 320.75331169 3.29422508 320.7340082 C1.68597777 320.73025259 0.07769724 320.73315746 -1.53052042 320.74361985 C-17.6722203 320.84111462 -29.62622113 317.05346586 -41.63208008 305.91455078 C-51.92356788 295.04052593 -54.38318883 283.14276561 -54.06958008 268.60205078 C-54.00770508 264.51830078 -53.94583008 260.43455078 -53.88208008 256.22705078 C-43.32208008 256.22705078 -32.76208008 256.22705078 -21.88208008 256.22705078 C-21.89096252 253.25060547 -21.89984497 250.27416016 -21.90899658 247.20751953 C-21.98861916 219.90304131 -22.04832113 192.59857571 -22.0863414 165.29401082 C-22.09134413 161.71423615 -22.09652143 158.13446176 -22.10180664 154.5546875 C-22.10285588 153.84202905 -22.10390512 153.12937061 -22.10498616 152.39511645 C-22.12238395 140.8609621 -22.15391817 129.32688763 -22.19069126 117.79278064 C-22.22811815 105.95473708 -22.25031962 94.11673532 -22.25843406 82.27863503 C-22.26342654 75.63059437 -22.27591601 68.98270224 -22.30500031 62.3347168 C-22.33215521 56.0770295 -22.34052476 49.81959784 -22.3345108 43.56185722 C-22.33561099 41.2656967 -22.34356415 38.96952761 -22.35890198 36.67341805 C-22.37883046 33.53611578 -22.37400818 30.39977614 -22.36309814 27.26245117 C-22.37474951 26.35581726 -22.38640088 25.44918335 -22.39840531 24.51507568 C-22.33281412 17.5273631 -20.55508333 12.27735668 -15.91723633 6.98486328 C-15.26625977 6.44603516 -14.6152832 5.90720703 -13.94458008 5.35205078 C-13.29618164 4.79775391 -12.6477832 4.24345703 -11.97973633 3.67236328 C-8.12787058 1.01837757 -4.65673225 -0.02510368 0 0 Z " fill="#E3EEF7" transform="translate(53.882080078125,191.77294921875)"/>
<path d="M0 0 C1.46469727 0.00966797 1.46469727 0.00966797 2.95898438 0.01953125 C3.96638672 0.03628906 4.97378906 0.05304688 6.01171875 0.0703125 C7.03845703 0.07933594 8.06519531 0.08835938 9.12304688 0.09765625 C11.64867774 0.12115049 14.17382685 0.15400119 16.69921875 0.1953125 C16.69976352 0.91792456 16.70030828 1.64053661 16.70086956 2.38504601 C16.71586035 19.99707006 16.75839981 37.60881397 16.83130932 55.22069359 C16.86590947 63.73781552 16.89130829 72.25477645 16.89477539 80.77197266 C16.89782223 88.19869706 16.91840904 95.62513434 16.95974332 103.05174792 C16.98101009 106.98134543 16.99370678 110.91053541 16.98537254 114.84019089 C16.97779188 118.54552867 16.99381563 122.25004347 17.0272789 125.95523071 C17.03934191 127.94999107 17.02697549 129.94485334 17.01365662 131.93960571 C17.1125119 139.7546433 18.24871756 145.65951749 22.69921875 152.1953125 C24.89590185 154.48091375 24.89590185 154.48091375 27.32421875 155.7578125 C28.07960937 156.21285156 28.835 156.66789063 29.61328125 157.13671875 C33.09321582 158.90275296 35.81440928 159.32251826 39.65986919 159.3339777 C40.68996064 159.33945214 41.72005208 159.34492659 42.78135842 159.35056692 C43.9165587 159.35154503 45.05175897 159.35252314 46.22135925 159.35353088 C47.42448692 159.35846886 48.62761459 159.36340684 49.86720067 159.36849445 C53.21249439 159.38122431 56.5577463 159.38949835 59.90305459 159.39592111 C63.50836468 159.40391829 67.11365354 159.41761842 70.71894836 159.43063354 C76.96729557 159.45240597 83.21564491 159.47054766 89.46401024 159.48623848 C98.49814913 159.50893013 107.53226454 159.53707393 116.56638352 159.56655776 C131.22287487 159.61424232 145.87937582 159.65750416 160.53588867 159.69799805 C174.77515408 159.73734858 189.01441096 159.77877374 203.25366211 159.82299805 C204.13105064 159.82572232 205.00843917 159.82844659 205.91241523 159.83125342 C210.31392038 159.84493282 214.7154254 159.85865311 219.11693037 159.87239373 C255.6443431 159.98637208 292.17177293 160.09236607 328.69921875 160.1953125 C328.69921875 181.3153125 328.69921875 202.4353125 328.69921875 224.1953125 C289.09921875 224.1953125 249.49921875 224.1953125 208.69921875 224.1953125 C208.69921875 230.7953125 208.69921875 237.3953125 208.69921875 244.1953125 C203.05215993 254.07766544 203.05215993 254.07766544 196.69921875 256.1953125 C194.13032669 256.30665713 191.58782896 256.36294222 189.01831055 256.37231445 C188.23747101 256.37888565 187.45663147 256.38545685 186.65213013 256.39222717 C184.06756493 256.41194083 181.48305776 256.42361813 178.8984375 256.43359375 C177.57334136 256.43970704 177.57334136 256.43970704 176.2214756 256.44594383 C171.54617166 256.46679583 166.87089701 256.48110159 162.19555664 256.49047852 C157.37010853 256.50154419 152.54512138 256.53594829 147.71983624 256.57565022 C144.00601857 256.60181051 140.29231089 256.6101698 136.57840919 256.61375999 C134.79983213 256.61862708 133.02126001 256.63024458 131.24277306 256.64879799 C128.75091499 256.6731786 126.26025168 256.67222681 123.76831055 256.6652832 C122.671623 256.68449829 122.671623 256.68449829 121.55278015 256.70410156 C116.46414472 256.65255281 113.63056492 255.36810419 109.69921875 252.1953125 C101.67144915 243.29967591 104.69921875 238.73889819 104.69921875 224.1953125 C62.45921875 224.1953125 20.21921875 224.1953125 -23.30078125 224.1953125 C-23.46199339 172.85820314 -23.46199339 172.85820314 -23.49609375 151.359375 C-23.51983603 136.51003499 -23.54775994 121.66078572 -23.60253906 106.81152344 C-23.64241391 95.99728467 -23.66821579 85.18311946 -23.67713523 74.36880922 C-23.68234883 68.64295122 -23.69459807 62.91730362 -23.72370148 57.19151306 C-23.7508806 51.80055421 -23.75922109 46.40989217 -23.75321198 41.01887131 C-23.75431108 39.04199485 -23.76224995 37.06510831 -23.77760315 35.08829117 C-23.7975701 32.384467 -23.79269606 29.68175641 -23.78179932 26.97790527 C-23.79345068 26.19967266 -23.80510205 25.42144004 -23.81710649 24.61962461 C-23.74415013 17.90029283 -21.57790568 12.76166025 -17.1171875 7.734375 C-16.00150391 6.78691406 -16.00150391 6.78691406 -14.86328125 5.8203125 C-14.12207031 5.17320312 -13.38085938 4.52609375 -12.6171875 3.859375 C-8.52969427 0.92299707 -5.00519109 -0.05854025 0 0 Z " fill="#3588CB" transform="translate(87.30078125,223.8046875)"/>
<path d="M0 0 C27.63358738 -0.06772257 55.26710755 -0.12298511 82.90075684 -0.15543652 C95.73155692 -0.1709048 108.56230177 -0.19199369 121.39306641 -0.22631836 C132.57646884 -0.25622177 143.75983128 -0.27557528 154.94327259 -0.28226548 C160.86470809 -0.28617612 166.78602916 -0.29536606 172.70742798 -0.31719017 C178.28220492 -0.33757006 183.85682043 -0.34383069 189.43163109 -0.33932304 C191.47622747 -0.34014756 193.52082931 -0.34610417 195.56539345 -0.35761642 C198.36101292 -0.37258393 201.1560261 -0.36893799 203.95166016 -0.36076355 C204.75712941 -0.36950207 205.56259867 -0.3782406 206.39247608 -0.38724393 C213.19317814 -0.33364579 218.40922227 1.32361441 224.1875 5.0625 C239.61861529 21.17944264 232 42.3633241 232 64 C155.44 64 78.88 64 0 64 C0 42.88 0 21.76 0 0 Z " fill="#416F95" transform="translate(240,72)"/>
<path d="M0 0 C23.72207502 -0.09031952 47.44401066 -0.16399327 71.16621399 -0.20724869 C82.18102172 -0.2278674 93.19571497 -0.25597491 104.21044922 -0.30175781 C113.81172068 -0.34164658 123.41290923 -0.36743783 133.01426125 -0.37635398 C138.09738047 -0.38156524 143.18026251 -0.39379941 148.26330566 -0.42292023 C153.05018337 -0.45012146 157.83672674 -0.45843544 162.62367439 -0.45243073 C164.37802003 -0.45352885 166.13237714 -0.46145466 167.88665581 -0.4768219 C185.72175847 -0.625358 185.72175847 -0.625358 193.2421875 5.96484375 C193.78101563 6.61582031 194.31984375 7.26679687 194.875 7.9375 C195.42929687 8.58589844 195.98359375 9.23429688 196.5546875 9.90234375 C206.88176372 24.89055978 200 50.54351715 200 64 C134 64 68 64 0 64 C0 42.88 0 21.76 0 0 Z " fill="#FEC927" transform="translate(312,0)"/>
<path d="M0 0 C1.46469727 0.00966797 1.46469727 0.00966797 2.95898438 0.01953125 C3.96638672 0.03628906 4.97378906 0.05304688 6.01171875 0.0703125 C7.03845703 0.07933594 8.06519531 0.08835938 9.12304688 0.09765625 C11.64867774 0.12115049 14.17382685 0.15400119 16.69921875 0.1953125 C16.69976352 0.91792456 16.70030828 1.64053661 16.70086956 2.38504601 C16.71586035 19.99707006 16.75839981 37.60881397 16.83130932 55.22069359 C16.86590947 63.73781552 16.89130829 72.25477645 16.89477539 80.77197266 C16.89782223 88.19869706 16.91840904 95.62513434 16.95974332 103.05174792 C16.98101009 106.98134543 16.99370678 110.91053541 16.98537254 114.84019089 C16.97779188 118.54552867 16.99381563 122.25004347 17.0272789 125.95523071 C17.03934191 127.94999107 17.02697549 129.94485334 17.01365662 131.93960571 C17.1125119 139.7546433 18.24871756 145.65951749 22.69921875 152.1953125 C24.89590185 154.48091375 24.89590185 154.48091375 27.32421875 155.7578125 C28.07960937 156.21285156 28.835 156.66789063 29.61328125 157.13671875 C33.77670076 159.24961517 37.12146323 159.33051229 41.74162292 159.35353088 C42.46289141 159.35846886 43.1841599 159.36340684 43.92728502 159.36849445 C46.35020264 159.38388331 48.77309373 159.39223382 51.19604492 159.40063477 C52.93045791 159.4102122 54.66486855 159.4202222 56.39927673 159.43063354 C61.11380981 159.45770327 65.82835291 159.47870165 70.54292083 159.49863553 C75.4677042 159.52048232 80.39245658 159.5478774 85.31721497 159.57469177 C94.6456639 159.62463634 103.97413002 159.66956863 113.3026126 159.71271414 C123.92160579 159.76207144 134.54056788 159.81699515 145.159531 159.87239373 C167.00606462 159.98624086 188.85262792 160.09307396 210.69921875 160.1953125 C167.4641083 189.01871947 81.62325004 187.80466788 30.75170898 192.94042969 C29.98632812 193.01805542 29.22094727 193.09568115 28.43237305 193.17565918 C26.37170408 193.38377876 24.31074025 193.58897296 22.24975586 193.79394531 C19.03907935 194.15689327 15.88483328 194.66294116 12.69921875 195.1953125 C11.26379765 195.31680975 9.8258639 195.41287152 8.38671875 195.4765625 C7.23816406 195.53263672 7.23816406 195.53263672 6.06640625 195.58984375 C3.69921875 195.6953125 3.69921875 195.6953125 1.33203125 195.80078125 C-1.87875822 195.95753697 -4.94996724 196.12904763 -8.11328125 196.7265625 C-11.30694235 197.19621854 -14.27477355 197.2408984 -17.5 197.22460938 C-18.58498779 197.22037964 -19.66997559 197.2161499 -20.7878418 197.21179199 C-22.03174683 197.20363464 -22.03174683 197.20363464 -23.30078125 197.1953125 C-23.39425752 173.9948161 -23.46477666 150.79435079 -23.50802994 127.59370422 C-23.52864775 116.82103171 -23.55675351 106.04847627 -23.60253906 95.27587891 C-23.64243062 85.88555828 -23.66821974 76.49532244 -23.67713523 67.10491943 C-23.68234602 62.13358055 -23.69457717 57.16248423 -23.72370148 52.19122314 C-23.75090714 47.50940277 -23.75921581 42.82792425 -23.75321198 38.14603233 C-23.75430991 36.43038766 -23.7622331 34.71473122 -23.77760315 32.99915504 C-23.92742359 15.40959636 -23.92742359 15.40959636 -17.1171875 7.734375 C-16.00150391 6.78691406 -16.00150391 6.78691406 -14.86328125 5.8203125 C-14.12207031 5.17320312 -13.38085938 4.52609375 -12.6171875 3.859375 C-8.52969427 0.92299707 -5.00519109 -0.05854025 0 0 Z " fill="#5399D3" transform="translate(87.30078125,223.8046875)"/>
<path d="M0 0 C1.50802185 -0.00043808 1.50802185 -0.00043808 3.04650879 -0.00088501 C6.36336961 0.00050626 9.68000468 0.01605812 12.99682617 0.03173828 C15.29896421 0.03546913 17.60110383 0.03831576 19.90324402 0.04031372 C25.95804235 0.04794451 32.01274451 0.06758836 38.06750488 0.08972168 C45.33459231 0.11379199 52.60171192 0.12296372 59.86882782 0.1346283 C70.90505038 0.15401296 81.94106197 0.19233958 92.97729492 0.22705078 C92.97729492 21.34705078 92.97729492 42.46705078 92.97729492 64.22705078 C53.37729492 64.22705078 13.77729492 64.22705078 -27.02270508 64.22705078 C-27.02270508 13.79166311 -27.02270508 13.79166311 -21.05786133 6.98486328 C-20.40688477 6.44603516 -19.7559082 5.90720703 -19.08520508 5.35205078 C-18.43680664 4.79775391 -17.7884082 4.24345703 -17.12036133 3.67236328 C-11.57332 -0.1496205 -6.51878381 -0.04959389 0 0 Z " fill="#427096" transform="translate(131.022705078125,71.77294921875)"/>
<path d="M0 0 C1.50802185 -0.00043808 1.50802185 -0.00043808 3.04650879 -0.00088501 C6.36336961 0.00050626 9.68000468 0.01605812 12.99682617 0.03173828 C15.29896421 0.03546913 17.60110383 0.03831576 19.90324402 0.04031372 C25.95804235 0.04794451 32.01274451 0.06758836 38.06750488 0.08972168 C45.33459231 0.11379199 52.60171192 0.12296372 59.86882782 0.1346283 C70.90505038 0.15401296 81.94106197 0.19233958 92.97729492 0.22705078 C92.97729492 21.34705078 92.97729492 42.46705078 92.97729492 64.22705078 C53.37729492 64.22705078 13.77729492 64.22705078 -27.02270508 64.22705078 C-27.02270508 13.79166311 -27.02270508 13.79166311 -21.05786133 6.98486328 C-20.40688477 6.44603516 -19.7559082 5.90720703 -19.08520508 5.35205078 C-18.43680664 4.79775391 -17.7884082 4.24345703 -17.12036133 3.67236328 C-11.57332 -0.1496205 -6.51878381 -0.04959389 0 0 Z " fill="#FECA28" transform="translate(203.022705078125,-0.22705078125)"/>
<path d="M0 0 C7.66931154 0.52891804 12.02889854 2.64888751 17.25 8.4375 C29.69542483 22.85679597 22 49.97604889 22 64 C-40.04 64 -102.08 64 -166 64 C-166 63.67 -166 63.34 -166 63 C-165.17089111 62.89977539 -164.34178223 62.79955078 -163.48754883 62.69628906 C-146.87623287 60.6699865 -130.36949978 58.53578952 -114 55 C-112.90461914 54.76974121 -111.80923828 54.53948242 -110.68066406 54.30224609 C-72.58056999 46.21962041 -22.75854929 34.83655132 0 0 Z " fill="#ECB200" transform="translate(490,0)"/>
<path d="M0 0 C6.2749335 -0.99077897 9.85892765 0.44330059 14.94921875 4.14453125 C18.9270859 7.74355391 21.31665631 11.94996893 23 17 C23 32.18 23 47.36 23 63 C-37.72 63 -98.44 63 -161 63 C-161 62.67 -161 62.34 -161 62 C-160.14059814 61.86948242 -159.28119629 61.73896484 -158.39575195 61.60449219 C-71.69465322 50.33808963 -71.69465322 50.33808963 -2 3 C-1.34 2.01 -0.68 1.02 0 0 Z " fill="#365B7A" transform="translate(449,73)"/>
<path d="M0 0 C1.26100525 0.00022659 2.5220105 0.00045319 3.82122803 0.00068665 C5.19234575 0.01600535 6.56345983 0.03165332 7.93457031 0.04760742 C9.34132434 0.05320531 10.74808422 0.0574745 12.15484619 0.06047058 C15.85064955 0.07190432 19.54609711 0.10135837 23.24176025 0.13458252 C27.01561673 0.16531541 30.78953091 0.17898276 34.56347656 0.1940918 C41.96337805 0.22622988 49.36298675 0.27740793 56.76269531 0.34057617 C56.83885856 7.63624371 56.89134292 14.93180841 56.92749023 22.2277832 C56.94256194 24.70894197 56.96302277 27.19007417 56.98901367 29.67114258 C57.02546698 33.24070806 57.04243824 36.80992079 57.05566406 40.37963867 C57.07114792 41.48610748 57.08663177 42.59257629 57.10258484 43.73257446 C57.10398414 50.15886442 56.79511812 55.01596679 52.26269531 59.98510742 C48.0764096 63.24474135 45.2663682 64.45650198 40.01928711 64.51757812 C38.57715096 64.53683098 38.57715096 64.53683098 37.10588074 64.55647278 C35.54961723 64.56755318 35.54961723 64.56755318 33.96191406 64.57885742 C32.35821709 64.59096504 32.35821709 64.59096504 30.72212219 64.60331726 C28.45840067 64.61715208 26.19465834 64.62787693 23.9309082 64.63574219 C20.47404357 64.65295741 17.01813471 64.69685033 13.56152344 64.7409668 C11.36166067 64.7510937 9.16178979 64.75960981 6.96191406 64.76635742 C5.93047775 64.78386551 4.89904144 64.8013736 3.83634949 64.81941223 C-2.20051129 64.80122128 -5.63767516 64.3549737 -10.23730469 60.34057617 C-16.86620335 52.99503981 -15.52831951 44.37889399 -15.58740234 35.03662109 C-15.60392767 33.12308562 -15.63117238 31.209611 -15.66943359 29.29638672 C-15.72450855 26.52563727 -15.74612442 23.75633228 -15.76074219 20.98510742 C-15.78341156 20.13898392 -15.80608093 19.29286041 -15.82943726 18.4210968 C-15.80786778 12.28663776 -14.26665212 8.02389465 -10.23730469 3.34057617 C-6.91931407 0.16656406 -4.52571475 -0.02715429 0 0 Z " fill="#ECB201" transform="translate(167.2373046875,271.659423828125)"/>
<path d="M0 0 C1.26100525 0.00022659 2.5220105 0.00045319 3.82122803 0.00068665 C5.19234575 0.01600535 6.56345983 0.03165332 7.93457031 0.04760742 C9.34132434 0.05320531 10.74808422 0.0574745 12.15484619 0.06047058 C15.85064955 0.07190432 19.54609711 0.10135837 23.24176025 0.13458252 C27.01561673 0.16531541 30.78953091 0.17898276 34.56347656 0.1940918 C41.96337805 0.22622988 49.36298675 0.27740793 56.76269531 0.34057617 C56.83885856 7.63624371 56.89134292 14.93180841 56.92749023 22.2277832 C56.94256194 24.70894197 56.96302277 27.19007417 56.98901367 29.67114258 C57.02546698 33.24070806 57.04243824 36.80992079 57.05566406 40.37963867 C57.07114792 41.48610748 57.08663177 42.59257629 57.10258484 43.73257446 C57.10398414 50.15886442 56.79511812 55.01596679 52.26269531 59.98510742 C48.0764096 63.24474135 45.2663682 64.45650198 40.01928711 64.51757812 C38.57715096 64.53683098 38.57715096 64.53683098 37.10588074 64.55647278 C35.54961723 64.56755318 35.54961723 64.56755318 33.96191406 64.57885742 C32.35821709 64.59096504 32.35821709 64.59096504 30.72212219 64.60331726 C28.45840067 64.61715208 26.19465834 64.62787693 23.9309082 64.63574219 C20.47404357 64.65295741 17.01813471 64.69685033 13.56152344 64.7409668 C11.36166067 64.7510937 9.16178979 64.75960981 6.96191406 64.76635742 C5.93047775 64.78386551 4.89904144 64.8013736 3.83634949 64.81941223 C-2.20051129 64.80122128 -5.63767516 64.3549737 -10.23730469 60.34057617 C-16.86620335 52.99503981 -15.52831951 44.37889399 -15.58740234 35.03662109 C-15.60392767 33.12308562 -15.63117238 31.209611 -15.66943359 29.29638672 C-15.72450855 26.52563727 -15.74612442 23.75633228 -15.76074219 20.98510742 C-15.78341156 20.13898392 -15.80608093 19.29286041 -15.82943726 18.4210968 C-15.80786778 12.28663776 -14.26665212 8.02389465 -10.23730469 3.34057617 C-6.91931407 0.16656406 -4.52571475 -0.02715429 0 0 Z " fill="#ECB201" transform="translate(167.2373046875,167.659423828125)"/>
<path d="M0 0 C34.32 0 68.64 0 104 0 C104 20 104 20 100 27 C94.95544496 31.67544126 90.96806516 32.15275005 84.3190918 32.17700195 C83.14783249 32.18685875 83.14783249 32.18685875 81.95291138 32.19691467 C79.36834618 32.21662833 76.78383901 32.22830563 74.19921875 32.23828125 C72.87412261 32.24439454 72.87412261 32.24439454 71.52225685 32.25063133 C66.84695291 32.27148333 62.17167826 32.28578909 57.49633789 32.29516602 C52.67088978 32.30623169 47.84590263 32.34063579 43.02061749 32.38033772 C39.30679982 32.40649801 35.59309214 32.4148573 31.87919044 32.41844749 C30.10061338 32.42331458 28.32204126 32.43493208 26.54355431 32.45348549 C24.05169624 32.4778661 21.56103293 32.47691431 19.0690918 32.4699707 C17.97240425 32.48918579 17.97240425 32.48918579 16.8535614 32.50878906 C11.76492597 32.45724031 8.93134617 31.17279169 5 28 C-3.0277696 19.10436341 0 14.54358569 0 0 Z " fill="#427096" transform="translate(192,448)"/>
<path d="M0 0 C0.64186202 -0.00638882 1.28372403 -0.01277764 1.94503641 -0.01936007 C4.08814449 -0.03457754 6.22939391 -0.01417424 8.37243652 0.00622559 C9.91184602 0.00272335 11.4512519 -0.00293638 12.99064636 -0.0105896 C17.16641329 -0.02483282 21.34152134 -0.00778102 25.51722527 0.01569557 C29.88843408 0.03580893 34.25961566 0.02992476 38.63085938 0.02758789 C45.97142396 0.02764146 53.31173109 0.04739519 60.65222168 0.07946777 C69.13708782 0.1163604 77.62161672 0.12514328 86.1065526 0.11817026 C94.2710071 0.1118635 102.43534604 0.12262276 110.59977722 0.14213562 C114.07335559 0.15030722 117.54687486 0.15301961 121.02046204 0.15144348 C125.11142548 0.15056408 129.20206879 0.16479545 133.29294777 0.19067001 C134.79373942 0.19782789 136.29456515 0.19991724 137.7953701 0.19655228 C139.84529049 0.19283305 141.89427889 0.20759859 143.9440918 0.22705078 C145.09076073 0.2307795 146.23742966 0.23450821 147.41884613 0.23834991 C150.83299269 0.66675092 152.72562287 1.58143644 155.4720459 3.62145996 C156.87662327 6.4306147 156.72099747 8.5095653 156.4720459 11.62145996 C154.69220185 14.75737566 153.94896383 15.46248732 150.4720459 16.62145996 C148.37809596 16.72366539 146.28101893 16.7651888 144.18460083 16.77536011 C142.86668045 16.78396057 141.54876007 16.79256104 140.19090271 16.80142212 C138.72683755 16.80585722 137.26277198 16.81015559 135.79870605 16.81433105 C134.2595959 16.82223306 132.72048759 16.83050207 131.18138123 16.83911133 C126.12464158 16.86531421 121.06789371 16.88063456 116.0111084 16.89489746 C114.27058278 16.90025735 112.53005722 16.90563486 110.78953171 16.91102982 C103.55100789 16.93265361 96.3124863 16.95139154 89.07393837 16.96265221 C78.69719945 16.97890102 68.32083438 17.0121069 57.9442364 17.06905305 C50.64904128 17.10772583 43.35394628 17.12728157 36.05865133 17.13257277 C31.70051773 17.13622914 27.34278303 17.14828079 22.98476028 17.18067551 C18.88556554 17.21071055 14.78701204 17.21708464 10.68773079 17.20529175 C9.18367563 17.20507064 7.6795911 17.21340626 6.1756382 17.23094559 C4.12080476 17.25360443 2.06830338 17.2453622 0.01345825 17.22946167 C-1.13580832 17.23277182 -2.28507488 17.23608196 -3.46916771 17.23949242 C-7.49135815 16.4268027 -8.99088219 14.77698306 -11.5279541 11.62145996 C-12.1529541 8.62145996 -12.1529541 8.62145996 -11.5279541 5.62145996 C-7.9222956 1.14005874 -5.71434455 -0.00355074 0 0 Z " fill="#365B7A" transform="translate(275.5279541015625,319.3785400390625)"/>
<path d="M0 0 C0.64186202 -0.00638882 1.28372403 -0.01277764 1.94503641 -0.01936007 C4.08814449 -0.03457754 6.22939391 -0.01417424 8.37243652 0.00622559 C9.91184602 0.00272335 11.4512519 -0.00293638 12.99064636 -0.0105896 C17.16641329 -0.02483282 21.34152134 -0.00778102 25.51722527 0.01569557 C29.88843408 0.03580893 34.25961566 0.02992476 38.63085938 0.02758789 C45.97142396 0.02764146 53.31173109 0.04739519 60.65222168 0.07946777 C69.13708782 0.1163604 77.62161672 0.12514328 86.1065526 0.11817026 C94.2710071 0.1118635 102.43534604 0.12262276 110.59977722 0.14213562 C114.07335559 0.15030722 117.54687486 0.15301961 121.02046204 0.15144348 C125.11142548 0.15056408 129.20206879 0.16479545 133.29294777 0.19067001 C134.79373942 0.19782789 136.29456515 0.19991724 137.7953701 0.19655228 C139.84529049 0.19283305 141.89427889 0.20759859 143.9440918 0.22705078 C145.09076073 0.2307795 146.23742966 0.23450821 147.41884613 0.23834991 C150.83299269 0.66675092 152.72562287 1.58143644 155.4720459 3.62145996 C156.87662327 6.4306147 156.72099747 8.5095653 156.4720459 11.62145996 C154.69220185 14.75737566 153.94896383 15.46248732 150.4720459 16.62145996 C148.37809596 16.72366539 146.28101893 16.7651888 144.18460083 16.77536011 C142.86668045 16.78396057 141.54876007 16.79256104 140.19090271 16.80142212 C138.72683755 16.80585722 137.26277198 16.81015559 135.79870605 16.81433105 C134.2595959 16.82223306 132.72048759 16.83050207 131.18138123 16.83911133 C126.12464158 16.86531421 121.06789371 16.88063456 116.0111084 16.89489746 C114.27058278 16.90025735 112.53005722 16.90563486 110.78953171 16.91102982 C103.55100789 16.93265361 96.3124863 16.95139154 89.07393837 16.96265221 C78.69719945 16.97890102 68.32083438 17.0121069 57.9442364 17.06905305 C50.64904128 17.10772583 43.35394628 17.12728157 36.05865133 17.13257277 C31.70051773 17.13622914 27.34278303 17.14828079 22.98476028 17.18067551 C18.88556554 17.21071055 14.78701204 17.21708464 10.68773079 17.20529175 C9.18367563 17.20507064 7.6795911 17.21340626 6.1756382 17.23094559 C4.12080476 17.25360443 2.06830338 17.2453622 0.01345825 17.22946167 C-1.13580832 17.23277182 -2.28507488 17.23608196 -3.46916771 17.23949242 C-7.49135815 16.4268027 -8.99088219 14.77698306 -11.5279541 11.62145996 C-12.1529541 8.62145996 -12.1529541 8.62145996 -11.5279541 5.62145996 C-7.9222956 1.14005874 -5.71434455 -0.00355074 0 0 Z " fill="#427096" transform="translate(275.5279541015625,207.3785400390625)"/>
<path d="M0 0 C1.2409845 0.00022659 2.48196899 0.00045319 3.76055908 0.00068665 C5.10958214 0.01600528 6.4586015 0.03165324 7.80761719 0.04760742 C9.19195089 0.05320542 10.57629055 0.05747456 11.96063232 0.06047058 C15.59725466 0.07190345 19.2335153 0.10135671 22.86999512 0.13458252 C26.58352771 0.1653173 30.29711896 0.17898317 34.01074219 0.1940918 C41.29215675 0.22622835 48.57327371 0.2774053 55.85449219 0.34057617 C56.01061667 13.52582216 50.12555752 26.05895137 41.10449219 35.65307617 C35.66787006 40.72867261 29.19551475 45.68427498 21.85449219 47.34057617 C26.78744363 41.37420773 32.15399602 35.95760533 37.66699219 30.52807617 C39.38411372 28.83637465 41.099075 27.14247669 42.81152344 25.44604492 C43.56409424 24.70507568 44.31666504 23.96410645 45.09204102 23.20068359 C47.35228494 20.81520106 47.8089175 19.75986327 48.16699219 16.46557617 C48.10234136 13.2953285 48.10234136 13.2953285 46.22949219 10.96557617 C43.92988381 9.19012214 43.92988381 9.19012214 41.10449219 8.65307617 C36.07013256 9.71803686 33.43679636 12.77600617 29.85449219 16.34057617 C29.09700684 17.08766846 29.09700684 17.08766846 28.32421875 17.84985352 C24.80702686 21.32019116 21.32221171 24.82084086 17.85449219 28.34057617 C15.85449219 27.34057617 13.85449219 26.34057617 11.85449219 25.34057617 C8.27272999 24.95125419 6.49167498 24.904609 3.47949219 26.96557617 C1.70403816 29.26518455 1.70403816 29.26518455 1.16699219 32.09057617 C2.42815542 38.05243871 7.13007461 41.70027653 11.41699219 45.77807617 C14.25150216 47.59506974 16.52645455 48.03099128 19.85449219 48.34057617 C12.63911021 55.55595815 -3.43520811 55.90201325 -13.14550781 57.34057617 C-15.52399421 52.64958987 -15.48402193 48.30396354 -15.51660156 43.16479492 C-15.53014427 41.83881035 -15.53014427 41.83881035 -15.54396057 40.48603821 C-15.55843662 38.61930717 -15.56734322 36.75252569 -15.57104492 34.88574219 C-15.58292633 32.04753938 -15.63212353 29.21152282 -15.68261719 26.3737793 C-15.69208436 24.55412837 -15.69931799 22.73446418 -15.70410156 20.91479492 C-15.72363388 20.07494553 -15.7431662 19.23509613 -15.76329041 18.36979675 C-15.71714306 12.26431619 -14.14905249 8.00458706 -10.14550781 3.34057617 C-6.84732519 0.19490007 -4.49513975 -0.02740939 0 0 Z " fill="#FEC928" transform="translate(167.1455078125,271.659423828125)"/>
<path d="M0 0 C1.2409845 0.00022659 2.48196899 0.00045319 3.76055908 0.00068665 C5.10958214 0.01600528 6.4586015 0.03165324 7.80761719 0.04760742 C9.19195089 0.05320542 10.57629055 0.05747456 11.96063232 0.06047058 C15.59725466 0.07190345 19.2335153 0.10135671 22.86999512 0.13458252 C26.58352771 0.1653173 30.29711896 0.17898317 34.01074219 0.1940918 C41.29215675 0.22622835 48.57327371 0.2774053 55.85449219 0.34057617 C56.01061667 13.52582216 50.12555752 26.05895137 41.10449219 35.65307617 C35.66787006 40.72867261 29.19551475 45.68427498 21.85449219 47.34057617 C26.78744363 41.37420773 32.15399602 35.95760533 37.66699219 30.52807617 C39.38411372 28.83637465 41.099075 27.14247669 42.81152344 25.44604492 C43.56409424 24.70507568 44.31666504 23.96410645 45.09204102 23.20068359 C47.35228494 20.81520106 47.8089175 19.75986327 48.16699219 16.46557617 C48.10234136 13.2953285 48.10234136 13.2953285 46.22949219 10.96557617 C43.92988381 9.19012214 43.92988381 9.19012214 41.10449219 8.65307617 C36.07013256 9.71803686 33.43679636 12.77600617 29.85449219 16.34057617 C29.09700684 17.08766846 29.09700684 17.08766846 28.32421875 17.84985352 C24.80702686 21.32019116 21.32221171 24.82084086 17.85449219 28.34057617 C15.85449219 27.34057617 13.85449219 26.34057617 11.85449219 25.34057617 C7.21167504 24.93177052 7.21167504 24.93177052 2.91699219 26.40307617 C1.11864376 29.68241742 1.24925534 31.6486314 1.85449219 35.34057617 C5.51510844 40.83662747 10.60160461 46.60407332 17.16699219 48.09057617 C18.05386719 48.17307617 18.94074219 48.25557617 19.85449219 48.34057617 C12.63911021 55.55595815 -3.43520811 55.90201325 -13.14550781 57.34057617 C-15.52399421 52.64958987 -15.48402193 48.30396354 -15.51660156 43.16479492 C-15.53014427 41.83881035 -15.53014427 41.83881035 -15.54396057 40.48603821 C-15.55843662 38.61930717 -15.56734322 36.75252569 -15.57104492 34.88574219 C-15.58292633 32.04753938 -15.63212353 29.21152282 -15.68261719 26.3737793 C-15.69208436 24.55412837 -15.69931799 22.73446418 -15.70410156 20.91479492 C-15.72363388 20.07494553 -15.7431662 19.23509613 -15.76329041 18.36979675 C-15.71714306 12.26431619 -14.14905249 8.00458706 -10.14550781 3.34057617 C-6.84732519 0.19490007 -4.49513975 -0.02740939 0 0 Z " fill="#FEC928" transform="translate(167.1455078125,167.659423828125)"/>
<path d="M0 0 C10.56 0 21.12 0 32 0 C32.0825 4.0425 32.165 8.085 32.25 12.25 C32.28641602 13.49813477 32.32283203 14.74626953 32.36035156 16.03222656 C32.50116599 30.49068811 27.4224647 41.25736116 17.6875 51.75 C5.17671153 63.59056766 -8.33271454 64.44151779 -24.625 64.1875 C-26.31379014 64.17242441 -28.0025933 64.1587411 -29.69140625 64.14648438 C-33.79459729 64.11370964 -37.8971521 64.06208718 -42 64 C-42 63.67 -42 63.34 -42 63 C-41.26136719 62.85304688 -40.52273438 62.70609375 -39.76171875 62.5546875 C-27.69882114 59.88766821 -17.66030061 54.95406293 -10 45 C-3.32720888 34.2667445 -0.7332018 24.09192376 -0.375 11.5625 C-0.25125 7.746875 -0.1275 3.93125 0 0 Z " fill="#C4DCF0" transform="translate(448,448)"/>
<path d="M0 0 C1.15497986 -0.0071553 2.30995972 -0.01431061 3.49993896 -0.02168274 C7.31733763 -0.03859035 11.13356552 -0.0191543 14.95092773 0.00219727 C17.60222444 0.00136882 20.2534804 -0.00103412 22.9047699 -0.00511169 C28.46057624 -0.00962932 34.01604554 0.0062177 39.57177734 0.03417969 C45.99251493 0.06624632 52.41264526 0.06620897 58.83342606 0.04896492 C65.01487684 0.03309612 71.19610525 0.03983448 77.37754631 0.05690193 C80.00623005 0.06209177 82.63493128 0.06159228 85.26361275 0.05535698 C88.93393964 0.04991882 92.60322878 0.07023673 96.2734375 0.09765625 C97.36393906 0.09113037 98.45444061 0.08460449 99.57798767 0.07788086 C106.92873629 0.17145658 106.92873629 0.17145658 110.24278259 2.53944397 C111.66529057 4.77786959 112.13966939 5.99537462 112.13452148 8.63110352 C112.15643555 9.29110352 112.17834961 9.95110352 112.20092773 10.63110352 C111.15502015 13.95721957 109.55473257 14.83449816 106.57202148 16.63110352 C102.80261379 17.23855711 99.06305534 17.18763301 95.25170898 17.16455078 C94.10808899 17.17316635 92.96446899 17.18178192 91.78619385 17.19065857 C88.00623947 17.21335995 84.22702388 17.20657183 80.44702148 17.19750977 C77.82055439 17.20274323 75.19408919 17.20901868 72.56762695 17.21629333 C67.06315801 17.22813592 61.55889964 17.22245331 56.05444336 17.20751953 C49.69614407 17.1905921 43.338531 17.20644306 36.98030663 17.23874241 C30.85651746 17.2686694 24.73304209 17.27062111 18.60919189 17.26124382 C16.0064403 17.26042281 13.40367456 17.26731464 10.80096436 17.28201485 C7.16424311 17.29940654 3.52899553 17.28496058 -0.10766602 17.26220703 C-1.18522156 17.27389923 -2.2627771 17.28559143 -3.37298584 17.29763794 C-10.65512077 17.20479541 -10.65512077 17.20479541 -14.59643555 14.27915955 C-16.42797852 11.63110352 -16.42797852 11.63110352 -17.05297852 8.63110352 C-15.13822042 -0.55973536 -7.71725213 -0.08289714 0 0 Z " fill="#427096" transform="translate(280.427978515625,287.368896484375)"/>
<path d="M0 0 C1.14362 -0.0087616 2.28723999 -0.01752319 3.46551514 -0.02655029 C7.24562524 -0.04855603 11.02456551 -0.03398574 14.8046875 -0.01708984 C17.43115463 -0.0204576 20.05762024 -0.02530987 22.68408203 -0.03158569 C28.18860548 -0.04067488 33.69279319 -0.02871402 39.19726562 -0.00488281 C45.5555849 0.02232767 51.9131025 0.01351295 58.27140236 -0.01401484 C64.39521517 -0.03946331 70.51867337 -0.03673885 76.64251709 -0.02210617 C79.24526074 -0.01876884 81.84802483 -0.02287064 84.45074463 -0.03450394 C88.08750741 -0.04719142 91.72272726 -0.02786139 95.359375 0 C96.43693054 -0.01012115 97.51448608 -0.02024231 98.62469482 -0.03067017 C105.90321021 0.07272413 105.90321021 0.07272413 109.85595703 2.9960022 C112.08349783 6.23395044 112.33571858 7.79279007 111.6796875 11.64697266 C109.89984345 14.78288836 109.15660543 15.48800001 105.6796875 16.64697266 C104.09235497 16.74662738 102.50122091 16.79048977 100.91079712 16.8008728 C99.9294429 16.80947327 98.94808868 16.81807373 97.93699646 16.82693481 C96.32390343 16.83332474 96.32390343 16.83332474 94.67822266 16.83984375 C92.9778611 16.85210999 92.9778611 16.85210999 91.2431488 16.86462402 C87.48502127 16.88947498 83.72693144 16.90599122 79.96875 16.92041016 C78.68693218 16.92573383 77.40511436 16.93105751 76.08445358 16.93654251 C70.69885424 16.95776849 65.31326718 16.97689935 59.9276371 16.9881649 C52.21336398 17.00440905 44.49959408 17.03760738 36.78551066 17.09456575 C30.70450732 17.13793392 24.62370147 17.15390952 18.54255295 17.16029739 C15.95652047 17.16702665 13.3704958 17.18229175 10.78456497 17.2061882 C7.16929805 17.237697 3.55530876 17.23789747 -0.06005859 17.23046875 C-1.13140549 17.24687408 -2.20275238 17.26327942 -3.30656433 17.28018188 C-10.54944902 17.21913814 -10.54944902 17.21913814 -14.48501587 14.29800415 C-16.3203125 11.64697266 -16.3203125 11.64697266 -16.9453125 8.64697266 C-15.04050191 -0.4961182 -7.68800846 -0.07221115 0 0 Z " fill="#427096" transform="translate(280.3203125,175.35302734375)"/>
<path d="M0 0 C2.64 0 5.28 0 8 0 C8.00054477 0.72261206 8.00108953 1.44522411 8.00165081 2.18973351 C8.0166416 19.80175756 8.05918106 37.41350147 8.13209057 55.02538109 C8.16669072 63.54250302 8.19208954 72.05946395 8.19555664 80.57666016 C8.19860348 88.00338456 8.21919029 95.42982184 8.26052457 102.85643542 C8.28179134 106.78603293 8.29448803 110.71522291 8.28615379 114.64487839 C8.27857313 118.35021617 8.29459688 122.05473097 8.32806015 125.75991821 C8.34012316 127.75467857 8.32775674 129.74954084 8.31443787 131.74429321 C8.41319058 139.55122225 9.53818615 145.47659837 14 152 C16.23367585 154.25334885 16.23367585 154.25334885 18.6875 155.5 C22.98406375 157.98406375 22.98406375 157.98406375 25 160 C19.03174151 160.49735487 14.91789674 159.49945214 10 156 C4.35837996 150.75637784 0.41671529 145.97888937 -0.24609566 138.05966377 C-0.24333028 136.50828618 -0.24333028 136.50828618 -0.24050903 134.92556763 C-0.24325836 133.73092392 -0.24600769 132.53628021 -0.24884033 131.30543518 C-0.24164978 130.0085527 -0.23445923 128.71167023 -0.22705078 127.37548828 C-0.22648617 125.98545846 -0.2268042 124.59542804 -0.22793579 123.20539856 C-0.22850836 119.44342452 -0.21676963 115.68157866 -0.20278788 111.91963434 C-0.1902645 107.98385427 -0.18910875 104.04807109 -0.18673706 100.11227417 C-0.18052701 92.6644678 -0.16412263 85.21672032 -0.14403808 77.76893985 C-0.12166429 69.28771281 -0.11068193 60.80648292 -0.10064721 52.3252337 C-0.07975598 34.8834551 -0.04458925 17.44173378 0 0 Z " fill="#3588CB" transform="translate(96,224)"/>
<path d="M0 0 C0.92776245 -0.01268417 1.8555249 -0.02536835 2.81140137 -0.03843689 C3.80627563 -0.03550125 4.8011499 -0.03256561 5.82617188 -0.02954102 C6.8542395 -0.03478287 7.88230713 -0.04002472 8.94152832 -0.04542542 C11.11351621 -0.05184428 13.28553886 -0.05051039 15.45751953 -0.04199219 C18.78285482 -0.03347816 22.10647486 -0.06225325 25.43164062 -0.09399414 C27.54231719 -0.09560612 29.65299681 -0.09502868 31.76367188 -0.09204102 C32.75854614 -0.10327499 33.75342041 -0.11450897 34.77844238 -0.12608337 C41.66118235 -0.05648943 41.66118235 -0.05648943 44.91772461 2.31005859 C46.39364109 4.55415284 46.8626296 5.73769525 46.85742188 8.40405273 C46.87933594 9.06405273 46.90125 9.72405273 46.92382812 10.40405273 C45.92724722 13.57330381 44.03108273 14.61038164 41.29492188 16.40405273 C37.99821472 16.8850708 37.99821472 16.8850708 34.2097168 16.8581543 C33.16986633 16.85903046 33.16986633 16.85903046 32.10900879 16.85992432 C29.83061651 16.85715019 27.5535527 16.82609306 25.27539062 16.79467773 C23.69070653 16.78721288 22.10601317 16.7815211 20.52131653 16.77752686 C16.36018166 16.76228956 12.19960955 16.72302481 8.03869629 16.67871094 C3.78889579 16.63771673 -0.46099607 16.61950702 -4.7109375 16.59936523 C-13.04257532 16.55652814 -21.37375662 16.4883006 -29.70507812 16.40405273 C-27.116574 14.44092851 -24.55104961 12.65303532 -21.73632812 11.02905273 C-20.63224609 10.38709961 -20.63224609 10.38709961 -19.50585938 9.73217773 C-17.97200521 8.84676107 -16.43815104 7.9613444 -14.90429688 7.07592773 C-13.80021484 6.43397461 -13.80021484 6.43397461 -12.67382812 5.77905273 C-12.00802734 5.39491211 -11.34222656 5.01077148 -10.65625 4.61499023 C-8.65753152 3.44097291 -8.65753152 3.44097291 -6.87719727 1.85362244 C-4.34153985 0.16144446 -3.01865934 0.02003651 0 0 Z " fill="#365B7A" transform="translate(345.705078125,287.595947265625)"/>
<path d="M0 0 C3.21142855 2.37366458 4.71584605 3.93442268 5.75 7.8125 C3.75495922 16.29142333 -6.33717127 23.48824543 -12.3125 29.4375 C-13.21806641 30.34693359 -14.12363281 31.25636719 -15.05664062 32.19335938 C-15.92095703 33.05638672 -16.78527344 33.91941406 -17.67578125 34.80859375 C-18.45864502 35.59032959 -19.24150879 36.37206543 -20.0480957 37.17749023 C-22.3391085 39.31662851 -23.54680513 39.91367717 -26.625 40.5 C-31.77813083 39.73657321 -34.43298431 36.61828696 -38 33 C-38.80244141 32.23042969 -38.80244141 32.23042969 -39.62109375 31.4453125 C-42.16637899 28.77744979 -42.9940855 27.03811567 -43.5625 23.375 C-43 20 -43 20 -41.4375 17.5625 C-38.08147594 15.41120253 -35.91578329 15.51052709 -32 16 C-29.5625 17.5 -29.5625 17.5 -28 19 C-24.75904935 17.58079247 -22.64164495 15.86691752 -20.1796875 13.33984375 C-19.47972656 12.62892578 -18.77976563 11.91800781 -18.05859375 11.18554688 C-17.33800781 10.44369141 -16.61742187 9.70183594 -15.875 8.9375 C-14.43712439 7.46526807 -12.99712292 5.99510844 -11.5546875 4.52734375 C-10.92030762 3.87499756 -10.28592773 3.22265137 -9.63232422 2.55053711 C-6.57319756 -0.35531293 -4.13388339 -0.48633922 0 0 Z " fill="#457193" transform="translate(211,176)"/>
<path d="M0 0 C3.21142855 2.37366458 4.71584605 3.93442268 5.75 7.8125 C3.75495922 16.29142333 -6.33717127 23.48824543 -12.3125 29.4375 C-13.21806641 30.34693359 -14.12363281 31.25636719 -15.05664062 32.19335938 C-15.92095703 33.05638672 -16.78527344 33.91941406 -17.67578125 34.80859375 C-18.45864502 35.59032959 -19.24150879 36.37206543 -20.0480957 37.17749023 C-22.3391085 39.31662851 -23.54680513 39.91367717 -26.625 40.5 C-31.7751085 39.73702096 -34.43793635 36.62057804 -38 33 C-38.53496094 32.47535156 -39.06992188 31.95070313 -39.62109375 31.41015625 C-41.88677028 28.99043939 -42.9599461 27.19626411 -43.625 23.9375 C-42.76756415 19.9075515 -41.28860314 18.43070667 -38 16 C-34.37170989 15.4076261 -32.74008151 15.5325801 -29.625 17.5 C-29.08875 17.995 -28.5525 18.49 -28 19 C-24.75904935 17.58079247 -22.64164495 15.86691752 -20.1796875 13.33984375 C-19.47972656 12.62892578 -18.77976563 11.91800781 -18.05859375 11.18554688 C-17.33800781 10.44369141 -16.61742187 9.70183594 -15.875 8.9375 C-14.43712439 7.46526807 -12.99712292 5.99510844 -11.5546875 4.52734375 C-10.92030762 3.87499756 -10.28592773 3.22265137 -9.63232422 2.55053711 C-6.57319756 -0.35531293 -4.13388339 -0.48633922 0 0 Z " fill="#467193" transform="translate(211,280)"/>
<path d="M0 0 C0 8.91 0 17.82 0 27 C-10.56 27 -21.12 27 -32 27 C-32 18.75 -32 10.5 -32 2 C-27.60432847 1.66440681 -23.20848537 1.33143445 -18.8125 1 C-17.56662109 0.90460938 -16.32074219 0.80921875 -15.03710938 0.7109375 C-13.83505859 0.62070312 -12.63300781 0.53046875 -11.39453125 0.4375 C-9.73707886 0.31181641 -9.73707886 0.31181641 -8.04614258 0.18359375 C-5.36825636 0.02219514 -2.68274563 0 0 0 Z " fill="#C4DCF0" transform="translate(64,421)"/>
<path d="M0 0 C2.64 0 5.28 0 8 0 C8 10.56 8 21.12 8 32 C5.36 32 2.72 32 0 32 C0 21.44 0 10.88 0 0 Z " fill="#C4DCF0" transform="translate(96,192)"/>
<path d="M0 0 C4.0743356 0.84881992 5.54405875 2.30225596 8 5.625 C8.625 8.625 8.625 8.625 8 11.625 C5.54405875 14.94774404 4.0743356 16.40118008 0 17.25 C-4.0743356 16.40118008 -5.54405875 14.94774404 -8 11.625 C-8.625 8.625 -8.625 8.625 -8 5.625 C-5.54405875 2.30225596 -4.0743356 0.84881992 0 0 Z " fill="#DCE9F3" transform="translate(200,95.375)"/>
<path d="M0 0 C4.0743356 0.84881992 5.54405875 2.30225596 8 5.625 C8.625 8.625 8.625 8.625 8 11.625 C5.54405875 14.94774404 4.0743356 16.40118008 0 17.25 C-4.0743356 16.40118008 -5.54405875 14.94774404 -8 11.625 C-8.625 8.625 -8.625 8.625 -8 5.625 C-5.54405875 2.30225596 -4.0743356 0.84881992 0 0 Z " fill="#DCE9F3" transform="translate(168,95.375)"/>
<path d="M0 0 C4.0743356 0.84881992 5.54405875 2.30225596 8 5.625 C8.625 8.625 8.625 8.625 8 11.625 C5.54405875 14.94774404 4.0743356 16.40118008 0 17.25 C-4.0743356 16.40118008 -5.54405875 14.94774404 -8 11.625 C-8.625 8.625 -8.625 8.625 -8 5.625 C-5.54405875 2.30225596 -4.0743356 0.84881992 0 0 Z " fill="#DCE9F3" transform="translate(136,95.375)"/>
<path d="M0 0 C4.0743356 0.84881992 5.54405875 2.30225596 8 5.625 C8.625 8.625 8.625 8.625 8 11.625 C5.54405875 14.94774404 4.0743356 16.40118008 0 17.25 C-4.0743356 16.40118008 -5.54405875 14.94774404 -8 11.625 C-8.625 8.625 -8.625 8.625 -8 5.625 C-5.54405875 2.30225596 -4.0743356 0.84881992 0 0 Z " fill="#E5EDEE" transform="translate(272,23.375)"/>
<path d="M0 0 C4.0743356 0.84881992 5.54405875 2.30225596 8 5.625 C8.625 8.625 8.625 8.625 8 11.625 C5.54405875 14.94774404 4.0743356 16.40118008 0 17.25 C-4.0743356 16.40118008 -5.54405875 14.94774404 -8 11.625 C-8.625 8.625 -8.625 8.625 -8 5.625 C-5.54405875 2.30225596 -4.0743356 0.84881992 0 0 Z " fill="#E5EDEE" transform="translate(240,23.375)"/>
<path d="M0 0 C4.0743356 0.84881992 5.54405875 2.30225596 8 5.625 C8.625 8.625 8.625 8.625 8 11.625 C5.54405875 14.94774404 4.0743356 16.40118008 0 17.25 C-4.0743356 16.40118008 -5.54405875 14.94774404 -8 11.625 C-8.625 8.625 -8.625 8.625 -8 5.625 C-5.54405875 2.30225596 -4.0743356 0.84881992 0 0 Z " fill="#E5EDEE" transform="translate(208,23.375)"/>
</svg>
