<?xml version="1.0" encoding="UTF-8"?>
<svg version="1.1" xmlns="http://www.w3.org/2000/svg" width="512" height="512">
<path d="M0 0 C0.97270222 -0.00551503 0.97270222 -0.00551503 1.96505499 -0.01114148 C4.13031663 -0.02212311 6.29553018 -0.02601277 8.46081543 -0.02983093 C10.01679637 -0.03609995 11.57277582 -0.04274713 13.12875366 -0.04974365 C18.23357103 -0.07074111 23.33838853 -0.08114465 28.4432373 -0.09111023 C30.2052563 -0.09515994 31.96727514 -0.09927692 33.72929382 -0.10346031 C42.01224939 -0.12250554 50.2951961 -0.13673581 58.57816935 -0.14507228 C68.11495964 -0.15483089 77.65151699 -0.18111716 87.18822527 -0.22157317 C94.57445733 -0.25182251 101.96062296 -0.26654964 109.34691572 -0.26985329 C113.75104086 -0.27219446 118.15491697 -0.28103196 122.55897522 -0.30631447 C126.70904491 -0.329754 130.85870443 -0.33376537 135.00882339 -0.32355309 C136.52241005 -0.32306139 138.03601799 -0.3292724 139.54954147 -0.34310913 C155.02367771 -0.47652653 169.0834917 3.03937521 180.9119873 13.55732727 C187.48920134 20.52848902 191.7766015 27.96054366 194.4119873 37.14717102 C194.5892334 37.70896057 194.76647949 38.27075012 194.94909668 38.8495636 C195.58980163 42.02977154 195.52293435 45.07609297 195.50964355 48.31904602 C195.50752113 49.34267242 195.50752113 49.34267242 195.50535583 50.38697815 C195.49977815 52.55708786 195.48722984 54.72709272 195.4744873 56.89717102 C195.46946942 58.37242994 195.46490701 59.84769049 195.46081543 61.32295227 C195.44981605 64.931059 195.43256683 68.53910477 195.4119873 72.14717102 C196.13702454 72.1427298 196.86206177 72.13828857 197.60906982 72.13371277 C204.49246543 72.09338695 211.37584303 72.06306131 218.25932693 72.04354668 C221.79691927 72.03317625 225.33441276 72.01914281 228.87194824 71.99629211 C232.95301175 71.97010001 237.0339739 71.96064262 241.1151123 71.95185852 C242.36560364 71.94153595 243.61609497 71.93121338 244.90447998 71.920578 C261.52564694 71.91848624 274.8470203 74.87008849 287.1541748 86.66279602 C296.78981193 97.26533099 299.87483647 108.13740171 299.81604004 122.19941711 C299.82633492 123.9429673 299.82633492 123.9429673 299.83683777 125.72174072 C299.85503704 129.53815666 299.85127767 133.35415878 299.84558105 137.17060852 C299.84899091 139.16473953 299.8524098 141.15887073 299.85693413 143.15299952 C299.87093268 149.41509911 299.8694577 155.67706215 299.85803223 161.93916321 C299.84656008 168.36833603 299.86062178 174.79709123 299.8874287 181.22620904 C299.90968547 186.77477722 299.91620065 192.32321528 299.91035229 197.87182486 C299.90700462 201.17311888 299.91099365 204.474089 299.92660332 207.77535629 C299.94158248 211.46259315 299.93078388 215.1489261 299.91369629 218.83613586 C299.92336426 219.90872147 299.93303223 220.98130707 299.94299316 222.08639526 C299.81169815 235.7064551 294.88150188 246.74422966 285.22058105 256.31904602 C282.39448614 258.83806985 279.56403274 261.0458074 276.4119873 263.14717102 C275.95674194 265.09261755 275.95674194 265.09261755 276.02671814 267.36906433 C276.01707031 268.25478622 276.00742249 269.14050812 275.9974823 270.05307007 C276.00205948 271.027556 276.00663666 272.00204193 276.01135254 273.00605774 C276.00437347 274.03070633 275.99739441 275.05535492 275.99020386 276.11105347 C275.97012666 279.51640408 275.97072687 282.92145378 275.97058105 286.32685852 C275.95881199 288.69422729 275.94544893 291.06158863 275.93055725 293.42893982 C275.89426118 299.68134479 275.8741463 305.93368407 275.85900879 312.18617249 C275.83425594 322.1585571 275.79424778 332.13079604 275.73710823 342.10304642 C275.72087207 345.5770894 275.7170084 349.05099406 275.71409607 352.52507019 C275.70430773 354.68149546 275.69404251 356.83791863 275.68322754 358.99433899 C275.68578049 359.94858261 275.68833344 360.90282623 275.69096375 361.88598633 C275.58227535 376.43379951 272.78643551 388.28658362 262.65808105 399.10420227 C251.03871759 409.67277112 238.08057544 410.2995685 223.14775085 410.28088379 C221.80400047 410.28275415 220.46025062 410.28505575 219.11650163 410.28774911 C215.43889385 410.2938456 211.76130888 410.29373606 208.0836972 410.29255474 C204.11153495 410.29235019 200.13937993 410.29787464 196.16722107 410.3026123 C188.39078816 410.31090746 180.61436284 410.31366663 172.83792587 410.31422468 C166.51526911 410.31470035 160.19261485 410.31675765 153.86995888 410.31992531 C135.93291083 410.32872855 117.99586876 410.33334517 100.05881854 410.33259483 C99.09247117 410.33255488 98.12612379 410.33251492 97.13049316 410.33247375 C95.67919668 410.33241243 95.67919668 410.33241243 94.19858108 410.33234987 C78.51871739 410.33194343 62.83887772 410.34151345 47.15902098 410.35561212 C31.04812609 410.36998376 14.93724291 410.37688188 -1.17365855 410.37601835 C-10.21432713 410.37568666 -19.25497052 410.3784212 -28.29563332 410.3891964 C-35.99275174 410.39831172 -43.68983357 410.40046814 -51.38695506 410.39368697 C-55.3113404 410.39042707 -59.23565556 410.39034592 -63.16003418 410.39904022 C-66.75817239 410.40692954 -70.35618504 410.40544913 -73.95432027 410.39675609 C-75.86054385 410.39450629 -77.76677139 410.40203059 -79.67297965 410.40999573 C-95.04490624 410.34866039 -106.90773432 407.50946194 -118.3223877 396.74092102 C-126.80402706 387.0309063 -128.91735299 375.6197 -128.74816895 363.1764679 C-128.74215164 362.10550369 -128.73613434 361.03453949 -128.72993469 359.93112183 C-128.71679015 357.61709138 -128.69968241 355.30308072 -128.67901611 352.98910522 C-128.64026698 348.06354714 -128.63827334 343.13819034 -128.63421631 338.21250153 C-128.62649002 329.05315572 -128.60468737 319.89450851 -128.51623535 310.73554993 C-128.45600429 304.35223493 -128.44443548 297.97042912 -128.4649353 291.58688354 C-128.4636597 289.15959054 -128.44440362 286.73223648 -128.40664673 284.30523682 C-127.64830132 271.56391088 -127.64830132 271.56391088 -131.75354004 259.99848938 C-134.2823151 257.98608898 -136.73504326 256.63582665 -139.5880127 255.14717102 C-149.55604911 244.61670493 -152.89037764 233.63766403 -152.87854004 219.4355011 C-152.88525726 218.27357239 -152.89197449 217.11164368 -152.89889526 215.914505 C-152.91785725 212.0818603 -152.92179883 208.24939094 -152.9239502 204.41670227 C-152.92875372 202.41900377 -152.93356105 200.42130523 -152.93887103 198.42360801 C-152.95512466 192.14289152 -152.96004292 185.8622323 -152.95861816 179.58149719 C-152.95741879 173.1302509 -152.97848651 166.67934026 -153.01010549 160.2281788 C-153.03637851 154.66694614 -153.04698081 149.10582232 -153.04570735 143.54452819 C-153.04520074 140.23310898 -153.05259355 136.92205258 -153.07206345 133.61068153 C-153.09178883 129.90878067 -153.08585831 126.20772988 -153.07385254 122.5058136 C-153.08509155 121.42851486 -153.09633057 120.35121613 -153.10791016 119.24127197 C-153.00023488 106.09157439 -148.46531202 95.55349337 -139.5567627 85.95967102 C-126.49435478 73.46519389 -111.64742438 71.80858564 -94.2911377 71.95185852 C-92.31896271 71.95610336 -92.31896271 71.95610336 -90.3069458 71.96043396 C-86.85465526 71.96797712 -83.40253991 71.9875423 -79.95031738 72.00984192 C-76.41030241 72.03050428 -72.87025842 72.03947873 -69.3302002 72.04951477 C-62.41606689 72.07079963 -55.50204826 72.10481902 -48.5880127 72.14717102 C-48.60372314 71.26045715 -48.61943359 70.37374329 -48.63562012 69.4601593 C-48.68719678 66.1239978 -48.72457761 62.78826894 -48.75280762 59.45185852 C-48.76775855 58.01656852 -48.78812694 56.58132311 -48.81433105 55.14619446 C-49.11155422 38.43176213 -45.2654498 25.51151619 -33.5880127 13.14717102 C-24.09570955 4.90133192 -12.56438845 0.04635153 0 0 Z M-26.5880127 31.14717102 C-34.85670185 43.0437181 -32.5880127 58.51732449 -32.5880127 72.14717102 C37.3719873 72.14717102 107.3319873 72.14717102 179.4119873 72.14717102 C180.4729172 46.94471269 180.4729172 46.94471269 169.2244873 26.39717102 C162.83559353 20.35931537 154.84114388 17.0355806 146.13368225 16.99327087 C144.81746384 16.98467041 143.50124542 16.97606995 142.1451416 16.96720886 C140.68273965 16.96277359 139.22033728 16.95847524 137.75793457 16.95429993 C136.22032995 16.94639745 134.68272717 16.93812841 133.14512634 16.92951965 C128.08956675 16.90330303 123.03399892 16.8879863 117.97839355 16.87373352 C116.23554924 16.86837254 114.49270498 16.86299503 112.74986076 16.85760117 C105.49505232 16.83596755 98.24024609 16.81723462 90.98541355 16.80597878 C80.60519625 16.78976636 70.22535488 16.75666024 59.84527928 16.69957793 C52.53893463 16.66077733 45.23269007 16.6413338 37.92624515 16.63605821 C33.56732842 16.63241683 29.20881267 16.62052674 24.85000801 16.58795547 C20.74176384 16.55769835 16.63415948 16.5516251 12.52582741 16.56333923 C11.02632502 16.56355855 9.52679143 16.55537271 8.02739334 16.53768539 C-6.36311172 16.37731613 -17.40583411 19.58659374 -26.5880127 31.14717102 Z " fill="#7AA3D3" transform="translate(182.5880126953125,46.85282897949219)"/>
<path d="M0 0 C3.20527847 0.57830012 6.10738938 1.36114109 9.14233398 2.53051758 C14.35508023 4.30073578 19.25386573 4.47445857 24.72265625 4.51171875 C25.70874374 4.52966995 26.69483124 4.54762115 27.71080017 4.56611633 C30.8279913 4.61984528 33.94503264 4.6539944 37.0625 4.6875 C39.1894738 4.72070613 41.31642793 4.75519879 43.44335938 4.79101562 C48.6287975 4.87555002 53.81419409 4.94253867 59 5 C59.05607422 6.73636719 59.05607422 6.73636719 59.11328125 8.5078125 C59.17897425 10.04690561 59.24542042 11.5859667 59.3125 13.125 C59.34633789 14.26582031 59.34633789 14.26582031 59.38085938 15.4296875 C59.61160083 20.29623461 60.35856646 23.76987817 63 28 C69.37081392 33.7492711 74.31133857 33.27570546 82.625 33.375 C84.37103516 33.43107422 84.37103516 33.43107422 86.15234375 33.48828125 C92.54648659 33.55345371 97.15647194 33.18007446 102.52490234 29.56884766 C108.49634894 23.21788509 106.58128925 12.53679355 107 5 C169.7 5 232.4 5 297 5 C297.33 10.94 297.66 16.88 298 23 C300.78333547 28.95098138 300.78333547 28.95098138 305.76123047 32.28955078 C310.57345333 33.81665749 315.56476249 33.52773288 320.5625 33.4375 C321.67302734 33.44458984 322.78355469 33.45167969 323.92773438 33.45898438 C330.6435582 33.40673679 335.47324715 32.91869202 340.8125 28.5 C342.99633582 25.74147055 343.15755765 22.9319871 343.31640625 19.55078125 C343.35830078 18.70322266 343.40019531 17.85566406 343.44335938 16.98242188 C343.50233398 15.66081055 343.50233398 15.66081055 343.5625 14.3125 C343.60568359 13.41982422 343.64886719 12.52714844 343.69335938 11.60742188 C343.79935353 9.40509892 343.90142051 7.20266527 344 5 C345.25546631 4.98018066 346.51093262 4.96036133 347.80444336 4.93994141 C352.49555344 4.86344064 357.1863712 4.77479417 361.87719727 4.68261719 C363.90122678 4.64451021 365.9253198 4.60962662 367.94946289 4.578125 C370.87148627 4.53207489 373.79307924 4.47414916 376.71484375 4.4140625 C378.05602516 4.39673569 378.05602516 4.39673569 379.42430115 4.37905884 C387.09857706 4.20179395 393.89648055 2.9249786 401 0 C401.99 0 402.98 0 404 0 C404.04645811 13.74380431 404.08193753 27.48758975 404.10362434 41.23145676 C404.11403592 47.61413102 404.12814702 53.99675132 404.15087891 60.37939453 C404.17270108 66.54560116 404.18458836 72.71175607 404.18975449 78.87799835 C404.19343345 81.2237657 404.20061733 83.5695304 404.21146011 85.91527557 C404.22609968 89.21538789 404.22797275 92.51528983 404.22705078 95.81542969 C404.23424133 96.7728154 404.24143188 97.73020111 404.24884033 98.71659851 C404.20519435 113.27109579 401.37303721 125.14091961 391.24609375 135.95703125 C379.62673029 146.5256001 366.66858814 147.15239748 351.73576355 147.13371277 C350.39201316 147.13558313 349.04826332 147.13788473 347.70451432 147.14057809 C344.02690654 147.14667458 340.34932157 147.14656504 336.6717099 147.14538372 C332.69954765 147.14517917 328.72739262 147.15070362 324.75523376 147.15544128 C316.97880086 147.16373644 309.20237553 147.16649561 301.42593857 147.16705366 C295.10328181 147.16752933 288.78062754 147.16958662 282.45797157 147.17275429 C264.52092353 147.18155753 246.58388146 147.18617414 228.64683124 147.18542381 C227.68048386 147.18538386 226.71413649 147.1853439 225.71850586 147.18530273 C224.26720938 147.18524141 224.26720938 147.18524141 222.78659377 147.18517885 C207.10673009 147.18477241 191.42689042 147.19434243 175.74703368 147.2084411 C159.63613879 147.22281273 143.52525561 147.22971086 127.41435415 147.22884732 C118.37368557 147.22851564 109.33304217 147.23125018 100.29237938 147.24202538 C92.59526095 147.2511407 84.89817913 147.25329712 77.20105764 147.24651595 C73.27667229 147.24325605 69.35235714 147.24317489 65.42797852 147.2518692 C61.82984031 147.25975852 58.23182766 147.25827811 54.63369242 147.24958507 C52.72746885 147.24733527 50.8212413 147.25485957 48.91503304 147.26282471 C33.54310646 147.20148937 21.68027838 144.36229092 10.265625 133.59375 C1.75547426 123.85109468 -0.31597115 112.38201826 -0.22705078 99.90234375 C-0.22734283 98.81852921 -0.22763489 97.73471466 -0.22793579 96.61805725 C-0.22654935 93.0577883 -0.21102032 89.49773211 -0.1953125 85.9375 C-0.19157994 83.46028762 -0.18873411 80.98307376 -0.18673706 78.50585938 C-0.17911979 72.00229784 -0.15948762 65.49882637 -0.1373291 58.99530029 C-0.1168296 52.35234632 -0.10772658 45.70938352 -0.09765625 39.06640625 C-0.07623998 26.04423253 -0.0425143 13.02212107 0 0 Z " fill="#FECA6B" transform="translate(54,310)"/>
<path d="M0 0 C7.47067316 -0.05105481 14.94130067 -0.08588149 22.41210938 -0.10986328 C24.94923585 -0.11986976 27.48635095 -0.13347911 30.0234375 -0.15087891 C33.68752873 -0.17536379 37.35146638 -0.18653701 41.015625 -0.1953125 C42.69449799 -0.21079636 42.69449799 -0.21079636 44.4072876 -0.22659302 C60.6495892 -0.22886441 73.75432092 3.02885895 85.7421875 14.515625 C95.37782463 25.11815997 98.46284917 35.99023069 98.40405273 50.05224609 C98.41434761 51.79579628 98.41434761 51.79579628 98.42485046 53.5745697 C98.44304974 57.39098564 98.43929036 61.20698776 98.43359375 65.0234375 C98.43700361 67.01756851 98.4404225 69.01169971 98.44494683 71.0058285 C98.45894537 77.26792809 98.4574704 83.52989113 98.44604492 89.79199219 C98.43457277 96.22116501 98.44863448 102.64992021 98.4754414 109.07903802 C98.49769817 114.6276062 98.50421335 120.17604426 98.49836498 125.72465384 C98.49501732 129.02594786 98.49900634 132.32691798 98.51461601 135.62818527 C98.52959517 139.31542213 98.51879658 143.00175508 98.50170898 146.68896484 C98.51137695 147.76155045 98.52104492 148.83413605 98.53100586 149.93922424 C98.39862006 163.67243808 93.35577678 174.19446172 84.01953125 184.1015625 C79.49124572 188.34965471 74.76514312 190.80058124 69 193 C68.13375 193.391875 67.2675 193.78375 66.375 194.1875 C60.06898359 196.3448214 53.49326492 196.13522333 46.91015625 196.09765625 C45.96563095 196.0962413 45.02110565 196.09482635 44.04795837 196.09336853 C41.05277237 196.0878036 38.05766313 196.07525767 35.0625 196.0625 C33.02278754 196.05748046 30.98307391 196.05291835 28.94335938 196.04882812 C23.96221034 196.03784567 18.98111815 196.0206054 14 196 C14.03480469 197.31355469 14.06960938 198.62710938 14.10546875 199.98046875 C14.13361466 201.71613301 14.16091396 203.45181115 14.1875 205.1875 C14.22520508 206.48397461 14.22520508 206.48397461 14.26367188 207.80664062 C14.32011196 212.71692818 14.22377852 216.02579323 11 220 C4.61768517 225.74408335 -1.03471155 225.24256281 -9.25 225.3125 C-10.37019531 225.34150391 -11.49039062 225.37050781 -12.64453125 225.40039062 C-19.35151 225.45186095 -23.57528932 225.05726283 -29 221 C-35.68741963 213.6438384 -33 206.89182663 -33 196 C-95.7 196 -158.4 196 -223 196 C-223 201.94 -223 207.88 -223 214 C-226.11126917 220.22253833 -227.67369363 222.61371823 -234 225 C-238.39747725 225.66730748 -242.6853903 225.65488783 -247.125 225.5625 C-248.27871094 225.57345703 -249.43242187 225.58441406 -250.62109375 225.59570312 C-257.02461897 225.54030931 -261.14822708 225.32547891 -266 221 C-266.5775 220.525625 -267.155 220.05125 -267.75 219.5625 C-271.50067508 214.87415616 -271.24913397 209.88333965 -271.125 204.1875 C-271.11597656 203.39923828 -271.10695313 202.61097656 -271.09765625 201.79882812 C-271.07422504 199.86575334 -271.03835838 197.9328362 -271 196 C-272.92694702 196.03927612 -272.92694702 196.03927612 -274.89282227 196.0793457 C-279.72906584 196.1708974 -284.56523544 196.2276253 -289.40209961 196.2746582 C-291.48230942 196.29956608 -293.56243392 196.33350535 -295.64233398 196.37719727 C-311.69370233 196.70556461 -326.17848897 196.37133533 -338.8515625 185.171875 C-347.71481597 176.2119315 -354.22937356 165.75889981 -354.22659302 152.87062073 C-354.21627045 152.14116745 -354.20594788 151.41171417 -354.1953125 150.66015625 C-354.1924826 149.89319931 -354.18965271 149.12624237 -354.18673706 148.33604431 C-354.17563475 145.91136379 -354.15054967 143.48706691 -354.125 141.0625 C-354.1149573 139.4082085 -354.10583372 137.75391115 -354.09765625 136.09960938 C-354.07572817 132.06626077 -354.04126843 128.0331952 -354 124 C-353.32495066 123.99940291 -352.64990133 123.99880582 -351.95439595 123.99819064 C-311.92995151 123.96228308 -271.90558445 123.90562319 -231.88120986 123.82207905 C-227.07355753 123.8120618 -222.26590486 123.80221764 -217.45825195 123.79248047 C-216.50115003 123.7905391 -215.5440481 123.78859772 -214.55794308 123.78659752 C-199.06834711 123.75559121 -183.57876594 123.73860069 -168.08914479 123.72680578 C-152.190905 123.71438713 -136.29274283 123.68686959 -120.39455205 123.64538693 C-110.58748419 123.620272 -100.78054509 123.60688126 -90.97344462 123.60857043 C-84.24490645 123.60860022 -77.51649927 123.59394066 -70.78801217 123.56783572 C-66.90818199 123.55321338 -63.02862044 123.54496643 -59.14876747 123.55419731 C-55.5908562 123.56251871 -52.03348332 123.55223612 -48.47565166 123.52766338 C-46.5909344 123.51934277 -44.70616155 123.53047978 -42.82146424 123.54249835 C-31.59584138 123.42978058 -21.65010565 120.35831293 -13 113 C-4.0744506 103.63259172 -0.88315102 93.83092558 -0.79467773 81.1706543 C-0.78477814 80.29210281 -0.77487854 79.41355133 -0.76467896 78.50837708 C-0.73317199 75.61368475 -0.70834933 72.71897603 -0.68359375 69.82421875 C-0.66301489 67.81353842 -0.64201817 65.80286233 -0.62062073 63.79219055 C-0.56549632 58.50686072 -0.51604463 53.22149247 -0.46777344 47.93609619 C-0.41748802 42.54004508 -0.36183873 37.14404958 -0.30664062 31.74804688 C-0.19917687 21.16541212 -0.09770582 10.58272903 0 0 Z " fill="#6594CC" transform="translate(384,119)"/>
<path d="M0 0 C94.71 0 189.42 0 287 0 C282.2785587 11.01669638 276.03775593 18.80903372 265.1875 24.140625 C258.42924274 26.79565464 252.65587354 27.28359686 245.43946838 27.24050903 C244.38809801 27.24221788 243.33672763 27.24392673 242.25349754 27.24568737 C238.73736936 27.24897653 235.22143282 27.23798784 231.70532227 27.22705078 C229.18215438 27.22648654 226.65898617 27.22680347 224.13581848 27.22793579 C218.70709872 27.22839095 213.27844047 27.22272521 207.84973335 27.21146011 C200.0008156 27.19518347 192.15192108 27.1899949 184.30298828 27.18748413 C171.56762027 27.18311042 158.83227792 27.16981012 146.09692383 27.15087891 C133.72811003 27.13251172 121.35930321 27.11835932 108.99047852 27.10986328 C108.22764671 27.10933783 107.46481491 27.10881239 106.67886699 27.10827102 C102.85183923 27.10566088 99.02481143 27.10313348 95.19778359 27.10064721 C63.46516964 27.0799248 31.73259023 27.04415641 0 27 C0 18.09 0 9.18 0 0 Z " fill="#FFD180" transform="translate(54,347)"/>
<path d="M0 0 C0.97270222 -0.00551503 0.97270222 -0.00551503 1.96505499 -0.01114148 C4.13031663 -0.02212311 6.29553018 -0.02601277 8.46081543 -0.02983093 C10.01679637 -0.03609995 11.57277582 -0.04274713 13.12875366 -0.04974365 C18.23357103 -0.07074111 23.33838853 -0.08114465 28.4432373 -0.09111023 C30.2052563 -0.09515994 31.96727514 -0.09927692 33.72929382 -0.10346031 C42.01224939 -0.12250554 50.2951961 -0.13673581 58.57816935 -0.14507228 C68.11495964 -0.15483089 77.65151699 -0.18111716 87.18822527 -0.22157317 C94.57445733 -0.25182251 101.96062296 -0.26654964 109.34691572 -0.26985329 C113.75104086 -0.27219446 118.15491697 -0.28103196 122.55897522 -0.30631447 C126.70904491 -0.329754 130.85870443 -0.33376537 135.00882339 -0.32355309 C136.52241005 -0.32306139 138.03601799 -0.3292724 139.54954147 -0.34310913 C155.02367771 -0.47652653 169.0834917 3.03937521 180.9119873 13.55732727 C187.48920134 20.52848902 191.7766015 27.96054366 194.4119873 37.14717102 C194.5892334 37.70444885 194.76647949 38.26172668 194.94909668 38.83589172 C195.60084443 42.09016173 195.52280766 45.22044079 195.50964355 48.53779602 C195.50752113 49.59471649 195.50752113 49.59471649 195.50535583 50.67298889 C195.49977664 52.91442686 195.48722804 55.15576345 195.4744873 57.39717102 C195.46946961 58.92060707 195.46490718 60.4440447 195.46081543 61.96748352 C195.45066665 65.69411612 195.4310874 69.42053062 195.4119873 73.14717102 C190.1319873 73.14717102 184.8519873 73.14717102 179.4119873 73.14717102 C179.36300293 71.61447571 179.31401855 70.0817804 179.2635498 68.50263977 C179.18844461 66.44663496 179.11290023 64.39064616 179.0369873 62.33467102 C178.99058105 60.82743469 178.99058105 60.82743469 178.9432373 59.28974915 C178.43915534 46.22562487 177.01473541 35.20978493 167.2244873 25.83467102 C158.50579024 17.88281921 148.1529995 17.55929774 136.96325684 17.61372375 C135.42461321 17.60665357 133.88597654 17.59790397 132.34735107 17.58761597 C128.19426209 17.56523332 124.04155622 17.56803571 119.88843012 17.57693744 C116.40957398 17.58207107 112.93078834 17.57473546 109.45193946 17.56746536 C101.23852605 17.55050114 93.02529857 17.55399639 84.81188965 17.570755 C76.36501493 17.58766819 67.91865732 17.57184509 59.47183907 17.53953212 C52.19503834 17.51275927 44.91839781 17.50558105 37.64155281 17.51404721 C33.30626881 17.51895464 28.97129562 17.51688028 24.63605118 17.49625969 C20.55636643 17.47778132 16.47741984 17.48400767 12.39777374 17.50845909 C10.90958135 17.513429 9.42133151 17.51007773 7.93318558 17.49731064 C-3.48812624 17.40715558 -13.39908925 18.98765015 -22.0880127 26.95967102 C-31.17911333 37.06927671 -31.80978342 49.23812031 -32.2130127 62.33467102 C-32.25168457 63.3820343 -32.29035645 64.42939758 -32.3302002 65.50849915 C-32.42320387 68.0544748 -32.50663154 70.60079736 -32.5880127 73.14717102 C-37.8680127 73.14717102 -43.1480127 73.14717102 -48.5880127 73.14717102 C-48.65741318 68.77236998 -48.71697898 64.39952826 -48.75280762 60.02461243 C-48.76776453 58.54082213 -48.78813764 57.05707503 -48.81433105 55.57344055 C-49.10495836 38.67146847 -45.41300304 25.66774904 -33.5880127 13.14717102 C-24.09570955 4.90133192 -12.56438845 0.04635153 0 0 Z " fill="#67625E" transform="translate(182.5880126953125,46.85282897949219)"/>
<path d="M0 0 C0.96035156 -0.02900391 1.92070312 -0.05800781 2.91015625 -0.08789062 C10.60918982 -0.15579255 16.72968511 1.08383832 22.59643555 6.2800293 C25.25386678 10.8109769 24.92860345 14.96247952 24.87109375 20.125 C24.87254898 21.17147705 24.87400421 22.2179541 24.87550354 23.29614258 C24.87384614 25.50507394 24.86230278 27.71401704 24.84155273 29.92285156 C24.81260174 33.30063008 24.82094723 36.67683828 24.83398438 40.0546875 C24.82774658 42.20313262 24.81935532 44.35157278 24.80859375 46.5 C24.81152939 47.50844971 24.81446503 48.51689941 24.81748962 49.5559082 C24.70002687 58.30233722 24.70002687 58.30233722 21.375 62.3125 C14.99268517 68.05658335 9.34028845 67.55506281 1.125 67.625 C0.00480469 67.65400391 -1.11539062 67.68300781 -2.26953125 67.71289062 C-8.97651 67.76436095 -13.20028932 67.36976283 -18.625 63.3125 C-26.41943765 54.73861858 -23.77655899 36.05942568 -23.9375 25.1875 C-23.967229 24.13353027 -23.99695801 23.07956055 -24.02758789 21.99365234 C-24.07574256 15.63216656 -23.49429045 10.53734162 -19.625 5.3125 C-13.17364323 0.17774665 -7.90221836 0.0776758 0 0 Z " fill="#68625E" transform="translate(373.625,276.6875)"/>
<path d="M0 0 C1.29744141 -0.01095703 2.59488281 -0.02191406 3.93164062 -0.03320312 C16.07150308 0.06003699 16.07150308 0.06003699 21.5625 4.5625 C25.43899575 9.25585543 24.99753299 14.10772405 24.9609375 19.90234375 C24.96380768 20.90205704 24.96667786 21.90177032 24.96963501 22.93177795 C24.97167303 25.04233365 24.96616153 27.15290835 24.95361328 29.26342773 C24.93757321 32.48529557 24.95346259 35.70590574 24.97265625 38.92773438 C24.97067344 40.98177359 24.96682899 43.03581203 24.9609375 45.08984375 C24.97004654 46.52915504 24.97004654 46.52915504 24.9793396 47.99754333 C24.91602388 54.05269064 24.3491633 58.63775104 19.98095703 63.22241211 C13.72476733 67.35642425 7.76656773 67.27751716 0.4375 67.125 C-1.29306641 67.14143555 -1.29306641 67.14143555 -3.05859375 67.15820312 C-9.46211897 67.10280931 -13.58572708 66.88797891 -18.4375 62.5625 C-19.015 62.088125 -19.5925 61.61375 -20.1875 61.125 C-24.08658316 56.25114605 -23.74431386 50.80916511 -23.73828125 44.87890625 C-23.74256638 43.9457811 -23.7468515 43.01265594 -23.75126648 42.05125427 C-23.7569977 40.08194793 -23.75751896 38.11262043 -23.75317383 36.14331055 C-23.7500145 33.13879102 -23.77348598 30.13525725 -23.79882812 27.13085938 C-23.80110138 25.2135429 -23.80180449 23.2962238 -23.80078125 21.37890625 C-23.809991 20.48498672 -23.81920074 19.5910672 -23.82868958 18.6700592 C-23.77985548 12.05069056 -22.36997396 7.96405311 -18.15234375 2.72265625 C-13.08425761 -1.17887874 -6.05103145 -0.11089062 0 0 Z " fill="#68625E" transform="translate(136.4375,277.4375)"/>
<path d="M0 0 C0 11.88 0 23.76 0 36 C-37.95 36 -75.9 36 -115 36 C-114.67 25.77 -114.34 15.54 -114 5 C-111.36 5 -108.72 5 -106 5 C-105.96261719 6.22976563 -105.92523438 7.45953125 -105.88671875 8.7265625 C-105.82102972 10.35940401 -105.75458341 11.99221518 -105.6875 13.625 C-105.66494141 14.43324219 -105.64238281 15.24148438 -105.61914062 16.07421875 C-105.39756427 21.02947182 -104.95712999 24.84172649 -102 29 C-95.94366373 33.89886689 -89.99152265 33.57388597 -82.4375 33.4375 C-81.32697266 33.44458984 -80.21644531 33.45167969 -79.07226562 33.45898438 C-72.3564418 33.40673679 -67.52675285 32.91869202 -62.1875 28.5 C-60.00366418 25.74147055 -59.84244235 22.9319871 -59.68359375 19.55078125 C-59.62075195 18.27944336 -59.62075195 18.27944336 -59.55664062 16.98242188 C-59.51732422 16.10134766 -59.47800781 15.22027344 -59.4375 14.3125 C-59.37272461 12.97348633 -59.37272461 12.97348633 -59.30664062 11.60742188 C-59.20064647 9.40509892 -59.09857949 7.20266527 -59 5 C-57.74453369 4.98018066 -56.48906738 4.96036133 -55.19555664 4.93994141 C-50.50444656 4.86344064 -45.8136288 4.77479417 -41.12280273 4.68261719 C-39.09877322 4.64451021 -37.0746802 4.60962662 -35.05053711 4.578125 C-32.12851373 4.53207489 -29.20692076 4.47414916 -26.28515625 4.4140625 C-24.94397484 4.39673569 -24.94397484 4.39673569 -23.57569885 4.37905884 C-15.50283521 4.19258714 -7.55315029 0 0 0 Z " fill="#FDC257" transform="translate(457,310)"/>
<path d="M0 0 C0.98291016 0.00322266 1.96582031 0.00644531 2.97851562 0.00976562 C4.51475586 0.02233398 4.51475586 0.02233398 6.08203125 0.03515625 C7.63567383 0.04192383 7.63567383 0.04192383 9.22070312 0.04882812 C11.77870391 0.06061615 14.33658858 0.0770711 16.89453125 0.09765625 C16.89453125 0.42765625 16.89453125 0.75765625 16.89453125 1.09765625 C14.91453125 1.09765625 12.93453125 1.09765625 10.89453125 1.09765625 C10.9416626 2.58761108 10.9416626 2.58761108 10.98974609 4.10766602 C11.09892785 7.81794375 11.16743511 11.52808176 11.22412109 15.23950195 C11.25416399 16.84098238 11.29501242 18.44230004 11.34716797 20.04321289 C11.82415352 35.06825785 11.82415352 35.06825785 8.12109375 39.5625 C4.64721436 42.77641797 1.31326881 44.36078107 -3.43359375 44.29296875 C-4.2328125 44.28652344 -5.03203125 44.28007812 -5.85546875 44.2734375 C-6.68046875 44.25667969 -7.50546875 44.23992187 -8.35546875 44.22265625 C-9.1959375 44.21363281 -10.03640625 44.20460938 -10.90234375 44.1953125 C-12.97017479 44.17181442 -15.0378587 44.13594533 -17.10546875 44.09765625 C-18.23706915 37.94134005 -18.36338361 31.9671964 -18.41796875 25.72265625 C-18.44697266 24.624375 -18.47597656 23.52609375 -18.50585938 22.39453125 C-18.55696406 15.83740699 -18.15147557 10.46940124 -14.10546875 5.09765625 C-9.44964315 1.39199914 -5.88735811 -0.03403097 0 0 Z " fill="#7C7876" transform="translate(368.10546875,276.90234375)"/>
<path d="M0 0 C1.39025391 0.03383789 1.39025391 0.03383789 2.80859375 0.06835938 C5.08242335 0.12696323 7.35284886 0.2089307 9.625 0.3125 C9.69949251 4.75989413 9.75376257 9.2069519 9.78979492 13.65478516 C9.80482543 15.16591727 9.82525564 16.67700618 9.85131836 18.18798828 C9.88795689 20.36762187 9.90478338 22.54667575 9.91796875 24.7265625 C9.9336792 26.0357666 9.94938965 27.3449707 9.96557617 28.69384766 C9.47534354 33.90261334 7.93694919 37.12854586 4.0625 40.625 C0.88028488 42.82807201 -0.69991415 43.43697244 -4.5078125 43.41015625 C-5.31347656 43.40693359 -6.11914062 43.40371094 -6.94921875 43.40039062 C-8.21185547 43.38782227 -8.21185547 43.38782227 -9.5 43.375 C-10.34949219 43.37048828 -11.19898437 43.36597656 -12.07421875 43.36132812 C-14.17450909 43.34952874 -16.2747633 43.33159306 -18.375 43.3125 C-18.375 46.9425 -18.375 50.5725 -18.375 54.3125 C-18.705 54.3125 -19.035 54.3125 -19.375 54.3125 C-19.44932654 48.29852991 -19.50368588 42.28482904 -19.53979492 36.27050781 C-19.55485288 34.22586406 -19.57530357 32.18125245 -19.60131836 30.13671875 C-19.63783311 27.19262748 -19.65475651 24.24896443 -19.66796875 21.3046875 C-19.69119453 19.9402803 -19.69119453 19.9402803 -19.71488953 18.54830933 C-19.71667295 11.77612204 -18.43787965 7.63244619 -13.8359375 2.45703125 C-9.65481751 -0.7738342 -5.05317143 -0.23427685 0 0 Z " fill="#7D7875" transform="translate(132.375,277.6875)"/>
</svg>
