<?xml version="1.0" encoding="UTF-8"?>
<svg version="1.1" xmlns="http://www.w3.org/2000/svg" width="512" height="512">
<path d="M0 0 C10.31240583 8.87480278 16.73360576 18.27123249 19.125 31.75 C20.23294922 31.95302734 20.23294922 31.95302734 21.36328125 32.16015625 C34.61239284 34.97159416 45.21599903 42.29000767 52.875 53.5 C58.10047181 62.56929345 59.78726611 71.37449764 59.125 81.75 C59.9603125 82.12125 59.9603125 82.12125 60.8125 82.5 C71.40909338 88.22788831 78.07407142 100.15052869 81.703125 111.31640625 C83.312047 116.79979316 83.62540717 121.93489651 83.5625 127.625 C83.55114014 129.07289917 83.55114014 129.07289917 83.53955078 130.55004883 C83.37016543 137.89111098 82.33727367 144.0837769 79.125 150.75 C78.72410156 151.66523438 78.32320313 152.58046875 77.91015625 153.5234375 C72.82206422 164.05357578 64.49815912 172.05779839 54.21875 177.53125 C50.49078654 179.70125858 48.71242324 182.32908628 46.5625 186 C42.41615825 192.33296973 36.62969136 196.57553566 29.46484375 198.9765625 C25.8336726 200.46707341 25.8336726 200.46707341 24.59375 204.15625 C24.24835178 205.51531693 23.92643676 206.88051151 23.625 208.25 C20.72325504 219.14812849 15.46079698 227.15699681 7.125 234.75 C6.12040237 235.74538114 5.11899416 236.74403001 4.125 237.75 C4.558125 238.58144531 4.558125 238.58144531 5 239.4296875 C5.37125 240.15414062 5.7425 240.87859375 6.125 241.625 C6.49625 242.34429687 6.8675 243.06359375 7.25 243.8046875 C8.125 245.75 8.125 245.75 8.125 247.75 C9.8575 247.8428125 9.8575 247.8428125 11.625 247.9375 C31.22663139 250.23456618 49.0995871 260.22360966 63.125 273.75 C64.43017578 274.99330078 64.43017578 274.99330078 65.76171875 276.26171875 C91.01856431 302.15295918 99.00880422 340.0424688 99.5 375 C99.53939697 376.78833252 99.53939697 376.78833252 99.57958984 378.61279297 C99.58168457 379.73572754 99.5837793 380.85866211 99.5859375 382.015625 C99.59415527 383.02399414 99.60237305 384.03236328 99.61083984 385.07128906 C98.96312893 388.64248711 98.03933395 389.58580636 95.125 391.75 C92.11783462 392.14272318 89.47749001 392.29041291 86.47070312 392.25793457 C85.14673901 392.26729451 85.14673901 392.26729451 83.79602814 392.27684355 C80.83249864 392.29282396 77.86978589 392.28014953 74.90625 392.26757812 C72.78409342 392.27299699 70.66194059 392.28011832 68.53979492 392.28881836 C62.77125865 392.3070825 57.00300794 392.29997132 51.23446655 392.28730202 C45.20382912 392.27719041 39.1732165 392.28656258 33.14257812 392.29284668 C23.01427816 392.30012844 12.88609478 392.29052146 2.7578125 392.27148438 C-8.95975843 392.24971471 -20.67705099 392.2567657 -32.39461517 392.27879 C-42.44650408 392.29692889 -52.49830907 392.2995097 -62.55020905 392.28903532 C-68.55752629 392.2827921 -74.5647126 392.28198757 -80.57202148 392.29518127 C-86.21915753 392.3067171 -91.86593391 392.29875532 -97.51303101 392.27560425 C-99.58832196 392.27030505 -101.66364307 392.27185151 -103.73892212 392.28065491 C-106.5665942 392.29154608 -109.39310551 392.27792466 -112.22070312 392.25793457 C-113.45980061 392.2713189 -113.45980061 392.2713189 -114.72393036 392.28497362 C-118.28593666 392.23595038 -120.46266445 392.03914127 -123.41589355 389.96825409 C-124.875 387.75 -124.875 387.75 -124.875 383.75 C-129.495 384.08 -134.115 384.41 -138.875 384.75 C-137.988125 386.833125 -137.10125 388.91625 -136.1875 391.0625 C-127.82647322 411.65404408 -124.69300647 433.24489026 -124.4375 455.375 C-124.41518311 456.54353516 -124.39286621 457.71207031 -124.36987305 458.91601562 C-124.372854 460.00849609 -124.37583496 461.10097656 -124.37890625 462.2265625 C-124.37705322 463.19674316 -124.3752002 464.16692383 -124.37329102 465.16650391 C-125.07010377 468.75466576 -125.85669079 469.62890131 -128.875 471.75 C-132.56235283 472.36618658 -136.22818433 472.28889909 -139.95898438 472.25793457 C-141.10297447 472.26417453 -142.24696457 472.2704145 -143.42562103 472.27684355 C-146.60151016 472.29005184 -149.77678936 472.28527972 -152.95266342 472.27289867 C-156.37741113 472.2638606 -159.80207542 472.27781168 -163.22680664 472.28881836 C-169.93601802 472.30662157 -176.64505059 472.30275566 -183.35426903 472.2911678 C-188.8060999 472.2821408 -194.2578806 472.28090628 -199.7097168 472.28526306 C-200.87282324 472.28618246 -200.87282324 472.28618246 -202.05942678 472.28712043 C-203.63455774 472.28839931 -205.20968868 472.28969616 -206.7848196 472.2910108 C-221.5610498 472.30242187 -236.3371808 472.28929465 -251.11339474 472.26780933 C-263.79700035 472.24993785 -276.48045953 472.25304181 -289.1640625 472.27148438 C-303.88676617 472.29288181 -318.60938286 472.30132318 -333.33209991 472.28903532 C-334.90149433 472.2877611 -336.47088876 472.28650362 -338.0402832 472.28526306 C-338.81249128 472.28464596 -339.58469935 472.28402886 -340.38030767 472.28339306 C-345.82672046 472.27993676 -351.27307816 472.28577449 -356.71948242 472.29518127 C-363.3552549 472.30639015 -369.99083808 472.30338481 -376.62658882 472.2820583 C-380.01346381 472.27153269 -383.40002297 472.26745129 -386.78689575 472.28065491 C-390.45525424 472.29152929 -394.12271489 472.27794354 -397.79101562 472.25793457 C-399.40364414 472.2713189 -399.40364414 472.2713189 -401.04885101 472.28497362 C-408.22229219 472.20868649 -408.22229219 472.20868649 -411.53639221 469.8797226 C-413.24443201 467.16223433 -413.37721133 465.42951333 -413.37109375 462.2265625 C-413.37415527 461.13432373 -413.3772168 460.04208496 -413.38037109 458.91674805 C-413.35797363 457.74797119 -413.33557617 456.57919434 -413.3125 455.375 C-413.29050537 453.56092651 -413.29050537 453.56092651 -413.26806641 451.71020508 C-412.5363571 416.25958829 -403.0420309 380.71523897 -377.875 354.75 C-377.08609375 353.85087891 -377.08609375 353.85087891 -376.28125 352.93359375 C-370.1153903 346.15429393 -360.49244998 339.05865216 -351.875 335.75 C-349.04893244 335.68601356 -346.68616889 336.2059028 -343.875 336.75 C-343.215 337.41 -342.555 338.07 -341.875 338.75 C-338.29156024 338.91677282 -338.29156024 338.91677282 -334.875 338.75 C-335.00028076 338.08458694 -335.12556152 337.41917389 -335.25463867 336.7335968 C-336.55766668 329.80786258 -337.854391 322.88096934 -339.14746094 315.95336914 C-339.63086975 313.36810528 -340.11588513 310.78314129 -340.60253906 308.19848633 C-341.30175585 304.48336202 -341.99518832 300.7671977 -342.6875 297.05078125 C-342.90623779 295.89540359 -343.12497559 294.74002594 -343.3503418 293.54963684 C-343.65065308 291.92852242 -343.65065308 291.92852242 -343.95703125 290.2746582 C-344.13468018 289.32645706 -344.3123291 288.37825592 -344.49536133 287.40132141 C-344.86645441 284.8096807 -344.94459868 282.36385619 -344.875 279.75 C-345.865 279.6675 -346.855 279.585 -347.875 279.5 C-355.07173443 278.46565153 -362.02617074 274.46555536 -366.44140625 268.70703125 C-372.93089546 259.37154919 -373.76862032 250.82647907 -372.875 239.75 C-372.0027968 236.37433787 -370.72840784 233.6886269 -368.875 230.75 C-368.524375 230.12867188 -368.17375 229.50734375 -367.8125 228.8671875 C-364.02904943 222.79790221 -358.24493761 218.57770398 -351.3125 216.875 C-350.508125 216.83375 -349.70375 216.7925 -348.875 216.75 C-348.84921875 216.10675781 -348.8234375 215.46351563 -348.796875 214.80078125 C-347.65724407 196.64438851 -339.99738735 182.05945679 -326.875 169.75 C-306.10024541 151.62539739 -280.00599815 150.75893812 -253.875 151.75 C-235.51471938 153.16627654 -217.49822497 162.02289944 -204.90234375 175.34765625 C-195.49800235 186.491529 -188.1111785 201.85548068 -188.875 216.75 C-187.5446875 216.9046875 -187.5446875 216.9046875 -186.1875 217.0625 C-179.07209798 218.53928155 -173.44230026 223.42089595 -169.375 229.3125 C-164.13461963 237.61484681 -164.11097207 246.27982662 -164.875 255.75 C-165.7472032 259.12566213 -167.02159216 261.8113731 -168.875 264.75 C-169.225625 265.37132812 -169.57625 265.99265625 -169.9375 266.6328125 C-174.11292383 273.33088823 -181.22360727 277.97060634 -188.875 279.75 C-190.195 279.75 -191.515 279.75 -192.875 279.75 C-192.92321396 280.3361911 -192.97142792 280.9223822 -193.02110291 281.52633667 C-193.62719238 288.24858458 -194.69549502 294.81483025 -195.94140625 301.4453125 C-196.13975571 302.51876923 -196.33810516 303.59222595 -196.54246521 304.69821167 C-197.17031108 308.09119841 -197.80380874 311.48310064 -198.4375 314.875 C-198.86691202 317.19003454 -199.29595212 319.50513809 -199.72460938 321.8203125 C-200.77044194 327.46434659 -201.82090361 333.10750378 -202.875 338.75 C-200.43970361 338.87281347 -200.43970361 338.87281347 -197.875 338.75 C-196.84950251 337.77616485 -195.84841805 336.77589342 -194.875 335.75 C-188.35931817 334.32348978 -183.42648413 336.5200456 -177.875 339.75 C-177.02112895 336.44432511 -177.02112895 336.44432511 -176.875 332.75 C-177.514375 332.13125 -178.15375 331.5125 -178.8125 330.875 C-181.18154448 328.43416629 -181.18838274 327.95165672 -181.22265625 324.6953125 C-181.09262628 319.43409987 -179.51324601 315.25553381 -177.375 310.5 C-176.83359375 309.26165405 -176.83359375 309.26165405 -176.28125 307.99829102 C-164.81890971 282.42443674 -145.9559876 263.29589674 -120.07421875 252.57958984 C-113.02147013 249.91915026 -105.42573685 247.75 -97.875 247.75 C-97.58625 246.863125 -97.2975 245.97625 -97 245.0625 C-96.04321056 242.24528665 -94.99231227 239.50572395 -93.875 236.75 C-94.51566406 236.22792969 -95.15632813 235.70585937 -95.81640625 235.16796875 C-104.09066994 228.1268293 -109.8655012 221.20889422 -112.52416992 210.57543945 C-114.14745101 203.74776354 -114.14745101 203.74776354 -118.67578125 198.53515625 C-121.80838663 196.9665679 -121.80838663 196.9665679 -124.9375 195.890625 C-130.56187615 193.70669171 -133.27537069 190.50084024 -136.125 185.3125 C-139.06549664 180.50481975 -141.45258374 178.41311756 -146.4765625 176.046875 C-151.25931254 173.4607626 -155.01935254 169.5331481 -158.875 165.75 C-159.74318359 164.91855469 -159.74318359 164.91855469 -160.62890625 164.0703125 C-171.48429129 152.67640966 -173.53492552 137.34673125 -173.26171875 122.375 C-172.86620277 113.91067244 -170.80375535 105.64135326 -165.640625 98.78125 C-163.35000734 94.84868517 -163.95475563 93.14101377 -164.875 88.75 C-165.94568627 75.15582119 -164.94861893 63.6177611 -155.84765625 52.81640625 C-149.36890624 46.02975525 -142.80890299 42.47410812 -133.875 39.75 C-130.7808034 39.094636 -130.7808034 39.094636 -129.8046875 36.81640625 C-129.45664062 35.99011719 -129.10859375 35.16382813 -128.75 34.3125 C-123.23550731 22.78967945 -113.29586687 14.07398213 -101.5 9.3125 C-91.03278814 6.14103009 -78.23632215 6.25427728 -67.875 9.75 C-67.34132813 9.16992188 -66.80765625 8.58984375 -66.2578125 7.9921875 C-48.94614016 -10.15811257 -21.2342199 -15.46601076 0 0 Z " fill="#010000" transform="translate(412.875,40.25)"/>
<path d="M0 0 C13.9615543 10.92818063 23.26073911 26.41276654 25.71484375 44.125 C25.83984375 47.6875 25.83984375 47.6875 25.71484375 50.125 C26.60171875 50.228125 27.48859375 50.33125 28.40234375 50.4375 C35.51774577 51.91428155 41.14754349 56.79589595 45.21484375 62.6875 C50.45522412 70.98984681 50.47887168 79.65482662 49.71484375 89.125 C48.84264055 92.50066213 47.56825159 95.1863731 45.71484375 98.125 C45.36421875 98.74632812 45.01359375 99.36765625 44.65234375 100.0078125 C40.47691992 106.70588823 33.36623648 111.34560634 25.71484375 113.125 C24.39484375 113.125 23.07484375 113.125 21.71484375 113.125 C21.66662979 113.7111911 21.61841583 114.2973822 21.56874084 114.90133667 C20.96265137 121.62358458 19.89434873 128.18983025 18.6484375 134.8203125 C18.45008804 135.89376923 18.25173859 136.96722595 18.04737854 138.07321167 C17.41953267 141.46619841 16.78603501 144.85810064 16.15234375 148.25 C15.72293173 150.56503454 15.29389163 152.88013809 14.86523438 155.1953125 C13.81940181 160.83934659 12.76894014 166.48250378 11.71484375 172.125 C13.36484375 172.455 15.01484375 172.785 16.71484375 173.125 C16.69421875 174.32125 16.67359375 175.5175 16.65234375 176.75 C17.00955312 179.57294629 17.341876 180.7732236 19.43359375 182.74609375 C21.81608646 184.2938751 24.25047438 185.71150286 26.71484375 187.125 C51.90905779 203.79194159 64.54040813 227.36718057 70.8671875 256.60546875 C73.00747121 267.36377191 73.71484375 278.16982388 73.71484375 289.125 C-10.76515625 289.125 -95.24515625 289.125 -182.28515625 289.125 C-181.65007767 276.42342839 -181.03106557 265.29073278 -178.28515625 253.125 C-178.1473877 252.47080078 -178.00961914 251.81660156 -177.86767578 251.14257812 C-172.49302095 225.66733556 -159.37729822 202.59432779 -137.2109375 188.1171875 C-135.31977136 186.93551768 -133.4172783 185.77162629 -131.5 184.6328125 C-129.03612256 183.15839215 -129.03612256 183.15839215 -127.28515625 180.125 C-126.89127837 177.80112053 -126.5502954 175.46706251 -126.28515625 173.125 C-124.30515625 172.795 -122.32515625 172.465 -120.28515625 172.125 C-120.47307739 171.12688042 -120.47307739 171.12688042 -120.66479492 170.1085968 C-121.96782293 163.18286258 -123.26454725 156.25596934 -124.55761719 149.32836914 C-125.041026 146.74310528 -125.52604138 144.15814129 -126.01269531 141.57348633 C-126.7119121 137.85836202 -127.40534457 134.1421977 -128.09765625 130.42578125 C-128.31639404 129.27040359 -128.53513184 128.11502594 -128.76049805 126.92463684 C-128.96070557 125.84389389 -129.16091309 124.76315094 -129.3671875 123.6496582 C-129.54483643 122.70145706 -129.72248535 121.75325592 -129.90551758 120.77632141 C-130.27661066 118.1846807 -130.35475493 115.73885619 -130.28515625 113.125 C-131.27515625 113.0425 -132.26515625 112.96 -133.28515625 112.875 C-140.48189068 111.84065153 -147.43632699 107.84055536 -151.8515625 102.08203125 C-158.34105171 92.74654919 -159.17877657 84.20147907 -158.28515625 73.125 C-157.41295305 69.74933787 -156.13856409 67.0636269 -154.28515625 64.125 C-153.93453125 63.50367188 -153.58390625 62.88234375 -153.22265625 62.2421875 C-149.43920568 56.17290221 -143.65509386 51.95270398 -136.72265625 50.25 C-135.91828125 50.20875 -135.11390625 50.1675 -134.28515625 50.125 C-134.259375 49.48175781 -134.23359375 48.83851563 -134.20703125 48.17578125 C-133.06740032 30.01938851 -125.4075436 15.43445679 -112.28515625 3.125 C-83.19295546 -22.25602561 -30.89256302 -21.89432654 0 0 Z " fill="#46313A" transform="translate(198.28515625,206.875)"/>
<path d="M0 0 C0.77450255 -0.00453111 1.54900509 -0.00906223 2.34697741 -0.01373065 C4.93854775 -0.02637656 7.52990799 -0.02475416 10.12150574 -0.02310181 C11.98116323 -0.02908696 13.84081823 -0.03589248 15.70046997 -0.04345703 C20.75015006 -0.0611261 25.79976237 -0.06581281 30.84947038 -0.0670886 C34.00528242 -0.06851031 37.16107723 -0.07278028 40.31688499 -0.07808304 C51.32924366 -0.09658668 62.34155391 -0.10475328 73.35392761 -0.10317993 C83.61441715 -0.10197861 93.87469631 -0.1230783 104.13513261 -0.15466726 C112.94803443 -0.18083149 121.76086754 -0.19154716 130.5738079 -0.19026911 C135.83567588 -0.1897595 141.09735692 -0.19544229 146.35918617 -0.21662521 C151.30949381 -0.23600985 156.25943622 -0.23613043 161.20975685 -0.22159195 C163.02375828 -0.219503 164.83778258 -0.22420986 166.65174484 -0.23631287 C169.13422338 -0.25179982 171.61544795 -0.24243529 174.09790039 -0.22705078 C175.16675066 -0.24248147 175.16675066 -0.24248147 176.25719386 -0.25822389 C182.6496288 -0.17108016 187.72519172 2.06418569 192.48161316 6.23226929 C193.02044128 6.88324585 193.55926941 7.53422241 194.11442566 8.20492554 C194.66872253 8.85332397 195.22301941 9.50172241 195.79411316 10.16976929 C198.98494562 14.8007883 199.49192745 18.7624634 199.5068512 24.33360291 C199.51138231 25.03334022 199.51591342 25.73307753 199.52058184 26.45401901 C199.53321491 28.79236084 199.53160623 31.13046943 199.529953 33.46884155 C199.53593875 35.14779967 199.54274441 36.82675504 199.55030823 38.50570679 C199.56796604 43.06133385 199.57266338 47.61688578 199.5739398 52.17254376 C199.57583964 55.97497791 199.58319775 59.77739459 199.59028399 63.579822 C199.60656305 72.54788312 199.61145321 81.51590408 199.61003113 90.48397827 C199.60882831 99.74026689 199.62995911 108.99632286 199.66151845 118.25255257 C199.68764591 126.19830886 199.69839998 134.14398896 199.69712031 142.0897879 C199.69660984 146.83621811 199.70234058 151.58244134 199.72347641 156.32882881 C199.74280062 160.78995473 199.74302343 165.25067488 199.72844315 169.71181488 C199.72634701 171.35011574 199.73110364 172.98844164 199.74316406 174.62669945 C199.75854929 176.86102444 199.74935511 179.09393828 199.73390198 181.32823181 C199.73499151 182.57906335 199.73608105 183.82989489 199.7372036 185.11863041 C199.14417365 188.86996139 198.27738986 190.04869711 195.23942566 192.26742554 C191.27242674 192.99470867 188.86267899 193.31441945 185.43096161 191.10097122 C181.34292353 187.49414495 177.91601913 183.69968262 174.53422546 179.41897583 C166.24775343 169.19084718 158.24431552 160.46430225 144.626966 158.87901044 C136.47921261 158.2165329 128.3133577 158.46055492 120.15498161 158.7637682 C115.67646745 158.9028042 111.19790705 158.89849495 106.71757507 158.90994263 C98.26384862 158.95182266 89.81704838 159.11183596 81.36594057 159.31975341 C68.94807856 159.61979436 56.52813031 159.73761121 44.1074295 159.85676193 C42.26824889 159.87466916 40.42906889 159.89263966 38.58988953 159.91067505 C37.69180368 159.91927134 36.79371783 159.92786764 35.86841726 159.93672442 C30.55750331 159.99156379 25.24855121 160.08051527 19.93872643 160.20094061 C16.64221318 160.2738391 13.34552594 160.33159083 10.04868126 160.38721657 C8.52637883 160.41691927 7.0041964 160.45382123 5.48226357 160.4986248 C-3.78692464 160.76920171 -10.70461488 160.69799628 -18.00276184 154.30258179 C-18.81100403 153.32611694 -18.81100403 153.32611694 -19.63557434 152.32992554 C-20.18987122 151.6815271 -20.74416809 151.03312866 -21.31526184 150.36508179 C-24.08234265 146.34907532 -25.01024129 142.78016468 -25.02799988 137.9365387 C-25.03652985 136.88104324 -25.04505981 135.82554779 -25.05384827 134.73806763 C-25.05294189 133.59041931 -25.05203552 132.442771 -25.05110168 131.26034546 C-25.05781891 130.04351578 -25.06453613 128.8266861 -25.07145691 127.57298279 C-25.08718562 124.24219294 -25.09381113 120.91165249 -25.09508848 117.58084273 C-25.09651239 115.49708923 -25.10078655 113.41336168 -25.10608292 111.32961464 C-25.12457504 104.05195081 -25.13275469 96.77436013 -25.13117981 89.49667358 C-25.1299791 82.72615938 -25.1510693 75.95596432 -25.18266714 69.18553084 C-25.20887162 63.36198345 -25.21954534 57.53854002 -25.21826899 51.71493417 C-25.21776051 48.24155054 -25.22337965 44.76845056 -25.24462509 41.29512596 C-25.26769666 37.41752181 -25.25846103 33.54035069 -25.24641418 29.66268921 C-25.2576532 28.52111359 -25.26889221 27.37953796 -25.2804718 26.20336914 C-25.21912445 18.42282372 -24.06577103 13.03916092 -18.79573059 7.02523804 C-18.14475403 6.48640991 -17.49377747 5.94758179 -16.82307434 5.39242554 C-16.1746759 4.83812866 -15.52627747 4.28383179 -14.85823059 3.71273804 C-10.07458287 0.4167424 -5.68824464 -0.02449417 0 0 Z " fill="#70D5FB" transform="translate(24.760574340820313,-0.267425537109375)"/>
<path d="M0 0 C2.04296875 2.15234375 2.04296875 2.15234375 4.1875 4.9375 C7.18661467 8.74161435 10.22675434 12.42866542 13.5 16 C17.41891252 20.29991791 21.09170869 24.75919547 24.75 29.28125 C27.63421519 32.76634335 30.67250988 36.0939783 33.72265625 39.43359375 C37.00215201 43.12935483 40.07750228 46.98105666 43.15234375 50.84765625 C45.43792163 53.51013704 46.34145458 53.91219394 49.8125 54.375 C54.09684654 53.87095923 55.09298451 52.12730938 58 49 C59.27617188 47.65035156 59.27617188 47.65035156 60.578125 46.2734375 C65.86148552 40.54207272 70.92929411 34.72304753 75.8203125 28.6484375 C77.97757399 26.02724881 80.21311 23.50845719 82.5 21 C85.69090206 17.49670193 88.75350717 13.92119983 91.75 10.25 C92.49765625 9.3425 93.2453125 8.435 94.015625 7.5 C95.96320384 5.12171104 95.96320384 5.12171104 97.359375 2.9375 C98.5 1.25 98.5 1.25 101 -1 C115.29888245 -1.93763164 132.58017742 8.14509013 143.00244141 17.10986328 C165.84346591 37.64759119 176.3524268 69.94692164 178 100 C178.01977406 101.92064385 178.02535882 103.84147345 178.01855469 105.76220703 C178.01587585 106.74528839 178.01319702 107.72836975 178.01043701 108.74124146 C178.0069928 109.48663177 178.00354858 110.23202209 178 111 C176.95747952 111.00146656 175.91495903 111.00293312 174.84084702 111.00444412 C149.49498681 111.04101 124.14925905 111.10042125 98.80350876 111.18390274 C86.54657517 111.22374247 74.28970624 111.25610987 62.03271484 111.27099609 C51.35175054 111.28398705 40.67092823 111.31088619 29.99004388 111.35461307 C24.33255143 111.37728542 18.67523448 111.39290723 13.01769257 111.39188385 C7.69560651 111.39114065 2.37390926 111.40895439 -2.94807625 111.44116783 C-4.90402263 111.44970553 -6.86001243 111.45139069 -8.81596947 111.44580269 C-11.48187741 111.43919935 -14.14653494 111.45699451 -16.81231689 111.48101807 C-17.9796336 111.46937744 -17.9796336 111.46937744 -19.17053246 111.45750165 C-22.65680633 111.51331174 -24.62698016 111.71901463 -27.44923019 113.84493637 C-29.16790871 116.00800144 -29.16790871 116.00800144 -30 119 C-34.62 119.33 -39.24 119.66 -44 120 C-43.113125 122.083125 -42.22625 124.16625 -41.3125 126.3125 C-32.95147322 146.90404408 -29.81800647 168.49489026 -29.5625 190.625 C-29.54018311 191.79353516 -29.51786621 192.96207031 -29.49487305 194.16601562 C-29.497854 195.25849609 -29.50083496 196.35097656 -29.50390625 197.4765625 C-29.50205322 198.44674316 -29.5002002 199.41692383 -29.49829102 200.41650391 C-30.19510377 204.00466576 -30.98169079 204.87890131 -34 207 C-37.68735283 207.61618658 -41.35318433 207.53889909 -45.08398438 207.50793457 C-46.79996952 207.51729451 -46.79996952 207.51729451 -48.55062103 207.52684355 C-51.72651016 207.54005184 -54.90178936 207.53527972 -58.07766342 207.52289867 C-61.50241113 207.5138606 -64.92707542 207.52781168 -68.35180664 207.53881836 C-75.06101802 207.55662157 -81.77005059 207.55275566 -88.47926903 207.5411678 C-93.9310999 207.5321408 -99.3828806 207.53090628 -104.8347168 207.53526306 C-105.99782324 207.53618246 -105.99782324 207.53618246 -107.18442678 207.53712043 C-108.75955774 207.53839931 -110.33468868 207.53969616 -111.9098196 207.5410108 C-126.6860498 207.55242187 -141.4621808 207.53929465 -156.23839474 207.51780933 C-168.92200035 207.49993785 -181.60545953 207.50304181 -194.2890625 207.52148438 C-209.01176617 207.54288181 -223.73438286 207.55132318 -238.45709991 207.53903532 C-240.02649433 207.5377611 -241.59588876 207.53650362 -243.1652832 207.53526306 C-243.93749128 207.53464596 -244.70969935 207.53402886 -245.50530767 207.53339306 C-250.95172046 207.52993676 -256.39807816 207.53577449 -261.84448242 207.54518127 C-268.4802549 207.55639015 -275.11583808 207.55338481 -281.75158882 207.5320583 C-285.13846381 207.52153269 -288.52502297 207.51745129 -291.91189575 207.53065491 C-295.58025424 207.54152929 -299.24771489 207.52794354 -302.91601562 207.50793457 C-303.9911013 207.51685746 -305.06618698 207.52578034 -306.17385101 207.53497362 C-313.34729219 207.45868649 -313.34729219 207.45868649 -316.66139221 205.1297226 C-318.36943201 202.41223433 -318.50221133 200.67951333 -318.49609375 197.4765625 C-318.49915527 196.38432373 -318.5022168 195.29208496 -318.50537109 194.16674805 C-318.48297363 192.99797119 -318.46057617 191.82919434 -318.4375 190.625 C-318.42283691 189.41561768 -318.40817383 188.20623535 -318.39306641 186.96020508 C-317.6613571 151.50958829 -308.1670309 115.96523897 -283 90 C-282.4740625 89.40058594 -281.948125 88.80117188 -281.40625 88.18359375 C-275.22815981 81.39084662 -265.62358407 74.3369521 -257 71 C-253.43729769 70.8563978 -250.11634545 71.37205568 -247 73.125 C-245.35439993 76.21050012 -245.58659382 78.57463455 -246 82 C-248.82415172 86.31162968 -252.33967011 88.72286329 -256.6875 91.3125 C-279.79582269 105.75370889 -291.41887283 129.61863832 -297.6875 155.5 C-299.56390918 164.73362937 -300.09266311 174.15806219 -300.75048828 183.54321289 C-301.00513543 186.05056535 -301.50573825 188.52869127 -302 191 C-217.52 191 -133.04 191 -46 191 C-49.66512665 156.79215123 -54.34693187 121.23355406 -81.95703125 97.453125 C-87.40793444 93.28272924 -93.07258883 89.58013159 -99.0390625 86.19140625 C-101 85 -101 85 -103 83 C-103.30078125 80.94140625 -103.30078125 80.94140625 -103.3125 78.5625 C-103.32925781 77.78003906 -103.34601563 76.99757813 -103.36328125 76.19140625 C-103 74 -103 74 -101.7421875 72.2421875 C-98.46790964 69.9076127 -94.83829984 70.41376449 -91 71 C-88.11138771 72.10110469 -85.68760931 73.43630004 -83 75 C-82.34 72.69 -81.68 70.38 -81 68 C-79.7625 67.855625 -78.525 67.71125 -77.25 67.5625 C-74.73511771 66.90625226 -73.39594641 66.53012094 -71.82421875 64.42578125 C-70.76850111 61.98414353 -69.88511127 59.50892443 -69 57 C-59.07440056 32.1597432 -43.77724942 13.78434297 -18.99121094 2.80273438 C-5.65007058 -2.57559685 -5.65007058 -2.57559685 0 0 Z " fill="#E5284E" transform="translate(318,305)"/>
<path d="M0 0 C2.25564842 1.68825717 4.18691554 3.50292431 6.15722656 5.51928711 C6.94742188 6.32043945 7.73761719 7.1215918 8.55175781 7.94702148 C9.77572266 9.20289063 9.77572266 9.20289063 11.02441406 10.48413086 C12.64980112 12.14385708 14.27730034 13.80151833 15.90722656 15.45678711 C16.62539551 16.19292236 17.34356445 16.92905762 18.08349609 17.6875 C20.29060953 19.79520728 21.52054159 20.34946467 24.52441406 20.92163086 C29.75841494 20.14622332 32.22698309 17.07684731 35.89941406 13.42163086 C36.46917969 12.85879395 37.03894531 12.29595703 37.62597656 11.71606445 C41.7447564 7.64495568 45.83021728 3.54226412 49.89941406 -0.57836914 C56.99952258 1.41253967 63.36379315 5.1709699 69.84472656 8.60913086 C70.79089844 9.09639648 71.73707031 9.58366211 72.71191406 10.08569336 C73.56398437 10.53380371 74.41605469 10.98191406 75.29394531 11.44360352 C78.37201669 12.59903398 80.63496762 12.73059535 83.89941406 12.42163086 C87.3986957 10.08877643 87.53232386 9.21368017 88.58691406 5.29663086 C88.83828125 4.38655273 89.08964844 3.47647461 89.34863281 2.53881836 C89.53039062 1.84014648 89.71214844 1.14147461 89.89941406 0.42163086 C91.87941406 0.75163086 93.85941406 1.08163086 95.89941406 1.42163086 C95.87878906 2.61788086 95.85816406 3.81413086 95.83691406 5.04663086 C96.19412343 7.86957715 96.52644631 9.06985446 98.61816406 11.04272461 C101.00065677 12.59050596 103.4350447 14.00813372 105.89941406 15.42163086 C131.0936281 32.08857245 143.72497845 55.66381143 150.05175781 84.90209961 C152.19204152 95.66040277 152.89941406 106.46645474 152.89941406 117.42163086 C68.41941406 117.42163086 -16.06058594 117.42163086 -103.10058594 117.42163086 C-102.46550736 104.72005925 -101.84649526 93.58736364 -99.10058594 81.42163086 C-98.96281738 80.76743164 -98.82504883 80.11323242 -98.68310547 79.43920898 C-93.30845064 53.96396642 -80.1927279 30.89095865 -58.02636719 16.41381836 C-56.13520105 15.23214854 -54.23270798 14.06825715 -52.31542969 12.92944336 C-49.85155224 11.45502301 -49.85155224 11.45502301 -48.10058594 8.42163086 C-47.70670806 6.09775139 -47.36572509 3.76369337 -47.10058594 1.42163086 C-43.63558594 0.92663086 -43.63558594 0.92663086 -40.10058594 0.42163086 C-39.91882813 1.12030273 -39.73707031 1.81897461 -39.54980469 2.53881836 C-39.2984375 3.44889648 -39.04707031 4.35897461 -38.78808594 5.29663086 C-38.54445313 6.20155273 -38.30082031 7.10647461 -38.04980469 8.03881836 C-37.23388741 10.74276405 -37.23388741 10.74276405 -34.10058594 12.42163086 C-29.20133745 12.95821928 -26.25326231 11.82121063 -21.96777344 9.50756836 C-20.83210938 8.91202148 -19.69644531 8.31647461 -18.52636719 7.70288086 C-16.74201106 6.74833169 -14.96064307 5.78853935 -13.18115234 4.82495117 C-11.45044953 3.89336299 -9.70922386 2.9814076 -7.96777344 2.07006836 C-6.42259033 1.23741455 -6.42259033 1.23741455 -4.84619141 0.38793945 C-2.10058594 -0.57836914 -2.10058594 -0.57836914 0 0 Z " fill="#5B9BFE" transform="translate(119.1005859375,378.578369140625)"/>
<path d="M0 0 C9.16520055 7.76906785 12.04416008 16.68815251 13.52734375 28.265625 C13.96163076 31.208733 13.96163076 31.208733 17.1875 32.875 C19.55212215 33.36550316 21.92962222 33.7951676 24.3125 34.1875 C33.32588621 35.85124383 40.14414586 38.65798516 45.90625 45.97265625 C49.99132774 52.03800033 52.22841567 57.37142524 52.07104492 64.72705078 C52.01388368 72.27887678 52.01388368 72.27887678 55.48828125 78.75 C58.30666535 80.94673781 61.19884935 82.9187923 64.1875 84.875 C70.63889669 90.69862103 75.71915572 100.10899096 76.42578125 108.80859375 C76.68455786 121.0255736 74.1178056 131.35085847 66.1875 140.875 C64.26530424 142.73603499 62.34682034 144.28121594 60.1875 145.875 C57.95825681 143.04607736 56.25321454 140.17379747 54.5625 137 C51.34941176 131.59978486 47.71290531 128.74706954 42.1875 125.875 C41.57261719 125.54757813 40.95773437 125.22015625 40.32421875 124.8828125 C36.12376671 122.99395826 32.20402771 122.67416885 27.625 122.4375 C10.18102302 121.4508076 -4.6535153 114.63081033 -18.19140625 103.890625 C-23.11563519 100.00928726 -23.11563519 100.00928726 -29.0625 98.75 C-32.65986756 99.82921027 -33.96727396 100.62121185 -36.75 102.9375 C-54.092975 117.32092295 -77.10887618 121.48956225 -99 122.3125 C-105.36905401 122.58097788 -110.37084946 123.44753913 -115.8125 126.875 C-116.49441406 127.25140625 -117.17632812 127.6278125 -117.87890625 128.015625 C-124.61128039 132.25689296 -127.49951509 138.89702553 -130.8125 145.875 C-139.50131309 141.08425032 -143.69601737 133.30385224 -146.9375 124.14453125 C-148.24914436 119.24343158 -148.36030756 114.89531862 -147.8125 109.875 C-147.68681641 108.62783203 -147.68681641 108.62783203 -147.55859375 107.35546875 C-146.41426485 99.70653349 -142.91742845 92.8161504 -138.14453125 86.7578125 C-136.02889459 83.7673818 -136.45454969 81.45450312 -136.8125 77.875 C-137.27705925 76.59078737 -137.77914311 75.31969839 -138.3125 74.0625 C-140.48887787 68.67882842 -140.76965575 63.35904694 -139.2265625 57.7421875 C-136.42636168 51.19125897 -130.70669656 45.77280465 -124.34375 42.671875 C-121.72064251 41.8460819 -119.49036086 41.61012269 -116.75 41.5 C-113.68150586 41.2131823 -112.05591684 41.01855352 -109.375 39.4375 C-107.8420926 36.92353186 -107.24489028 35.00931964 -106.5 32.1875 C-104.09551639 23.45678144 -98.56268849 17.65542038 -90.921875 13.02734375 C-83.76528486 9.11772506 -75.70334638 8.45652618 -67.8359375 10.73828125 C-65.97924239 11.44157485 -64.12858321 12.16106672 -62.28515625 12.8984375 C-58.89850156 14.23597885 -56.4739714 14.94822943 -52.8125 14.875 C-50.23711511 12.91280199 -48.50380305 10.94360764 -46.74609375 8.2265625 C-42.52868115 1.7314532 -36.30179797 -3.41778938 -28.75 -5.5625 C-18.44491739 -7.03465466 -8.68805624 -6.29336511 0 0 Z " fill="#46313A" transform="translate(403.8125,54.125)"/>
<path d="M0 0 C13.9615543 10.92818063 23.26073911 26.41276654 25.71484375 44.125 C25.83984375 47.6875 25.83984375 47.6875 25.71484375 50.125 C26.60171875 50.228125 27.48859375 50.33125 28.40234375 50.4375 C35.51774577 51.91428155 41.14754349 56.79589595 45.21484375 62.6875 C50.45522412 70.98984681 50.47887168 79.65482662 49.71484375 89.125 C48.84264055 92.50066213 47.56825159 95.1863731 45.71484375 98.125 C45.36421875 98.74632812 45.01359375 99.36765625 44.65234375 100.0078125 C40.47691992 106.70588823 33.36623648 111.34560634 25.71484375 113.125 C24.39484375 113.125 23.07484375 113.125 21.71484375 113.125 C21.66540619 113.71526978 21.61596863 114.30553955 21.56503296 114.91369629 C20.9652428 121.50712626 19.95375254 127.96024174 18.75390625 134.46875 C18.4670546 136.04335999 18.4670546 136.04335999 18.17440796 137.64978027 C17.77130566 139.85527272 17.36613424 142.0603879 16.95898438 144.26513672 C16.34181588 147.61429791 15.73499709 150.96522489 15.12890625 154.31640625 C14.73369924 156.47146912 14.33788603 158.62642093 13.94140625 160.78125 C13.76316315 161.77008179 13.58492004 162.75891357 13.40127563 163.77770996 C12.53161948 168.44250414 11.55452307 173.06210743 10.32568359 177.64648438 C10.11374359 178.43744507 9.90180359 179.22840576 9.68344116 180.04333496 C8.47119821 182.64863179 7.16294947 183.66073027 4.71484375 185.125 C-0.16856277 185.75466083 -3.148753 184.51579426 -7.41796875 182.2109375 C-8.55363281 181.61539063 -9.68929687 181.01984375 -10.859375 180.40625 C-12.64373113 179.45170083 -14.42509912 178.49190849 -16.20458984 177.52832031 C-17.93529266 176.59673213 -19.67651833 175.68477674 -21.41796875 174.7734375 C-22.44809082 174.21833496 -23.47821289 173.66323242 -24.53955078 173.09130859 C-27.15997729 171.87566936 -27.15997729 171.87566936 -29.38574219 172.70336914 C-31.64139061 174.39162631 -33.57265773 176.20629345 -35.54296875 178.22265625 C-36.33316406 179.02380859 -37.12335938 179.82496094 -37.9375 180.65039062 C-39.16146484 181.90625977 -39.16146484 181.90625977 -40.41015625 183.1875 C-42.03554331 184.84722622 -43.66304252 186.50488747 -45.29296875 188.16015625 C-46.0111377 188.8962915 -46.72930664 189.63242676 -47.46923828 190.39086914 C-49.67635171 192.49857642 -50.90628378 193.05283382 -53.91015625 193.625 C-59.14415712 192.84959246 -61.61272527 189.78021645 -65.28515625 186.125 C-65.85492188 185.56216309 -66.4246875 184.99932617 -67.01171875 184.41943359 C-71.13049859 180.34832482 -75.21595947 176.24563326 -79.28515625 172.125 C-86.38526477 174.11590881 -92.74953534 177.87433904 -99.23046875 181.3125 C-100.17664063 181.79976562 -101.1228125 182.28703125 -102.09765625 182.7890625 C-102.94972656 183.23717285 -103.80179688 183.6852832 -104.6796875 184.14697266 C-107.79544821 185.31655075 -109.98047138 185.50168554 -113.28515625 185.125 C-116.29219526 183.63321147 -117.11174702 182.549737 -118.38378906 179.43408203 C-118.66577148 178.30341309 -118.94775391 177.17274414 -119.23828125 176.0078125 C-119.39895081 175.36425812 -119.55962036 174.72070374 -119.72515869 174.05764771 C-122.01019676 164.56703199 -123.69715567 154.93575074 -125.43212891 145.33300781 C-126.04049547 141.97048948 -126.66023683 138.61020324 -127.28125 135.25 C-127.67384512 133.10168447 -128.065796 130.95325109 -128.45703125 128.8046875 C-128.64134705 127.80573456 -128.82566284 126.80678162 -129.01556396 125.77755737 C-129.18283997 124.84533356 -129.35011597 123.91310974 -129.52246094 122.95263672 C-129.67028015 122.13850311 -129.81809937 121.32436951 -129.97039795 120.48556519 C-130.30111922 118.00528395 -130.33935154 115.62426312 -130.28515625 113.125 C-131.27515625 113.0425 -132.26515625 112.96 -133.28515625 112.875 C-140.48189068 111.84065153 -147.43632699 107.84055536 -151.8515625 102.08203125 C-158.34105171 92.74654919 -159.17877657 84.20147907 -158.28515625 73.125 C-157.41295305 69.74933787 -156.13856409 67.0636269 -154.28515625 64.125 C-153.93453125 63.50367188 -153.58390625 62.88234375 -153.22265625 62.2421875 C-149.43920568 56.17290221 -143.65509386 51.95270398 -136.72265625 50.25 C-135.91828125 50.20875 -135.11390625 50.1675 -134.28515625 50.125 C-134.259375 49.48175781 -134.23359375 48.83851563 -134.20703125 48.17578125 C-133.06740032 30.01938851 -125.4075436 15.43445679 -112.28515625 3.125 C-83.19295546 -22.25602561 -30.89256302 -21.89432654 0 0 Z M-104.28515625 19.125 C-104.82269531 19.66640625 -105.36023438 20.2078125 -105.9140625 20.765625 C-117.92963079 33.65450527 -118.98482482 50.11085357 -119.03515625 66.8125 C-119.04083618 67.75675842 -119.04651611 68.70101685 -119.05236816 69.67388916 C-119.07589148 90.54473066 -115.45460813 110.4499679 -111.04608154 130.78370667 C-109.37229162 138.52221602 -107.95061056 146.29460822 -106.64154053 154.10287476 C-106.49202942 154.96563019 -106.34251831 155.82838562 -106.18847656 156.71728516 C-106.06160461 157.4740152 -105.93473267 158.23074524 -105.80401611 159.01040649 C-105.25116746 161.26352 -104.3957719 163.09512161 -103.28515625 165.125 C-102.66060547 164.78654053 -102.03605469 164.44808105 -101.39257812 164.09936523 C-98.53429839 162.56576381 -95.66035896 161.06411668 -92.78515625 159.5625 C-91.80289063 159.02947266 -90.820625 158.49644531 -89.80859375 157.94726562 C-80.27458948 153.02136342 -80.27458948 153.02136342 -75.25976562 154.14428711 C-70.62650504 156.44545028 -67.26399815 160.45086119 -63.78515625 164.1875 C-62.96273437 165.04150391 -62.1403125 165.89550781 -61.29296875 166.77539062 C-59.27358459 168.87695902 -57.2723744 170.99306606 -55.28515625 173.125 C-52.04694344 171.71578189 -50.03151297 170.04809836 -47.640625 167.46484375 C-46.96322266 166.75392578 -46.28582031 166.04300781 -45.58789062 165.31054688 C-44.18126689 163.81560327 -42.78274638 162.31299228 -41.39257812 160.80273438 C-38.39375763 157.67908124 -36.0575429 155.44097636 -32.01953125 153.7890625 C-26.17731167 154.31461782 -21.51680828 156.90893778 -16.34765625 159.5625 C-15.28224609 160.09166016 -14.21683594 160.62082031 -13.11914062 161.16601562 C-10.49942912 162.46999759 -7.88907183 163.78982981 -5.28515625 165.125 C-3.73966979 162.29470004 -2.87935353 159.78023806 -2.29541016 156.61376953 C-2.04472275 155.2792424 -2.04472275 155.2792424 -1.78897095 153.91775513 C-1.61497772 152.95747406 -1.4409845 151.99719299 -1.26171875 151.0078125 C-0.98054703 149.49645218 -0.98054703 149.49645218 -0.69369507 147.95455933 C-0.09351077 144.72072582 0.49825252 141.48541533 1.08984375 138.25 C1.47992237 136.14182591 1.8705422 134.03375189 2.26171875 131.92578125 C3.04223803 127.71756633 3.81139105 123.50746424 4.57495117 119.29614258 C5.30146315 115.30989378 6.069381 111.33590426 6.88012695 107.3659668 C9.18395383 95.88978311 10.3285622 84.90769364 10.18139648 73.19946289 C10.15204443 70.6616203 10.16095008 68.12583667 10.17382812 65.58789062 C10.1507528 47.55724818 7.90973203 31.93631979 -4.96875 18.37890625 C-18.77616243 4.94403783 -36.89720693 0.82440064 -55.67114258 0.8828125 C-73.73312332 1.1580689 -91.4920663 5.48737844 -104.28515625 19.125 Z " fill="#000001" transform="translate(198.28515625,206.875)"/>
<path d="M0 0 C0.77450255 -0.00453111 1.54900509 -0.00906223 2.34697741 -0.01373065 C4.93854775 -0.02637656 7.52990799 -0.02475416 10.12150574 -0.02310181 C11.98116323 -0.02908696 13.84081823 -0.03589248 15.70046997 -0.04345703 C20.75015006 -0.0611261 25.79976237 -0.06581281 30.84947038 -0.0670886 C34.00528242 -0.06851031 37.16107723 -0.07278028 40.31688499 -0.07808304 C51.32924366 -0.09658668 62.34155391 -0.10475328 73.35392761 -0.10317993 C83.61441715 -0.10197861 93.87469631 -0.1230783 104.13513261 -0.15466726 C112.94803443 -0.18083149 121.76086754 -0.19154716 130.5738079 -0.19026911 C135.83567588 -0.1897595 141.09735692 -0.19544229 146.35918617 -0.21662521 C151.30949381 -0.23600985 156.25943622 -0.23613043 161.20975685 -0.22159195 C163.02375828 -0.219503 164.83778258 -0.22420986 166.65174484 -0.23631287 C169.13422338 -0.25179982 171.61544795 -0.24243529 174.09790039 -0.22705078 C175.16675066 -0.24248147 175.16675066 -0.24248147 176.25719386 -0.25822389 C182.6496288 -0.17108016 187.72519172 2.06418569 192.48161316 6.23226929 C193.02044128 6.88324585 193.55926941 7.53422241 194.11442566 8.20492554 C194.66872253 8.85332397 195.22301941 9.50172241 195.79411316 10.16976929 C198.98494562 14.8007883 199.49192745 18.7624634 199.5068512 24.33360291 C199.51138231 25.03334022 199.51591342 25.73307753 199.52058184 26.45401901 C199.53321491 28.79236084 199.53160623 31.13046943 199.529953 33.46884155 C199.53593875 35.14779967 199.54274441 36.82675504 199.55030823 38.50570679 C199.56796604 43.06133385 199.57266338 47.61688578 199.5739398 52.17254376 C199.57583964 55.97497791 199.58319775 59.77739459 199.59028399 63.579822 C199.60656305 72.54788312 199.61145321 81.51590408 199.61003113 90.48397827 C199.60882831 99.74026689 199.62995911 108.99632286 199.66151845 118.25255257 C199.68764591 126.19830886 199.69839998 134.14398896 199.69712031 142.0897879 C199.69660984 146.83621811 199.70234058 151.58244134 199.72347641 156.32882881 C199.74280062 160.78995473 199.74302343 165.25067488 199.72844315 169.71181488 C199.72634701 171.35011574 199.73110364 172.98844164 199.74316406 174.62669945 C199.75854929 176.86102444 199.74935511 179.09393828 199.73390198 181.32823181 C199.73499151 182.57906335 199.73608105 183.82989489 199.7372036 185.11863041 C199.14417365 188.86996139 198.27738986 190.04869711 195.23942566 192.26742554 C191.27242674 192.99470867 188.86267899 193.31441945 185.43096161 191.10097122 C181.34292353 187.49414495 177.91601913 183.69968262 174.53422546 179.41897583 C166.24775343 169.19084718 158.24431552 160.46430225 144.626966 158.87901044 C136.47921261 158.2165329 128.3133577 158.46055492 120.15498161 158.7637682 C115.67646745 158.9028042 111.19790705 158.89849495 106.71757507 158.90994263 C98.26384862 158.95182266 89.81704838 159.11183596 81.36594057 159.31975341 C68.94807856 159.61979436 56.52813031 159.73761121 44.1074295 159.85676193 C42.26824889 159.87466916 40.42906889 159.89263966 38.58988953 159.91067505 C37.69180368 159.91927134 36.79371783 159.92786764 35.86841726 159.93672442 C30.55750331 159.99156379 25.24855121 160.08051527 19.93872643 160.20094061 C16.64221318 160.2738391 13.34552594 160.33159083 10.04868126 160.38721657 C8.52637883 160.41691927 7.0041964 160.45382123 5.48226357 160.4986248 C-3.78692464 160.76920171 -10.70461488 160.69799628 -18.00276184 154.30258179 C-18.81100403 153.32611694 -18.81100403 153.32611694 -19.63557434 152.32992554 C-20.18987122 151.6815271 -20.74416809 151.03312866 -21.31526184 150.36508179 C-24.08234265 146.34907532 -25.01024129 142.78016468 -25.02799988 137.9365387 C-25.03652985 136.88104324 -25.04505981 135.82554779 -25.05384827 134.73806763 C-25.05294189 133.59041931 -25.05203552 132.442771 -25.05110168 131.26034546 C-25.05781891 130.04351578 -25.06453613 128.8266861 -25.07145691 127.57298279 C-25.08718562 124.24219294 -25.09381113 120.91165249 -25.09508848 117.58084273 C-25.09651239 115.49708923 -25.10078655 113.41336168 -25.10608292 111.32961464 C-25.12457504 104.05195081 -25.13275469 96.77436013 -25.13117981 89.49667358 C-25.1299791 82.72615938 -25.1510693 75.95596432 -25.18266714 69.18553084 C-25.20887162 63.36198345 -25.21954534 57.53854002 -25.21826899 51.71493417 C-25.21776051 48.24155054 -25.22337965 44.76845056 -25.24462509 41.29512596 C-25.26769666 37.41752181 -25.25846103 33.54035069 -25.24641418 29.66268921 C-25.2576532 28.52111359 -25.26889221 27.37953796 -25.2804718 26.20336914 C-25.21912445 18.42282372 -24.06577103 13.03916092 -18.79573059 7.02523804 C-18.14475403 6.48640991 -17.49377747 5.94758179 -16.82307434 5.39242554 C-16.1746759 4.83812866 -15.52627747 4.28383179 -14.85823059 3.71273804 C-10.07458287 0.4167424 -5.68824464 -0.02449417 0 0 Z M-8.76057434 21.26742554 C-9.49153045 23.69467962 -9.49153045 23.69467962 -9.3820343 26.27682495 C-9.3932431 27.2609285 -9.4044519 28.24503204 -9.41600037 29.25895691 C-9.40273712 30.32716171 -9.38947388 31.39536652 -9.37580872 32.49594116 C-9.38135773 33.62980759 -9.38690674 34.76367401 -9.3926239 35.93190002 C-9.40443373 39.67958851 -9.38012925 43.42607161 -9.35432434 47.17367554 C-9.35261356 49.77771957 -9.35267859 52.38176533 -9.35444641 54.98580933 C-9.35439288 60.44327418 -9.33466057 65.90039235 -9.30256653 71.35775757 C-9.26567517 77.66139161 -9.25689132 83.96457167 -9.26386404 90.26829958 C-9.27017599 96.33974831 -9.25918843 102.41101681 -9.23989868 108.48243713 C-9.2328639 111.06284323 -9.22974473 113.64326304 -9.23059082 116.22367859 C-9.22879454 119.82900824 -9.2074258 123.43369185 -9.18049622 127.03890991 C-9.18342682 128.10711472 -9.18635742 129.17531952 -9.18937683 130.27589417 C-9.17746689 137.28885536 -9.17746689 137.28885536 -5.76057434 143.26742554 C-2.90597165 144.69472688 -0.48213739 144.39870377 2.71032715 144.40545654 C3.38229431 144.40827782 4.05426147 144.4110991 4.74659127 144.41400588 C7.00894408 144.42237041 9.27124808 144.42369171 11.53361511 144.42514038 C13.15139403 144.42980725 14.76917163 144.43495061 16.38694763 144.4405365 C19.87642608 144.4518287 23.36589594 144.46025747 26.85538673 144.46665573 C32.3723635 144.47732168 37.88927863 144.49756279 43.40621948 144.51977539 C59.09627968 144.5817468 74.78633654 144.63571976 90.47648621 144.66879272 C99.13767907 144.68712987 107.79876902 144.71605467 116.45988625 144.75679743 C121.04480996 144.77788328 125.62960388 144.79332692 130.21457863 144.79560471 C134.52791518 144.79775 138.84098155 144.81360713 143.15423584 144.83999443 C144.73726601 144.84719352 146.3203289 144.84928544 147.90337181 144.84589195 C150.06509247 144.84199826 152.22594982 144.85644724 154.38757324 144.87542725 C155.59713338 144.87873739 156.80669352 144.88204754 158.05290699 144.88545799 C163.39319745 145.52559786 166.54067359 148.31209955 170.19255066 152.06039429 C171.24442566 153.12870483 171.24442566 153.12870483 172.31755066 154.21859741 C173.03426941 154.95658569 173.75098816 155.69457397 174.48942566 156.45492554 C175.92996525 157.9297033 177.37255746 159.40247991 178.81755066 160.87289429 C179.45080261 161.52411255 180.08405457 162.17533081 180.73649597 162.84628296 C182.01578576 164.38193555 182.01578576 164.38193555 183.23942566 164.26742554 C183.30947789 145.69164965 183.36239525 127.11590053 183.39486217 108.54001999 C183.4103372 99.91509335 183.43143881 91.29024875 183.46574402 82.66537476 C183.49562698 75.14874666 183.51499604 67.63217796 183.52169114 60.11549211 C183.52560529 56.13470752 183.53481714 52.15409289 183.55661583 48.17336273 C183.57696364 44.42726601 183.58326297 40.68140941 183.5787487 36.93526268 C183.57957467 35.55980563 183.58555066 34.18434064 183.59704208 32.80893135 C183.61195754 30.93177207 183.60659398 29.05448422 183.60018921 27.17727661 C183.60295459 26.12643261 183.60571997 25.07558861 183.60856915 23.99290085 C183.18401034 20.85828092 182.443014 19.5083132 180.23942566 17.26742554 C176.7656465 16.10949915 173.65415124 16.11612403 170.04084778 16.11352539 C169.30268936 16.10914314 168.56453093 16.10476088 167.80400407 16.10024583 C165.32365375 16.08686139 162.84333894 16.08067984 160.36296082 16.07455444 C158.58740071 16.06665336 156.81184221 16.05838441 155.0362854 16.04977417 C149.20036858 16.0235606 143.36444459 16.00824987 137.52848816 15.99398804 C135.52050649 15.98862859 133.51252487 15.98325108 131.5045433 15.97785568 C123.15426315 15.95623034 114.80398492 15.93749207 106.45368385 15.92623329 C94.47945275 15.90998266 82.50554555 15.87677389 70.53143656 15.81983244 C62.11523161 15.78117131 53.69911345 15.7616053 45.28282201 15.75631273 C40.25401492 15.75265479 35.22555333 15.74058614 30.19684219 15.70820999 C25.46731621 15.6781957 20.73834602 15.6717937 16.00874519 15.68359375 C14.27248503 15.68381502 12.53619957 15.6754655 10.80002785 15.65793991 C8.43000283 15.63531695 6.06200513 15.64350903 3.69197083 15.65942383 C2.66049421 15.6386007 2.66049421 15.6386007 1.60817969 15.6173569 C-3.4993755 15.70191185 -5.73776248 17.22095395 -8.76057434 21.26742554 Z " fill="#000000" transform="translate(24.760574340820313,-0.267425537109375)"/>
<path d="M0 0 C2 1.125 2 1.125 3 3 C3.50683389 6.9098614 3.57731174 9.11861873 1.390625 12.45703125 C-1.33507674 15.35642967 -4.30167929 17.29585128 -7.6875 19.3125 C-30.79582269 33.75370889 -42.41887283 57.61863832 -48.6875 83.5 C-50.56390918 92.73362937 -51.09266311 102.15806219 -51.75048828 111.54321289 C-52.00513543 114.05056535 -52.50573825 116.52869127 -53 119 C31.48 119 115.96 119 203 119 C199.33487335 84.79215123 194.65306813 49.23355406 167.04296875 25.453125 C161.59206556 21.28272924 155.92741117 17.58013159 149.9609375 14.19140625 C148 13 148 13 146 11 C145.69921875 8.94140625 145.69921875 8.94140625 145.6875 6.5625 C145.67074219 5.78003906 145.65398437 4.99757813 145.63671875 4.19140625 C146 2 146 2 147.2578125 0.24609375 C150.01998454 -1.72954051 152.30796465 -1.5353511 155.6171875 -1.40234375 C159.82838281 -0.69127307 162.63720271 1.47345389 166 4 C166.90621094 4.63164062 167.81242188 5.26328125 168.74609375 5.9140625 C181.21654323 14.83310959 190.81500328 25.02725423 199 38 C199.62648438 38.96550781 200.25296875 39.93101562 200.8984375 40.92578125 C209.88771664 55.4303168 213.8076387 71.40673742 217 88 C217.20133545 89.04293213 217.20133545 89.04293213 217.40673828 90.10693359 C219.10419638 99.4202726 219.2476909 108.80863331 219.375 118.25 C219.40118408 119.44197998 219.42736816 120.63395996 219.4543457 121.86206055 C219.456521 122.98523682 219.45869629 124.10841309 219.4609375 125.265625 C219.46915527 126.27399414 219.47737305 127.28236328 219.48583984 128.32128906 C218.82131041 131.98521716 218.07487739 132.84682628 215 135 C211.3124882 135.61557352 207.64688873 135.53889969 203.91601562 135.50793457 C202.20003048 135.51729451 202.20003048 135.51729451 200.44937897 135.52684355 C197.27348984 135.54005184 194.09821064 135.53527972 190.92233658 135.52289867 C187.49758887 135.5138606 184.07292458 135.52781168 180.64819336 135.53881836 C173.93898198 135.55662157 167.22994941 135.55275566 160.52073097 135.5411678 C155.0689001 135.5321408 149.6171194 135.53090628 144.1652832 135.53526306 C143.00217676 135.53618246 143.00217676 135.53618246 141.81557322 135.53712043 C140.24044226 135.53839931 138.66531132 135.53969616 137.0901804 135.5410108 C122.3139502 135.55242187 107.5378192 135.53929465 92.76160526 135.51780933 C80.07799965 135.49993785 67.39454047 135.50304181 54.7109375 135.52148438 C39.98823383 135.54288181 25.26561714 135.55132318 10.54290009 135.53903532 C8.97350567 135.5377611 7.40411124 135.53650362 5.8347168 135.53526306 C5.06250872 135.53464596 4.29030065 135.53402886 3.49469233 135.53339306 C-1.95172046 135.52993676 -7.39807816 135.53577449 -12.84448242 135.54518127 C-19.4802549 135.55639015 -26.11583808 135.55338481 -32.75158882 135.5320583 C-36.13846381 135.52153269 -39.52502297 135.51745129 -42.91189575 135.53065491 C-46.58025424 135.54152929 -50.24771489 135.52794354 -53.91601562 135.50793457 C-54.9911013 135.51685746 -56.06618698 135.52578034 -57.17385101 135.53497362 C-64.34729219 135.45868649 -64.34729219 135.45868649 -67.66139221 133.1297226 C-69.36943201 130.41223433 -69.50221133 128.67951333 -69.49609375 125.4765625 C-69.49915527 124.38432373 -69.5022168 123.29208496 -69.50537109 122.16674805 C-69.48297363 120.99797119 -69.46057617 119.82919434 -69.4375 118.625 C-69.42283691 117.41561768 -69.40817383 116.20623535 -69.39306641 114.96020508 C-68.6613571 79.50958829 -59.1670309 43.96523897 -34 18 C-33.4740625 17.40058594 -32.948125 16.80117188 -32.40625 16.18359375 C-24.79118007 7.81090207 -11.69549571 -2.95491293 0 0 Z " fill="#000000" transform="translate(69,377)"/>
<path d="M0 0 C2.3233828 1.44384425 4.48362976 2.95942932 6.64453125 4.63671875 C16.81277436 11.91712002 30.04457313 17.46803251 42.48242188 18.98095703 C43.75279297 19.1354834 45.02316406 19.29000977 46.33203125 19.44921875 C46.40727601 24.58631335 46.46113902 29.72307373 46.49682617 34.8605957 C46.51173338 36.60121258 46.53206633 38.34179313 46.55834961 40.08227539 C46.7989196 56.44575209 46.61468788 75.98533189 34.54296875 88.56640625 C18.5264474 102.20591736 -3.77653049 101.63323293 -23.66796875 100.44921875 C-36.23048667 99.26862642 -48.17857029 95.15138841 -56.66796875 85.44921875 C-63.77133928 74.79416296 -65.8489973 61.34272424 -65.765625 48.76953125 C-65.76421005 47.95676727 -65.7627951 47.1440033 -65.76133728 46.30661011 C-65.7557721 43.72910774 -65.74322615 41.15169455 -65.73046875 38.57421875 C-65.72544925 36.81901168 -65.72088713 35.06380323 -65.71679688 33.30859375 C-65.70581409 29.02210143 -65.68857367 24.73567518 -65.66796875 20.44921875 C-64.4253125 20.28091553 -63.18265625 20.1126123 -61.90234375 19.93920898 C-42.97403349 17.33341364 -24.00515057 12.9125275 -7.84667969 2.24707031 C-3.29501108 -0.68022923 -3.29501108 -0.68022923 0 0 Z " fill="#FDC09D" transform="translate(377.66796875,171.55078125)"/>
<path d="M0 0 C2.06271639 0.3110685 4.12516466 0.62391516 6.1875 0.9375 C7.33605469 1.11152344 8.48460937 1.28554688 9.66796875 1.46484375 C11.55916024 1.76858728 13.44761987 2.10062955 15.31640625 2.52075195 C20.74787838 3.49072828 26.31004914 3.23577102 31.8125 3.25 C33.11372803 3.25394775 34.41495605 3.25789551 35.75561523 3.26196289 C44.18287332 3.21100322 51.95568349 2.57280527 60.12890625 0.55859375 C62.96097548 0.00759253 64.40667206 -0.23270297 67 1 C68.30078125 2.70703125 68.30078125 2.70703125 69.3125 4.8125 C69.65925781 5.49957031 70.00601563 6.18664062 70.36328125 6.89453125 C71.13165414 9.43534712 70.84084591 10.50719808 70 13 C68.88354492 14.60888672 68.88354492 14.60888672 67.48046875 16.1796875 C66.95888184 16.77152832 66.43729492 17.36336914 65.89990234 17.97314453 C65.33480957 18.60075684 64.7697168 19.22836914 64.1875 19.875 C62.99567254 21.2235862 61.8042758 22.57255316 60.61328125 23.921875 C59.70570068 24.9437793 59.70570068 24.9437793 58.77978516 25.98632812 C56.11206341 29.00462291 53.49161379 32.06240691 50.875 35.125 C50.1488147 35.97288086 50.1488147 35.97288086 49.40795898 36.83789062 C44.24565881 42.86962176 39.12011862 48.93245785 34 55 C29.71718879 53.42424871 27.31486239 50.16182879 24.5 46.75 C23.42857957 45.47509723 22.35695939 44.2003623 21.28515625 42.92578125 C20.46748779 41.94665771 20.46748779 41.94665771 19.63330078 40.94775391 C17.58477889 38.50483797 15.50917415 36.08616485 13.4284668 33.6706543 C11.94112259 31.94171103 10.46274092 30.2053714 8.984375 28.46875 C6.94583796 26.08190663 4.86959854 23.73555885 2.765625 21.40625 C2.2487915 20.82367432 1.73195801 20.24109863 1.19946289 19.64086914 C0.21594971 18.53284856 -0.77916958 17.43498624 -1.78735352 16.34936523 C-3.89934205 13.94494154 -5.01884344 12.63502396 -4.921875 9.3671875 C-3.60001997 5.97293264 -1.89248787 3.11344778 0 0 Z " fill="#EEA27C" transform="translate(335,284)"/>
<path d="M0 0 C36.96 0 73.92 0 112 0 C112 5.28 112 10.56 112 16 C75.04 16 38.08 16 0 16 C0 10.72 0 5.44 0 0 Z " fill="#000000" transform="translate(72,104)"/>
<path d="M0 0 C36.96 0 73.92 0 112 0 C112 5.28 112 10.56 112 16 C75.04 16 38.08 16 0 16 C0 10.72 0 5.44 0 0 Z " fill="#000000" transform="translate(40,72)"/>
<path d="M0 0 C36.96 0 73.92 0 112 0 C112 5.28 112 10.56 112 16 C75.04 16 38.08 16 0 16 C0 10.72 0 5.44 0 0 Z " fill="#000000" transform="translate(72,40)"/>
<path d="M0 0 C5.28 0 10.56 0 16 0 C16 5.28 16 10.56 16 16 C10.72 16 5.44 16 0 16 C0 10.72 0 5.44 0 0 Z " fill="#000000" transform="translate(40,104)"/>
<path d="M0 0 C5.28 0 10.56 0 16 0 C16 5.28 16 10.56 16 16 C10.72 16 5.44 16 0 16 C0 10.72 0 5.44 0 0 Z " fill="#000000" transform="translate(168,72)"/>
<path d="M0 0 C5.28 0 10.56 0 16 0 C16 5.28 16 10.56 16 16 C10.72 16 5.44 16 0 16 C0 10.72 0 5.44 0 0 Z " fill="#000000" transform="translate(40,40)"/>
<path d="M0 0 C0.66 0 1.32 0 2 0 C2.33 8.91 2.66 17.82 3 27 C-1.32165007 24.83917496 -3.87619412 22.7158642 -5.75 18.1875 C-6.75829384 9.36492891 -6.75829384 9.36492891 -4.125 4.625 C-2 2 -2 2 0 0 Z " fill="#E59C77" transform="translate(62,275)"/>
<path d="M0 0 C4.50950852 2.25475426 5.71063381 3.58479377 8 8 C8.65435515 13.88919632 7.85783313 17.69259562 5 23 C2.9375 25.4375 2.9375 25.4375 1 27 C0.34 27 -0.32 27 -1 27 C-0.67 18.09 -0.34 9.18 0 0 Z " fill="#E69D77" transform="translate(224,275)"/>
<path d="M0 0 C0.66 0 1.32 0 2 0 C2 8.58 2 17.16 2 26 C-2.12383704 23.93808148 -4.01228878 22.51417402 -5.6875 18.25 C-6.43959186 12.83493859 -6.78684945 9.416329 -4.125 4.625 C-2 2 -2 2 0 0 Z " fill="#E89E79" transform="translate(294,195)"/>
<path d="M0 0 C4.50950852 2.25475426 5.71063381 3.58479377 8 8 C8.66271445 13.96443001 7.79337984 17.72361585 5 23 C3.4375 24.9375 3.4375 24.9375 2 26 C1.34 26 0.68 26 0 26 C0 17.42 0 8.84 0 0 Z " fill="#E99F79" transform="translate(440,195)"/>
</svg>
