<?xml version="1.0" encoding="UTF-8"?>
<svg version="1.1" xmlns="http://www.w3.org/2000/svg" width="512" height="512">
<path d="M0 0 C0.99868909 -0.00297112 1.99737819 -0.00594224 3.02633059 -0.0090034 C6.35908455 -0.01764635 9.69180239 -0.01919493 13.02456665 -0.02069092 C15.42015662 -0.02532233 17.81574585 -0.03034742 20.21133423 -0.03573608 C26.71186048 -0.04883371 33.21237985 -0.05533771 39.71291685 -0.05974674 C43.78023756 -0.06251761 47.84755591 -0.06675656 51.91487503 -0.07125092 C63.19913521 -0.08343966 74.48339352 -0.09373856 85.76766014 -0.09712601 C86.48888342 -0.09734557 87.2101067 -0.09756514 87.95318524 -0.09779136 C88.67603937 -0.09800964 89.39889351 -0.09822791 90.14365232 -0.09845281 C91.60818887 -0.09889626 93.07272542 -0.09934282 94.53726196 -0.09979248 C95.2637076 -0.10001391 95.99015323 -0.10023534 96.73861237 -0.10046348 C108.48858398 -0.10440477 120.23849332 -0.12184006 131.98844092 -0.145152 C144.08217627 -0.16895013 156.17588049 -0.18133175 168.26963961 -0.18249393 C175.04751456 -0.18340615 181.82530843 -0.18904286 188.60316086 -0.20731354 C194.98736375 -0.22388814 201.37141365 -0.2259044 207.75563049 -0.21717453 C210.08628883 -0.21640908 212.41695571 -0.22068117 214.74759293 -0.23063278 C258.07962913 -0.40465983 296.27158717 14.14096113 327.37026978 44.66778564 C335.82133285 53.25263113 342.72223089 62.77794547 348.81997681 73.14044189 C349.16657349 73.72519287 349.51317017 74.30994385 349.87026978 74.91241455 C362.01010239 95.68527045 368.98307225 119.22610484 368.9604187 143.32046509 C368.96487538 144.81849873 368.96487538 144.81849873 368.9694221 146.34679568 C368.97806505 149.67954963 368.97961363 153.01226748 368.98110962 156.34503174 C368.98574103 158.7406217 368.99076612 161.13621093 368.99615479 163.53179932 C369.00925242 170.03232557 369.01575642 176.53284494 369.02016544 183.03338194 C369.02293631 187.10070264 369.02717527 191.168021 369.03166962 195.23534012 C369.04385836 206.5196003 369.05415726 217.80385861 369.05754471 229.08812523 C369.05776427 229.80934851 369.05798384 230.53057179 369.05821006 231.27365033 C369.05842834 231.99650446 369.05864662 232.7193586 369.05887151 233.46411741 C369.05931496 234.92865396 369.05976152 236.3931905 369.06021118 237.85772705 C369.06043261 238.58417268 369.06065404 239.31061832 369.06088218 240.05907746 C369.06482347 251.80904907 369.08225876 263.55895841 369.1055707 275.308906 C369.12936883 287.40264135 369.14175045 299.49634558 369.14291263 311.5901047 C369.14382485 318.36797965 369.14946156 325.14577352 369.16773224 331.92362595 C369.18430684 338.30782883 369.1863231 344.69187874 369.17759323 351.07609558 C369.17682778 353.40675392 369.18109987 355.7374208 369.19105148 358.06805801 C369.36507853 401.40009422 354.81945758 439.59205226 324.29263306 470.69073486 C315.70778757 479.14179794 306.18247323 486.04269597 295.81997681 492.14044189 C295.23522583 492.48703857 294.65047485 492.83363525 294.04800415 493.19073486 C273.27514825 505.33056748 249.73431386 512.30353734 225.63995361 512.28088379 C224.64126452 512.28385491 223.64257542 512.28682603 222.61362302 512.28988719 C219.28086907 512.29853014 215.94815122 512.30007872 212.61538696 512.30157471 C210.219797 512.30620611 207.82420777 512.31123121 205.42861938 512.31661987 C198.92809313 512.3297175 192.42757376 512.3362215 185.92703676 512.34063053 C181.85971606 512.3434014 177.7923977 512.34764035 173.72507858 512.3521347 C162.4408184 512.36432345 151.15656009 512.37462235 139.87229347 512.3780098 C138.79045855 512.37833915 138.79045855 512.37833915 137.68676838 512.37867515 C136.96391424 512.37889343 136.2410601 512.3791117 135.49630129 512.3793366 C134.03176474 512.37978005 132.5672282 512.38022661 131.10269165 512.38067627 C130.37624602 512.3808977 129.64980038 512.38111913 128.90134124 512.38134727 C117.15136963 512.38528855 105.40146029 512.40272385 93.6515127 512.42603579 C81.55777735 512.44983392 69.46407312 512.46221554 57.370314 512.46337771 C50.59243905 512.46428994 43.81464518 512.46992664 37.03679276 512.48819733 C30.65258987 512.50477193 24.26853996 512.50678819 17.88432312 512.49805832 C15.55366478 512.49729287 13.2229979 512.50156496 10.89236069 512.51151657 C-32.43967552 512.68554362 -70.63163355 498.13992266 -101.73031616 467.61309814 C-110.18137924 459.02825266 -117.08227727 449.50293832 -123.18002319 439.14044189 C-123.52661987 438.55569092 -123.87321655 437.97093994 -124.23031616 437.36846924 C-139.15366328 411.83265263 -143.96888288 384.22270078 -143.82699585 354.93341064 C-143.83379502 352.5269607 -143.84271086 350.12051597 -143.85354614 347.71408081 C-143.87607264 341.2594098 -143.86761464 334.80514453 -143.85165071 328.35046768 C-143.84267249 324.30057544 -143.84447118 320.25073325 -143.84910202 316.20083618 C-143.84986819 315.52315191 -143.85063435 314.84546765 -143.85142373 314.14724749 C-143.85302277 312.7694531 -143.85464384 311.39165874 -143.85628669 310.0138644 C-143.87045789 297.17115175 -143.8542884 284.32861914 -143.82728486 271.48593605 C-143.80495393 260.5272569 -143.80883651 249.56884283 -143.83187866 238.61016846 C-143.85879081 225.80542442 -143.86908541 213.00083715 -143.85381734 200.19606876 C-143.85222502 198.82406174 -143.85065316 197.45205468 -143.84910202 196.08004761 C-143.84833064 195.40544076 -143.84755927 194.73083391 -143.84676451 194.03578442 C-143.84249339 189.33985864 -143.8498857 184.64406472 -143.86149979 179.94815063 C-143.87611257 173.59803788 -143.86562045 167.2484178 -143.8370285 160.89835739 C-143.83050645 158.58998806 -143.83215941 156.2815761 -143.84334183 153.97322464 C-144.02984188 111.50758545 -129.37532516 73.193066 -99.75082397 42.66778564 C-73.70742027 16.77431011 -36.88675524 -0.03468097 0 0 Z " fill="#2492FF" transform="translate(143.18002319335938,-0.14044189453125)"/>
<path d="M0 0 C6.24751285 3.80884586 9.45452035 9.25645299 12 16 C12.62146606 19.49530489 12.63773055 22.86391436 12.56762695 26.40673828 C12.56872215 27.88659462 12.56872215 27.88659462 12.56983948 29.39634705 C12.56638665 32.62158323 12.5276345 35.84533208 12.48828125 39.0703125 C12.47894494 41.32045707 12.4718327 43.57061186 12.46684265 45.82077026 C12.44783749 51.71627322 12.39879225 57.6111511 12.34332275 63.50640869 C12.29199036 69.5328323 12.26929877 75.55935784 12.24414062 81.5859375 C12.19066749 93.39089822 12.10543325 105.19539694 12 117 C13.22029404 116.99333817 14.44058807 116.98667633 15.69786072 116.97981262 C27.21777047 116.91890451 38.73764739 116.87398075 50.25768185 116.84456348 C56.17975024 116.82893119 62.10168826 116.80773724 68.02368164 116.77368164 C73.74249611 116.74100158 79.46118546 116.72312867 85.18008614 116.71536827 C87.35808849 116.7098403 89.53608427 116.69904558 91.71403313 116.68280983 C94.77296434 116.66092087 97.83138348 116.65803789 100.89038086 116.65942383 C101.78374649 116.648638 102.67711212 116.63785217 103.59754944 116.6267395 C111.82490726 116.66687511 119.30816619 118.35880647 125.42578125 124.1484375 C130.54787958 130.17294025 132.82340293 136.43140911 132.421875 144.328125 C131.31941634 151.31036317 128.01218673 157.1017266 123 162 C117.83810537 165.21459306 112.87523153 167.12801425 106.76055908 167.12025452 C105.50280922 167.12231651 105.50280922 167.12231651 104.21965027 167.12442017 C103.30830826 167.12082489 102.39696625 167.11722961 101.45800781 167.11352539 C100.00872643 167.11374443 100.00872643 167.11374443 98.53016663 167.1139679 C95.33779655 167.11327144 92.14548488 167.1054915 88.953125 167.09765625 C86.73923779 167.09579112 84.52535017 167.09436767 82.3114624 167.09336853 C76.48519755 167.08955082 70.65895764 167.07972687 64.83270264 167.06866455 C58.88716977 167.05843441 52.94163288 167.05386747 46.99609375 167.04882812 C35.33071821 167.03810396 23.66536118 167.02103646 12 167 C12.00888245 168.23282211 12.01776489 169.46564423 12.0269165 170.73582458 C12.10812381 182.37344026 12.16802382 194.01099818 12.20724869 205.64883327 C12.22809277 211.63148782 12.25635278 217.61391299 12.30175781 223.59643555 C12.34532827 229.37361457 12.36916101 235.15057343 12.37950897 240.92790413 C12.38688019 243.12825039 12.40127442 245.32858507 12.42292023 247.5288372 C12.45210253 250.61901441 12.45594974 253.7082904 12.45410156 256.79858398 C12.47567322 258.15265854 12.47567322 258.15265854 12.49768066 259.53408813 C12.44921262 267.05981673 10.24535281 273.25412435 5.75 279.3125 C0.34745128 284.59226352 -6.11823353 287.0571239 -13.625 287.375 C-20.36359577 287.28554961 -25.78639602 284.78737861 -30.85546875 280.390625 C-37.2551375 273.50110506 -38.44841673 265.97373734 -38.34057617 256.91210938 C-38.34123329 255.44732147 -38.34123329 255.44732147 -38.34190369 253.95294189 C-38.33982638 250.74966912 -38.31654514 247.54693048 -38.29296875 244.34375 C-38.28736904 242.11316209 -38.28310071 239.88257047 -38.28010559 237.65197754 C-38.26868641 231.79937438 -38.23924431 225.94699684 -38.20599365 220.09448242 C-38.17522968 214.11510265 -38.16158674 208.13568621 -38.14648438 202.15625 C-38.11437189 190.43740122 -38.06321091 178.71871942 -38 167 C-39.24312958 167.01110306 -40.48625916 167.02220612 -41.76705933 167.03364563 C-53.50734685 167.13519603 -65.24754474 167.21004924 -76.98817253 167.25906086 C-83.02355187 167.28510578 -89.0585754 167.32041127 -95.09375 167.37719727 C-100.92281699 167.431698 -106.75154267 167.46145891 -112.58084488 167.47438622 C-114.79992161 167.48359362 -117.01898059 167.50157349 -119.23791122 167.52865028 C-122.35676554 167.56517986 -125.47422642 167.56993526 -128.59326172 167.56762695 C-129.95596947 167.59459152 -129.95596947 167.59459152 -131.34620667 167.62210083 C-138.81576926 167.56264956 -145.27686134 165.31905805 -150.91784477 160.29030323 C-156.03393386 154.8942871 -158.10659892 148.97538862 -158.5 141.625 C-158.2819015 134.78808612 -155.89465359 129.25906366 -151.35546875 124.1484375 C-144.50502102 117.87014906 -137.95047981 116.55362983 -128.93383789 116.65942383 C-127.45463867 116.65876671 -127.45463867 116.65876671 -125.94555664 116.65809631 C-122.70438448 116.66017691 -119.46373742 116.6834739 -116.22265625 116.70703125 C-113.96821882 116.71262979 -111.71377772 116.71689867 -109.45933533 116.71989441 C-103.53931518 116.73132282 -97.6195175 116.76077297 -91.69958496 116.79400635 C-85.65326954 116.82475032 -79.60691801 116.838409 -73.56054688 116.85351562 C-61.70693377 116.88564442 -49.85348542 116.93681669 -38 117 C-38.01110306 115.75687042 -38.02220612 114.51374084 -38.03364563 113.23294067 C-38.13519603 101.49265315 -38.21004924 89.75245526 -38.25906086 78.01182747 C-38.28510578 71.97644813 -38.32041127 65.9414246 -38.37719727 59.90625 C-38.431698 54.07718301 -38.46145891 48.24845733 -38.47438622 42.41915512 C-38.48359362 40.20007839 -38.50157349 37.98101941 -38.52865028 35.76208878 C-38.56517986 32.64323446 -38.56993526 29.52577358 -38.56762695 26.40673828 C-38.58560333 25.49826645 -38.60357971 24.58979462 -38.62210083 23.65379333 C-38.56271052 16.19189025 -36.34015185 9.67902952 -31.25880909 4.08215523 C-22.28313339 -4.2663921 -10.86002077 -5.31878112 0 0 Z " fill="#FEFEFF" transform="translate(269,114)"/>
</svg>
