<?xml version="1.0" encoding="UTF-8"?>
<svg version="1.1" xmlns="http://www.w3.org/2000/svg" width="512" height="512">
<path d="M0 0 C0.70015228 0.00087616 1.40030457 0.00175232 2.12167358 0.00265503 C31.52454613 0.1234584 60.23008882 8.61213867 82.5625 28.375 C83.43777344 29.14199219 84.31304687 29.90898437 85.21484375 30.69921875 C88.63508926 33.73776285 91.9902226 36.78909695 95.1875 40.0625 C97.19207914 42.01432706 99.11985802 43.5561207 101.375 45.1875 C116.23147925 56.21815658 123.37799347 71.44926054 126.5625 89.375 C127.49248031 98.4968902 127.73040527 107.63818186 127.82286072 116.80125999 C127.84436742 118.9161843 127.87132359 121.03098331 127.89953613 123.14582825 C127.96840001 128.38165734 128.02899926 133.61757348 128.08856201 138.85351562 C128.13952605 143.3169673 128.1942588 147.78033905 128.25437927 152.24367714 C128.28084625 154.32373801 128.30169988 156.40380733 128.3223877 158.4839325 C128.33910522 159.7398671 128.35582275 160.9958017 128.37304688 162.28979492 C128.39183899 163.94853889 128.39183899 163.94853889 128.41101074 165.64079285 C128.44733 168.46826004 128.44733 168.46826004 129.5625 171.375 C130.38505474 180.41135137 130.10495538 187.93779825 124.5625 195.375 C116.64209586 204.18381449 109.10693842 206.68895755 97.5625 207.375 C97.55863281 208.25285156 97.55863281 208.25285156 97.5546875 209.1484375 C96.49623491 232.64608499 82.66226389 253.6559286 66.55859375 269.828125 C64.26486847 271.77794101 62.56517048 273.00820052 59.97265625 274.359375 C56.26449058 276.33580089 53.3345718 278.11932689 50.5625 281.375 C48.98227408 287.89445187 49.7591213 294.7815902 50.5625 301.375 C51.64917969 301.66503906 51.64917969 301.66503906 52.7578125 301.9609375 C54.20800781 302.35152344 54.20800781 302.35152344 55.6875 302.75 C56.63882813 303.00523437 57.59015625 303.26046875 58.5703125 303.5234375 C61.5625 304.375 61.5625 304.375 64.31823063 305.41207981 C67.86354799 306.46435299 70.76886232 306.62823239 74.46299744 306.63328552 C75.4678327 306.63879908 75.4678327 306.63879908 76.49296767 306.64442402 C78.72447586 306.6543573 80.95573258 306.65026264 83.18725586 306.64624023 C84.79252893 306.65062996 86.39779971 306.65593301 88.00306702 306.66207886 C91.45374379 306.67356031 94.9043593 306.67903691 98.35505486 306.67996025 C103.8141168 306.68190414 109.27305237 306.69997451 114.73207092 306.72071838 C128.29048188 306.76986159 141.84892707 306.800789 155.40740967 306.82202148 C165.9471662 306.83855103 176.48681411 306.86137953 187.0264979 306.90504223 C192.45045277 306.92679827 197.87420119 306.93487837 203.29819667 306.93264949 C206.67574859 306.93431873 210.05316619 306.94838243 213.43066978 306.96586227 C214.99351778 306.97145127 216.55639374 306.9719567 218.11924362 306.96692467 C220.258141 306.96076129 222.39619476 306.97305315 224.53501892 306.98973083 C225.73016585 306.99174216 226.92531279 306.99375349 228.15667629 306.99582577 C234.10620597 307.65819368 239.35209709 310.05080242 243.5625 314.375 C248.60739677 321.71778642 248.17543625 330.19798839 248.08398438 338.73291016 C248.06241782 341.13415044 248.08391935 343.53244092 248.109375 345.93359375 C248.10673368 347.47136072 248.10161276 349.00912586 248.09375 350.546875 C248.10184692 351.25841736 248.10994385 351.96995972 248.11828613 352.70306396 C248.05148787 356.25948458 247.62982009 358.26824958 245.71679688 361.30175781 C243.5625 363.375 243.5625 363.375 240.5625 364.375 C240.2325 370.645 239.9025 376.915 239.5625 383.375 C241.2125 383.705 242.8625 384.035 244.5625 384.375 C247.29397106 386.77696521 247.54969396 388.25011687 247.92326355 391.89312744 C247.93193268 393.31969168 247.92404627 394.74641512 247.90307617 396.17285156 C247.90351425 396.95372131 247.90395233 397.73459106 247.90440369 398.53912354 C247.90231708 401.11488018 247.8789925 403.68998235 247.85546875 406.265625 C247.84987233 408.05352421 247.84560245 409.84142803 247.84260559 411.6293335 C247.83116043 416.33122496 247.80169607 421.03283768 247.76849365 425.73461914 C247.7377857 430.53397857 247.7240987 435.33338311 247.70898438 440.1328125 C247.67682606 449.54699736 247.62563365 458.96097548 247.5625 468.375 C248.58766724 468.34672119 248.58766724 468.34672119 249.63354492 468.31787109 C250.53177979 468.30320801 251.43001465 468.28854492 252.35546875 468.2734375 C253.69001099 468.24515869 253.69001099 468.24515869 255.05151367 468.21630859 C259.48922946 468.49676705 262.01668747 470.7661788 265 473.87109375 C269.45283466 478.94378323 269.91262238 482.93998221 269.84375 489.45703125 C269.16622027 496.48640217 265.61720609 502.54006374 260.5625 507.375 C251.77470177 513.91773112 241.98388185 513.07041336 231.57446289 512.99023438 C229.6566926 512.99373949 227.73892524 512.99940246 225.82116699 513.00704956 C220.63764378 513.02124422 215.45465438 513.00429234 210.2711823 512.98076439 C204.84204037 512.96060762 199.41291955 512.9665371 193.98374939 512.96887207 C184.87571435 512.96881858 175.76788738 512.94910443 166.65991211 512.91699219 C156.12373681 512.88002561 145.58783316 512.87132811 135.05160147 512.8782897 C124.91210956 512.88458727 114.77271093 512.87385924 104.63323784 512.85432434 C100.31789256 512.84614136 96.0025949 512.8434424 91.68724251 512.84501648 C86.61377594 512.84589334 81.54056885 512.83173298 76.46717072 512.80578995 C74.60270635 512.79861054 72.73821441 512.79655301 70.87373924 512.79990768 C68.33518402 512.80360506 65.79739353 512.78893691 63.25892639 512.76940918 C62.5157512 512.77473711 61.772576 512.78006503 61.00688034 512.78555441 C58.11787853 512.74702419 56.04708024 512.68679312 53.58147335 511.10034943 C52.5625 509.375 52.5625 509.375 52.5625 505.375 C45.9625 505.375 39.3625 505.375 32.5625 505.375 C32.2325 507.025 31.9025 508.675 31.5625 510.375 C29.0888437 512.8486563 27.67107546 512.61934968 24.2948851 512.651811 C23.55589684 512.6487138 22.81690858 512.6456166 22.05552673 512.64242554 C21.27204237 512.64695665 20.48855801 512.65148776 19.68133169 512.65615618 C17.04132032 512.66887257 14.40151333 512.66717515 11.76147461 512.66552734 C9.87432589 512.67150834 7.98717963 512.67831289 6.10003662 512.68588257 C0.96127189 512.70359981 -4.1774263 512.70824053 -9.31621861 512.70951414 C-13.60515437 512.71141063 -17.89407455 512.71876583 -22.18300432 512.72585833 C-32.30617428 512.74216389 -42.42930865 512.74702555 -52.55249023 512.74560547 C-62.99069162 512.74440549 -73.42868574 512.76547358 -83.8668347 512.7970928 C-92.82746098 512.82326792 -101.78801966 512.83397215 -110.74868387 512.83269465 C-116.10061219 512.8321851 -121.45235668 512.83786345 -126.8042469 512.85905075 C-131.84315956 512.8784522 -136.88171354 512.87854443 -141.92063904 512.86401749 C-143.76646894 512.86193021 -145.61232138 512.8666254 -147.45811272 512.8787384 C-159.32452906 512.95154225 -168.79862369 512.436699 -177.93359375 504.0859375 C-184.31576668 496.82517972 -185.12136071 488.04792952 -184.64663315 478.74425125 C-183.82805403 469.4706396 -181.63573147 460.29577855 -179.80078125 451.18359375 C-179.31868542 448.74626257 -178.83743295 446.30876444 -178.35697937 443.87110901 C-177.35079648 438.78187286 -176.33523635 433.69462633 -175.31274414 428.60864258 C-174.00909366 422.12080701 -172.72784821 415.62879057 -171.45348835 409.13514614 C-170.46431357 404.10684318 -169.46380282 399.08084693 -168.45989037 394.05546761 C-167.98337437 391.66375607 -167.51016502 389.27138307 -167.04046059 386.87832451 C-159.13875653 346.736095 -159.13875653 346.736095 -142.15258789 334.76464844 C-132.6732946 328.90971462 -122.5354266 325.69336265 -112 322.25 C-109.07647413 321.27824143 -106.15456236 320.30173387 -103.23272705 319.3249054 C-101.2491387 318.66201476 -99.26504593 318.00063167 -97.28045654 317.34074402 C-86.43319728 313.72786611 -75.65877658 309.91243336 -64.88967896 306.07391357 C-62.65385805 305.27734745 -60.41683794 304.48422877 -58.1796875 303.69140625 C-57.19069206 303.33631233 -57.19069206 303.33631233 -56.18171692 302.9740448 C-51.66340238 301.375 -51.66340238 301.375 -49.4375 301.375 C-48.45081651 289.96788699 -48.45081651 289.96788699 -52.53125 279.94140625 C-55.25671375 278.32095705 -55.25671375 278.32095705 -58.2578125 276.9609375 C-61.97690995 275.10595769 -64.62811487 272.83663668 -67.625 270 C-68.13039307 269.52353027 -68.63578613 269.04706055 -69.15649414 268.55615234 C-84.90407685 253.48967122 -98.76711605 231.94505455 -99.5390625 209.41015625 C-99.50554687 208.73855469 -99.47203125 208.06695312 -99.4375 207.375 C-100.7059375 207.22804687 -100.7059375 207.22804687 -102 207.078125 C-113.13555813 205.61025597 -119.50178226 203.43459933 -126.73828125 194.6484375 C-132.12683709 187.43892141 -132.23352402 180.12092625 -131.4375 171.375 C-131.10656342 170.59146149 -130.77562683 169.80792297 -130.43466187 169.00064087 C-129.35485647 166.15739018 -129.18632617 164.08971274 -129.18212891 161.06005859 C-129.17169052 159.50090225 -129.17169052 159.50090225 -129.16104126 157.9102478 C-129.16203827 156.7926004 -129.16303528 155.674953 -129.1640625 154.5234375 C-129.14374261 152.11978727 -129.12289133 149.71614149 -129.1015625 147.3125 C-129.07915759 143.55237085 -129.06256685 139.79241894 -129.05664062 136.03222656 C-128.98650038 109.59636977 -125.20887013 85.38285809 -111.4375 62.375 C-108.4375 60.375 -108.4375 60.375 -104.59765625 60.12890625 C-101.30606942 59.77992418 -99.70529501 59.13846651 -97.43359375 56.71484375 C-96.55695585 55.59900331 -95.70416915 54.46405217 -94.875 53.3125 C-94.42576172 52.76400391 -93.97652344 52.21550781 -93.51367188 51.65039062 C-91.66137688 49.18732347 -90.41241815 47.44759561 -90.48608398 44.29736328 C-90.60153564 43.60239746 -90.7169873 42.90743164 -90.8359375 42.19140625 C-91.4375 38.375 -91.4375 38.375 -90.35546875 36.125 C-66.30347632 11.80154038 -33.98439619 -0.10439358 0 0 Z " fill="#010101" transform="translate(213.4375,-0.37499999999999994)"/>
<path d="M0 0 C0.87432678 -0.00397441 1.74865356 -0.00794881 2.6494751 -0.01204365 C5.59069895 -0.02169827 8.53144559 -0.00982944 11.47265625 0.00190735 C13.57658061 -0.00051957 15.68050382 -0.00423792 17.78442383 -0.00915527 C23.50746686 -0.01858154 29.23033939 -0.00912422 34.95336914 0.00417686 C40.93375687 0.01546997 46.91413593 0.01138551 52.89453125 0.00942993 C62.93883052 0.00854628 72.98306238 0.01964227 83.02734375 0.03804016 C94.65112033 0.05920885 106.27479814 0.06271808 117.89859009 0.0564782 C129.06587024 0.0507896 140.2331155 0.05642427 151.40039062 0.06765175 C156.15951175 0.07230441 160.91861159 0.07316871 165.67773438 0.0710659 C171.27879906 0.06918651 176.87976278 0.07726 182.48080444 0.0931263 C184.54039085 0.09738001 186.59998749 0.09821244 188.65957642 0.0954361 C191.46326707 0.09222926 194.26665318 0.1012582 197.0703125 0.11352539 C197.89219055 0.10974607 198.7140686 0.10596674 199.56085205 0.10207289 C203.41317875 0.13204678 205.25327834 0.18630319 208.53515625 2.3742218 C208.84899615 4.87537852 208.97614741 7.14247794 208.9765625 9.6476593 C208.99637428 10.72788864 208.99637428 10.72788864 209.0165863 11.8299408 C209.05755081 14.13640657 209.07916192 16.44247418 209.09765625 18.7492218 C209.12146889 21.04870514 209.14966352 23.34781454 209.18943787 25.64707947 C209.21372006 27.07824206 209.2286395 28.50960196 209.23304749 29.94096375 C209.28182758 35.00724754 209.28182758 35.00724754 211.53515625 39.3742218 C213.18515625 40.0342218 214.83515625 40.6942218 216.53515625 41.3742218 C216.53515625 47.9742218 216.53515625 54.5742218 216.53515625 61.3742218 C214.88515625 62.0342218 213.23515625 62.6942218 211.53515625 63.3742218 C209.11997369 66.99699565 209.24230082 69.65654941 209.24804688 73.84321594 C209.24121384 74.60121994 209.2343808 75.35922394 209.2273407 76.14019775 C209.21375512 77.78528948 209.20470027 79.43042342 209.19963074 81.07556343 C209.19135116 83.67668563 209.1708567 86.27745516 209.14709473 88.878479 C209.09064314 95.33688449 209.0554311 101.79537541 209.01947021 108.25392151 C208.98827367 113.71307962 208.94912326 119.17206626 208.8992157 124.63108635 C208.87909216 127.19816209 208.87081742 129.76510655 208.86291504 132.33224487 C208.84994775 133.89970891 208.8364282 135.4671685 208.82226562 137.03462219 C208.82373848 138.11080307 208.82373848 138.11080307 208.82524109 139.20872498 C208.76284584 144.14653221 208.76284584 144.14653221 206.53515625 146.3742218 C203.70889214 146.57425661 200.98026933 146.64781419 198.15260315 146.63491821 C197.27504724 146.63874376 196.39749133 146.64256931 195.49334282 146.64651078 C192.5352969 146.6568786 189.57744373 146.65284149 186.61938477 146.64888 C184.50575581 146.65322439 182.39212843 146.65840662 180.27850342 146.66436768 C174.52445405 146.67779835 168.7704702 146.67833184 163.01640821 146.67580438 C158.21990168 146.67473742 153.42340857 146.67961096 148.6269049 146.6844098 C137.31498051 146.69551906 126.00308932 146.69593442 114.69116211 146.68989563 C103.00547118 146.68385341 91.31990059 146.69616996 79.6342302 146.7174657 C69.61553444 146.73505501 59.59687707 146.74108729 49.57816643 146.73782796 C43.58819081 146.73601069 37.59830101 146.73869531 31.60833931 146.7525425 C25.97689675 146.76507285 20.34564239 146.76322233 14.71420288 146.75013161 C12.64332454 146.74775579 10.57243315 146.75053621 8.50156975 146.75875473 C5.68238914 146.76913917 2.86384979 146.76118876 0.04469299 146.7484436 C-1.19498369 146.75950503 -1.19498369 146.75950503 -2.45970434 146.77078992 C-8.0348366 146.71748086 -8.0348366 146.71748086 -10.17382926 145.01000088 C-12.07099503 142.60619821 -11.84244894 140.75287275 -11.84579468 137.71870422 C-11.85425415 136.54093414 -11.86271362 135.36316406 -11.87142944 134.14970398 C-11.86535675 132.85609955 -11.85928406 131.56249512 -11.85302734 130.22969055 C-11.85709203 128.85481855 -11.86243334 127.47994981 -11.86895752 126.10508728 C-11.88264933 122.36956417 -11.87732491 118.63428927 -11.86782026 114.89876175 C-11.86023327 110.99238152 -11.8672666 107.08602277 -11.87197876 103.17964172 C-11.87743912 96.61913735 -11.87023738 90.05873424 -11.85595703 83.49824524 C-11.83962992 75.9097504 -11.84491824 68.32149736 -11.86143625 60.73300838 C-11.87504316 54.22168118 -11.87697469 47.71042683 -11.86912024 41.19909 C-11.86443932 37.30840147 -11.86383029 33.41782665 -11.87372971 29.52714539 C-11.8823856 25.86960385 -11.87640304 22.21237454 -11.85904694 18.55486679 C-11.85317736 16.56949545 -11.86210938 14.58409776 -11.87142944 12.59873962 C-11.86296997 11.42096954 -11.8545105 10.24319946 -11.84579468 9.02973938 C-11.84409806 7.49111992 -11.84409806 7.49111992 -11.84236717 5.92141724 C-11.46484375 3.3742218 -11.46484375 3.3742218 -10.47008705 1.54414082 C-7.1874254 -0.37106233 -3.69560002 -0.0331587 0 0 Z " fill="#ECECEC" transform="translate(236.46484375,321.6257781982422)"/>
<path d="M0 0 C1.21798255 1.65084399 2.37376066 3.34775445 3.5 5.0625 C10.57961656 15.04591573 19.69879326 19.25923743 31 23 C31.04648925 33.12759385 31.08195315 43.255162 31.10362434 53.38284111 C31.11402922 58.08632064 31.12812778 62.78972677 31.15087891 67.49316406 C31.17272539 72.03839965 31.18459337 76.58356496 31.18975449 81.12884903 C31.19342915 82.8566511 31.20060446 84.58444965 31.21146011 86.31222153 C31.36016681 110.97740245 24.58751685 132.09782584 7.02734375 150.02734375 C-9.8759479 166.79299507 -30.95254624 174.24323265 -54.53662109 174.25097656 C-62.04680178 174.16919601 -68.81715478 173.27391703 -76 171 C-77.010625 170.70996094 -78.02125 170.41992188 -79.0625 170.12109375 C-92.72124915 165.95726588 -104.28974894 158.47684983 -114 148 C-114.60328125 147.37867188 -115.2065625 146.75734375 -115.828125 146.1171875 C-127.66794294 133.5091371 -135.97420634 115.57577251 -136.19287109 98.05151367 C-136.20893402 96.87646774 -136.22499695 95.70142181 -136.24154663 94.49076843 C-136.28621478 89.13633923 -136.32746899 83.78205247 -136.35009766 78.42749023 C-136.36343134 75.60587102 -136.39128354 72.78497595 -136.43212891 69.96362305 C-136.4911414 65.88578256 -136.50878025 61.80871417 -136.5234375 57.73046875 C-136.54610687 56.47501755 -136.56877625 55.21956635 -136.59213257 53.92607117 C-136.57457758 46.63005161 -135.89332254 41.59738768 -131 36 C-128.8671875 33.94140625 -128.8671875 33.94140625 -126.875 32.5625 C-126.21242187 32.08941406 -125.54984375 31.61632812 -124.8671875 31.12890625 C-121.65027345 29.18395194 -118.98508133 28.86346913 -115.3125 28.875 C-114.50425781 28.87242187 -113.69601563 28.86984375 -112.86328125 28.8671875 C-110 29 -110 29 -106.38671875 29.49609375 C-72.16390059 33.98459593 -35.84167673 25.2258777 -8.0078125 4.8046875 C-6.50766931 3.62086843 -5.02295175 2.41675354 -3.56640625 1.1796875 C-2 0 -2 0 0 0 Z " fill="#ECAD6A" transform="translate(265,105)"/>
<path d="M0 0 C0.14695312 0.76183594 0.29390625 1.52367187 0.4453125 2.30859375 C2.44145553 11.49773495 5.31709995 18.61359097 13.0625 24.3125 C22.88253941 30.24065088 33.754267 31.39346671 45 33 C45 71.94 45 110.88 45 151 C42.03 151.33 39.06 151.66 36 152 C31.36786103 153.69433027 27.97121675 156.40405763 25.5 160.6875 C22.76713472 167.04412057 23.67921903 173.39609517 25 180 C-0.41 180 -25.82 180 -52 180 C-52.3125 143.1875 -52.3125 143.1875 -52.38793945 131.56323242 C-52.42450335 128.12507646 -52.42450335 128.12507646 -52.4650116 124.68696594 C-52.48116261 123.15547889 -52.49145005 121.62392319 -52.49711609 120.09236145 C-52.50683677 117.77238254 -52.53515129 115.4533019 -52.56762695 113.13354492 C-52.58428154 111.1716346 -52.58428154 111.1716346 -52.60127258 109.17008972 C-52.74876672 106.0557093 -52.74876672 106.0557093 -54.30827332 104.07759094 C-57.17952533 102.24866953 -59.71058068 102.64756222 -63 103 C-67.48235813 106.83156675 -67.48235813 106.83156675 -67 119 C-81.52 119 -96.04 119 -111 119 C-109.87399976 106.61399731 -109.87399976 106.61399731 -108.88012695 101.41796875 C-108.65931961 100.25305908 -108.43851227 99.08814941 -108.21101379 97.88793945 C-107.97251205 96.66679443 -107.73401031 95.44564941 -107.48828125 94.1875 C-107.2375737 92.89739014 -106.98686615 91.60728027 -106.7285614 90.27807617 C-106.19922012 87.56437332 -105.6645818 84.85176905 -105.12719727 82.13964844 C-104.44637868 78.69703777 -103.78804307 75.25052897 -103.13479328 71.80259705 C-102.49798066 68.46934286 -101.83502866 65.14138824 -101.17578125 61.8125 C-100.94740067 60.59135498 -100.71902008 59.37020996 -100.48371887 58.11206055 C-98.03385242 46.04841981 -93.43094046 36.05253978 -83 29 C-71.69237594 23.22266753 -58.97380653 19.73768763 -47 15.625 C-43.80214746 14.52262714 -40.60466752 13.41917878 -37.40722656 12.31561279 C-35.3144367 11.59372814 -33.22134092 10.87272968 -31.12792969 10.15264893 C-26.09559259 8.42054287 -21.06824393 6.67614565 -16.05078125 4.90136719 C-15.12297852 4.57365326 -14.19517578 4.24593933 -13.23925781 3.90829468 C-11.49674989 3.29158689 -9.75516083 2.67227468 -8.01464844 2.04995728 C-2.22030145 0 -2.22030145 0 0 0 Z " fill="#6B7C86" transform="translate(165,317)"/>
<path d="M0 0 C1.40867972 1.15112261 2.80444622 2.31821151 4.1875 3.5 C5.37859375 4.50933594 5.37859375 4.50933594 6.59375 5.5390625 C9.73350252 8.26086095 12.66423579 10.81321573 15.1875 14.125 C17.18616673 16.49841674 18.905195 17.71781361 21.5 19.375 C32.85125714 26.76910858 39.04427877 37.30131536 42.1875 50.5 C43.22540529 57.89993168 43.31784902 65.16414294 43.28515625 72.62890625 C43.28303383 74.47427223 43.28303383 74.47427223 43.28086853 76.35691833 C43.27530285 80.25880437 43.26275671 84.16063152 43.25 88.0625 C43.24441266 90.7194002 43.24041844 93.37629985 43.23632812 96.03320312 C43.22534466 102.52215786 43.20810381 109.01106897 43.1875 115.5 C38.5675 114.84 33.9475 114.18 29.1875 113.5 C29.17332031 111.39238281 29.15914062 109.28476563 29.14453125 107.11328125 C29.11387412 105.06111893 29.07479575 103.0092767 29.03491211 100.95727539 C29.01178497 99.53649298 28.99734874 98.11554042 28.99194336 96.69458008 C28.98261339 94.64557534 28.94154834 92.5992265 28.89453125 90.55078125 C28.87096558 88.70480347 28.87096558 88.70480347 28.84692383 86.8215332 C28.01390704 82.62560823 26.48583111 81.14092026 23.1875 78.5 C20.20284012 77.52186224 20.20284012 77.52186224 17 77.125 C7.31940795 75.13643594 1.55301927 70.75854957 -4.125 62.75 C-4.71925781 61.82703125 -5.31351563 60.9040625 -5.92578125 59.953125 C-8.51631164 56.58489915 -11.10628281 55.0230113 -15.14453125 53.78515625 C-23.24943562 53.0576294 -27.49866524 56.77640589 -33.48999023 61.5847168 C-56.74952883 80.17766259 -86.53314908 86.31774113 -115.8125 84.5 C-118.14767655 84.17983434 -120.48118382 83.84716049 -122.8125 83.5 C-135.98407547 82.54256461 -145.76619563 83.97930314 -156.25 92.6875 C-162.53869003 98.7440233 -165.09145162 105.33685486 -167.8125 113.5 C-174.7425 114.49 -174.7425 114.49 -181.8125 115.5 C-181.88804099 110.68435903 -181.94173948 105.86908099 -181.97729492 101.05297852 C-181.99215472 99.42303442 -182.01244836 97.79312859 -182.03881836 96.16333008 C-182.37427793 74.85835876 -178.71420981 55.42350679 -168.0703125 36.71875 C-166.53823013 32.79814171 -166.80052886 30.54788457 -167.8125 26.5 C-168.4725 25.51 -169.1325 24.52 -169.8125 23.5 C-168.05269257 21.15757381 -166.2807441 18.82641979 -164.5 16.5 C-164.00048828 15.83226562 -163.50097656 15.16453125 -162.98632812 14.4765625 C-162.49970703 13.84492187 -162.01308594 13.21328125 -161.51171875 12.5625 C-160.84402466 11.68271484 -160.84402466 11.68271484 -160.1628418 10.78515625 C-158.8125 9.5 -158.8125 9.5 -155.8125 9.5 C-154.56855469 9.603125 -153.32460937 9.70625 -152.04296875 9.8125 C-147.27890229 9.80380049 -144.56095222 7.58023129 -141.125 4.5 C-139.91059004 3.48178037 -138.69174407 2.46883049 -137.46875 1.4609375 C-136.8603125 0.95788086 -136.251875 0.45482422 -135.625 -0.06347656 C-97.54492647 -30.24439691 -38.22759377 -28.90058636 0 0 Z " fill="#4B4745" transform="translate(281.8125,36.5)"/>
<path d="M0 0 C33.34320252 -0.04573891 66.68639725 -0.08099959 100.02962416 -0.10213066 C103.96262058 -0.10463219 107.89561695 -0.10722082 111.82861328 -0.10986328 C113.00313796 -0.11065021 113.00313796 -0.11065021 114.2013904 -0.11145304 C126.89384029 -0.12016489 139.58627213 -0.13593913 152.2787113 -0.15430559 C165.29420266 -0.17298299 178.30968455 -0.18411214 191.32518876 -0.18817699 C199.36187226 -0.19092655 207.39850476 -0.19962284 215.43517257 -0.21583293 C221.58899368 -0.22761594 227.7427756 -0.22891683 233.89660645 -0.22621536 C236.42748454 -0.22676805 238.95836446 -0.23077873 241.48923111 -0.23841095 C244.93054599 -0.24828444 248.3716383 -0.24599681 251.81295776 -0.24050903 C252.82656053 -0.24633472 253.8401633 -0.2521604 254.88448131 -0.25816262 C255.80111305 -0.25418052 256.71774479 -0.25019842 257.66215324 -0.24609566 C258.8548548 -0.24723482 258.8548548 -0.24723482 260.07165134 -0.24839699 C262 0 262 0 264 2 C263.9104489 6.02979942 263.2483041 7.70595567 260.625 10.8125 C256.42339334 14.31383888 252.74521339 14.14398245 247.52894592 14.13130188 C246.37777264 14.13447545 246.37777264 14.13447545 245.20334333 14.13771313 C242.62391063 14.14371923 240.04452676 14.14271255 237.46508789 14.1418457 C235.61894141 14.14487674 233.77279568 14.14839804 231.926651 14.15237427 C227.94717895 14.16026704 223.96771587 14.16540957 219.98823738 14.16866493 C213.69854606 14.17456893 207.40891151 14.19110277 201.11924744 14.21000671 C198.96722892 14.21634413 196.81521038 14.22266975 194.6631918 14.22898388 C193.58544613 14.23214969 192.50770046 14.2353155 191.39729583 14.23857725 C176.75128341 14.28068458 162.10529745 14.31364203 147.45922852 14.32592773 C137.58359495 14.334297 127.70810184 14.35674447 117.83253855 14.3952834 C112.60432159 14.41508039 107.37631479 14.42743654 102.14805794 14.42244911 C97.23221952 14.41781676 92.31677993 14.43153041 87.40102196 14.45946121 C85.59503615 14.46639653 83.78900931 14.46647453 81.9830246 14.45926094 C79.52088348 14.45041825 77.06007063 14.46599035 74.59803772 14.48774719 C73.88023717 14.47930466 73.16243661 14.47086212 72.42288452 14.46216375 C69.06258319 14.51722497 67.29028472 14.77804685 64.58762264 16.8445158 C62.82853043 19.00108023 62.82853043 19.00108023 62 22 C55.4 22 48.8 22 42 22 C41.34 20.35 40.68 18.7 40 17 C36.3275469 14.55169794 34.47883194 14.74742006 30.1015625 14.7265625 C28.7213461 14.70627037 27.34113783 14.68541953 25.9609375 14.6640625 C23.79289894 14.64148899 21.62518183 14.62500049 19.45703125 14.61914062 C17.35878906 14.60958579 15.26198124 14.57577569 13.1640625 14.5390625 C11.91061035 14.53084473 10.6571582 14.52262695 9.36572266 14.51416016 C5.43897149 13.91429522 3.81372075 12.7417553 1 10 C-1.01463476 7.25277078 -1.04464755 6.30345198 -0.5390625 2.8671875 C-0.36117187 1.92101562 -0.18328125 0.97484375 0 0 Z " fill="#C5C5C5" transform="translate(204,483)"/>
<path d="M0 0 C0.87644348 -0.00256327 1.75288696 -0.00512655 2.65588933 -0.0077675 C5.60413651 -0.01272423 8.55187599 0.00381867 11.50007629 0.02018738 C13.60886625 0.02103324 15.71765709 0.02055931 17.82644653 0.01885986 C23.56170008 0.0179969 29.29676651 0.03567143 35.03197646 0.05658174 C41.02176583 0.07529836 47.01155919 0.07709501 53.00137329 0.08065796 C64.34859081 0.08999318 75.69572192 0.11462696 87.04290134 0.14470643 C99.95927892 0.17820448 112.87566056 0.19472488 125.79207075 0.20979273 C152.36641808 0.24117522 178.94068864 0.29396441 205.51496887 0.36076355 C205.51496887 0.69076355 205.51496887 1.02076355 205.51496887 1.36076355 C139.84496887 1.36076355 74.17496887 1.36076355 6.51496887 1.36076355 C6.84496887 49.21076355 7.17496887 97.06076355 7.51496887 146.36076355 C2.23496887 146.36076355 -3.04503113 146.36076355 -8.48503113 146.36076355 C-11.96051429 142.88528039 -11.86083198 142.37572996 -11.86598206 137.70524597 C-11.87444153 136.52747589 -11.882901 135.34970581 -11.89161682 134.13624573 C-11.88554413 132.8426413 -11.87947144 131.54903687 -11.87321472 130.2162323 C-11.87727941 128.8413603 -11.88262071 127.46649156 -11.8891449 126.09162903 C-11.90283671 122.35610592 -11.89751229 118.62083102 -11.88800764 114.8853035 C-11.88042065 110.97892327 -11.88745398 107.07256452 -11.89216614 103.16618347 C-11.8976265 96.6056791 -11.89042475 90.04527599 -11.87614441 83.48478699 C-11.8598173 75.89629215 -11.86510561 68.30803911 -11.88162363 60.71955013 C-11.89523054 54.20822293 -11.89716207 47.69696858 -11.88930762 41.18563175 C-11.8846267 37.29494322 -11.88401767 33.40436839 -11.89391708 29.51368713 C-11.90257298 25.8561456 -11.89659042 22.19891629 -11.87923431 18.54140854 C-11.87336474 16.5560372 -11.88229676 14.57063951 -11.89161682 12.58528137 C-11.88315735 11.40751129 -11.87469788 10.22974121 -11.86598206 9.01628113 C-11.86428544 7.47766167 -11.86428544 7.47766167 -11.86255455 5.90795898 C-10.88275886 -0.70283907 -5.5304101 -0.05865541 0 0 Z " fill="#CECECE" transform="translate(236.4850311279297,321.6392364501953)"/>
<path d="M0 0 C-0.99257812 0.46148438 -1.98515625 0.92296875 -3.0078125 1.3984375 C-33.60472761 15.95576051 -54.38227509 39.67464999 -66.2109375 71.23046875 C-70.19838315 83.05789213 -72.30071881 95.65394306 -71.875 108.125 C-71.73305847 113.87054609 -72.5038383 117.23478394 -75.6875 121.9921875 C-77.73467529 125.12387828 -78.7825097 128.47568598 -80 132 C-86.93 132.99 -86.93 132.99 -94 134 C-94.07554099 129.18435903 -94.12923948 124.36908099 -94.16479492 119.55297852 C-94.17965472 117.92303442 -94.19994836 116.29312859 -94.22631836 114.66333008 C-94.56177793 93.35835876 -90.90170981 73.92350679 -80.2578125 55.21875 C-78.72573013 51.29814171 -78.98802886 49.04788457 -80 45 C-80.66 44.01 -81.32 43.02 -82 42 C-80.24019257 39.65757381 -78.4682441 37.32641979 -76.6875 35 C-76.18798828 34.33226562 -75.68847656 33.66453125 -75.17382812 32.9765625 C-74.68720703 32.34492187 -74.20058594 31.71328125 -73.69921875 31.0625 C-73.25408936 30.47597656 -72.80895996 29.88945313 -72.3503418 29.28515625 C-71 28 -71 28 -68 28 C-66.75605469 28.103125 -65.51210937 28.20625 -64.23046875 28.3125 C-59.46640229 28.30380049 -56.74845222 26.08023129 -53.3125 23 C-52.09809004 21.98178037 -50.87924407 20.96883049 -49.65625 19.9609375 C-49.0478125 19.45788086 -48.439375 18.95482422 -47.8125 18.43652344 C-37.33992364 10.13632956 -14.24342891 -4.48107876 0 0 Z " fill="#3C3837" transform="translate(194,18)"/>
<path d="M0 0 C15.84 0 31.68 0 48 0 C48 15.18 48 30.36 48 46 C37.5740625 46.0928125 37.5740625 46.0928125 26.9375 46.1875 C23.66573853 46.22846802 23.66573853 46.22846802 20.32788086 46.27026367 C18.58187411 46.27903281 16.83586118 46.28667574 15.08984375 46.29296875 C14.19720825 46.30831665 13.30457275 46.32366455 12.3848877 46.33947754 C6.81054288 46.34179471 2.92415451 45.67708915 -2 43 C-6.92461817 37.08642163 -5.42454526 30.32340574 -5 23 C-3.35 15.41 -1.7 7.82 0 0 Z " fill="#D8945A" transform="translate(50,451)"/>
<path d="M0 0 C-0.99 0 -1.98 0 -3 0 C-2.93829523 8.85074174 -2.86084535 17.70117478 -2.76428509 26.55160522 C-2.71990277 30.66296358 -2.68057996 34.77423013 -2.65356445 38.88574219 C-2.62720556 42.86709803 -2.58658498 46.84809416 -2.53681374 50.82922363 C-2.52036179 52.33430442 -2.50871475 53.8394471 -2.50238609 55.34460449 C-2.39274666 79.06391534 3.55434647 100.51305628 19 119 C19.78117187 119.99966797 19.78117187 119.99966797 20.578125 121.01953125 C27.62390343 129.68994306 37.08026896 136.01508465 47 141 C47 141.33 47 141.66 47 142 C29.46849256 140.4062266 13.78316861 130.71341876 2 118 C1.39671875 117.37867188 0.7934375 116.75734375 0.171875 116.1171875 C-11.66794294 103.5091371 -19.97420634 85.57577251 -20.19287109 68.05151367 C-20.20893402 66.87646774 -20.22499695 65.70142181 -20.24154663 64.49076843 C-20.28621478 59.13633923 -20.32746899 53.78205247 -20.35009766 48.42749023 C-20.36343134 45.60587102 -20.39128354 42.78497595 -20.43212891 39.96362305 C-20.4911414 35.88578256 -20.50878025 31.80871417 -20.5234375 27.73046875 C-20.54610687 26.47501755 -20.56877625 25.21956635 -20.59213257 23.92607117 C-20.57457758 16.63005161 -19.89332254 11.59738768 -15 6 C-12.8671875 3.94140625 -12.8671875 3.94140625 -10.875 2.5625 C-10.21242187 2.08941406 -9.54984375 1.61632812 -8.8671875 1.12890625 C-5.5451046 -0.87963341 -3.62272481 -1.12429391 0 0 Z " fill="#DB985D" transform="translate(149,135)"/>
<path d="M0 0 C6.91733149 3.81718597 11.50336146 9.48664688 14 16.9765625 C14.8987621 25.41208681 13.95070145 31.98073501 9 38.9765625 C4.44976484 44.08882195 -0.91552647 47.51959792 -7.828125 48.29296875 C-16.14025687 48.61668243 -21.35447359 47.02863112 -27.6875 41.7265625 C-28.450625 40.8190625 -29.21375 39.9115625 -30 38.9765625 C-30.46664063 38.45835937 -30.93328125 37.94015625 -31.4140625 37.40625 C-35.66730133 31.91743341 -35.73507859 26.38134826 -35.47265625 19.60546875 C-34.47819194 11.9702841 -31.26909395 7.74568257 -25.375 2.9765625 C-18.20795201 -2.30699506 -8.38180081 -2.85941642 0 0 Z " fill="#030303" transform="translate(346,372.0234375)"/>
<path d="M0 0 C0 6.6 0 13.2 0 20 C-1.711875 20.00257813 -3.42375 20.00515625 -5.1875 20.0078125 C-7.4583591 20.04534736 -9.72919194 20.08449506 -12 20.125 C-13.12535156 20.12242187 -14.25070313 20.11984375 -15.41015625 20.1171875 C-22.07814709 20.27316389 -26.32253759 20.99369436 -31.46899414 25.36425781 C-37.32882694 31.62496261 -37.72405169 38.72155066 -38 47 C-56.13012347 45.98302982 -56.13012347 45.98302982 -63 40.6875 C-66.98573359 35.33167048 -68.37599764 31.33047596 -68.29296875 24.6328125 C-68.28660149 23.61343094 -68.28660149 23.61343094 -68.28010559 22.57345581 C-68.26344266 20.42355076 -68.22581716 18.27461701 -68.1875 16.125 C-68.172437 14.6588678 -68.15875143 13.19272076 -68.14648438 11.7265625 C-68.1135808 8.15073125 -68.06188663 4.57546059 -68 1 C-66.94167969 1.28875 -65.88335937 1.5775 -64.79296875 1.875 C-54.87819545 4.37314932 -45.35474315 5.40909391 -35.125 5.4375 C-34.0218042 5.44716797 -32.9186084 5.45683594 -31.78198242 5.46679688 C-20.86170771 5.35605514 -10.50759274 0 0 0 Z " fill="#D8965C" transform="translate(248,288)"/>
<path d="M0 0 C0.66 0.33 1.32 0.66 2 1 C1.08927734 2.60875 1.08927734 2.60875 0.16015625 4.25 C-2.51616299 9.61442325 -3.4970684 15.13833252 -4.5625 21 C-4.85543945 22.53333984 -4.85543945 22.53333984 -5.15429688 24.09765625 C-5.78172639 27.39625961 -6.39068812 30.69800551 -7 34 C-7.47503437 36.51436563 -7.95030724 39.02868622 -8.42578125 41.54296875 C-9.58123866 47.68536819 -10.69385154 53.83487163 -11.7890625 59.98828125 C-12.01495308 61.25670364 -12.01495308 61.25670364 -12.2454071 62.55075073 C-12.86455389 66.03024959 -13.48301834 69.5098645 -14.09863281 72.98999023 C-14.55594024 75.57311442 -15.01602948 78.15573048 -15.4765625 80.73828125 C-15.61510651 81.52568192 -15.75365051 82.31308258 -15.89639282 83.12434387 C-16.44120623 86.17017776 -17.01997321 89.05991963 -18 92 C-8.76 92 0.48 92 10 92 C10 92.33 10 92.66 10 93 C-4.52 93 -19.04 93 -34 93 C-32.87399976 80.61399731 -32.87399976 80.61399731 -31.88012695 75.41796875 C-31.65931961 74.25305908 -31.43851227 73.08814941 -31.21101379 71.88793945 C-30.97251205 70.66679443 -30.73401031 69.44564941 -30.48828125 68.1875 C-30.2375737 66.89739014 -29.98686615 65.60728027 -29.7285614 64.27807617 C-29.19922012 61.56437332 -28.6645818 58.85176905 -28.12719727 56.13964844 C-27.44637868 52.69703777 -26.78804307 49.25052897 -26.13479328 45.80259705 C-25.49798066 42.46934286 -24.83502866 39.14138824 -24.17578125 35.8125 C-23.94740067 34.59135498 -23.71902008 33.37020996 -23.48371887 32.11206055 C-20.97777388 19.77227771 -16.25258662 10.50144531 -6 3 C-3.96701651 1.68352449 -2.29156488 0.83837739 0 0 Z " fill="#556873" transform="translate(88,343)"/>
<path d="M0 0 C86.46 0 172.92 0 262 0 C262 0.33 262 0.66 262 1 C188.41 1 114.82 1 39 1 C40.83666724 11.00651121 40.83666724 11.00651121 47 18 C50.20584076 20.00535571 53.00598727 20.35757052 56.75 20.625 C57.73484375 20.69976562 58.7196875 20.77453125 59.734375 20.8515625 C60.48203125 20.90054687 61.2296875 20.94953125 62 21 C62 21.33 62 21.66 62 22 C55.4 22 48.8 22 42 22 C41.34 20.35 40.68 18.7 40 17 C36.3275469 14.55169794 34.47883194 14.74742006 30.1015625 14.7265625 C28.7213461 14.70627037 27.34113783 14.68541953 25.9609375 14.6640625 C23.79289894 14.64148899 21.62518183 14.62500049 19.45703125 14.61914062 C17.35878906 14.60958579 15.26198124 14.57577569 13.1640625 14.5390625 C11.91061035 14.53084473 10.6571582 14.52262695 9.36572266 14.51416016 C5.43897149 13.91429522 3.81372075 12.7417553 1 10 C-0.375 8.125 -0.375 8.125 -1 6 C-0.67 4.02 -0.34 2.04 0 0 Z " fill="#B1B1B1" transform="translate(204,483)"/>
<path d="M0 0 C6.27 1.32 12.54 2.64 19 4 C18.01 4.495 18.01 4.495 17 5 C17.33 17.87 17.66 30.74 18 44 C10.5928425 42.76547375 6.94077192 41.74197818 2 36 C-0.1216372 31.85233193 -0.23335035 28.35206704 -0.1953125 23.73046875 C-0.1924826 23.04946609 -0.18965271 22.36846344 -0.18673706 21.66682434 C-0.17560525 19.50686545 -0.15051457 17.34733206 -0.125 15.1875 C-0.11496111 13.71680289 -0.10583685 12.24609924 -0.09765625 10.77539062 C-0.0773963 7.18330075 -0.03823667 3.59212268 0 0 Z " fill="#CF8A53" transform="translate(180,289)"/>
<path d="M0 0 C7.86107273 0 9.98439111 1.06374924 15.375 6.3125 C17.52429397 9.86710156 17.57494993 11.90348173 17 16 C14.25926584 21.27845097 11.16877582 23.41561209 6 26 C4.02 26 2.04 26 0 26 C0 17.42 0 8.84 0 0 Z " fill="#BE804D" transform="translate(311,165)"/>
<path d="M0 0 C0 8.58 0 17.16 0 26 C-7.91584158 26 -7.91584158 26 -11.3125 23.25 C-11.96863281 22.73953125 -12.62476562 22.2290625 -13.30078125 21.703125 C-15.9502788 19.04753665 -16.89230794 16.82563916 -17.375 13.125 C-16.80159969 8.34666405 -14.51798522 5.3756741 -11 2.1875 C-7.15899688 -0.0930956 -4.56533565 0 0 0 Z " fill="#DB985D" transform="translate(114,165)"/>
<path d="M0 0 C3.70718433 0.81785983 5.13329673 2.33819937 7.16015625 5.4765625 C7.79480821 8.28716402 7.79055099 10.66534271 7.16015625 13.4765625 C5.36651714 16.2865971 4.1413469 17.98596718 1.16015625 19.4765625 C-1.85091552 19.82209533 -3.93297152 20.04904403 -6.83984375 19.4765625 C-9.93443611 16.89773553 -11.39407609 15.35097899 -12.31640625 11.47265625 C-12.58587414 7.73556213 -11.91946977 5.5998544 -9.90234375 2.4765625 C-6.33149918 0.14458237 -4.19478356 -0.26611315 0 0 Z " fill="#C1C1C1" transform="translate(337.83984375,385.5234375)"/>
<path d="M0 0 C6.22447215 0 7.39844187 0.31875349 12 4 C14.41636294 6.65799923 15 7.35294333 15 11 C13.62929219 11.65489373 12.25316556 12.29844963 10.875 12.9375 C10.10929687 13.29714844 9.34359375 13.65679687 8.5546875 14.02734375 C6 15 6 15 0 16 C0 10.72 0 5.44 0 0 Z " fill="#D9975C" transform="translate(312,165)"/>
<path d="M0 0 C0.33 0 0.66 0 1 0 C1 8.58 1 17.16 1 26 C-6.91584158 26 -6.91584158 26 -10.3125 23.25 C-10.96863281 22.73953125 -11.62476562 22.2290625 -12.30078125 21.703125 C-15.14975496 18.84760193 -15.97009055 16.77764572 -16.125 12.75 C-16.08375 11.8425 -16.0425 10.935 -16 10 C-15.67 10.66 -15.34 11.32 -15 12 C-12.82689465 12.8789794 -12.82689465 12.8789794 -10.25 13.5625 C-8.95835938 13.93568359 -8.95835938 13.93568359 -7.640625 14.31640625 C-5.11588161 14.97000106 -2.55732646 15.48853471 0 16 C0 10.72 0 5.44 0 0 Z " fill="#BF804D" transform="translate(113,165)"/>
<path d="M0 0 C4.25018379 -0.41668469 6.35342568 -0.44022082 9.9375 2 C12.75639171 6.10020612 12.55377603 8.09512657 12 13 C11.01 14.485 11.01 14.485 10 16 C5.93376708 14.49398781 3.14353027 11.70685685 1 8 C0.3215055 5.26635548 0.14663592 2.83496114 0 0 Z " fill="#D5D5D5" transform="translate(333,386)"/>
</svg>
