<?xml version="1.0" encoding="UTF-8"?>
<svg version="1.1" xmlns="http://www.w3.org/2000/svg" width="512" height="512">
<path d="M0 0 C0.88464432 -0.01606293 1.76928864 -0.03212585 2.68074036 -0.04867554 C6.72839607 -0.09312606 10.77588777 -0.13419031 14.82373047 -0.15722656 C16.95860697 -0.17378732 19.09342801 -0.20107878 21.22802734 -0.23925781 C24.30554985 -0.29402224 27.38177265 -0.31590003 30.4597168 -0.33056641 C31.41195633 -0.35323578 32.36419586 -0.37590515 33.34529114 -0.39926147 C37.87050195 -0.38483691 40.03226505 -0.31557694 43.76025391 2.43481445 C45.58797551 5.00518305 46.57791067 6.82409807 47.36206055 9.84521484 C49.82528804 19.18823583 49.82528804 19.18823583 55.53735352 26.61035156 C59.70773693 28.70409532 64.10847363 29.63333925 68.64526367 30.60693359 C71.82499948 31.50431905 74.37870267 33.31787679 77.15893555 35.06787109 C80.33002732 36.63537663 82.44406046 37.48609883 85.94848633 36.68164062 C90.06711359 35.20717374 93.89959296 33.31150042 97.75268555 31.25146484 C103.41036343 28.24253718 103.41036343 28.24253718 106.72143555 28.19287109 C112.04758772 30.34162736 115.45739678 33.51660039 119.3972168 37.54052734 C120.0078447 38.15302841 120.6184726 38.76552948 121.24760437 39.39659119 C122.5292812 40.68495983 123.80737069 41.97690613 125.08203125 43.2722168 C127.03801975 45.25952068 129.00462804 47.2358051 130.97338867 49.21044922 C132.21945995 50.46568492 133.46492442 51.72152336 134.7097168 52.97802734 C135.59244011 53.86712547 135.59244011 53.86712547 136.49299622 54.77418518 C141.59279694 59.96452923 141.59279694 59.96452923 142.04174805 64.25146484 C141.57034116 70.05206909 139.01528971 74.48883507 136.3894043 79.60888672 C134.12284075 84.18124848 134.12284075 84.18124848 134.22924805 89.15771484 C134.96788086 90.66011719 134.96788086 90.66011719 135.72143555 92.19287109 C136.35270621 93.70067773 136.97709885 95.21137341 137.59643555 96.72412109 C138.30252693 98.38132812 139.01091284 100.03755914 139.72143555 101.69287109 C140.43195825 103.34818305 141.14034416 105.00441407 141.84643555 106.66162109 C142.35883789 107.83470825 142.35883789 107.83470825 142.8815918 109.03149414 C143.72143555 111.19287109 143.72143555 111.19287109 144.28393555 114.49365234 C146.7928891 119.20475806 151.89011723 120.15533489 156.72143555 121.88037109 C158.74535313 122.62595786 160.76635932 123.37950991 162.78393555 124.14208984 C163.68241211 124.4652417 164.58088867 124.78839355 165.5065918 125.12133789 C167.72143555 126.19287109 167.72143555 126.19287109 169.72143555 129.19287109 C169.98886108 131.3110199 169.98886108 131.3110199 170.01196289 133.78442383 C170.0247226 134.71226181 170.0374823 135.64009979 170.05062866 136.59605408 C170.05396713 138.09610741 170.05396713 138.09610741 170.05737305 139.62646484 C170.06402985 140.65594742 170.07068665 141.68542999 170.07754517 142.74610901 C170.08767342 144.92406425 170.09236213 147.10205053 170.09204102 149.2800293 C170.09641424 152.61412602 170.13273312 155.94689928 170.1706543 159.28076172 C170.17652234 161.39599156 170.18049182 163.5112277 170.18237305 165.62646484 C170.19674408 166.62447617 170.21111511 167.62248749 170.22592163 168.65074158 C170.18043947 175.53220768 170.18043947 175.53220768 167.95654297 178.7331543 C165.8201979 180.12837081 163.88066979 181.20638664 161.4987793 182.11474609 C160.7130957 182.41767578 159.92741211 182.72060547 159.11791992 183.03271484 C157.90072266 183.48324219 157.90072266 183.48324219 156.65893555 183.94287109 C155.84360352 184.25869141 155.02827148 184.57451172 154.18823242 184.89990234 C148.14809613 187.19287109 148.14809613 187.19287109 144.72143555 187.19287109 C144.55643555 188.47162109 144.39143555 189.75037109 144.22143555 191.06787109 C142.98486607 197.44307375 140.27375738 203.09357906 137.5534668 208.94628906 C137.20541992 209.69539551 136.85737305 210.44450195 136.4987793 211.21630859 C136.18158936 211.88581543 135.86439941 212.55532227 135.53759766 213.24511719 C133.85542682 217.12031767 133.85542682 217.12031767 134.34228516 221.18823242 C134.85287476 222.22113403 134.85287476 222.22113403 135.3737793 223.27490234 C135.73793945 224.04253906 136.10209961 224.81017578 136.47729492 225.60107422 C137.2596568 227.19295434 138.04349093 228.7841118 138.82885742 230.37451172 C141.07393807 235.11412641 142.79590904 238.86906739 141.72143555 244.19287109 C139.75779391 247.2260109 137.27730855 249.653281 134.72143555 252.19287109 C133.38411377 253.56548096 133.38411377 253.56548096 132.01977539 254.96582031 C129.5254358 257.52033279 127.00631719 260.04871044 124.4765625 262.56811523 C122.89097758 264.14826753 121.31090112 265.73379085 119.73120117 267.31982422 C118.72175662 268.32860915 117.71200256 269.33708448 116.7019043 270.34521484 C115.33908325 271.70634399 115.33908325 271.70634399 113.94873047 273.0949707 C110.68469053 276.16938649 108.48189398 276.56177072 103.98657227 276.51318359 C100.62954417 276.03846697 98.08026592 274.54003492 95.12597656 272.93994141 C88.12327778 269.12042105 88.12327778 269.12042105 80.3815918 268.53466797 C75.75554829 270.11008833 71.74381722 272.61858022 67.61254883 275.18603516 C64.9240674 276.61739294 62.21406534 276.8865692 59.22143555 277.31787109 C55.78489422 278.30310722 54.20904525 279.34088562 52.42504883 282.45800781 C50.64998624 286.34254516 49.12002311 290.26407131 47.7487793 294.30859375 C47.42135742 295.27200684 47.09393555 296.23541992 46.7565918 297.22802734 C46.48210205 298.1085376 46.2076123 298.98904785 45.92480469 299.89624023 C44.26915861 303.05604195 43.04131415 303.84358666 39.72143555 305.19287109 C36.40596303 305.62636934 33.12423267 305.63711239 29.78393555 305.62646484 C28.82624268 305.6317067 27.8685498 305.63694855 26.88183594 305.64234924 C24.86125659 305.64875976 22.84063988 305.64744503 20.82006836 305.63891602 C17.73182702 305.63039975 14.64543209 305.65919133 11.55737305 305.69091797 C9.59122777 305.69252999 7.62507922 305.69195243 5.65893555 305.68896484 C4.73798096 305.70019882 3.81702637 305.7114328 2.86816406 305.7230072 C-1.24288823 305.67839161 -3.66996942 305.545877 -7.28173828 303.45092773 C-9.33583881 301.12810394 -10.25381762 299.50850752 -11.1652832 296.56787109 C-11.46499023 295.69646484 -11.76469727 294.82505859 -12.07348633 293.92724609 C-12.66668563 292.11000533 -13.24237035 290.28695012 -13.80004883 288.45849609 C-15.56571419 283.36038353 -15.56571419 283.36038353 -19.4453125 279.82446289 C-22.02679271 278.80245455 -24.62046331 277.99207691 -27.27856445 277.19287109 C-28.89254794 276.51701048 -30.49608731 275.81556694 -32.0871582 275.08740234 C-32.85350586 274.74386719 -33.61985352 274.40033203 -34.40942383 274.04638672 C-35.17061523 273.70285156 -35.93180664 273.35931641 -36.71606445 273.00537109 C-38.27668394 272.30226289 -39.8378589 271.60038595 -41.3996582 270.89990234 C-42.07440186 270.59544189 -42.74914551 270.29098145 -43.44433594 269.97729492 C-46.70913695 268.43356664 -46.70913695 268.43356664 -50.14453125 268.8137207 C-51.17574097 269.3243103 -51.17574097 269.3243103 -52.2277832 269.84521484 C-52.99413086 270.209375 -53.76047852 270.57353516 -54.55004883 270.94873047 C-56.14342961 271.7280315 -57.73463792 272.51179239 -59.32348633 273.30029297 C-64.6205404 275.80523847 -68.41992586 277.22674849 -74.27856445 276.19287109 C-77.35075711 274.25880889 -79.74625594 271.77712153 -82.27856445 269.19287109 C-83.15609375 268.34289551 -84.03362305 267.49291992 -84.93774414 266.6171875 C-87.36858849 264.25803358 -89.77670612 261.88043065 -92.17163086 259.48510742 C-93.66674581 257.99220928 -95.16973401 256.50753717 -96.6730957 255.02294922 C-97.63321873 254.06575578 -98.59287167 253.10809053 -99.55200195 252.14990234 C-100.41229004 251.29372314 -101.27257812 250.43754395 -102.15893555 249.55541992 C-105.37090181 245.9753465 -106.32294871 244.31065345 -106.13012695 239.45458984 C-105.30027128 234.17068578 -102.97379472 229.68362447 -100.63012695 224.92919922 C-99.3002614 222.09778466 -98.25923167 219.82021982 -98.35668945 216.65771484 C-99.6033323 213.32452994 -101.08611307 210.13339441 -102.65356445 206.94287109 C-109.27856445 193.10945292 -109.27856445 193.10945292 -109.27856445 187.19287109 C-109.93727539 187.08587891 -110.59598633 186.97888672 -111.2746582 186.86865234 C-115.09351732 186.00953319 -118.67356548 184.73509345 -122.34106445 183.38037109 C-123.40164062 183.0081543 -123.40164062 183.0081543 -124.48364258 182.62841797 C-125.51328125 182.2484668 -125.51328125 182.2484668 -126.5637207 181.86083984 C-127.18126221 181.63678467 -127.79880371 181.41272949 -128.43505859 181.18188477 C-131.1400621 179.73069033 -132.47037816 178.74853886 -134.27856445 176.19287109 C-134.90541345 172.69970832 -134.88663673 169.23854631 -134.88012695 165.69677734 C-134.8886972 164.67108139 -134.89726746 163.64538544 -134.90609741 162.58860779 C-134.91757599 160.4208369 -134.91859032 158.25298898 -134.90991211 156.08520508 C-134.90359262 152.77014621 -134.9505031 149.45866012 -135.0012207 146.14404297 C-135.00576702 144.0366256 -135.00717353 141.92919863 -135.00512695 139.82177734 C-135.02354645 138.83206436 -135.04196594 137.84235138 -135.0609436 136.82264709 C-134.97147262 130.15995192 -134.97147262 130.15995192 -133.04188538 127.46685791 C-130.35146683 125.09526346 -127.58154408 123.61857196 -124.0715332 122.98193359 C-115.12144239 120.83851626 -115.12144239 120.83851626 -108.61743164 114.70654297 C-105.82184662 108.94488681 -103.86352448 102.92533174 -102.15966797 96.76074219 C-101.27856445 94.19287109 -101.27856445 94.19287109 -99.67138672 91.53930664 C-98.02498272 89.24360731 -98.02498272 89.24360731 -98.36450195 86.37646484 C-99.69844515 81.73046611 -101.77455036 77.51986311 -103.92700195 73.20263672 C-106.1312588 68.4914894 -106.96933804 65.33995396 -105.27856445 60.19287109 C-103.23821225 57.23424098 -100.79361391 54.75124517 -98.27856445 52.19287109 C-97.44583008 51.31405273 -96.6130957 50.43523437 -95.75512695 49.52978516 C-93.43635141 47.09723015 -91.09699308 44.69063997 -88.7355957 42.29980469 C-87.75885694 41.30637234 -86.78753405 40.30758783 -85.8215332 39.30371094 C-84.40265996 37.82986113 -82.96782363 36.37335026 -81.52856445 34.91943359 C-80.6880957 34.05914551 -79.84762695 33.19885742 -78.98168945 32.3125 C-75.80193453 29.81912642 -73.2274599 28.95834226 -69.27856445 28.19287109 C-65.9621582 28.98583984 -65.9621582 28.98583984 -62.71606445 30.38037109 C-61.10538086 31.05132812 -61.10538086 31.05132812 -59.4621582 31.73583984 C-56.27856445 33.19287109 -56.27856445 33.19287109 -53.3137207 34.93115234 C-48.94698242 36.74641163 -45.77957411 36.099221 -41.38549805 34.50683594 C-39.38676874 33.67986232 -37.42641649 32.79443554 -35.46606445 31.88037109 C-34.14786655 31.27832847 -32.82884202 30.67809276 -31.5090332 30.07958984 C-30.83735107 29.76417236 -30.16566895 29.44875488 -29.47363281 29.1237793 C-27.27856445 28.19287109 -27.27856445 28.19287109 -24.69482422 27.42407227 C-19.50887154 25.81077342 -19.50887154 25.81077342 -15.78369141 22.05053711 C-14.61735481 19.4430302 -13.69526684 16.85568348 -12.84106445 14.13037109 C-12.22385769 12.32475379 -11.60040198 10.52125745 -10.9699707 8.72021484 C-10.71417236 7.92349365 -10.45837402 7.12677246 -10.19482422 6.3059082 C-8.09965714 1.47412802 -5.04165583 0.08313623 0 0 Z " fill="#FDDF76" transform="translate(334.278564453125,37.80712890625)"/>
<path d="M0 0 C5.01187886 4.55066301 6.63629896 10.25893376 7.91015625 16.734375 C7.91015625 18.054375 7.91015625 19.374375 7.91015625 20.734375 C8.81280716 20.4882547 9.71545807 20.2421344 10.64546204 19.98855591 C19.19080845 17.65919959 27.73747541 15.33474551 36.28542805 13.01497078 C40.6789872 11.82246483 45.07207848 10.62829206 49.46411133 9.43017578 C53.70999556 8.27199605 57.95709395 7.11837022 62.20503807 5.96776962 C63.81800727 5.53004707 65.43054748 5.09074024 67.04262733 4.64975357 C89.47349387 -1.48324961 111.48944713 -5.68171991 133.16015625 5.234375 C139.45679832 8.86356351 145.29181044 13.165475 151.1953125 17.390625 C168.02952904 29.39631283 185.43550241 41.04221102 203.94750977 50.30908203 C213.89458865 55.3117065 221.46444871 60.91676679 225.28515625 71.8671875 C227.40277528 81.58176478 226.7051907 90.98431213 221.91015625 99.734375 C221.25015625 100.724375 220.59015625 101.714375 219.91015625 102.734375 C228.23985052 102.14442413 236.03568906 99.98228324 244.046875 97.76171875 C245.53139149 97.35571074 247.01608075 96.95033397 248.50093079 96.54554749 C252.41186428 95.47771407 256.32058098 94.40198527 260.2288208 93.32434082 C264.09474751 92.25952011 267.96241885 91.20108522 271.83007812 90.14257812 C272.58742311 89.93522348 273.3447681 89.72786884 274.12506294 89.51423073 C280.18479939 87.85519522 286.24466004 86.19660989 292.30518913 84.54047203 C295.94310306 83.54634356 299.58054202 82.55055749 303.21685791 81.55059814 C306.62829435 80.61296399 310.04167237 79.68273314 313.45655251 78.75772285 C315.28849886 78.25967422 317.1185034 77.75449962 318.94841003 77.24900818 C336.53184249 72.50675793 356.7528772 68.94792965 373.84375 77.140625 C381.8409168 81.74143738 386.69158672 87.62201912 390.34765625 96.046875 C392.3435022 109.13075402 390.59510562 119.37061922 383.21484375 130.3125 C376.64224483 137.21929887 368.77723829 140.13748557 359.79296875 142.7265625 C357.88013574 143.29912992 355.96730692 143.87171139 354.05457497 144.44461632 C351.9126612 145.08319495 349.76866666 145.71435256 347.62414551 146.34411621 C342.50270556 147.85042208 337.39137837 149.38971582 332.28027344 150.93066406 C321.18859004 154.27175156 310.0900609 157.58967482 298.98997498 160.90272522 C295.756265 161.86799914 292.52270467 162.83377284 289.28918457 163.79968262 C264.4225685 171.22730821 239.55416618 178.64899045 214.66015625 185.984375 C213.63098083 186.28829163 212.60180542 186.59220825 211.54144287 186.90533447 C208.74319206 187.73102999 205.94407309 188.55369405 203.14453125 189.375 C202.36286591 189.60583282 201.58120056 189.83666565 200.77584839 190.07449341 C182.86950802 195.3042632 164.61383815 193.95670401 147.97265625 185.359375 C145.26109438 183.85816428 142.58497763 182.29992537 139.91015625 180.734375 C138.14456761 179.71087477 136.37893998 178.68744181 134.61328125 177.6640625 C130.56707117 175.31195695 126.52838337 172.94736605 122.4921875 170.578125 C115.66166212 166.57696324 108.78892422 162.6516567 101.91015625 158.734375 C91.01733159 152.52800034 80.16778697 146.2503805 69.34765625 139.91796875 C68.46368164 139.40741943 67.57970703 138.89687012 66.66894531 138.37084961 C64.69806248 137.20174982 62.75452863 135.98603922 60.83105469 134.74047852 C54.73446133 130.56758543 54.73446133 130.56758543 47.67578125 129.70703125 C45.93554688 130.24650391 45.93554688 130.24650391 44.16015625 130.796875 C42.9690625 131.13847656 41.77796875 131.48007812 40.55078125 131.83203125 C39.679375 132.12980469 38.80796875 132.42757812 37.91015625 132.734375 C38.12671875 133.36601562 38.34328125 133.99765625 38.56640625 134.6484375 C41.0890431 142.75357625 43.04248909 152.05692912 39.9609375 160.26171875 C36.24112949 166.56309698 31.44585577 169.92136533 24.39453125 171.83984375 C22.51701172 172.35514648 22.51701172 172.35514648 20.6015625 172.88085938 C19.9533252 173.05190186 19.30508789 173.22294434 18.63720703 173.39916992 C16.67579666 173.91773989 14.72072348 174.45622218 12.765625 174.99804688 C-6.86668043 180.30380326 -6.86668043 180.30380326 -16.08984375 175.734375 C-24.99536494 170.55266149 -26.50893749 161.09524544 -29.00894451 151.75357056 C-30.23987843 147.06550517 -31.43678078 142.36894185 -32.6328125 137.671875 C-33.16555966 135.59655605 -33.69879835 133.52136323 -34.23249817 131.44628906 C-35.63616773 125.98331031 -37.03327989 120.51867569 -38.42895508 115.0536499 C-40.09187056 108.5475828 -41.76293869 102.04360575 -43.43263435 95.53927612 C-44.78888652 90.25426093 -46.14275428 84.96865845 -47.49118042 79.68164062 C-49.92291199 70.15136467 -52.37244006 60.62724819 -54.89697266 51.12109375 C-55.53034126 48.72025806 -56.16291176 46.31921365 -56.79519081 43.91809082 C-57.36953307 41.75144219 -57.95551396 39.58818078 -58.54203796 37.42480469 C-63.20192195 19.92036753 -63.20192195 19.92036753 -58.39453125 11.58203125 C-53.42823792 4.54892723 -47.32397232 2.36030689 -39.15625 0.27148438 C-36.8117025 -0.33792069 -34.48351848 -0.99759497 -32.15234375 -1.65625 C-30.40290495 -2.1322756 -28.65290338 -2.60623785 -26.90234375 -3.078125 C-26.08354736 -3.30959229 -25.26475098 -3.54105957 -24.42114258 -3.77954102 C-15.32199523 -6.13432487 -7.66187001 -5.67545926 0 0 Z " fill="#252323" transform="translate(85.08984375,289.265625)"/>
<path d="M0 0 C0.71873795 -0.00902847 1.43747589 -0.01805695 2.17799377 -0.02735901 C3.69682657 -0.04185312 5.21572169 -0.05074618 6.73461914 -0.05444336 C9.05527034 -0.06634912 11.37326872 -0.1155414 13.69335938 -0.16601562 C15.17055996 -0.1754794 16.64777685 -0.18271466 18.125 -0.1875 C18.81677841 -0.20703232 19.50855682 -0.22656464 20.22129822 -0.24668884 C23.92867 -0.21206089 25.34930953 0.09612385 28.03369141 2.73608398 C29.65588378 5.4156558 30.59464551 7.90159313 31.56640625 10.87109375 C33.1685096 14.59761627 34.13138413 16.07783103 37.6640625 18.16015625 C40.96709526 19.43370439 44.19950817 20.49676701 47.62890625 21.37109375 C48.93214844 21.73654297 48.93214844 21.73654297 50.26171875 22.109375 C53.16718796 22.43060674 54.45041802 21.80252156 57.00390625 20.43359375 C61.15778705 18.48367284 63.98190815 17.44169413 68.62890625 18.37109375 C71.68976249 20.29804188 74.07806253 22.82429899 76.62890625 25.37109375 C77.8220307 26.47372651 79.01754268 27.57377887 80.21484375 28.671875 C81.50019792 29.88252399 82.78404109 31.09477913 84.06640625 32.30859375 C84.69426025 32.88109863 85.32211426 33.45360352 85.96899414 34.04345703 C88.97769674 36.96596102 90.98332019 39.23971808 91.7109375 43.44921875 C91.62359527 47.62500941 90.90697566 49.5943125 88.87890625 53.18359375 C86.814073 57.63422891 86.814073 57.63422891 87.37109375 62.375 C88.27960227 64.26131007 89.2463539 66.12085294 90.2734375 67.9453125 C91.82678694 70.72522605 92.37231672 73.20648952 92.62890625 76.37109375 C93.26828125 76.45359375 93.90765625 76.53609375 94.56640625 76.62109375 C99.41910282 77.80950924 104.67226023 79.37005299 108.23217773 83.01074219 C110.9645126 87.62815409 110.10658535 93.39930722 110.07495117 98.64282227 C110.06644544 100.79866152 110.09520641 102.95184452 110.12695312 105.10742188 C110.12856556 106.48567629 110.12798679 107.86393537 110.125 109.2421875 C110.12685303 110.4892749 110.12870605 111.7363623 110.13061523 113.02124023 C109.5409322 116.95848642 108.41739786 118.58228393 105.62890625 121.37109375 C102.90234375 122.734375 102.90234375 122.734375 100.00390625 123.68359375 C99.04226562 124.00972656 98.080625 124.33585937 97.08984375 124.671875 C94.62890625 125.37109375 94.62890625 125.37109375 92.62890625 125.37109375 C92.52320313 126.24378906 92.4175 127.11648437 92.30859375 128.015625 C91.60353724 131.49633501 90.40076526 133.93126822 88.75390625 137.05859375 C86.76809509 141.57155889 86.76809509 141.57155889 87.44921875 146.3125 C88.81980106 149.1148839 88.81980106 149.1148839 90.45703125 151.60546875 C91.72627366 154.60088083 92.11918214 156.88895772 91.56884766 160.11865234 C89.39601108 165.3255589 84.72338537 169.00970908 80.69140625 172.80859375 C79.75876953 173.71802734 78.82613281 174.62746094 77.86523438 175.56445312 C69.79227587 183.3805713 69.79227587 183.3805713 66.7109375 183.35546875 C62.8058339 182.95218783 59.49268746 182.47417255 55.94140625 180.74609375 C50.40619644 178.44845949 46.73867063 180.28397922 41.44140625 182.43359375 C40.60222656 182.79582031 39.76304687 183.15804687 38.8984375 183.53125 C36.62890625 184.37109375 36.62890625 184.37109375 33.62890625 184.37109375 C33.45875 185.02335938 33.28859375 185.675625 33.11328125 186.34765625 C31.62223324 191.7249464 30.11367603 195.98702855 26.62890625 200.37109375 C22.13540737 202.61784319 16.02342045 201.63965977 11.02587891 201.66625977 C8.76923934 201.68347677 6.51406388 201.72736497 4.2578125 201.77148438 C2.82162535 201.78161135 1.38542575 201.79012744 -0.05078125 201.796875 C-2.01120361 201.81874878 -2.01120361 201.81874878 -4.01123047 201.84106445 C-7.37109375 201.37109375 -7.37109375 201.37109375 -9.76879883 199.51977539 C-11.70027628 196.92965913 -12.31870197 194.60022588 -13.18359375 191.49609375 C-15.12314366 186.51303628 -17.03859983 184.45631493 -21.78588867 182.34130859 C-27.21372904 180.24092764 -31.52165053 178.80680452 -37.37109375 180.37109375 C-39.10359375 181.14453125 -39.10359375 181.14453125 -40.87109375 181.93359375 C-44.62316547 183.47462321 -46.40177116 184.18115958 -50.37109375 183.37109375 C-53.39963894 181.42729191 -55.81313474 178.88622544 -58.37109375 176.37109375 C-59.65229694 175.19514327 -60.93498023 174.0208043 -62.21875 172.84765625 C-63.60451712 171.54472412 -64.98861491 170.2400144 -66.37109375 168.93359375 C-67.39674438 168.00341431 -67.39674438 168.00341431 -68.44311523 167.05444336 C-71.64464603 163.95426532 -73.80483646 161.78951392 -73.9375 157.19140625 C-73.44037879 153.83840941 -72.90931245 151.61914906 -71.30859375 148.68359375 C-69.34599535 145.06897649 -69.27695801 143.33586518 -70.37109375 139.37109375 C-70.71720703 137.82615234 -70.71720703 137.82615234 -71.0703125 136.25 C-72.68537383 130.83028825 -73.78965348 127.34302058 -78.74609375 124.296875 C-81.234233 123.20289334 -83.696322 122.37201347 -86.2890625 121.51953125 C-89.37109375 120.37109375 -89.37109375 120.37109375 -91.37109375 117.37109375 C-91.59028784 114.87651767 -91.6990243 112.49601113 -91.70703125 110 C-91.71368805 109.28126205 -91.72034485 108.56252411 -91.72720337 107.82200623 C-91.73731948 106.30315711 -91.74202071 104.78426363 -91.74169922 103.26538086 C-91.74607215 100.94505409 -91.78239692 98.62663081 -91.8203125 96.30664062 C-91.82618107 94.82943358 -91.83015019 93.35221751 -91.83203125 91.875 C-91.84640228 91.18322159 -91.86077332 90.49144318 -91.87557983 89.77870178 C-91.8436702 86.40429663 -91.60657905 84.67171525 -89.49902344 81.98120117 C-87.15427175 80.20703442 -84.99565992 79.15525893 -82.24609375 78.12109375 C-80.94285156 77.61835938 -80.94285156 77.61835938 -79.61328125 77.10546875 C-77.37109375 76.37109375 -77.37109375 76.37109375 -75.37109375 76.37109375 C-75.18933594 75.71882813 -75.00757812 75.0665625 -74.8203125 74.39453125 C-73.66813793 70.3885089 -72.57564685 66.75828355 -70.62109375 63.05859375 C-69.10840239 59.80630732 -69.22530499 58.72661796 -70.37109375 55.37109375 C-70.88671875 54.27796875 -71.40234375 53.18484375 -71.93359375 52.05859375 C-73.54455019 47.92614027 -74.69084123 44.66415467 -73.37109375 40.37109375 C-70.76102729 36.63980156 -67.61720416 33.55037248 -64.37109375 30.37109375 C-63.47390625 29.45070313 -62.57671875 28.5303125 -61.65234375 27.58203125 C-52.79459146 18.54191348 -52.79459146 18.54191348 -48.24609375 17.99609375 C-44.02627925 18.4044629 -41.35511657 19.59080976 -37.6796875 21.59375 C-34.55830222 22.64477482 -32.561722 22.1119887 -29.37109375 21.37109375 C-28.30890625 21.14035156 -27.24671875 20.90960938 -26.15234375 20.671875 C-20.76010866 19.04778515 -17.32876036 17.93227102 -14.30078125 12.99609375 C-13.20438138 10.50758853 -12.37250564 8.04736241 -11.51953125 5.453125 C-9.36861955 -0.31921968 -5.40486815 0.04177657 0 0 Z " fill="#A599A5" transform="translate(99.37109375,29.62890625)"/>
<path d="M0 0 C0.9701001 0.68022217 1.9402002 1.36044434 2.93969727 2.0612793 C3.91946533 2.74859131 4.8992334 3.43590332 5.90869141 4.14404297 C15.65580339 10.93719544 25.68574956 17.21036848 35.87719727 23.3112793 C36.50223145 23.68607422 37.12726563 24.06086914 37.77124023 24.44702148 C42.08254438 27.02163847 46.40048519 29.55072432 50.86547852 31.8503418 C57.14250625 35.09277996 61.63103499 37.81895474 64.87719727 44.3112793 C65.36013106 51.5552862 64.24173915 55.52233246 59.43969727 61.1862793 C55.65603904 64.00783372 51.91822687 64.1963962 47.30297852 63.9597168 C33.54149932 61.35492142 20.5687947 51.04857381 8.85766602 43.8972168 C6.86666139 42.69776973 4.87320284 41.5023857 2.87719727 40.3112793 C1.88800293 39.71863281 0.89880859 39.12598633 -0.12036133 38.51538086 C-1.55049561 37.69118652 -1.55049561 37.69118652 -3.00952148 36.8503418 C-3.85087646 36.36001465 -4.69223145 35.8696875 -5.55908203 35.36450195 C-8.60161444 34.11457482 -10.86171959 34.05344342 -14.12280273 34.3112793 C-16.16162369 35.18257237 -16.16162369 35.18257237 -17.12280273 37.3112793 C-18.03226979 41.42725653 -18.03226979 41.42725653 -17.12280273 45.3112793 C-14.23696347 48.34511032 -10.74096799 50.25002151 -7.12280273 52.3112793 C-6.24664307 52.81546387 -6.24664307 52.81546387 -5.3527832 53.32983398 C-2.04364525 55.2299589 1.28462492 57.09177672 4.62719727 58.93237305 C7.41292768 60.47483758 10.15735359 62.06561716 12.87719727 63.72143555 C36.47283038 78.08287648 60.39885414 91.0952996 88.61669922 84.41064453 C97.19196759 82.25864812 105.69480235 79.84581861 114.15405273 77.27734375 C120.84559782 75.26383892 127.60821735 73.54328861 134.37719727 71.8112793 C141.74783277 69.92438451 149.09502472 68.01646368 156.37719727 65.8112793 C158.40428553 65.21072667 160.43258617 64.6145279 162.46166992 64.02075195 C164.2623845 63.49185802 166.06125101 62.95666422 167.85913086 62.41821289 C205.87055128 51.17380432 205.87055128 51.17380432 222.87719727 59.3112793 C226.85101994 62.52158598 229.10330722 65.65120209 229.93969727 70.7487793 C230.22228204 76.90284772 228.04368787 81.25986479 225.06469727 86.4987793 C217.39072353 94.77332489 199.9035733 96.59416734 189.40454102 99.48706055 C177.89299202 102.67684336 166.47012338 106.19043676 155.09594727 109.83862305 C145.2358265 113.00112605 135.32973565 115.88482698 125.34643555 118.63549805 C118.47027059 120.54478788 111.66365137 122.60546582 104.87719727 124.8112793 C96.16754078 127.63841522 87.40465433 130.18759192 78.5715332 132.60058594 C72.93048489 134.14860468 67.32863682 135.77458492 61.74829102 137.5300293 C60.55937256 137.89942627 59.3704541 138.26882324 58.14550781 138.64941406 C55.87528168 139.35879081 53.6093822 140.08223937 51.34912109 140.82275391 C35.61666092 145.70157066 22.83122582 143.34251751 8.60766602 135.8894043 C1.09657809 131.8497738 -6.23116717 127.48694957 -13.57592773 123.1550293 C-19.80082945 119.48711988 -26.06777695 115.89591482 -32.34689331 112.32208252 C-41.86182367 106.90642216 -51.35331973 101.45272644 -60.81030273 95.9362793 C-62.28394287 95.08247681 -62.28394287 95.08247681 -63.78735352 94.21142578 C-68.25914818 91.61239845 -72.68777956 88.97648133 -77.04077148 86.18237305 C-85.12569937 80.62280504 -85.12569937 80.62280504 -94.49780273 78.9987793 C-96.80277344 79.51136393 -96.80277344 79.51136393 -99.12280273 80.3112793 C-100.10506836 80.56651367 -101.08733398 80.82174805 -102.09936523 81.0847168 C-104.03212915 81.58913322 -105.95790417 82.12170004 -107.87280273 82.69018555 C-110.12280273 83.3112793 -110.12280273 83.3112793 -112.12280273 83.3112793 C-115.20359974 73.92999989 -117.89158989 64.57346802 -120.03295898 54.93237305 C-121.53831616 48.34433827 -123.3614954 41.83442474 -125.12280273 35.3112793 C-126.36476922 30.69879469 -127.60456228 26.08572756 -128.8425293 21.47216797 C-129.2023603 20.13307314 -129.5630667 18.7942133 -129.92456055 17.45556641 C-130.45649462 15.48490654 -130.9852761 13.51342449 -131.51342773 11.54174805 C-131.823125 10.39085693 -132.13282227 9.23996582 -132.4519043 8.05419922 C-133.12280273 5.3112793 -133.12280273 5.3112793 -133.12280273 3.3112793 C-132.24265503 3.08577393 -132.24265503 3.08577393 -131.34472656 2.85571289 C-120.67030627 0.11379307 -110.0187022 -2.67460439 -99.43530273 -5.7512207 C-91.72312222 -7.99127313 -83.97912938 -10.02041875 -76.17797852 -11.92626953 C-70.1173931 -13.41380156 -64.13896008 -15.08133885 -58.16577148 -16.8918457 C-34.06518448 -23.20316759 -18.87651164 -13.23956241 0 0 Z " fill="#F4DBCC" transform="translate(230.122802734375,322.688720703125)"/>
<path d="M0 0 C0.88464432 -0.01606293 1.76928864 -0.03212585 2.68074036 -0.04867554 C6.72839607 -0.09312606 10.77588777 -0.13419031 14.82373047 -0.15722656 C16.95860697 -0.17378732 19.09342801 -0.20107878 21.22802734 -0.23925781 C24.30554985 -0.29402224 27.38177265 -0.31590003 30.4597168 -0.33056641 C31.41195633 -0.35323578 32.36419586 -0.37590515 33.34529114 -0.39926147 C37.87050195 -0.38483691 40.03226505 -0.31557694 43.76025391 2.43481445 C45.58797551 5.00518305 46.57791067 6.82409807 47.36206055 9.84521484 C49.82528804 19.18823583 49.82528804 19.18823583 55.53735352 26.61035156 C59.70773693 28.70409532 64.10847363 29.63333925 68.64526367 30.60693359 C71.82499948 31.50431905 74.37870267 33.31787679 77.15893555 35.06787109 C80.33002732 36.63537663 82.44406046 37.48609883 85.94848633 36.68164062 C90.06711359 35.20717374 93.89959296 33.31150042 97.75268555 31.25146484 C103.41036343 28.24253718 103.41036343 28.24253718 106.72143555 28.19287109 C112.04758772 30.34162736 115.45739678 33.51660039 119.3972168 37.54052734 C120.0078447 38.15302841 120.6184726 38.76552948 121.24760437 39.39659119 C122.5292812 40.68495983 123.80737069 41.97690613 125.08203125 43.2722168 C127.03801975 45.25952068 129.00462804 47.2358051 130.97338867 49.21044922 C132.21945995 50.46568492 133.46492442 51.72152336 134.7097168 52.97802734 C135.59244011 53.86712547 135.59244011 53.86712547 136.49299622 54.77418518 C141.59279694 59.96452923 141.59279694 59.96452923 142.04174805 64.25146484 C141.57034116 70.05206909 139.01528971 74.48883507 136.3894043 79.60888672 C134.12284075 84.18124848 134.12284075 84.18124848 134.22924805 89.15771484 C134.96788086 90.66011719 134.96788086 90.66011719 135.72143555 92.19287109 C136.35270621 93.70067773 136.97709885 95.21137341 137.59643555 96.72412109 C138.30252693 98.38132812 139.01091284 100.03755914 139.72143555 101.69287109 C140.43195825 103.34818305 141.14034416 105.00441407 141.84643555 106.66162109 C142.35883789 107.83470825 142.35883789 107.83470825 142.8815918 109.03149414 C143.72143555 111.19287109 143.72143555 111.19287109 144.28393555 114.49365234 C146.7928891 119.20475806 151.89011723 120.15533489 156.72143555 121.88037109 C158.74535313 122.62595786 160.76635932 123.37950991 162.78393555 124.14208984 C163.68241211 124.4652417 164.58088867 124.78839355 165.5065918 125.12133789 C167.72143555 126.19287109 167.72143555 126.19287109 169.72143555 129.19287109 C169.98886108 131.3110199 169.98886108 131.3110199 170.01196289 133.78442383 C170.0247226 134.71226181 170.0374823 135.64009979 170.05062866 136.59605408 C170.05396713 138.09610741 170.05396713 138.09610741 170.05737305 139.62646484 C170.06402985 140.65594742 170.07068665 141.68542999 170.07754517 142.74610901 C170.08767342 144.92406425 170.09236213 147.10205053 170.09204102 149.2800293 C170.09641424 152.61412602 170.13273312 155.94689928 170.1706543 159.28076172 C170.17652234 161.39599156 170.18049182 163.5112277 170.18237305 165.62646484 C170.19674408 166.62447617 170.21111511 167.62248749 170.22592163 168.65074158 C170.18043947 175.53220768 170.18043947 175.53220768 167.95654297 178.7331543 C165.8201979 180.12837081 163.88066979 181.20638664 161.4987793 182.11474609 C160.7130957 182.41767578 159.92741211 182.72060547 159.11791992 183.03271484 C157.90072266 183.48324219 157.90072266 183.48324219 156.65893555 183.94287109 C155.84360352 184.25869141 155.02827148 184.57451172 154.18823242 184.89990234 C148.14809613 187.19287109 148.14809613 187.19287109 144.72143555 187.19287109 C144.55643555 188.47162109 144.39143555 189.75037109 144.22143555 191.06787109 C142.98486607 197.44307375 140.27375738 203.09357906 137.5534668 208.94628906 C137.20541992 209.69539551 136.85737305 210.44450195 136.4987793 211.21630859 C136.18158936 211.88581543 135.86439941 212.55532227 135.53759766 213.24511719 C133.85542682 217.12031767 133.85542682 217.12031767 134.34228516 221.18823242 C134.85287476 222.22113403 134.85287476 222.22113403 135.3737793 223.27490234 C135.73793945 224.04253906 136.10209961 224.81017578 136.47729492 225.60107422 C137.2596568 227.19295434 138.04349093 228.7841118 138.82885742 230.37451172 C141.07393807 235.11412641 142.79590904 238.86906739 141.72143555 244.19287109 C139.75779391 247.2260109 137.27730855 249.653281 134.72143555 252.19287109 C133.38411377 253.56548096 133.38411377 253.56548096 132.01977539 254.96582031 C129.5254358 257.52033279 127.00631719 260.04871044 124.4765625 262.56811523 C122.89097758 264.14826753 121.31090112 265.73379085 119.73120117 267.31982422 C118.72175662 268.32860915 117.71200256 269.33708448 116.7019043 270.34521484 C115.33908325 271.70634399 115.33908325 271.70634399 113.94873047 273.0949707 C110.68469053 276.16938649 108.48189398 276.56177072 103.98657227 276.51318359 C100.62954417 276.03846697 98.08026592 274.54003492 95.12597656 272.93994141 C88.12327778 269.12042105 88.12327778 269.12042105 80.3815918 268.53466797 C75.75554829 270.11008833 71.74381722 272.61858022 67.61254883 275.18603516 C64.9240674 276.61739294 62.21406534 276.8865692 59.22143555 277.31787109 C55.78489422 278.30310722 54.20904525 279.34088562 52.42504883 282.45800781 C50.64998624 286.34254516 49.12002311 290.26407131 47.7487793 294.30859375 C47.42135742 295.27200684 47.09393555 296.23541992 46.7565918 297.22802734 C46.48210205 298.1085376 46.2076123 298.98904785 45.92480469 299.89624023 C44.26915861 303.05604195 43.04131415 303.84358666 39.72143555 305.19287109 C36.40596303 305.62636934 33.12423267 305.63711239 29.78393555 305.62646484 C28.82624268 305.6317067 27.8685498 305.63694855 26.88183594 305.64234924 C24.86125659 305.64875976 22.84063988 305.64744503 20.82006836 305.63891602 C17.73182702 305.63039975 14.64543209 305.65919133 11.55737305 305.69091797 C9.59122777 305.69252999 7.62507922 305.69195243 5.65893555 305.68896484 C4.73798096 305.70019882 3.81702637 305.7114328 2.86816406 305.7230072 C-1.24288823 305.67839161 -3.66996942 305.545877 -7.28173828 303.45092773 C-9.33583881 301.12810394 -10.25381762 299.50850752 -11.1652832 296.56787109 C-11.46499023 295.69646484 -11.76469727 294.82505859 -12.07348633 293.92724609 C-12.66668563 292.11000533 -13.24237035 290.28695012 -13.80004883 288.45849609 C-15.56571419 283.36038353 -15.56571419 283.36038353 -19.4453125 279.82446289 C-22.02679271 278.80245455 -24.62046331 277.99207691 -27.27856445 277.19287109 C-28.89254794 276.51701048 -30.49608731 275.81556694 -32.0871582 275.08740234 C-32.85350586 274.74386719 -33.61985352 274.40033203 -34.40942383 274.04638672 C-35.17061523 273.70285156 -35.93180664 273.35931641 -36.71606445 273.00537109 C-38.27668394 272.30226289 -39.8378589 271.60038595 -41.3996582 270.89990234 C-42.07440186 270.59544189 -42.74914551 270.29098145 -43.44433594 269.97729492 C-46.70913695 268.43356664 -46.70913695 268.43356664 -50.14453125 268.8137207 C-51.17574097 269.3243103 -51.17574097 269.3243103 -52.2277832 269.84521484 C-52.99413086 270.209375 -53.76047852 270.57353516 -54.55004883 270.94873047 C-56.14342961 271.7280315 -57.73463792 272.51179239 -59.32348633 273.30029297 C-64.6205404 275.80523847 -68.41992586 277.22674849 -74.27856445 276.19287109 C-77.35075711 274.25880889 -79.74625594 271.77712153 -82.27856445 269.19287109 C-83.15609375 268.34289551 -84.03362305 267.49291992 -84.93774414 266.6171875 C-87.36858849 264.25803358 -89.77670612 261.88043065 -92.17163086 259.48510742 C-93.66674581 257.99220928 -95.16973401 256.50753717 -96.6730957 255.02294922 C-97.63321873 254.06575578 -98.59287167 253.10809053 -99.55200195 252.14990234 C-100.41229004 251.29372314 -101.27257812 250.43754395 -102.15893555 249.55541992 C-105.37090181 245.9753465 -106.32294871 244.31065345 -106.13012695 239.45458984 C-105.30027128 234.17068578 -102.97379472 229.68362447 -100.63012695 224.92919922 C-99.3002614 222.09778466 -98.25923167 219.82021982 -98.35668945 216.65771484 C-99.6033323 213.32452994 -101.08611307 210.13339441 -102.65356445 206.94287109 C-109.27856445 193.10945292 -109.27856445 193.10945292 -109.27856445 187.19287109 C-109.93727539 187.08587891 -110.59598633 186.97888672 -111.2746582 186.86865234 C-115.09351732 186.00953319 -118.67356548 184.73509345 -122.34106445 183.38037109 C-123.40164062 183.0081543 -123.40164062 183.0081543 -124.48364258 182.62841797 C-125.51328125 182.2484668 -125.51328125 182.2484668 -126.5637207 181.86083984 C-127.18126221 181.63678467 -127.79880371 181.41272949 -128.43505859 181.18188477 C-131.1400621 179.73069033 -132.47037816 178.74853886 -134.27856445 176.19287109 C-134.90541345 172.69970832 -134.88663673 169.23854631 -134.88012695 165.69677734 C-134.8886972 164.67108139 -134.89726746 163.64538544 -134.90609741 162.58860779 C-134.91757599 160.4208369 -134.91859032 158.25298898 -134.90991211 156.08520508 C-134.90359262 152.77014621 -134.9505031 149.45866012 -135.0012207 146.14404297 C-135.00576702 144.0366256 -135.00717353 141.92919863 -135.00512695 139.82177734 C-135.02354645 138.83206436 -135.04196594 137.84235138 -135.0609436 136.82264709 C-134.97147262 130.15995192 -134.97147262 130.15995192 -133.04188538 127.46685791 C-130.35146683 125.09526346 -127.58154408 123.61857196 -124.0715332 122.98193359 C-115.12144239 120.83851626 -115.12144239 120.83851626 -108.61743164 114.70654297 C-105.82184662 108.94488681 -103.86352448 102.92533174 -102.15966797 96.76074219 C-101.27856445 94.19287109 -101.27856445 94.19287109 -99.67138672 91.53930664 C-98.02498272 89.24360731 -98.02498272 89.24360731 -98.36450195 86.37646484 C-99.69844515 81.73046611 -101.77455036 77.51986311 -103.92700195 73.20263672 C-106.1312588 68.4914894 -106.96933804 65.33995396 -105.27856445 60.19287109 C-103.23821225 57.23424098 -100.79361391 54.75124517 -98.27856445 52.19287109 C-97.44583008 51.31405273 -96.6130957 50.43523437 -95.75512695 49.52978516 C-93.43635141 47.09723015 -91.09699308 44.69063997 -88.7355957 42.29980469 C-87.75885694 41.30637234 -86.78753405 40.30758783 -85.8215332 39.30371094 C-84.40265996 37.82986113 -82.96782363 36.37335026 -81.52856445 34.91943359 C-80.6880957 34.05914551 -79.84762695 33.19885742 -78.98168945 32.3125 C-75.80193453 29.81912642 -73.2274599 28.95834226 -69.27856445 28.19287109 C-65.9621582 28.98583984 -65.9621582 28.98583984 -62.71606445 30.38037109 C-61.10538086 31.05132812 -61.10538086 31.05132812 -59.4621582 31.73583984 C-56.27856445 33.19287109 -56.27856445 33.19287109 -53.3137207 34.93115234 C-48.94698242 36.74641163 -45.77957411 36.099221 -41.38549805 34.50683594 C-39.38676874 33.67986232 -37.42641649 32.79443554 -35.46606445 31.88037109 C-34.14786655 31.27832847 -32.82884202 30.67809276 -31.5090332 30.07958984 C-30.83735107 29.76417236 -30.16566895 29.44875488 -29.47363281 29.1237793 C-27.27856445 28.19287109 -27.27856445 28.19287109 -24.69482422 27.42407227 C-19.50887154 25.81077342 -19.50887154 25.81077342 -15.78369141 22.05053711 C-14.61735481 19.4430302 -13.69526684 16.85568348 -12.84106445 14.13037109 C-12.22385769 12.32475379 -11.60040198 10.52125745 -10.9699707 8.72021484 C-10.71417236 7.92349365 -10.45837402 7.12677246 -10.19482422 6.3059082 C-8.09965714 1.47412802 -5.04165583 0.08313623 0 0 Z M3.72143555 17.19287109 C-1.0933237 27.12442567 -1.0933237 27.12442567 -2.90356445 33.63037109 C-4.08952748 36.63322947 -4.76565871 37.88354134 -7.55200195 39.56396484 C-10.43416941 40.62516404 -13.3020505 41.43729447 -16.27856445 42.19287109 C-24.08875582 44.47617841 -30.97380348 47.37467711 -37.93969727 51.55126953 C-42.28070569 54.04634615 -45.30963973 54.83033183 -50.27856445 54.19287109 C-53.115015 53.21122408 -55.77608432 51.95641764 -58.46606445 50.63037109 C-63.13501815 48.08129752 -63.13501815 48.08129752 -68.23583984 47.35107422 C-70.98151505 48.48255362 -72.53151408 50.10838393 -74.60668945 52.22802734 C-75.4059082 53.03691406 -76.20512695 53.84580078 -77.02856445 54.67919922 C-77.85356445 55.52933594 -78.67856445 56.37947266 -79.52856445 57.25537109 C-80.3690332 58.109375 -81.20950195 58.96337891 -82.07543945 59.84326172 C-84.15004043 61.95322521 -86.21732277 64.06986818 -88.27856445 66.19287109 C-87.91504883 67.00908936 -87.91504883 67.00908936 -87.54418945 67.84179688 C-86.44419965 70.32893729 -85.36130585 72.82317638 -84.27856445 75.31787109 C-83.7062207 76.60177734 -83.7062207 76.60177734 -83.12231445 77.91162109 C-79.43677077 86.46734749 -79.43677077 86.46734749 -80.27856445 91.19287109 C-81.48961571 94.04642922 -82.98267349 96.69660796 -84.52856445 99.38037109 C-88.57635596 106.71296192 -92.25488241 113.90270215 -93.8605957 122.20068359 C-95.34967859 129.55963513 -95.34967859 129.55963513 -98.0090332 131.37255859 C-100.3852477 132.14298879 -102.83866607 132.65728364 -105.27856445 133.19287109 C-109.56856445 134.84287109 -113.85856445 136.49287109 -118.27856445 138.19287109 C-118.27856445 147.76287109 -118.27856445 157.33287109 -118.27856445 167.19287109 C-111.51088681 169.57950777 -111.51088681 169.57950777 -104.7265625 171.91796875 C-97.81954348 174.45008153 -97.81954348 174.45008153 -95.27856445 177.93896484 C-94.94856445 179.01275391 -94.61856445 180.08654297 -94.27856445 181.19287109 C-93.96205933 182.14516602 -93.96205933 182.14516602 -93.63916016 183.11669922 C-92.92460249 185.27896855 -92.25795592 187.45296694 -91.59106445 189.63037109 C-89.39364811 196.62052096 -86.65835486 202.87228968 -82.73095703 209.06958008 C-80.45069267 212.88947718 -79.89603139 215.72352963 -80.70751953 220.11816406 C-81.72418404 223.81188573 -83.22129828 227.2288167 -84.84106445 230.69287109 C-85.17041992 231.41990234 -85.49977539 232.14693359 -85.83911133 232.89599609 C-86.64261467 234.66603243 -87.45922295 236.43011026 -88.27856445 238.19287109 C-84.31274515 243.06516338 -80.06265277 247.66035864 -75.71606445 252.19287109 C-75.16217041 252.79317139 -74.60827637 253.39347168 -74.03759766 254.01196289 C-70.98281754 257.28318761 -70.98281754 257.28318761 -66.8059082 258.25927734 C-62.44144077 256.41770144 -58.14103376 254.47479357 -53.84887695 252.47021484 C-48.68372393 250.6222881 -45.14811903 250.32288035 -40.12231445 252.66162109 C-39.01887695 253.33193359 -37.91543945 254.00224609 -36.77856445 254.69287109 C-31.12659479 258.03350862 -25.61479502 260.08327571 -19.31274414 261.90600586 C-5.5372049 265.96242647 -5.5372049 265.96242647 -2.5793457 270.56396484 C-0.94130696 273.97025352 -0.12430906 277.51554039 0.72143555 281.19287109 C1.71143555 283.50287109 2.70143555 285.81287109 3.72143555 288.19287109 C12.96143555 288.19287109 22.20143555 288.19287109 31.72143555 288.19287109 C35.82466672 279.18102897 35.82466672 279.18102897 39.6315918 270.06787109 C41.81913468 266.30435646 45.2112038 264.82689894 49.2487793 263.61474609 C50.11744629 263.34412354 50.98611328 263.07350098 51.88110352 262.79467773 C53.25613037 262.37303345 53.25613037 262.37303345 54.65893555 261.94287109 C62.36000065 259.50765515 69.06847799 256.77977975 75.93237305 252.47802734 C80.01021507 250.59902171 83.42344947 250.40311448 87.71264648 251.87719727 C89.81086512 252.77925152 91.86047686 253.74556751 93.90893555 254.75537109 C98.57788925 257.30444467 98.57788925 257.30444467 103.67871094 258.03466797 C106.42438615 256.90318857 107.97438517 255.27735826 110.04956055 253.15771484 C110.8487793 252.34882813 111.64799805 251.53994141 112.47143555 250.70654297 C113.29643555 249.85640625 114.12143555 249.00626953 114.97143555 248.13037109 C115.8119043 247.27636719 116.65237305 246.42236328 117.51831055 245.54248047 C119.59291152 243.43251698 121.66019387 241.31587401 123.72143555 239.19287109 C121.79246946 233.12681347 119.5389664 227.47957052 116.7097168 221.77099609 C115.61626888 218.91852327 115.31158803 217.21726312 115.72143555 214.19287109 C117.04174805 211.60693359 117.04174805 211.60693359 118.84643555 208.81787109 C123.86696107 200.55895385 128.0400206 191.55580838 129.84643555 182.00537109 C130.8369464 177.68957379 131.3053647 176.86200291 134.72143555 174.19287109 C137.90052275 172.72778099 141.16375002 171.58187511 144.47143555 170.44287109 C147.52393555 169.37037109 150.57643555 168.29787109 153.72143555 167.19287109 C153.72143555 157.62287109 153.72143555 148.05287109 153.72143555 138.19287109 C147.27968714 135.72662696 147.27968714 135.72662696 140.82763672 133.28759766 C139.62071167 132.81531738 139.62071167 132.81531738 138.3894043 132.33349609 C137.56722412 132.01928711 136.74504395 131.70507812 135.89794922 131.38134766 C132.1507375 129.33519772 130.9374547 126.84321851 129.6159668 122.86474609 C129.25181214 121.55841886 128.89133311 120.25106314 128.53393555 118.94287109 C125.80216475 109.54880238 121.73734729 100.41572533 116.4206543 92.17724609 C114.346575 86.29103223 117.83633174 80.05285815 120.28393555 74.75537109 C120.61329102 74.02382812 120.94264648 73.29228516 121.28198242 72.53857422 C122.08720661 70.7530771 122.903214 68.97244954 123.72143555 67.19287109 C119.75561624 62.32057881 115.50552387 57.72538355 111.15893555 53.19287109 C110.6050415 52.5925708 110.05114746 51.99227051 109.48046875 51.3737793 C106.42568863 48.10255458 106.42568863 48.10255458 102.2487793 47.12646484 C97.88431186 48.96804075 93.58390486 50.91094861 89.29174805 52.91552734 C84.0785095 54.78065755 80.56253149 55.05100903 75.49487305 52.68896484 C73.81264648 51.66996094 73.81264648 51.66996094 72.09643555 50.63037109 C64.951054 46.48942411 57.57984999 43.9242016 49.69165039 41.5402832 C48.39928467 41.14208374 48.39928467 41.14208374 47.08081055 40.73583984 C46.31220703 40.50920654 45.54360352 40.28257324 44.75170898 40.04907227 C41.6289905 38.73216826 40.17777256 37.160505 38.73828125 34.1081543 C38.32195435 32.93772583 38.32195435 32.93772583 37.8972168 31.74365234 C37.62047119 30.97964111 37.34372559 30.21562988 37.05859375 29.4284668 C36.72045654 28.46384521 36.38231934 27.49922363 36.03393555 26.50537109 C34.94081055 23.43224609 33.84768555 20.35912109 32.72143555 17.19287109 C23.15143555 17.19287109 13.58143555 17.19287109 3.72143555 17.19287109 Z " fill="#252322" transform="translate(334.278564453125,37.80712890625)"/>
<path d="M0 0 C12.89099961 9.83682432 23.57264341 23.4508872 26.953125 39.62890625 C29.30022186 60.59170268 26.57112888 79.52126791 13.4765625 96.5625 C12.13007732 98.12913294 10.75558407 99.67221635 9.3515625 101.1875 C8.70960938 101.88359375 8.06765625 102.5796875 7.40625 103.296875 C-4.38821837 114.86711394 -22.27688937 121.46522137 -38.5859375 121.6875 C-56.95394485 121.45637037 -73.52453687 114.03216871 -86.6484375 101.1875 C-92.45706077 94.49220215 -97.26804057 87.38993373 -100.6484375 79.1875 C-101.23625 77.84945312 -101.23625 77.84945312 -101.8359375 76.484375 C-107.70242312 60.92189231 -106.41155869 42.22395391 -99.6484375 27.1875 C-89.78140981 7.88244583 -74.97354937 -3.90250164 -54.5234375 -10.6875 C-35.79262649 -15.247333 -15.74853479 -10.77775832 0 0 Z " fill="#EBEEF0" transform="translate(390.6484375,135.8125)"/>
<path d="M0 0 C0.71873795 -0.00902847 1.43747589 -0.01805695 2.17799377 -0.02735901 C3.69682657 -0.04185312 5.21572169 -0.05074618 6.73461914 -0.05444336 C9.05527034 -0.06634912 11.37326872 -0.1155414 13.69335938 -0.16601562 C15.17055996 -0.1754794 16.64777685 -0.18271466 18.125 -0.1875 C18.81677841 -0.20703232 19.50855682 -0.22656464 20.22129822 -0.24668884 C23.92867 -0.21206089 25.34930953 0.09612385 28.03369141 2.73608398 C29.65588378 5.4156558 30.59464551 7.90159313 31.56640625 10.87109375 C33.1685096 14.59761627 34.13138413 16.07783103 37.6640625 18.16015625 C40.96709526 19.43370439 44.19950817 20.49676701 47.62890625 21.37109375 C48.93214844 21.73654297 48.93214844 21.73654297 50.26171875 22.109375 C53.16718796 22.43060674 54.45041802 21.80252156 57.00390625 20.43359375 C61.15778705 18.48367284 63.98190815 17.44169413 68.62890625 18.37109375 C71.68976249 20.29804188 74.07806253 22.82429899 76.62890625 25.37109375 C77.8220307 26.47372651 79.01754268 27.57377887 80.21484375 28.671875 C81.50019792 29.88252399 82.78404109 31.09477913 84.06640625 32.30859375 C84.69426025 32.88109863 85.32211426 33.45360352 85.96899414 34.04345703 C88.97769674 36.96596102 90.98332019 39.23971808 91.7109375 43.44921875 C91.62359527 47.62500941 90.90697566 49.5943125 88.87890625 53.18359375 C86.814073 57.63422891 86.814073 57.63422891 87.37109375 62.375 C88.27960227 64.26131007 89.2463539 66.12085294 90.2734375 67.9453125 C91.82678694 70.72522605 92.37231672 73.20648952 92.62890625 76.37109375 C93.26828125 76.45359375 93.90765625 76.53609375 94.56640625 76.62109375 C99.41910282 77.80950924 104.67226023 79.37005299 108.23217773 83.01074219 C110.9645126 87.62815409 110.10658535 93.39930722 110.07495117 98.64282227 C110.06644544 100.79866152 110.09520641 102.95184452 110.12695312 105.10742188 C110.12856556 106.48567629 110.12798679 107.86393537 110.125 109.2421875 C110.12685303 110.4892749 110.12870605 111.7363623 110.13061523 113.02124023 C109.5409322 116.95848642 108.41739786 118.58228393 105.62890625 121.37109375 C102.90234375 122.734375 102.90234375 122.734375 100.00390625 123.68359375 C99.04226562 124.00972656 98.080625 124.33585937 97.08984375 124.671875 C94.62890625 125.37109375 94.62890625 125.37109375 92.62890625 125.37109375 C92.52320313 126.24378906 92.4175 127.11648437 92.30859375 128.015625 C91.60353724 131.49633501 90.40076526 133.93126822 88.75390625 137.05859375 C86.76809509 141.57155889 86.76809509 141.57155889 87.44921875 146.3125 C88.81980106 149.1148839 88.81980106 149.1148839 90.45703125 151.60546875 C91.72627366 154.60088083 92.11918214 156.88895772 91.56884766 160.11865234 C89.39601108 165.3255589 84.72338537 169.00970908 80.69140625 172.80859375 C79.75876953 173.71802734 78.82613281 174.62746094 77.86523438 175.56445312 C69.79227587 183.3805713 69.79227587 183.3805713 66.7109375 183.35546875 C62.8058339 182.95218783 59.49268746 182.47417255 55.94140625 180.74609375 C50.40619644 178.44845949 46.73867063 180.28397922 41.44140625 182.43359375 C40.60222656 182.79582031 39.76304687 183.15804687 38.8984375 183.53125 C36.62890625 184.37109375 36.62890625 184.37109375 33.62890625 184.37109375 C33.45875 185.02335938 33.28859375 185.675625 33.11328125 186.34765625 C31.62223324 191.7249464 30.11367603 195.98702855 26.62890625 200.37109375 C22.13540737 202.61784319 16.02342045 201.63965977 11.02587891 201.66625977 C8.76923934 201.68347677 6.51406388 201.72736497 4.2578125 201.77148438 C2.82162535 201.78161135 1.38542575 201.79012744 -0.05078125 201.796875 C-2.01120361 201.81874878 -2.01120361 201.81874878 -4.01123047 201.84106445 C-7.37109375 201.37109375 -7.37109375 201.37109375 -9.76879883 199.51977539 C-11.70027628 196.92965913 -12.31870197 194.60022588 -13.18359375 191.49609375 C-15.12314366 186.51303628 -17.03859983 184.45631493 -21.78588867 182.34130859 C-27.21372904 180.24092764 -31.52165053 178.80680452 -37.37109375 180.37109375 C-39.10359375 181.14453125 -39.10359375 181.14453125 -40.87109375 181.93359375 C-44.62316547 183.47462321 -46.40177116 184.18115958 -50.37109375 183.37109375 C-53.39963894 181.42729191 -55.81313474 178.88622544 -58.37109375 176.37109375 C-59.65229694 175.19514327 -60.93498023 174.0208043 -62.21875 172.84765625 C-63.60451712 171.54472412 -64.98861491 170.2400144 -66.37109375 168.93359375 C-67.39674438 168.00341431 -67.39674438 168.00341431 -68.44311523 167.05444336 C-71.64464603 163.95426532 -73.80483646 161.78951392 -73.9375 157.19140625 C-73.44037879 153.83840941 -72.90931245 151.61914906 -71.30859375 148.68359375 C-69.34599535 145.06897649 -69.27695801 143.33586518 -70.37109375 139.37109375 C-70.71720703 137.82615234 -70.71720703 137.82615234 -71.0703125 136.25 C-72.68537383 130.83028825 -73.78965348 127.34302058 -78.74609375 124.296875 C-81.234233 123.20289334 -83.696322 122.37201347 -86.2890625 121.51953125 C-89.37109375 120.37109375 -89.37109375 120.37109375 -91.37109375 117.37109375 C-91.59028784 114.87651767 -91.6990243 112.49601113 -91.70703125 110 C-91.71368805 109.28126205 -91.72034485 108.56252411 -91.72720337 107.82200623 C-91.73731948 106.30315711 -91.74202071 104.78426363 -91.74169922 103.26538086 C-91.74607215 100.94505409 -91.78239692 98.62663081 -91.8203125 96.30664062 C-91.82618107 94.82943358 -91.83015019 93.35221751 -91.83203125 91.875 C-91.84640228 91.18322159 -91.86077332 90.49144318 -91.87557983 89.77870178 C-91.8436702 86.40429663 -91.60657905 84.67171525 -89.49902344 81.98120117 C-87.15427175 80.20703442 -84.99565992 79.15525893 -82.24609375 78.12109375 C-80.94285156 77.61835938 -80.94285156 77.61835938 -79.61328125 77.10546875 C-77.37109375 76.37109375 -77.37109375 76.37109375 -75.37109375 76.37109375 C-75.18933594 75.71882813 -75.00757812 75.0665625 -74.8203125 74.39453125 C-73.66813793 70.3885089 -72.57564685 66.75828355 -70.62109375 63.05859375 C-69.10840239 59.80630732 -69.22530499 58.72661796 -70.37109375 55.37109375 C-70.88671875 54.27796875 -71.40234375 53.18484375 -71.93359375 52.05859375 C-73.54455019 47.92614027 -74.69084123 44.66415467 -73.37109375 40.37109375 C-70.76102729 36.63980156 -67.61720416 33.55037248 -64.37109375 30.37109375 C-63.47390625 29.45070313 -62.57671875 28.5303125 -61.65234375 27.58203125 C-52.79459146 18.54191348 -52.79459146 18.54191348 -48.24609375 17.99609375 C-44.02627925 18.4044629 -41.35511657 19.59080976 -37.6796875 21.59375 C-34.55830222 22.64477482 -32.561722 22.1119887 -29.37109375 21.37109375 C-28.30890625 21.14035156 -27.24671875 20.90960938 -26.15234375 20.671875 C-20.76010866 19.04778515 -17.32876036 17.93227102 -14.30078125 12.99609375 C-13.20438138 10.50758853 -12.37250564 8.04736241 -11.51953125 5.453125 C-9.36861955 -0.31921968 -5.40486815 0.04177657 0 0 Z M1.62890625 16.37109375 C1.29117188 17.21414062 0.9534375 18.0571875 0.60546875 18.92578125 C-0.06355469 20.56933594 -0.06355469 20.56933594 -0.74609375 22.24609375 C-1.40738281 23.88191406 -1.40738281 23.88191406 -2.08203125 25.55078125 C-3.37109375 28.37109375 -3.37109375 28.37109375 -5.37109375 30.37109375 C-7.69862741 31.20027762 -10.01097418 31.96090807 -12.37109375 32.68359375 C-17.13764141 34.18252958 -21.48042306 35.81360798 -25.87109375 38.24609375 C-31.07016752 40.96982597 -34.26695957 40.33427365 -39.80078125 38.6171875 C-42.00637846 37.906037 -44.19122616 37.15703241 -46.37109375 36.37109375 C-47.90948641 37.74755034 -49.42639956 39.14804407 -50.93359375 40.55859375 C-51.78050781 41.33589844 -52.62742187 42.11320312 -53.5 42.9140625 C-55.66022267 45.20437699 -55.66022267 45.20437699 -55.24609375 47.98828125 C-54.37861866 50.51812889 -54.37861866 50.51812889 -52.80859375 53.30859375 C-51.15195454 56.83795554 -50.98632171 58.50505085 -51.37109375 62.37109375 C-52.42045041 65.09826195 -53.78391156 67.62198026 -55.18359375 70.18359375 C-57.53684383 74.6162243 -59.65592961 78.71965987 -60.87109375 83.62109375 C-61.61275361 86.14947964 -62.03200229 87.11192032 -64.14453125 88.7265625 C-66.1946541 89.78210902 -68.19827156 90.60304488 -70.37109375 91.37109375 C-72.84609375 92.36109375 -72.84609375 92.36109375 -75.37109375 93.37109375 C-75.37109375 98.32109375 -75.37109375 103.27109375 -75.37109375 108.37109375 C-73.45296875 109.09296875 -71.53484375 109.81484375 -69.55859375 110.55859375 C-64.76012411 112.36446942 -62.55058454 113.67023126 -60.37109375 118.37109375 C-59.6328125 120.40625 -59.6328125 120.40625 -59.05859375 122.43359375 C-57.83176567 126.40586414 -56.10076709 129.84307066 -54.12109375 133.49609375 C-52.24473465 137.16966033 -51.37703513 139.00866958 -51.30859375 143.18359375 C-52.10695196 145.57866838 -52.96646507 147.76730739 -53.99609375 150.05859375 C-55.5736255 153.8005663 -55.5736255 153.8005663 -54.37109375 157.37109375 C-52.53163345 159.5725886 -52.53163345 159.5725886 -50.30859375 161.62109375 C-49.57511719 162.3275 -48.84164062 163.03390625 -48.0859375 163.76171875 C-47.52003906 164.2928125 -46.95414063 164.82390625 -46.37109375 165.37109375 C-42.27783168 164.10014224 -42.27783168 164.10014224 -38.43359375 162.24609375 C-35.29672768 160.91530208 -32.75809026 161.13762794 -29.37109375 161.37109375 C-25.9765625 162.796875 -25.9765625 162.796875 -22.55859375 164.68359375 C-18.36838568 166.94438061 -14.3956482 168.80392423 -9.74609375 169.93359375 C-6.2481919 170.88392388 -5.49034627 171.2396102 -2.93359375 174.05859375 C-1.17645118 177.78373599 0.28616913 181.47715611 1.62890625 185.37109375 C6.24890625 185.37109375 10.86890625 185.37109375 15.62890625 185.37109375 C16.20640625 183.39109375 16.78390625 181.41109375 17.37890625 179.37109375 C20.10614307 173.27960129 22.82769579 171.25914517 28.95996094 168.7421875 C32.43568964 167.47467113 35.93313662 166.29274487 39.45483398 165.15966797 C41.82044905 164.3808531 41.82044905 164.3808531 44.48046875 162.65234375 C48.16901813 160.45262703 51.59352776 161.46914657 55.62890625 162.37109375 C58.37822347 163.24049704 60.96356027 164.25649452 63.62890625 165.37109375 C65.1702066 164.0190759 66.68645597 162.63845997 68.19140625 161.24609375 C69.03832031 160.48039063 69.88523438 159.7146875 70.7578125 158.92578125 C72.96902934 156.46912445 72.96902934 156.46912445 72.47265625 153.18359375 C71.76696995 150.45283533 71.76696995 150.45283533 70.56640625 148.49609375 C69.04449054 145.04641814 68.939283 142.00945092 69.62890625 138.37109375 C70.95356701 135.32609434 72.47177653 132.45147651 74.06640625 129.5390625 C75.63951426 126.34958602 76.49980608 123.36969202 77.37890625 119.93359375 C78.4558483 116.4323864 79.07380247 114.80049634 81.9921875 112.54296875 C84.51018627 111.27485939 86.95301722 110.25114407 89.62890625 109.37109375 C90.61890625 109.04109375 91.60890625 108.71109375 92.62890625 108.37109375 C92.62890625 103.42109375 92.62890625 98.47109375 92.62890625 93.37109375 C90.81390625 92.95859375 88.99890625 92.54609375 87.12890625 92.12109375 C82.27311183 90.17189646 80.38497504 88.51558646 78.15625 83.76171875 C76.38178625 79.42928253 74.88984079 75.00999362 73.43164062 70.56274414 C72.47473649 67.95017466 71.08590797 65.73274132 69.62890625 63.37109375 C69.06329833 57.43221059 69.9074539 54.69567443 72.62890625 49.37109375 C72.30315385 45.19060459 70.8864713 43.08375444 68.06640625 40.05859375 C67.42574219 39.36121094 66.78507813 38.66382812 66.125 37.9453125 C65.38443359 37.16607422 65.38443359 37.16607422 64.62890625 36.37109375 C61.45433014 36.92366502 59.20248032 37.57640994 56.25390625 38.99609375 C50.89546194 41.02860711 47.20204026 40.02796984 41.98046875 37.84765625 C40.7336961 37.23978444 39.49156743 36.62230857 38.25390625 35.99609375 C34.00419995 33.88067275 30.18233704 32.14910883 25.50390625 31.18359375 C22.29391794 30.25693675 21.72556561 29.53896351 20.01171875 26.5625 C18.74722775 23.52986481 17.67015713 20.4855495 16.62890625 17.37109375 C15.49189028 16.00576826 15.49189028 16.00576826 12.46875 16.2734375 C11.18097656 16.28503906 9.89320312 16.29664063 8.56640625 16.30859375 C7.27605469 16.31761719 5.98570313 16.32664062 4.65625 16.3359375 C3.65722656 16.34753906 2.65820312 16.35914063 1.62890625 16.37109375 Z " fill="#242222" transform="translate(99.37109375,29.62890625)"/>
<path d="M0 0 C11.89975906 8.32344507 20.32534897 19.68880288 23.76171875 33.921875 C26.15764618 48.71894536 22.5141273 62.98384386 13.984375 75.203125 C5.52802993 86.11749662 -6.21771583 92.92234946 -19.81640625 95.52734375 C-35.8603712 96.99042035 -50.15933606 92.83146136 -62.65234375 82.58984375 C-71.73942329 73.92923364 -78.68860485 61.13049145 -79.0546875 48.3671875 C-79.41944125 32.29009102 -75.62420078 19.36332218 -64.55859375 7.1796875 C-46.82283166 -9.64145008 -20.95817009 -12.65181277 0 0 Z " fill="#262424" transform="translate(135.81640625,86.47265625)"/>
<path d="M0 0 C13.85519125 11.09457044 23.9793966 25.62319414 28.9921875 42.74609375 C29.35054687 43.90625 29.70890625 45.06640625 30.078125 46.26171875 C31.47662961 51.98336248 31.28234308 57.76507194 31.2421875 63.62109375 C31.24992188 64.74128906 31.25765625 65.86148438 31.265625 67.015625 C31.21330241 89.43585662 22.33906391 107.68155765 6.9921875 123.74609375 C6.16460937 124.68582031 6.16460937 124.68582031 5.3203125 125.64453125 C-8.13911911 140.36994901 -28.91057765 146.82057127 -48.26953125 148.0625 C-70.87123762 148.98385008 -90.67618464 140.1668379 -107.5859375 125.51171875 C-121.94857264 112.03022687 -132.37260185 92.2705843 -133.359375 72.45703125 C-134.04150444 46.30341273 -126.99200851 25.3173718 -108.8828125 6.12109375 C-78.74277181 -23.02120766 -33.26884642 -24.93003167 0 0 Z M-102.6953125 22.87109375 C-115.20984368 38.86311412 -119.09915501 56.7565141 -117.0078125 76.74609375 C-115.03019414 87.37825952 -110.59152804 97.17882289 -104.0078125 105.74609375 C-103.42515625 106.52082031 -102.8425 107.29554688 -102.2421875 108.09375 C-91.96992638 120.67511183 -76.00106087 129.34893639 -60.0078125 131.74609375 C-41.38883908 133.60257072 -23.81451589 128.74376734 -8.85546875 117.34375 C3.48468103 107.05321534 13.07474673 91.89094507 14.9921875 75.74609375 C16.07319023 55.18130378 13.53100905 37.52594534 -0.24584961 21.47241211 C-9.76436115 10.99789957 -20.41329896 4.74995733 -34.0078125 0.74609375 C-34.62978516 0.56135498 -35.25175781 0.37661621 -35.89257812 0.1862793 C-60.51689003 -6.61828761 -86.38161655 4.07307862 -102.6953125 22.87109375 Z " fill="#272423" transform="translate(403.0078125,125.25390625)"/>
<path d="M0 0 C3.14799975 4.12747869 4.13310521 8.65428336 5.3046875 13.60546875 C5.51054474 14.44354568 5.71640198 15.28162262 5.92849731 16.14509583 C6.58518967 18.82405243 7.23067343 21.50554504 7.875 24.1875 C8.72251948 27.68198249 9.57486635 31.17526568 10.4296875 34.66796875 C10.64175842 35.53670624 10.85382935 36.40544373 11.07232666 37.30050659 C12.64744832 43.70146458 14.37365555 50.04989539 16.16537476 56.39311218 C18.24693753 63.79543617 20.10250086 71.24857381 21.93786621 78.71511841 C24.92128375 90.84169031 27.99901809 102.92357721 31.41748047 114.93554688 C32.57931911 119.05311083 33.70136504 123.18100558 34.8125 127.3125 C35.03196289 128.10857666 35.25142578 128.90465332 35.47753906 129.72485352 C37.65442088 137.87585163 37.65442088 137.87585163 37 141 C31.73447123 145.26587011 24.42242501 146.31589744 18 148 C16.66195312 148.36351562 16.66195312 148.36351562 15.296875 148.734375 C14.53890625 148.92515625 13.7809375 149.1159375 13 149.3125 C12.0409375 149.55419922 12.0409375 149.55419922 11.0625 149.80078125 C8.25968422 150.07150777 5.74882358 149.54273647 3 149 C-4.20238452 123.81290912 -4.20238452 123.81290912 -6.98046875 111.3046875 C-8.00401603 106.82843435 -9.21077818 102.40193412 -10.40206909 97.96792603 C-12.25364964 91.07429227 -14.0350037 84.16308093 -15.8125 77.25 C-16.15915687 75.90467692 -16.50592009 74.55938125 -16.8527832 73.21411133 C-18.22573756 67.88900384 -19.59777086 62.56366071 -20.96777344 57.23779297 C-21.87282357 53.72063331 -22.77981079 50.2039794 -23.6875 46.6875 C-23.97222168 45.58075928 -24.25694336 44.47401855 -24.55029297 43.33374023 C-25.82549757 38.40519672 -27.12804348 33.4908778 -28.546875 28.6015625 C-28.78317627 27.78341064 -29.01947754 26.96525879 -29.26293945 26.12231445 C-29.6916398 24.65436876 -30.12927885 23.18898149 -30.57885742 21.72729492 C-31.97278988 16.96869792 -32.18002311 12.90426584 -32 8 C-26.58690771 5.5156602 -21.1963656 3.80989553 -15.4375 2.3125 C-14.61314453 2.08755859 -13.78878906 1.86261719 -12.93945312 1.63085938 C-4.03728276 -0.71031892 -4.03728276 -0.71031892 0 0 Z " fill="#CFCFD3" transform="translate(73,301)"/>
<path d="M0 0 C1.70571963 1.1588682 3.41144937 2.31772153 5.1171875 3.4765625 C9.75549416 6.63557206 14.38151004 9.81210101 19 13 C15.93353152 14.6663533 12.9597243 15.65808817 9.58984375 16.55078125 C8.52725342 16.83445557 7.46466309 17.11812988 6.36987305 17.41040039 C5.23718994 17.70809326 4.10450684 18.00578613 2.9375 18.3125 C1.76807861 18.62372803 0.59865723 18.93495605 -0.60620117 19.25561523 C-5.80185573 20.63626127 -11.00129539 22.00219662 -16.203125 23.359375 C-17.73959618 23.76036743 -19.27605498 24.16140733 -20.8125 24.5625 C-21.56354004 24.7581958 -22.31458008 24.9538916 -23.08837891 25.15551758 C-28.89804241 26.68106774 -34.66839613 28.32834015 -40.4375 30 C-48.0799384 32.21374444 -55.75120841 34.21867279 -63.48022461 36.10546875 C-70.40914444 37.81305696 -77.25411804 39.76364056 -84.10498047 41.75854492 C-92.73056789 44.25151262 -101.42935532 46.41796177 -110.15673828 48.52270508 C-111.7906998 48.94580372 -113.39876347 49.46625449 -115 50 C-115.16081055 49.32646484 -115.32162109 48.65292969 -115.48730469 47.95898438 C-118.59397413 34.95617675 -121.71667395 21.95948104 -125 9 C-124.11985229 8.77449463 -124.11985229 8.77449463 -123.22192383 8.54443359 C-112.54750354 5.80251377 -101.89589947 3.01411632 -91.3125 -0.0625 C-83.60031949 -2.30255243 -75.85632664 -4.33169805 -68.05517578 -6.23754883 C-61.99459036 -7.72508086 -56.01615735 -9.39261815 -50.04296875 -11.203125 C-30.11785712 -16.42099762 -16.23888008 -11.11081269 0 0 Z " fill="#EFCABB" transform="translate(222,317)"/>
<path d="M0 0 C8.02437678 5.4559683 13.22146257 14.43585545 15.6875 23.71484375 C17.04558405 34.36588494 14.1766364 44.22768988 7.6875 52.71484375 C2.3304068 59.29132646 -4.857976 64.14628642 -13.3125 65.71484375 C-25.26968327 66.79345564 -34.72422969 64.71980031 -44.1875 57.15234375 C-50.90459199 50.75278702 -55.35615484 41.49030675 -55.60498047 32.21875 C-55.67405618 24.87313749 -55.40930256 19.06361541 -51.3125 12.71484375 C-50.65894531 11.67263672 -50.65894531 11.67263672 -49.9921875 10.609375 C-38.22735376 -6.52356593 -17.95306182 -9.9772928 0 0 Z " fill="#EAEDEF" transform="translate(128.3125,100.28515625)"/>
<path d="M0 0 C2.99097304 2.54232708 3.84202557 4.1574697 4.5625 8 C3.78698584 12.13607554 2.38677089 13.54999553 -1 16 C-4.95779649 16.62491523 -7.00863886 16.61006839 -10.4375 14.5 C-12.64099302 10.97441116 -12.79669284 8.04985528 -12 4 C-9.20664469 -0.65559218 -5.02394308 -1.18392101 0 0 Z " fill="#282626" transform="translate(66,316)"/>
<path d="M0 0 C0.66 0.33 1.32 0.66 2 1 C1.62746094 1.71285156 1.25492187 2.42570312 0.87109375 3.16015625 C0.39800781 4.11792969 -0.07507813 5.07570313 -0.5625 6.0625 C-1.27599609 7.47208984 -1.27599609 7.47208984 -2.00390625 8.91015625 C-3.65769023 14.0401293 -2.56276696 18.09747186 -0.29296875 22.83203125 C0.40031554 24.16333563 1.10244068 25.49006656 1.8125 26.8125 C2.54304233 28.22648432 3.27092094 29.64184813 3.99609375 31.05859375 C4.34397949 31.73647949 4.69186523 32.41436523 5.05029297 33.11279297 C8.62138132 40.20906879 10.73382409 47.16970164 12 55 C9.67578125 54.5078125 9.67578125 54.5078125 7 53 C5.82481719 50.23877355 4.9716108 47.7454215 4.1875 44.875 C2.00373921 37.53614389 -0.7510193 30.95680395 -4.5480957 24.30419922 C-6.15026619 21.36927372 -7.009902 19.34837033 -6.9140625 15.9765625 C-5.85455601 12.52637469 -4.49829285 9.37941913 -2.9375 6.125 C-2.38964844 4.97257812 -1.84179688 3.82015625 -1.27734375 2.6328125 C-0.85582031 1.76398438 -0.43429687 0.89515625 0 0 Z " fill="#F5C861" transform="translate(453,111)"/>
<path d="M0 0 C1.32 0.33 2.64 0.66 4 1 C4 10.57 4 20.14 4 30 C2.68 30.33 1.36 30.66 0 31 C0 20.77 0 10.54 0 0 Z " fill="#FDCF64" transform="translate(484,175)"/>
<path d="M0 0 C2.16131622 4.29848365 4.22767427 8.63456583 6.25 13 C6.63929688 13.80695313 7.02859375 14.61390625 7.4296875 15.4453125 C7.78804688 16.22648437 8.14640625 17.00765625 8.515625 17.8125 C8.84852539 18.52019531 9.18142578 19.22789062 9.52441406 19.95703125 C10 22 10 22 9.09277344 24.26171875 C8.7321582 24.83535156 8.37154297 25.40898437 8 26 C4.58221066 22.84813252 3.09972651 19.38554185 1.25 15.1875 C0.92128906 14.48818359 0.59257812 13.78886719 0.25390625 13.06835938 C-1.69753568 8.66732262 -2.44021469 5.79826628 -1 1 C-0.67 0.67 -0.34 0.34 0 0 Z " fill="#F6C962" transform="translate(448,253)"/>
<path d="M0 0 C1.65 0 3.3 0 5 0 C6.00605593 2.60197202 7.00502525 5.20629362 8 7.8125 C8.28617187 8.55048828 8.57234375 9.28847656 8.8671875 10.04882812 C9.13789063 10.76103516 9.40859375 11.47324219 9.6875 12.20703125 C10.06455078 13.18893433 10.06455078 13.18893433 10.44921875 14.19067383 C11 16 11 16 11 19 C9.1640625 18.85546875 9.1640625 18.85546875 7 18 C5.5859375 15.48828125 5.5859375 15.48828125 4.375 12.3125 C3.97023438 11.27738281 3.56546875 10.24226563 3.1484375 9.17578125 C2.04783263 6.13227187 1.00540063 3.07615697 0 0 Z " fill="#F5C961" transform="translate(362,55)"/>
<path d="M0 0 C3.88136584 0.55612455 5.62756918 2.27673138 8.328125 5.03515625 C9.52695312 6.24848633 9.52695312 6.24848633 10.75 7.48632812 C11.575 8.33646484 12.4 9.18660156 13.25 10.0625 C14.09046875 10.91650391 14.9309375 11.77050781 15.796875 12.65039062 C17.87147597 14.76035412 19.93875832 16.87699708 22 19 C21.34 20.98 20.68 22.96 20 25 C19.88140625 24.40058594 19.7628125 23.80117187 19.640625 23.18359375 C17.61624434 16.28341821 9.36661662 10.30131093 4.31933594 5.35571289 C2.86224111 3.92118743 1.42879572 2.46271372 0 1 C0 0.67 0 0.34 0 0 Z " fill="#FACD63" transform="translate(436,85)"/>
<path d="M0 0 C0.99 0 1.98 0 3 0 C2.31583566 4.17576168 0.98634991 7.88080407 -0.5625 11.8125 C-1.01753906 12.97394531 -1.47257812 14.13539063 -1.94140625 15.33203125 C-2.29074219 16.21246094 -2.64007813 17.09289062 -3 18 C-3.33 18 -3.66 18 -4 18 C-3.41632611 11.69632197 -1.95928381 6.01339937 0 0 Z " fill="#F1C560" transform="translate(460,222)"/>
</svg>
